<?xml version="1.0" encoding="utf-8" standalone="no"?>
<!DOCTYPE svg PUBLIC "-//W3C//DTD SVG 1.1//EN"
  "http://www.w3.org/Graphics/SVG/1.1/DTD/svg11.dtd">
<svg xmlns:xlink="http://www.w3.org/1999/xlink" width="720pt" height="324pt" viewBox="0 0 720 324" xmlns="http://www.w3.org/2000/svg" version="1.1">
 <metadata>
  <rdf:RDF xmlns:dc="http://purl.org/dc/elements/1.1/" xmlns:cc="http://creativecommons.org/ns#" xmlns:rdf="http://www.w3.org/1999/02/22-rdf-syntax-ns#">
   <cc:Work>
    <dc:type rdf:resource="http://purl.org/dc/dcmitype/StillImage"/>
    <dc:date>2024-08-19T14:49:23.703055</dc:date>
    <dc:format>image/svg+xml</dc:format>
    <dc:creator>
     <cc:Agent>
      <dc:title>Matplotlib v3.8.2, https://matplotlib.org/</dc:title>
     </cc:Agent>
    </dc:creator>
   </cc:Work>
  </rdf:RDF>
 </metadata>
 <defs>
  <style type="text/css">*{stroke-linejoin: round; stroke-linecap: butt}</style>
 </defs>
 <g id="figure_1">
  <g id="patch_1">
   <path d="M 0 324 
L 720 324 
L 720 0 
L 0 0 
z
" style="fill: #ffffff"/>
  </g>
  <g id="axes_1">
   <g id="patch_2">
    <path d="M 54.064673 271.194399 
L 356.346627 271.194399 
L 356.346627 29.420772 
L 54.064673 29.420772 
z
" style="fill: #ffffff"/>
   </g>
   <g id="matplotlib.axis_1">
    <g id="xtick_1">
     <g id="line2d_1">
      <path d="M 70.608862 271.194399 
L 70.608862 29.420772 
" clip-path="url(#pdec4d9da5d)" style="fill: none; stroke: #cccccc; stroke-linecap: round"/>
     </g>
     <g id="text_1">
      <!-- $\mathdefault{−6}$ -->
      <g style="fill: #262626" transform="translate(61.7705 290.380275) scale(0.14 -0.14)">
       <defs>
        <path id="CMSY10-0" d="M 4218 1472 
C 4326 1472 4442 1472 4442 1600 
C 4442 1728 4326 1728 4218 1728 
L 755 1728 
C 646 1728 531 1728 531 1600 
C 531 1472 646 1472 755 1472 
L 4218 1472 
z
" transform="scale(0.015625)"/>
        <path id="CMR17-36" d="M 678 2176 
C 678 3690 1395 4032 1811 4032 
C 1946 4032 2272 4009 2400 3776 
C 2298 3776 2106 3776 2106 3553 
C 2106 3381 2246 3323 2336 3323 
C 2394 3323 2566 3348 2566 3560 
C 2566 3954 2246 4179 1805 4179 
C 1043 4179 243 3390 243 1984 
C 243 253 966 -128 1478 -128 
C 2099 -128 2688 427 2688 1283 
C 2688 2081 2170 2662 1517 2662 
C 1126 2662 838 2407 678 1960 
L 678 2176 
z
M 1478 25 
C 691 25 691 1200 691 1436 
C 691 1896 909 2560 1504 2560 
C 1613 2560 1926 2560 2138 2120 
C 2253 1870 2253 1609 2253 1289 
C 2253 944 2253 690 2118 434 
C 1978 171 1773 25 1478 25 
z
" transform="scale(0.015625)"/>
       </defs>
       <use xlink:href="#CMSY10-0" transform="scale(0.996264)"/>
       <use xlink:href="#CMR17-36" transform="translate(77.487468 0) scale(0.996264)"/>
      </g>
     </g>
    </g>
    <g id="xtick_2">
     <g id="line2d_2">
      <path d="M 115.474458 271.194399 
L 115.474458 29.420772 
" clip-path="url(#pdec4d9da5d)" style="fill: none; stroke: #cccccc; stroke-linecap: round"/>
     </g>
     <g id="text_2">
      <!-- $\mathdefault{−4}$ -->
      <g style="fill: #262626" transform="translate(106.636096 290.380275) scale(0.14 -0.14)">
       <defs>
        <path id="CMR17-34" d="M 2150 4122 
C 2150 4256 2144 4256 2029 4256 
L 128 1254 
L 128 1088 
L 1779 1088 
L 1779 457 
C 1779 224 1766 160 1318 160 
L 1197 160 
L 1197 0 
C 1402 0 1747 0 1965 0 
C 2182 0 2528 0 2733 0 
L 2733 160 
L 2611 160 
C 2163 160 2150 224 2150 457 
L 2150 1088 
L 2803 1088 
L 2803 1254 
L 2150 1254 
L 2150 4122 
z
M 1798 3703 
L 1798 1254 
L 256 1254 
L 1798 3703 
z
" transform="scale(0.015625)"/>
       </defs>
       <use xlink:href="#CMSY10-0" transform="scale(0.996264)"/>
       <use xlink:href="#CMR17-34" transform="translate(77.487468 0) scale(0.996264)"/>
      </g>
     </g>
    </g>
    <g id="xtick_3">
     <g id="line2d_3">
      <path d="M 160.340054 271.194399 
L 160.340054 29.420772 
" clip-path="url(#pdec4d9da5d)" style="fill: none; stroke: #cccccc; stroke-linecap: round"/>
     </g>
     <g id="text_3">
      <!-- $\mathdefault{−2}$ -->
      <g style="fill: #262626" transform="translate(151.501692 290.380275) scale(0.14 -0.14)">
       <defs>
        <path id="CMR17-32" d="M 2669 989 
L 2554 989 
C 2490 536 2438 459 2413 420 
C 2381 369 1920 369 1830 369 
L 602 369 
C 832 619 1280 1072 1824 1597 
C 2214 1967 2669 2402 2669 3035 
C 2669 3790 2067 4224 1395 4224 
C 691 4224 262 3604 262 3030 
C 262 2780 448 2748 525 2748 
C 589 2748 781 2787 781 3010 
C 781 3207 614 3264 525 3264 
C 486 3264 448 3258 422 3245 
C 544 3790 915 4058 1306 4058 
C 1862 4058 2227 3617 2227 3035 
C 2227 2479 1901 2000 1536 1584 
L 262 146 
L 262 0 
L 2515 0 
L 2669 989 
z
" transform="scale(0.015625)"/>
       </defs>
       <use xlink:href="#CMSY10-0" transform="scale(0.996264)"/>
       <use xlink:href="#CMR17-32" transform="translate(77.487468 0) scale(0.996264)"/>
      </g>
     </g>
    </g>
    <g id="xtick_4">
     <g id="line2d_4">
      <path d="M 205.20565 271.194399 
L 205.20565 29.420772 
" clip-path="url(#pdec4d9da5d)" style="fill: none; stroke: #cccccc; stroke-linecap: round"/>
     </g>
     <g id="text_4">
      <!-- $\mathdefault{0}$ -->
      <g style="fill: #262626" transform="translate(201.791406 290.380275) scale(0.14 -0.14)">
       <defs>
        <path id="CMR17-30" d="M 2688 2025 
C 2688 2416 2682 3080 2413 3591 
C 2176 4039 1798 4198 1466 4198 
C 1158 4198 768 4058 525 3597 
C 269 3118 243 2524 243 2025 
C 243 1661 250 1106 448 619 
C 723 -39 1216 -128 1466 -128 
C 1760 -128 2208 -7 2470 600 
C 2662 1042 2688 1559 2688 2025 
z
M 1466 -26 
C 1056 -26 813 325 723 812 
C 653 1188 653 1738 653 2096 
C 653 2588 653 2997 736 3387 
C 858 3929 1216 4096 1466 4096 
C 1728 4096 2067 3923 2189 3400 
C 2272 3036 2278 2607 2278 2096 
C 2278 1680 2278 1169 2202 792 
C 2067 95 1690 -26 1466 -26 
z
" transform="scale(0.015625)"/>
       </defs>
       <use xlink:href="#CMR17-30" transform="scale(0.996264)"/>
      </g>
     </g>
    </g>
    <g id="xtick_5">
     <g id="line2d_5">
      <path d="M 250.071246 271.194399 
L 250.071246 29.420772 
" clip-path="url(#pdec4d9da5d)" style="fill: none; stroke: #cccccc; stroke-linecap: round"/>
     </g>
     <g id="text_5">
      <!-- $\mathdefault{2}$ -->
      <g style="fill: #262626" transform="translate(246.657002 290.380275) scale(0.14 -0.14)">
       <use xlink:href="#CMR17-32" transform="scale(0.996264)"/>
      </g>
     </g>
    </g>
    <g id="xtick_6">
     <g id="line2d_6">
      <path d="M 294.936842 271.194399 
L 294.936842 29.420772 
" clip-path="url(#pdec4d9da5d)" style="fill: none; stroke: #cccccc; stroke-linecap: round"/>
     </g>
     <g id="text_6">
      <!-- $\mathdefault{4}$ -->
      <g style="fill: #262626" transform="translate(291.522598 290.380275) scale(0.14 -0.14)">
       <use xlink:href="#CMR17-34" transform="scale(0.996264)"/>
      </g>
     </g>
    </g>
    <g id="xtick_7">
     <g id="line2d_7">
      <path d="M 339.802438 271.194399 
L 339.802438 29.420772 
" clip-path="url(#pdec4d9da5d)" style="fill: none; stroke: #cccccc; stroke-linecap: round"/>
     </g>
     <g id="text_7">
      <!-- $\mathdefault{6}$ -->
      <g style="fill: #262626" transform="translate(336.388194 290.380275) scale(0.14 -0.14)">
       <use xlink:href="#CMR17-36" transform="scale(0.996264)"/>
      </g>
     </g>
    </g>
    <g id="text_8">
     <!-- $x$ [m] -->
     <g style="fill: #262626" transform="translate(189.565091 307.553076) scale(0.14 -0.14)">
      <defs>
       <path id="CMMI12-78" d="M 3034 2606 
C 2829 2567 2752 2414 2752 2293 
C 2752 2139 2874 2088 2963 2088 
C 3155 2088 3290 2254 3290 2427 
C 3290 2695 2982 2816 2714 2816 
C 2323 2816 2106 2433 2048 2312 
C 1901 2816 1504 2816 1389 2816 
C 736 2816 390 1980 390 1839 
C 390 1814 416 1782 461 1782 
C 512 1782 525 1820 538 1846 
C 755 2555 1184 2689 1370 2689 
C 1658 2689 1715 2420 1715 2267 
C 1715 2127 1677 1980 1600 1673 
L 1382 798 
C 1286 415 1101 64 762 64 
C 730 64 570 64 435 147 
C 666 192 717 383 717 460 
C 717 588 621 664 499 664 
C 346 664 179 530 179 326 
C 179 57 480 -64 755 -64 
C 1062 -64 1280 179 1414 441 
C 1517 64 1837 -64 2074 -64 
C 2726 -64 3072 773 3072 913 
C 3072 945 3046 971 3008 971 
C 2950 971 2944 939 2925 888 
C 2752 326 2381 64 2093 64 
C 1869 64 1747 230 1747 492 
C 1747 632 1773 734 1875 1156 
L 2099 2024 
C 2195 2408 2413 2689 2707 2689 
C 2720 2689 2899 2689 3034 2606 
z
" transform="scale(0.015625)"/>
       <path id="CMR17-5b" d="M 1504 -1600 
L 1504 -1377 
L 902 -1377 
L 902 4544 
L 1504 4544 
L 1504 4767 
L 678 4767 
L 678 -1600 
L 1504 -1600 
z
" transform="scale(0.015625)"/>
       <path id="CMR17-6d" d="M 4326 1933 
C 4326 2252 4269 2790 3507 2790 
C 3072 2790 2771 2496 2656 2151 
L 2650 2151 
C 2573 2676 2195 2790 1837 2790 
C 1331 2790 1069 2400 973 2144 
L 966 2144 
L 966 2790 
L 211 2720 
L 211 2554 
C 589 2554 646 2515 646 2208 
L 646 428 
C 646 184 621 153 211 153 
L 211 -13 
C 365 0 646 0 813 0 
C 979 0 1267 0 1421 -13 
L 1421 153 
C 1011 153 986 178 986 428 
L 986 1658 
C 986 2247 1344 2688 1792 2688 
C 2266 2688 2317 2266 2317 1958 
L 2317 428 
C 2317 184 2291 153 1882 153 
L 1882 -13 
C 2035 0 2317 0 2483 0 
C 2650 0 2938 0 3091 -13 
L 3091 153 
C 2682 153 2656 178 2656 428 
L 2656 1658 
C 2656 2247 3014 2688 3462 2688 
C 3936 2688 3987 2266 3987 1958 
L 3987 428 
C 3987 184 3962 153 3552 153 
L 3552 -13 
C 3706 0 3987 0 4154 0 
C 4320 0 4608 0 4762 -13 
L 4762 153 
C 4352 153 4326 178 4326 428 
L 4326 1933 
z
" transform="scale(0.015625)"/>
       <path id="CMR17-5d" d="M 915 4767 
L 90 4767 
L 90 4544 
L 691 4544 
L 691 -1377 
L 90 -1377 
L 90 -1600 
L 915 -1600 
L 915 4767 
z
" transform="scale(0.015625)"/>
      </defs>
      <use xlink:href="#CMMI12-78" transform="scale(0.996264)"/>
      <use xlink:href="#CMR17-5b" transform="translate(85.510026 0) scale(0.996264)"/>
      <use xlink:href="#CMR17-6d" transform="translate(110.381084 0) scale(0.996264)"/>
      <use xlink:href="#CMR17-5d" transform="translate(187.300674 0) scale(0.996264)"/>
     </g>
    </g>
   </g>
   <g id="matplotlib.axis_2">
    <g id="ytick_1">
     <g id="line2d_8">
      <path d="M 54.064673 260.204689 
L 356.346627 260.204689 
" clip-path="url(#pdec4d9da5d)" style="fill: none; stroke: #cccccc; stroke-linecap: round"/>
     </g>
     <g id="text_9">
      <!-- $\mathdefault{0}$ -->
      <g style="fill: #262626" transform="translate(37.736185 265.047627) scale(0.14 -0.14)">
       <use xlink:href="#CMR17-30" transform="scale(0.996264)"/>
      </g>
     </g>
    </g>
    <g id="ytick_2">
     <g id="line2d_9">
      <path d="M 54.064673 214.234659 
L 356.346627 214.234659 
" clip-path="url(#pdec4d9da5d)" style="fill: none; stroke: #cccccc; stroke-linecap: round"/>
     </g>
     <g id="text_10">
      <!-- $\mathdefault{2}$ -->
      <g style="fill: #262626" transform="translate(37.736185 219.077597) scale(0.14 -0.14)">
       <use xlink:href="#CMR17-32" transform="scale(0.996264)"/>
      </g>
     </g>
    </g>
    <g id="ytick_3">
     <g id="line2d_10">
      <path d="M 54.064673 168.264629 
L 356.346627 168.264629 
" clip-path="url(#pdec4d9da5d)" style="fill: none; stroke: #cccccc; stroke-linecap: round"/>
     </g>
     <g id="text_11">
      <!-- $\mathdefault{4}$ -->
      <g style="fill: #262626" transform="translate(37.736185 173.107567) scale(0.14 -0.14)">
       <use xlink:href="#CMR17-34" transform="scale(0.996264)"/>
      </g>
     </g>
    </g>
    <g id="ytick_4">
     <g id="line2d_11">
      <path d="M 54.064673 122.294598 
L 356.346627 122.294598 
" clip-path="url(#pdec4d9da5d)" style="fill: none; stroke: #cccccc; stroke-linecap: round"/>
     </g>
     <g id="text_12">
      <!-- $\mathdefault{6}$ -->
      <g style="fill: #262626" transform="translate(37.736185 127.137537) scale(0.14 -0.14)">
       <use xlink:href="#CMR17-36" transform="scale(0.996264)"/>
      </g>
     </g>
    </g>
    <g id="ytick_5">
     <g id="line2d_12">
      <path d="M 54.064673 76.324568 
L 356.346627 76.324568 
" clip-path="url(#pdec4d9da5d)" style="fill: none; stroke: #cccccc; stroke-linecap: round"/>
     </g>
     <g id="text_13">
      <!-- $\mathdefault{8}$ -->
      <g style="fill: #262626" transform="translate(37.736185 81.167507) scale(0.14 -0.14)">
       <defs>
        <path id="CMR17-38" d="M 1741 2264 
C 2144 2467 2554 2773 2554 3263 
C 2554 3841 1990 4179 1472 4179 
C 890 4179 378 3759 378 3180 
C 378 3021 416 2747 666 2505 
C 730 2442 998 2251 1171 2130 
C 883 1983 211 1634 211 934 
C 211 279 838 -128 1459 -128 
C 2144 -128 2720 362 2720 1010 
C 2720 1590 2330 1857 2074 2029 
L 1741 2264 
z
M 902 2822 
C 851 2854 595 3051 595 3351 
C 595 3739 998 4032 1459 4032 
C 1965 4032 2336 3676 2336 3262 
C 2336 2669 1670 2331 1638 2331 
C 1632 2331 1626 2331 1574 2370 
L 902 2822 
z
M 2080 1519 
C 2176 1449 2483 1240 2483 851 
C 2483 381 2010 25 1472 25 
C 890 25 448 438 448 940 
C 448 1443 838 1862 1280 2060 
L 2080 1519 
z
" transform="scale(0.015625)"/>
       </defs>
       <use xlink:href="#CMR17-38" transform="scale(0.996264)"/>
      </g>
     </g>
    </g>
    <g id="ytick_6">
     <g id="line2d_13">
      <path d="M 54.064673 30.354538 
L 356.346627 30.354538 
" clip-path="url(#pdec4d9da5d)" style="fill: none; stroke: #cccccc; stroke-linecap: round"/>
     </g>
     <g id="text_14">
      <!-- $\mathdefault{10}$ -->
      <g style="fill: #262626" transform="translate(30.907696 35.197477) scale(0.14 -0.14)">
       <defs>
        <path id="CMR17-31" d="M 1702 4058 
C 1702 4192 1696 4192 1606 4192 
C 1357 3916 979 3827 621 3827 
C 602 3827 570 3827 563 3808 
C 557 3795 557 3782 557 3648 
C 755 3648 1088 3686 1344 3839 
L 1344 461 
C 1344 236 1331 160 781 160 
L 589 160 
L 589 0 
C 896 0 1216 0 1523 0 
C 1830 0 2150 0 2458 0 
L 2458 160 
L 2266 160 
C 1715 160 1702 230 1702 458 
L 1702 4058 
z
" transform="scale(0.015625)"/>
       </defs>
       <use xlink:href="#CMR17-31" transform="scale(0.996264)"/>
       <use xlink:href="#CMR17-30" transform="translate(45.690477 0) scale(0.996264)"/>
      </g>
     </g>
    </g>
    <g id="text_15">
     <!-- $z$ [m] -->
     <g style="fill: #262626" transform="translate(23.420772 165.550618) rotate(-90) scale(0.14 -0.14)">
      <defs>
       <path id="CMMI12-7a" d="M 813 486 
C 1088 803 1312 1004 1632 1296 
C 2016 1632 2182 1793 2272 1891 
C 2720 2338 2944 2713 2944 2764 
C 2944 2816 2893 2816 2880 2816 
C 2835 2816 2822 2793 2790 2750 
C 2630 2494 2477 2367 2310 2367 
C 2176 2367 2106 2421 1984 2565 
C 1850 2715 1741 2816 1555 2816 
C 1088 2816 806 2257 806 2128 
C 806 2108 813 2068 870 2068 
C 922 2068 928 2091 947 2133 
C 1056 2372 1363 2414 1485 2414 
C 1619 2414 1747 2376 1882 2327 
C 2125 2240 2227 2240 2291 2240 
C 2336 2240 2362 2240 2394 2246 
C 2182 1994 1837 1683 1549 1418 
L 902 816 
C 512 415 275 33 275 -12 
C 275 -51 307 -64 346 -64 
C 384 -64 390 -57 435 14 
C 538 163 742 384 979 384 
C 1114 384 1178 342 1306 193 
C 1427 61 1536 -64 1741 -64 
C 2368 -64 2726 732 2726 876 
C 2726 903 2720 942 2656 942 
C 2605 942 2598 917 2579 855 
C 2438 488 2061 338 1811 338 
C 1677 338 1549 376 1414 425 
C 1158 512 1088 512 1005 512 
C 941 512 870 512 813 486 
z
" transform="scale(0.015625)"/>
      </defs>
      <use xlink:href="#CMMI12-7a" transform="scale(0.996264)"/>
      <use xlink:href="#CMR17-5b" transform="translate(79.831111 0) scale(0.996264)"/>
      <use xlink:href="#CMR17-6d" transform="translate(104.70217 0) scale(0.996264)"/>
      <use xlink:href="#CMR17-5d" transform="translate(181.62176 0) scale(0.996264)"/>
     </g>
    </g>
   </g>
   <g id="line2d_14">
    <path d="M 67.804762 260.204689 
L 207.07659 44.494309 
" clip-path="url(#pdec4d9da5d)" style="fill: none; stroke: #008000; stroke-width: 0.75; stroke-linecap: round"/>
   </g>
   <g id="line2d_15">
    <path d="M 342.606538 260.204689 
L 203.33471 44.494309 
" clip-path="url(#pdec4d9da5d)" style="fill: none; stroke: #008000; stroke-width: 0.75; stroke-linecap: round"/>
   </g>
   <g id="line2d_16">
    <path d="M 336.998338 260.197433 
L 342.606538 260.197433 
L 342.606538 260.197433 
" clip-path="url(#pdec4d9da5d)" style="fill: none; stroke: #000000; stroke-width: 1.5; stroke-linecap: round"/>
   </g>
   <g id="line2d_17">
    <path d="M 325.781939 260.197433 
L 331.390139 260.197433 
L 331.390139 260.197433 
" clip-path="url(#pdec4d9da5d)" style="fill: none; stroke: #000000; stroke-width: 1.5; stroke-linecap: round"/>
   </g>
   <g id="line2d_18">
    <path d="M 314.56554 260.197433 
L 320.17374 260.197433 
L 320.17374 260.197433 
" clip-path="url(#pdec4d9da5d)" style="fill: none; stroke: #000000; stroke-width: 1.5; stroke-linecap: round"/>
   </g>
   <g id="line2d_19">
    <path d="M 303.349141 260.197433 
L 308.957341 260.197433 
L 308.957341 260.197433 
" clip-path="url(#pdec4d9da5d)" style="fill: none; stroke: #000000; stroke-width: 1.5; stroke-linecap: round"/>
   </g>
   <g id="line2d_20">
    <path d="M 292.132742 260.197433 
L 297.740942 260.197433 
L 297.740942 260.197433 
" clip-path="url(#pdec4d9da5d)" style="fill: none; stroke: #000000; stroke-width: 1.5; stroke-linecap: round"/>
   </g>
   <g id="line2d_21">
    <path d="M 280.916343 260.197433 
L 286.524543 260.197433 
L 286.524543 260.197433 
" clip-path="url(#pdec4d9da5d)" style="fill: none; stroke: #000000; stroke-width: 1.5; stroke-linecap: round"/>
   </g>
   <g id="line2d_22">
    <path d="M 269.699944 260.197433 
L 275.308144 260.197433 
L 275.308144 260.197433 
" clip-path="url(#pdec4d9da5d)" style="fill: none; stroke: #000000; stroke-width: 1.5; stroke-linecap: round"/>
   </g>
   <g id="line2d_23">
    <path d="M 258.483545 260.197433 
L 264.091745 260.197433 
L 264.091745 260.197433 
" clip-path="url(#pdec4d9da5d)" style="fill: none; stroke: #000000; stroke-width: 1.5; stroke-linecap: round"/>
   </g>
   <g id="line2d_24">
    <path d="M 247.267146 260.197433 
L 252.875346 260.197433 
L 252.875346 260.197433 
" clip-path="url(#pdec4d9da5d)" style="fill: none; stroke: #000000; stroke-width: 1.5; stroke-linecap: round"/>
   </g>
   <g id="line2d_25">
    <path d="M 236.050747 260.197433 
L 241.658947 260.197433 
L 241.658947 260.197433 
" clip-path="url(#pdec4d9da5d)" style="fill: none; stroke: #000000; stroke-width: 1.5; stroke-linecap: round"/>
   </g>
   <g id="line2d_26">
    <path d="M 224.834348 260.197433 
L 230.442548 260.197433 
L 230.442548 260.197433 
" clip-path="url(#pdec4d9da5d)" style="fill: none; stroke: #000000; stroke-width: 1.5; stroke-linecap: round"/>
   </g>
   <g id="line2d_27">
    <path d="M 213.617949 260.197433 
L 219.226149 260.197433 
L 219.226149 260.197433 
" clip-path="url(#pdec4d9da5d)" style="fill: none; stroke: #000000; stroke-width: 1.5; stroke-linecap: round"/>
   </g>
   <g id="line2d_28">
    <path d="M 202.40155 260.197433 
L 208.00975 260.197433 
L 208.00975 260.197433 
" clip-path="url(#pdec4d9da5d)" style="fill: none; stroke: #000000; stroke-width: 1.5; stroke-linecap: round"/>
   </g>
   <g id="line2d_29">
    <path d="M 191.185151 260.197433 
L 196.793351 260.197433 
L 196.793351 260.197433 
" clip-path="url(#pdec4d9da5d)" style="fill: none; stroke: #000000; stroke-width: 1.5; stroke-linecap: round"/>
   </g>
   <g id="line2d_30">
    <path d="M 179.968752 260.197433 
L 185.576952 260.197433 
L 185.576952 260.197433 
" clip-path="url(#pdec4d9da5d)" style="fill: none; stroke: #000000; stroke-width: 1.5; stroke-linecap: round"/>
   </g>
   <g id="line2d_31">
    <path d="M 168.752353 260.197433 
L 174.360553 260.197433 
L 174.360553 260.197433 
" clip-path="url(#pdec4d9da5d)" style="fill: none; stroke: #000000; stroke-width: 1.5; stroke-linecap: round"/>
   </g>
   <g id="line2d_32">
    <path d="M 157.535954 260.197433 
L 163.144154 260.197433 
L 163.144154 260.197433 
" clip-path="url(#pdec4d9da5d)" style="fill: none; stroke: #000000; stroke-width: 1.5; stroke-linecap: round"/>
   </g>
   <g id="line2d_33">
    <path d="M 146.319555 260.197433 
L 151.927755 260.197433 
L 151.927755 260.197433 
" clip-path="url(#pdec4d9da5d)" style="fill: none; stroke: #000000; stroke-width: 1.5; stroke-linecap: round"/>
   </g>
   <g id="line2d_34">
    <path d="M 135.103156 260.197433 
L 140.711356 260.197433 
L 140.711356 260.197433 
" clip-path="url(#pdec4d9da5d)" style="fill: none; stroke: #000000; stroke-width: 1.5; stroke-linecap: round"/>
   </g>
   <g id="line2d_35">
    <path d="M 123.886757 260.197433 
L 129.494957 260.197433 
L 129.494957 260.197433 
" clip-path="url(#pdec4d9da5d)" style="fill: none; stroke: #000000; stroke-width: 1.5; stroke-linecap: round"/>
   </g>
   <g id="line2d_36">
    <path d="M 112.670358 260.197433 
L 118.278558 260.197433 
L 118.278558 260.197433 
" clip-path="url(#pdec4d9da5d)" style="fill: none; stroke: #000000; stroke-width: 1.5; stroke-linecap: round"/>
   </g>
   <g id="line2d_37">
    <path d="M 101.453959 260.197433 
L 107.062159 260.197433 
L 107.062159 260.197433 
" clip-path="url(#pdec4d9da5d)" style="fill: none; stroke: #000000; stroke-width: 1.5; stroke-linecap: round"/>
   </g>
   <g id="line2d_38">
    <path d="M 90.23756 260.197433 
L 95.84576 260.197433 
L 95.84576 260.197433 
" clip-path="url(#pdec4d9da5d)" style="fill: none; stroke: #000000; stroke-width: 1.5; stroke-linecap: round"/>
   </g>
   <g id="line2d_39">
    <path d="M 79.021161 260.197433 
L 84.629361 260.197433 
L 84.629361 260.197433 
" clip-path="url(#pdec4d9da5d)" style="fill: none; stroke: #000000; stroke-width: 1.5; stroke-linecap: round"/>
   </g>
   <g id="line2d_40">
    <path d="M 67.804762 260.197433 
L 73.412962 260.197433 
L 73.412962 260.197433 
" clip-path="url(#pdec4d9da5d)" style="fill: none; stroke: #000000; stroke-width: 1.5; stroke-linecap: round"/>
   </g>
   <g id="line2d_41">
    <path d="M 207.44893 43.226147 
L 207.445856 43.105852 
L 207.436641 42.985888 
L 207.421311 42.866582 
L 207.399909 42.748261 
L 207.372492 42.631251 
L 207.339136 42.515871 
L 207.299932 42.402437 
L 207.254988 42.291262 
L 207.204427 42.182649 
L 207.148387 42.076896 
L 207.087023 41.974293 
L 207.020502 41.875121 
L 206.949006 41.779653 
L 206.872732 41.688149 
L 206.791888 41.600861 
L 206.706697 41.518027 
L 206.617392 41.439876 
L 206.524217 41.36662 
L 206.427428 41.298461 
L 206.32729 41.235586 
L 206.224078 41.178167 
L 206.118074 41.126361 
L 206.00957 41.080311 
L 205.898862 41.040142 
L 205.786254 41.005965 
L 205.672054 40.977873 
L 205.556576 40.955944 
L 205.440137 40.940237 
L 205.323054 40.930795 
L 205.20565 40.927645 
L 205.088246 40.930795 
L 204.971163 40.940237 
L 204.854724 40.955944 
L 204.739246 40.977873 
L 204.625047 41.005965 
L 204.512438 41.040142 
L 204.40173 41.080311 
L 204.293226 41.126361 
L 204.187222 41.178167 
L 204.08401 41.235586 
L 203.983872 41.298461 
L 203.887083 41.36662 
L 203.793908 41.439876 
L 203.704603 41.518027 
L 203.619412 41.600861 
L 203.538568 41.688149 
L 203.462294 41.779653 
L 203.390799 41.875121 
L 203.324277 41.974293 
L 203.262913 42.076896 
L 203.206873 42.182649 
L 203.156312 42.291262 
L 203.111368 42.402437 
L 203.072164 42.515871 
L 203.038808 42.631251 
L 203.011391 42.748261 
L 202.989989 42.866582 
L 202.974659 42.985888 
L 202.965445 43.105852 
L 202.96237 43.226147 
L 202.965445 43.346441 
L 202.974659 43.466406 
L 202.989989 43.585712 
L 203.011391 43.704032 
L 203.038808 43.821043 
L 203.072164 43.936423 
L 203.111368 44.049856 
L 203.156312 44.161032 
L 203.206873 44.269645 
L 203.262913 44.375398 
L 203.324277 44.478 
L 203.390799 44.577172 
L 203.462294 44.672641 
L 203.538568 44.764144 
L 203.619412 44.851433 
L 203.704603 44.934266 
L 203.793908 45.012418 
L 203.887083 45.085674 
L 203.983872 45.153832 
L 204.08401 45.216707 
L 204.187222 45.274127 
L 204.293226 45.325932 
L 204.40173 45.371983 
L 204.512438 45.412152 
L 204.625047 45.446329 
L 204.739246 45.47442 
L 204.854724 45.49635 
L 204.971163 45.512057 
L 205.088246 45.521498 
L 205.20565 45.524648 
L 205.323054 45.521498 
L 205.440137 45.512057 
L 205.556576 45.49635 
L 205.672054 45.47442 
L 205.786254 45.446329 
L 205.898862 45.412152 
L 206.00957 45.371983 
L 206.118074 45.325932 
L 206.224078 45.274127 
L 206.32729 45.216707 
L 206.427428 45.153832 
L 206.524217 45.085674 
L 206.617392 45.012418 
L 206.706697 44.934266 
L 206.791888 44.851433 
L 206.872732 44.764144 
L 206.949006 44.672641 
L 207.020502 44.577172 
L 207.087023 44.478 
L 207.148387 44.375398 
L 207.204427 44.269645 
L 207.254988 44.161032 
L 207.299932 44.049856 
L 207.339136 43.936423 
L 207.372492 43.821043 
L 207.399909 43.704032 
L 207.421311 43.585712 
L 207.436641 43.466406 
L 207.445856 43.346441 
L 207.44893 43.226147 
" clip-path="url(#pdec4d9da5d)" style="fill: none; stroke: #ff0000; stroke-linecap: round"/>
   </g>
   <g id="line2d_42">
    <path d="M 207.953668 43.226147 
L 207.949902 43.078786 
L 207.938614 42.93183 
L 207.919835 42.78568 
L 207.893617 42.640737 
L 207.860031 42.497399 
L 207.81917 42.356059 
L 207.771146 42.217103 
L 207.716089 42.080913 
L 207.654152 41.947862 
L 207.585503 41.818315 
L 207.510332 41.692626 
L 207.428843 41.571141 
L 207.341261 41.454192 
L 207.247825 41.3421 
L 207.148792 41.235171 
L 207.044433 41.1337 
L 206.935034 41.037965 
L 206.820894 40.948226 
L 206.702328 40.864732 
L 206.579659 40.78771 
L 206.453224 40.717371 
L 206.32337 40.653909 
L 206.190452 40.597498 
L 206.054834 40.548291 
L 205.916889 40.506424 
L 205.776995 40.472011 
L 205.635535 40.445148 
L 205.492896 40.425907 
L 205.34947 40.414341 
L 205.20565 40.410482 
L 205.06183 40.414341 
L 204.918404 40.425907 
L 204.775765 40.445148 
L 204.634305 40.472011 
L 204.494411 40.506424 
L 204.356466 40.548291 
L 204.220849 40.597498 
L 204.087931 40.653909 
L 203.958076 40.717371 
L 203.831641 40.78771 
L 203.708972 40.864732 
L 203.590406 40.948226 
L 203.476266 41.037965 
L 203.366867 41.1337 
L 203.262508 41.235171 
L 203.163475 41.3421 
L 203.070039 41.454192 
L 202.982457 41.571141 
L 202.900968 41.692626 
L 202.825797 41.818315 
L 202.757148 41.947862 
L 202.695211 42.080913 
L 202.640154 42.217103 
L 202.59213 42.356059 
L 202.551269 42.497399 
L 202.517683 42.640737 
L 202.491465 42.78568 
L 202.472686 42.93183 
L 202.461398 43.078786 
L 202.457632 43.226147 
L 202.461398 43.373507 
L 202.472686 43.520464 
L 202.491465 43.666614 
L 202.517683 43.811556 
L 202.551269 43.954894 
L 202.59213 44.096235 
L 202.640154 44.235191 
L 202.695211 44.371381 
L 202.757148 44.504432 
L 202.825797 44.633979 
L 202.900968 44.759667 
L 202.982457 44.881153 
L 203.070039 44.998102 
L 203.163475 45.110194 
L 203.262508 45.217122 
L 203.366867 45.318593 
L 203.476266 45.414329 
L 203.590406 45.504067 
L 203.708972 45.587562 
L 203.831641 45.664584 
L 203.958076 45.734922 
L 204.087931 45.798384 
L 204.220849 45.854796 
L 204.356466 45.904003 
L 204.494411 45.94587 
L 204.634305 45.980282 
L 204.775765 46.007146 
L 204.918404 46.026387 
L 205.06183 46.037952 
L 205.20565 46.041811 
L 205.34947 46.037952 
L 205.492896 46.026387 
L 205.635535 46.007146 
L 205.776995 45.980282 
L 205.916889 45.94587 
L 206.054834 45.904003 
L 206.190452 45.854796 
L 206.32337 45.798384 
L 206.453224 45.734922 
L 206.579659 45.664584 
L 206.702328 45.587562 
L 206.820894 45.504067 
L 206.935034 45.414329 
L 207.044433 45.318593 
L 207.148792 45.217122 
L 207.247825 45.110194 
L 207.341261 44.998102 
L 207.428843 44.881153 
L 207.510332 44.759667 
L 207.585503 44.633979 
L 207.654152 44.504432 
L 207.716089 44.371381 
L 207.771146 44.235191 
L 207.81917 44.096235 
L 207.860031 43.954894 
L 207.893617 43.811556 
L 207.919835 43.666614 
L 207.938614 43.520464 
L 207.949902 43.373507 
L 207.953668 43.226147 
" clip-path="url(#pdec4d9da5d)" style="fill: none; stroke-dasharray: 1.85,0.8; stroke-dashoffset: 0; stroke: #0000ff; stroke-width: 0.5"/>
   </g>
   <g id="line2d_43">
    <path d="M 207.886369 43.226147 
L 207.882696 43.082395 
L 207.871684 42.939037 
L 207.853365 42.796467 
L 207.827789 42.655074 
L 207.795026 42.515246 
L 207.755166 42.377367 
L 207.708317 42.241814 
L 207.654609 42.108959 
L 207.594189 41.979167 
L 207.527221 41.852792 
L 207.45389 41.730182 
L 207.374398 41.611672 
L 207.28896 41.497587 
L 207.197813 41.38824 
L 207.101205 41.28393 
L 206.999401 41.184944 
L 206.892681 41.091553 
L 206.781337 41.004012 
L 206.665674 40.922563 
L 206.54601 40.847427 
L 206.422671 40.778811 
L 206.295997 40.716903 
L 206.166334 40.661873 
L 206.034038 40.613871 
L 205.899471 40.573029 
L 205.763003 40.53946 
L 205.625007 40.513254 
L 205.485862 40.494484 
L 205.345948 40.483202 
L 205.20565 40.479437 
L 205.065352 40.483202 
L 204.925439 40.494484 
L 204.786293 40.513254 
L 204.648297 40.53946 
L 204.511829 40.573029 
L 204.377262 40.613871 
L 204.244966 40.661873 
L 204.115303 40.716903 
L 203.988629 40.778811 
L 203.86529 40.847427 
L 203.745626 40.922563 
L 203.629963 41.004012 
L 203.518619 41.091553 
L 203.411899 41.184944 
L 203.310095 41.28393 
L 203.213487 41.38824 
L 203.12234 41.497587 
L 203.036903 41.611672 
L 202.95741 41.730182 
L 202.884079 41.852792 
L 202.817112 41.979167 
L 202.756691 42.108959 
L 202.702983 42.241814 
L 202.656134 42.377367 
L 202.616274 42.515246 
L 202.583511 42.655074 
L 202.557935 42.796467 
L 202.539616 42.939037 
L 202.528605 43.082395 
L 202.524931 43.226147 
L 202.528605 43.369898 
L 202.539616 43.513256 
L 202.557935 43.655827 
L 202.583511 43.79722 
L 202.616274 43.937047 
L 202.656134 44.074927 
L 202.702983 44.210479 
L 202.756691 44.343334 
L 202.817112 44.473127 
L 202.884079 44.599501 
L 202.95741 44.722112 
L 203.036903 44.840622 
L 203.12234 44.954707 
L 203.213487 45.064054 
L 203.310095 45.168364 
L 203.411899 45.26735 
L 203.518619 45.360741 
L 203.629963 45.448281 
L 203.745626 45.529731 
L 203.86529 45.604867 
L 203.988629 45.673483 
L 204.115303 45.735391 
L 204.244966 45.790421 
L 204.377262 45.838423 
L 204.511829 45.879264 
L 204.648297 45.912834 
L 204.786293 45.93904 
L 204.925439 45.957809 
L 205.065352 45.969092 
L 205.20565 45.972856 
L 205.345948 45.969092 
L 205.485862 45.957809 
L 205.625007 45.93904 
L 205.763003 45.912834 
L 205.899471 45.879264 
L 206.034038 45.838423 
L 206.166334 45.790421 
L 206.295997 45.735391 
L 206.422671 45.673483 
L 206.54601 45.604867 
L 206.665674 45.529731 
L 206.781337 45.448281 
L 206.892681 45.360741 
L 206.999401 45.26735 
L 207.101205 45.168364 
L 207.197813 45.064054 
L 207.28896 44.954707 
L 207.374398 44.840622 
L 207.45389 44.722112 
L 207.527221 44.599501 
L 207.594189 44.473127 
L 207.654609 44.343334 
L 207.708317 44.210479 
L 207.755166 44.074927 
L 207.795026 43.937047 
L 207.827789 43.79722 
L 207.853365 43.655827 
L 207.871684 43.513256 
L 207.882696 43.369898 
L 207.886369 43.226147 
" clip-path="url(#pdec4d9da5d)" style="fill: none; stroke-dasharray: 1.85,0.8; stroke-dashoffset: 0; stroke: #0000ff; stroke-width: 0.5"/>
   </g>
   <g id="patch_3">
    <path d="M 54.064673 271.194399 
L 54.064673 29.420772 
" style="fill: none; stroke: #cccccc; stroke-width: 1.25; stroke-linejoin: miter; stroke-linecap: square"/>
   </g>
   <g id="patch_4">
    <path d="M 356.346627 271.194399 
L 356.346627 29.420772 
" style="fill: none; stroke: #cccccc; stroke-width: 1.25; stroke-linejoin: miter; stroke-linecap: square"/>
   </g>
   <g id="patch_5">
    <path d="M 54.064673 271.194399 
L 356.346627 271.194399 
" style="fill: none; stroke: #cccccc; stroke-width: 1.25; stroke-linejoin: miter; stroke-linecap: square"/>
   </g>
   <g id="patch_6">
    <path d="M 54.064673 29.420772 
L 356.346627 29.420772 
" style="fill: none; stroke: #cccccc; stroke-width: 1.25; stroke-linejoin: miter; stroke-linecap: square"/>
   </g>
   <g id="text_16">
    <!-- (a) LFC general view -->
    <g style="fill: #262626" transform="translate(141.475499 23.420772) scale(0.14 -0.14)">
     <defs>
      <path id="CMR17-28" d="M 1958 -1561 
C 1958 -1555 1958 -1542 1939 -1523 
C 1645 -1224 858 -407 858 1581 
C 858 3569 1632 4379 1946 4697 
C 1946 4704 1958 4717 1958 4736 
C 1958 4755 1939 4768 1914 4768 
C 1843 4768 1299 4296 986 3594 
C 666 2887 576 2199 576 1588 
C 576 1128 621 351 1005 -471 
C 1312 -1135 1837 -1600 1914 -1600 
C 1946 -1600 1958 -1587 1958 -1561 
z
" transform="scale(0.015625)"/>
      <path id="CMR17-61" d="M 2304 1653 
C 2304 2072 2304 2294 2035 2543 
C 1798 2752 1523 2816 1306 2816 
C 800 2816 435 2407 435 1971 
C 435 1728 627 1728 666 1728 
C 749 1728 896 1778 896 1954 
C 896 2112 774 2181 666 2181 
C 640 2181 608 2174 589 2168 
C 723 2592 1069 2714 1293 2714 
C 1613 2714 1965 2429 1965 1885 
L 1965 1600 
C 1587 1600 1133 1549 774 1357 
C 371 1133 256 813 256 570 
C 256 77 832 -64 1171 -64 
C 1523 -64 1850 139 1990 511 
C 2003 233 2182 -18 2464 -18 
C 2598 -18 2938 70 2938 567 
L 2938 920 
L 2822 920 
L 2822 562 
C 2822 178 2650 128 2566 128 
C 2304 128 2304 458 2304 738 
L 2304 1653 
z
M 1965 870 
C 1965 317 1568 38 1216 38 
C 896 38 646 275 646 570 
C 646 761 730 1100 1101 1305 
C 1408 1478 1760 1504 1965 1504 
L 1965 870 
z
" transform="scale(0.015625)"/>
      <path id="CMR17-29" d="M 1683 1581 
C 1683 2040 1638 2817 1254 3639 
C 947 4303 422 4768 346 4768 
C 326 4768 301 4761 301 4729 
C 301 4717 307 4710 314 4697 
C 621 4378 1402 3568 1402 1584 
C 1402 -407 627 -1217 314 -1537 
C 307 -1549 301 -1556 301 -1568 
C 301 -1600 326 -1600 346 -1600 
C 416 -1600 960 -1128 1274 -426 
C 1594 281 1683 969 1683 1581 
z
" transform="scale(0.015625)"/>
      <path id="CMR17-4c" d="M 3469 1615 
L 3354 1615 
C 3302 983 3219 166 2125 166 
L 1530 166 
C 1274 166 1261 197 1261 414 
L 1261 3898 
C 1261 4129 1274 4192 1760 4192 
L 1901 4192 
L 1901 4352 
C 1638 4352 1331 4352 1069 4352 
C 870 4352 512 4352 326 4352 
L 326 4192 
C 768 4192 838 4192 838 3905 
L 838 452 
C 838 166 768 166 326 166 
L 326 0 
L 3315 0 
L 3469 1615 
z
" transform="scale(0.015625)"/>
      <path id="CMR17-46" d="M 3482 4325 
L 326 4325 
L 326 4160 
C 768 4160 838 4160 838 3874 
L 838 446 
C 838 160 768 160 326 160 
L 326 0 
C 512 0 870 0 1069 0 
C 1331 0 1638 0 1901 0 
L 1901 160 
L 1760 160 
C 1274 160 1261 223 1261 452 
L 1261 2075 
L 1837 2075 
C 2432 2075 2490 1865 2490 1332 
L 2605 1332 
L 2605 2987 
L 2490 2987 
C 2490 2450 2432 2240 1837 2240 
L 1261 2240 
L 1261 3911 
C 1261 4128 1274 4160 1530 4160 
L 2355 4160 
C 3322 4160 3430 3765 3520 2916 
L 3635 2916 
L 3482 4325 
z
" transform="scale(0.015625)"/>
      <path id="CMR17-43" d="M 3974 4289 
C 3974 4403 3968 4410 3930 4410 
C 3904 4410 3898 4403 3853 4327 
L 3571 3792 
C 3258 4187 2874 4416 2381 4416 
C 1286 4416 294 3456 294 2148 
C 294 826 1286 -128 2387 -128 
C 3366 -128 3974 730 3974 1461 
C 3974 1524 3974 1550 3917 1550 
C 3866 1550 3866 1531 3859 1474 
C 3808 585 3168 38 2477 38 
C 1824 38 781 495 781 2147 
C 781 3805 1843 4250 2464 4250 
C 3187 4250 3712 3628 3834 2745 
C 3846 2668 3846 2655 3904 2655 
C 3974 2655 3974 2668 3974 2783 
L 3974 4289 
z
" transform="scale(0.015625)"/>
      <path id="CMR17-67" d="M 710 1164 
C 832 1068 1043 960 1299 960 
C 1805 960 2240 1357 2240 1888 
C 2240 2054 2189 2310 1997 2509 
C 2176 2692 2438 2752 2586 2752 
C 2611 2752 2650 2752 2682 2734 
C 2656 2728 2598 2703 2598 2605 
C 2598 2527 2656 2471 2739 2471 
C 2835 2471 2886 2533 2886 2614 
C 2886 2731 2790 2854 2586 2854 
C 2330 2854 2106 2738 1926 2580 
C 1734 2753 1504 2816 1299 2816 
C 794 2816 358 2419 358 1888 
C 358 1522 570 1292 634 1228 
C 442 1004 442 743 442 711 
C 442 545 506 302 723 168 
C 390 85 128 -169 128 -486 
C 128 -943 736 -1280 1466 -1280 
C 2170 -1280 2803 -956 2803 -479 
C 2803 384 1856 384 1363 384 
C 1216 384 954 384 922 391 
C 723 423 589 602 589 826 
C 589 883 589 1024 710 1164 
z
M 1299 1068 
C 736 1068 736 1760 736 1889 
C 736 2016 736 2708 1299 2708 
C 1862 2708 1862 2016 1862 1889 
C 1862 1760 1862 1068 1299 1068 
z
M 1466 -1171 
C 826 -1171 384 -835 384 -486 
C 384 -289 493 -105 634 -4 
C 794 104 858 104 1293 104 
C 1818 104 2547 104 2547 -486 
C 2547 -835 2106 -1171 1466 -1171 
z
" transform="scale(0.015625)"/>
      <path id="CMR17-65" d="M 2438 1472 
C 2464 1498 2464 1511 2464 1576 
C 2464 2238 2118 2816 1389 2816 
C 710 2816 173 2169 173 1383 
C 173 551 781 -64 1459 -64 
C 2176 -64 2458 607 2458 740 
C 2458 784 2419 784 2406 784 
C 2362 784 2355 771 2330 696 
C 2189 265 1837 51 1504 51 
C 1229 51 954 203 781 480 
C 582 803 582 1176 582 1472 
L 2438 1472 
z
M 589 1568 
C 634 2505 1126 2714 1382 2714 
C 1818 2714 2112 2297 2118 1568 
L 589 1568 
z
" transform="scale(0.015625)"/>
      <path id="CMR17-6e" d="M 2656 1933 
C 2656 2259 2592 2790 1837 2790 
C 1331 2790 1069 2400 973 2144 
L 966 2144 
L 966 2790 
L 211 2720 
L 211 2554 
C 589 2554 646 2515 646 2208 
L 646 428 
C 646 184 621 153 211 153 
L 211 -13 
C 365 0 646 0 813 0 
C 979 0 1267 0 1421 -13 
L 1421 153 
C 1011 153 986 178 986 428 
L 986 1658 
C 986 2247 1344 2688 1792 2688 
C 2266 2688 2317 2266 2317 1958 
L 2317 428 
C 2317 184 2291 153 1882 153 
L 1882 -13 
C 2035 0 2317 0 2483 0 
C 2650 0 2938 0 3091 -13 
L 3091 153 
C 2682 153 2656 178 2656 428 
L 2656 1933 
z
" transform="scale(0.015625)"/>
      <path id="CMR17-72" d="M 960 1497 
C 960 2112 1222 2688 1702 2688 
C 1747 2688 1792 2682 1837 2662 
C 1837 2662 1696 2617 1696 2452 
C 1696 2298 1818 2234 1914 2234 
C 1990 2234 2131 2279 2131 2458 
C 2131 2663 1926 2790 1709 2790 
C 1222 2790 1011 2317 947 2093 
L 941 2093 
L 941 2790 
L 198 2720 
L 198 2554 
C 576 2554 634 2515 634 2208 
L 634 428 
C 634 184 608 153 198 153 
L 198 -13 
C 352 0 646 0 813 0 
C 998 0 1325 0 1498 -13 
L 1498 153 
C 1037 153 960 153 960 440 
L 960 1497 
z
" transform="scale(0.015625)"/>
      <path id="CMR17-6c" d="M 979 4396 
L 218 4326 
L 218 4160 
C 595 4160 653 4122 653 3817 
L 653 426 
C 653 184 627 153 218 153 
L 218 -13 
C 371 0 653 0 813 0 
C 979 0 1261 0 1414 -13 
L 1414 153 
C 1005 153 979 178 979 426 
L 979 4396 
z
" transform="scale(0.015625)"/>
      <path id="CMR17-76" d="M 2502 2163 
C 2560 2304 2662 2560 3034 2560 
L 3034 2726 
C 2912 2726 2752 2726 2630 2726 
C 2496 2726 2285 2726 2157 2732 
L 2157 2566 
C 2317 2553 2406 2477 2406 2311 
C 2406 2253 2406 2240 2368 2151 
L 1664 377 
L 902 2286 
C 864 2369 864 2381 864 2407 
C 864 2560 1075 2560 1171 2560 
L 1171 2732 
C 1018 2726 736 2726 576 2726 
C 403 2726 205 2726 64 2732 
L 64 2560 
C 307 2560 442 2560 518 2362 
L 1446 44 
C 1485 -51 1491 -64 1549 -64 
C 1606 -64 1613 -51 1651 44 
L 2502 2163 
z
" transform="scale(0.015625)"/>
      <path id="CMR17-69" d="M 992 3909 
C 992 4049 877 4170 730 4170 
C 589 4170 467 4056 467 3909 
C 467 3769 582 3648 730 3648 
C 870 3648 992 3763 992 3909 
z
M 243 2706 
L 243 2541 
C 602 2541 653 2502 653 2197 
L 653 427 
C 653 184 627 153 218 153 
L 218 -13 
C 371 0 646 0 806 0 
C 960 0 1222 0 1370 -13 
L 1370 153 
C 992 153 979 191 979 420 
L 979 2776 
L 243 2706 
z
" transform="scale(0.015625)"/>
      <path id="CMR17-77" d="M 3725 2183 
C 3853 2560 4109 2560 4205 2560 
L 4205 2732 
C 4077 2732 3949 2732 3821 2732 
C 3699 2732 3424 2732 3315 2738 
L 3315 2560 
C 3514 2560 3622 2445 3622 2286 
C 3622 2241 3610 2184 3597 2140 
L 2995 407 
L 2342 2275 
C 2330 2319 2310 2370 2310 2395 
C 2310 2560 2528 2560 2630 2560 
L 2630 2738 
C 2483 2732 2214 2732 2061 2732 
C 1901 2732 1734 2732 1587 2738 
L 1587 2560 
C 1939 2560 1939 2547 2074 2149 
L 1485 451 
L 851 2281 
C 819 2363 819 2376 819 2395 
C 819 2560 1037 2560 1139 2560 
L 1139 2738 
C 986 2732 717 2732 557 2732 
C 416 2732 198 2732 64 2738 
L 64 2560 
C 346 2560 416 2541 486 2331 
L 1274 49 
C 1299 -33 1318 -52 1370 -52 
C 1414 -52 1440 -39 1472 56 
L 2131 1980 
L 2797 56 
C 2829 -39 2854 -52 2899 -52 
C 2950 -52 2970 -33 2995 50 
L 3725 2183 
z
" transform="scale(0.015625)"/>
     </defs>
     <use xlink:href="#CMR17-28" transform="scale(0.996264)"/>
     <use xlink:href="#CMR17-61" transform="translate(35.280768 0) scale(0.996264)"/>
     <use xlink:href="#CMR17-29" transform="translate(80.971245 0) scale(0.996264)"/>
     <use xlink:href="#CMR17-4c" transform="translate(146.327979 0) scale(0.996264)"/>
     <use xlink:href="#CMR17-46" transform="translate(203.709387 0) scale(0.996264)"/>
     <use xlink:href="#CMR17-43" transform="translate(261.09078 0) scale(0.996264)"/>
     <use xlink:href="#CMR17-67" transform="translate(357.676626 0) scale(0.996264)"/>
     <use xlink:href="#CMR17-65" transform="translate(403.367104 0) scale(0.996264)"/>
     <use xlink:href="#CMR17-6e" transform="translate(443.852764 0) scale(0.996264)"/>
     <use xlink:href="#CMR17-65" transform="translate(494.748134 0) scale(0.996264)"/>
     <use xlink:href="#CMR17-72" transform="translate(535.233794 0) scale(0.996264)"/>
     <use xlink:href="#CMR17-61" transform="translate(570.514562 0) scale(0.996264)"/>
     <use xlink:href="#CMR17-6c" transform="translate(616.205039 0) scale(0.996264)"/>
     <use xlink:href="#CMR17-76" transform="translate(671.152064 0) scale(0.996264)"/>
     <use xlink:href="#CMR17-69" transform="translate(719.44498 0) scale(0.996264)"/>
     <use xlink:href="#CMR17-65" transform="translate(744.316038 0) scale(0.996264)"/>
     <use xlink:href="#CMR17-77" transform="translate(784.801699 0) scale(0.996264)"/>
    </g>
   </g>
   <g id="legend_1">
    <g id="patch_7">
     <path d="M 244.222696 99.544351 
L 348.646627 99.544351 
Q 350.846627 99.544351 350.846627 97.344351 
L 350.846627 37.120772 
Q 350.846627 34.920772 348.646627 34.920772 
L 244.222696 34.920772 
Q 242.022696 34.920772 242.022696 37.120772 
L 242.022696 97.344351 
Q 242.022696 99.544351 244.222696 99.544351 
z
" style="fill: #ffffff; opacity: 0.8; stroke: #cccccc; stroke-linejoin: miter"/>
    </g>
    <g id="line2d_44">
     <path d="M 246.422696 43.170772 
L 257.422696 43.170772 
L 268.422696 43.170772 
" style="fill: none; stroke: #008000; stroke-width: 0.75; stroke-linecap: round"/>
    </g>
    <g id="text_17">
     <!-- Edge-rays -->
     <g style="fill: #262626" transform="translate(277.222696 47.020772) scale(0.11 -0.11)">
      <defs>
       <path id="CMR17-45" d="M 3885 1615 
L 3770 1615 
C 3629 676 3546 166 2419 166 
L 1530 166 
C 1274 166 1261 197 1261 414 
L 1261 2176 
L 1862 2176 
C 2464 2176 2522 1960 2522 1430 
L 2637 1430 
L 2637 3081 
L 2522 3081 
C 2522 2557 2464 2342 1862 2342 
L 1261 2342 
L 1261 3913 
C 1261 4128 1274 4160 1530 4160 
L 2406 4160 
C 3398 4160 3514 3769 3603 2929 
L 3718 2929 
L 3565 4325 
L 326 4325 
L 326 4160 
C 768 4160 838 4160 838 3874 
L 838 451 
C 838 166 768 166 326 166 
L 326 0 
L 3654 0 
L 3885 1615 
z
" transform="scale(0.015625)"/>
       <path id="CMR17-64" d="M 1869 4326 
L 1869 4160 
C 2246 4160 2304 4122 2304 3820 
L 2304 2345 
C 2278 2377 2016 2790 1498 2790 
C 845 2790 211 2208 211 1364 
C 211 525 806 -64 1434 -64 
C 1978 -64 2259 337 2291 380 
L 2291 -63 
L 3066 -63 
L 3066 128 
C 2688 128 2630 166 2630 473 
L 2630 4396 
L 1869 4326 
z
M 2291 755 
C 2291 563 2176 390 2029 262 
C 1811 70 1594 38 1472 38 
C 1286 38 621 134 621 1356 
C 621 2612 1363 2688 1530 2688 
C 1824 2688 2061 2522 2208 2291 
C 2291 2157 2291 2138 2291 2023 
L 2291 755 
z
" transform="scale(0.015625)"/>
       <path id="CMR17-2d" d="M 1632 1216 
L 1632 1496 
L 26 1496 
L 26 1216 
L 1632 1216 
z
" transform="scale(0.015625)"/>
       <path id="CMR17-79" d="M 2496 2197 
C 2656 2586 2944 2586 3034 2586 
L 3034 2752 
C 2912 2752 2752 2752 2630 2752 
C 2496 2752 2285 2752 2157 2758 
L 2157 2592 
C 2400 2573 2406 2394 2406 2343 
C 2406 2280 2394 2248 2362 2171 
L 1664 449 
L 902 2306 
C 870 2382 870 2426 870 2433 
C 870 2573 1018 2586 1171 2586 
L 1171 2758 
C 1018 2752 742 2752 582 2752 
C 410 2752 205 2752 64 2758 
L 64 2586 
C 410 2586 448 2554 531 2350 
L 1485 15 
C 1197 -738 1030 -1178 627 -1178 
C 557 -1178 397 -1159 282 -1044 
C 429 -1031 493 -942 493 -833 
C 493 -725 416 -629 288 -629 
C 147 -629 77 -725 77 -840 
C 77 -1095 339 -1280 627 -1280 
C 998 -1280 1229 -922 1357 -604 
L 2496 2197 
z
" transform="scale(0.015625)"/>
       <path id="CMR17-73" d="M 1978 2697 
C 1978 2813 1971 2819 1933 2819 
C 1907 2819 1901 2813 1824 2717 
C 1805 2691 1747 2626 1728 2601 
C 1523 2819 1235 2819 1126 2819 
C 416 2819 160 2447 160 2076 
C 160 1498 813 1365 998 1325 
C 1402 1243 1542 1217 1677 1101 
C 1760 1025 1901 884 1901 654 
C 1901 384 1747 38 1158 38 
C 602 38 403 460 288 1021 
C 269 1110 269 1117 218 1117 
C 166 1117 160 1110 160 983 
L 160 63 
C 160 -51 166 -58 205 -58 
C 237 -58 243 -51 275 0 
C 314 57 410 211 448 276 
C 576 103 800 -64 1158 -64 
C 1792 -64 2131 283 2131 784 
C 2131 1112 1958 1285 1875 1362 
C 1683 1561 1459 1606 1190 1657 
C 838 1735 390 1825 390 2217 
C 390 2383 480 2737 1126 2737 
C 1811 2737 1850 2094 1862 1888 
C 1869 1856 1901 1849 1920 1849 
C 1978 1849 1978 1869 1978 1978 
L 1978 2697 
z
" transform="scale(0.015625)"/>
      </defs>
      <use xlink:href="#CMR17-45" transform="scale(0.996264)"/>
      <use xlink:href="#CMR17-64" transform="translate(62.586301 0) scale(0.996264)"/>
      <use xlink:href="#CMR17-67" transform="translate(113.48167 0) scale(0.996264)"/>
      <use xlink:href="#CMR17-65" transform="translate(159.172147 0) scale(0.996264)"/>
      <use xlink:href="#CMR17-2d" transform="translate(199.657808 0) scale(0.996264)"/>
      <use xlink:href="#CMR17-72" transform="translate(229.733774 0) scale(0.996264)"/>
      <use xlink:href="#CMR17-61" transform="translate(265.014542 0) scale(0.996264)"/>
      <use xlink:href="#CMR17-79" transform="translate(308.102565 0) scale(0.996264)"/>
      <use xlink:href="#CMR17-73" transform="translate(356.395481 0) scale(0.996264)"/>
     </g>
    </g>
    <g id="line2d_45">
     <path d="M 246.422696 58.501667 
L 257.422696 58.501667 
L 268.422696 58.501667 
" style="fill: none; stroke: #000000; stroke-width: 1.5; stroke-linecap: round"/>
    </g>
    <g id="text_18">
     <!-- Primary field -->
     <g style="fill: #262626" transform="translate(277.222696 62.351667) scale(0.11 -0.11)">
      <defs>
       <path id="CMR17-50" d="M 1267 2042 
L 2291 2042 
C 3117 2042 3718 2578 3718 3184 
C 3718 3791 3130 4352 2291 4352 
L 333 4352 
L 333 4186 
C 774 4186 845 4186 845 3899 
L 845 446 
C 845 160 774 160 333 160 
L 333 0 
C 518 0 858 0 1056 0 
C 1254 0 1594 0 1779 0 
L 1779 160 
C 1338 160 1267 160 1267 446 
L 1267 2042 
z
M 1254 2176 
L 1254 3938 
C 1254 4155 1267 4186 1523 4186 
L 2170 4186 
C 2995 4186 3232 3714 3232 3184 
C 3232 2604 2950 2176 2170 2176 
L 1254 2176 
z
" transform="scale(0.015625)"/>
       <path id="CMR17-c" d="M 2554 2764 
C 2400 2764 1926 2764 1805 2739 
C 1766 2725 1754 2725 1677 2725 
L 947 2725 
L 947 3469 
C 947 4073 1434 4352 1818 4352 
C 1939 4352 2214 4320 2355 4101 
C 2291 4101 2086 4101 2086 3878 
C 2086 3725 2189 3648 2317 3648 
C 2432 3648 2547 3712 2547 3885 
C 2547 4205 2240 4454 1843 4454 
C 1338 4454 634 4168 634 3469 
L 634 2725 
L 122 2725 
L 122 2560 
L 634 2560 
L 634 427 
C 634 184 608 153 198 153 
L 198 -13 
C 352 0 634 0 794 0 
C 960 0 1242 0 1395 -13 
L 1395 153 
C 986 153 960 178 960 427 
L 960 2560 
L 1901 2560 
C 2176 2560 2227 2502 2227 2222 
L 2227 427 
C 2227 184 2202 153 1792 153 
L 1792 -13 
C 1946 0 2227 0 2387 0 
C 2554 0 2835 0 2989 -13 
L 2989 153 
C 2579 153 2554 178 2554 427 
L 2554 2764 
z
" transform="scale(0.015625)"/>
      </defs>
      <use xlink:href="#CMR17-50" transform="scale(0.996264)"/>
      <use xlink:href="#CMR17-72" transform="translate(62.586301 0) scale(0.996264)"/>
      <use xlink:href="#CMR17-69" transform="translate(97.867068 0) scale(0.996264)"/>
      <use xlink:href="#CMR17-6d" transform="translate(122.738127 0) scale(0.996264)"/>
      <use xlink:href="#CMR17-61" transform="translate(199.657717 0) scale(0.996264)"/>
      <use xlink:href="#CMR17-72" transform="translate(245.348194 0) scale(0.996264)"/>
      <use xlink:href="#CMR17-79" transform="translate(280.628962 0) scale(0.996264)"/>
      <use xlink:href="#CMR17-c" transform="translate(358.997844 0) scale(0.996264)"/>
      <use xlink:href="#CMR17-65" transform="translate(408.740067 0) scale(0.996264)"/>
      <use xlink:href="#CMR17-6c" transform="translate(449.225728 0) scale(0.996264)"/>
      <use xlink:href="#CMR17-64" transform="translate(474.096786 0) scale(0.996264)"/>
     </g>
    </g>
    <g id="line2d_46">
     <path d="M 246.422696 73.832561 
L 257.422696 73.832561 
L 268.422696 73.832561 
" style="fill: none; stroke: #ff0000; stroke-linecap: round"/>
    </g>
    <g id="text_19">
     <!-- Absorber tube -->
     <g style="fill: #262626" transform="translate(277.222696 77.682561) scale(0.11 -0.11)">
      <defs>
       <path id="CMR17-41" d="M 2323 4378 
C 2291 4461 2278 4480 2214 4480 
C 2150 4480 2138 4461 2106 4378 
L 749 566 
C 627 223 371 153 147 153 
L 147 -13 
C 262 0 518 0 640 0 
C 800 0 1056 0 1210 -13 
L 1210 153 
C 909 153 864 361 864 439 
C 864 497 877 530 890 569 
L 1229 1536 
L 2906 1536 
L 3290 442 
C 3322 365 3322 352 3322 327 
C 3322 153 3046 153 2925 153 
L 2925 0 
C 3110 0 3443 0 3642 0 
C 3808 0 4128 0 4282 -13 
L 4282 153 
C 3942 153 3827 153 3744 387 
L 2323 4378 
z
M 2067 3893 
L 2848 1702 
L 1286 1702 
L 2067 3893 
z
" transform="scale(0.015625)"/>
       <path id="CMR17-62" d="M 960 4396 
L 198 4326 
L 198 4160 
C 576 4160 634 4122 634 3817 
L 634 -13 
L 749 -13 
L 934 441 
C 1120 141 1395 -64 1766 -64 
C 2406 -64 3053 500 3053 1370 
C 3053 2188 2477 2790 1830 2790 
C 1434 2790 1152 2579 960 2330 
L 960 4396 
z
M 973 2004 
C 973 2118 973 2138 1062 2272 
C 1312 2657 1670 2688 1792 2688 
C 1984 2688 2643 2585 2643 1376 
C 2643 108 1888 38 1734 38 
C 1536 38 1248 114 1043 486 
C 973 608 973 621 973 735 
L 973 2004 
z
" transform="scale(0.015625)"/>
       <path id="CMR17-6f" d="M 2758 1356 
C 2758 2176 2163 2816 1466 2816 
C 768 2816 173 2176 173 1356 
C 173 551 768 -64 1466 -64 
C 2163 -64 2758 551 2758 1356 
z
M 1466 51 
C 1165 51 909 230 762 480 
C 602 767 582 1126 582 1408 
C 582 1677 595 2010 762 2298 
C 890 2509 1139 2714 1466 2714 
C 1754 2714 1997 2554 2150 2330 
C 2349 2029 2349 1607 2349 1408 
C 2349 1158 2336 775 2163 467 
C 1984 173 1709 51 1466 51 
z
" transform="scale(0.015625)"/>
       <path id="CMR17-74" d="M 966 2560 
L 1862 2560 
L 1862 2725 
L 966 2725 
L 966 3904 
L 851 3904 
C 838 3245 614 2668 70 2668 
L 70 2560 
L 627 2560 
L 627 771 
C 627 650 627 -64 1370 -64 
C 1747 -64 1965 306 1965 777 
L 1965 1140 
L 1850 1140 
L 1850 783 
C 1850 344 1677 51 1408 51 
C 1222 51 966 178 966 758 
L 966 2560 
z
" transform="scale(0.015625)"/>
       <path id="CMR17-75" d="M 1882 2693 
L 1882 2528 
C 2259 2528 2317 2489 2317 2186 
L 2317 1032 
C 2317 500 2029 38 1555 38 
C 1030 38 986 348 986 678 
L 986 2763 
L 211 2693 
L 211 2528 
C 467 2528 640 2528 646 2274 
L 646 1058 
C 646 633 646 361 813 183 
C 896 101 1056 -64 1517 -64 
C 2061 -64 2272 377 2323 506 
L 2330 506 
L 2330 -63 
L 3091 -63 
L 3091 128 
C 2714 128 2656 166 2656 473 
L 2656 2763 
L 1882 2693 
z
" transform="scale(0.015625)"/>
      </defs>
      <use xlink:href="#CMR17-41" transform="scale(0.996264)"/>
      <use xlink:href="#CMR17-62" transform="translate(69.07243 0) scale(0.996264)"/>
      <use xlink:href="#CMR17-73" transform="translate(119.9678 0) scale(0.996264)"/>
      <use xlink:href="#CMR17-6f" transform="translate(155.769137 0) scale(0.996264)"/>
      <use xlink:href="#CMR17-72" transform="translate(201.459614 0) scale(0.996264)"/>
      <use xlink:href="#CMR17-62" transform="translate(236.740382 0) scale(0.996264)"/>
      <use xlink:href="#CMR17-65" transform="translate(290.238191 0) scale(0.996264)"/>
      <use xlink:href="#CMR17-72" transform="translate(330.723851 0) scale(0.996264)"/>
      <use xlink:href="#CMR17-74" transform="translate(396.080585 0) scale(0.996264)"/>
      <use xlink:href="#CMR17-75" transform="translate(431.361353 0) scale(0.996264)"/>
      <use xlink:href="#CMR17-62" transform="translate(482.256723 0) scale(0.996264)"/>
      <use xlink:href="#CMR17-65" transform="translate(535.754531 0) scale(0.996264)"/>
     </g>
    </g>
    <g id="line2d_47">
     <path d="M 246.422696 89.163456 
L 257.422696 89.163456 
L 268.422696 89.163456 
" style="fill: none; stroke-dasharray: 1.85,0.8; stroke-dashoffset: 0; stroke: #0000ff; stroke-width: 0.5"/>
    </g>
    <g id="text_20">
     <!-- Glass cover -->
     <g style="fill: #262626" transform="translate(277.222696 93.013456) scale(0.11 -0.11)">
      <defs>
       <path id="CMR17-47" d="M 3974 1233 
C 3974 1473 3994 1505 4390 1505 
L 4390 1670 
C 4237 1664 3891 1664 3718 1664 
C 3539 1664 3040 1664 2797 1664 
L 2797 1505 
L 2989 1505 
C 3539 1505 3552 1434 3552 1201 
L 3552 774 
C 3552 63 2720 63 2522 63 
C 1862 63 781 511 781 2160 
C 781 3808 1843 4250 2464 4250 
C 3187 4250 3712 3626 3834 2741 
C 3846 2664 3846 2651 3904 2651 
C 3974 2651 3974 2664 3974 2779 
L 3974 4288 
C 3974 4402 3968 4409 3930 4409 
C 3904 4409 3898 4402 3853 4326 
L 3571 3791 
C 3258 4187 2874 4416 2381 4416 
C 1286 4416 294 3456 294 2148 
C 294 845 1267 -128 2394 -128 
C 2912 -128 3418 56 3616 417 
C 3725 158 3904 -20 3936 -20 
C 3968 -20 3974 -13 3974 100 
L 3974 1233 
z
" transform="scale(0.015625)"/>
       <path id="CMR17-63" d="M 2234 2240 
C 2112 2240 1933 2240 1933 2017 
C 1933 1838 2080 1787 2163 1787 
C 2208 1787 2394 1807 2394 2024 
C 2394 2467 1958 2803 1466 2803 
C 787 2803 211 2178 211 1363 
C 211 516 813 -64 1466 -64 
C 2259 -64 2458 677 2458 748 
C 2458 774 2451 793 2406 793 
C 2362 793 2355 787 2330 703 
C 2163 180 1798 51 1523 51 
C 1114 51 621 427 621 1369 
C 621 2338 1094 2688 1472 2688 
C 1722 2688 2093 2573 2234 2240 
z
" transform="scale(0.015625)"/>
      </defs>
      <use xlink:href="#CMR17-47" transform="scale(0.996264)"/>
      <use xlink:href="#CMR17-6c" transform="translate(72.355346 0) scale(0.996264)"/>
      <use xlink:href="#CMR17-61" transform="translate(97.226404 0) scale(0.996264)"/>
      <use xlink:href="#CMR17-73" transform="translate(142.916882 0) scale(0.996264)"/>
      <use xlink:href="#CMR17-73" transform="translate(178.718219 0) scale(0.996264)"/>
      <use xlink:href="#CMR17-63" transform="translate(244.595523 0) scale(0.996264)"/>
      <use xlink:href="#CMR17-6f" transform="translate(285.081184 0) scale(0.996264)"/>
      <use xlink:href="#CMR17-76" transform="translate(328.169207 0) scale(0.996264)"/>
      <use xlink:href="#CMR17-65" transform="translate(373.859669 0) scale(0.996264)"/>
      <use xlink:href="#CMR17-72" transform="translate(414.345329 0) scale(0.996264)"/>
     </g>
    </g>
   </g>
  </g>
  <g id="axes_2">
   <g id="patch_8">
    <path d="M 403.085697 271.194399 
L 705.367651 271.194399 
L 705.367651 29.420772 
L 403.085697 29.420772 
z
" style="fill: #ffffff"/>
   </g>
   <g id="matplotlib.axis_3">
    <g id="xtick_8">
     <g id="line2d_48">
      <path d="M 469.872216 271.194399 
L 469.872216 29.420772 
" clip-path="url(#p36c446247b)" style="fill: none; stroke: #cccccc; stroke-linecap: round"/>
     </g>
     <g id="text_21">
      <!-- $\mathdefault{−0.5}$ -->
      <g style="fill: #262626" transform="translate(455.722808 290.380275) scale(0.14 -0.14)">
       <defs>
        <path id="CMMI12-3a" d="M 1178 307 
C 1178 492 1024 619 870 619 
C 685 619 557 466 557 313 
C 557 128 710 0 864 0 
C 1050 0 1178 153 1178 307 
z
" transform="scale(0.015625)"/>
        <path id="CMR17-35" d="M 730 3692 
C 794 3666 1056 3584 1325 3584 
C 1920 3584 2246 3911 2432 4100 
C 2432 4157 2432 4192 2394 4192 
C 2387 4192 2374 4192 2323 4163 
C 2099 4058 1837 3973 1517 3973 
C 1325 3973 1037 3999 723 4139 
C 653 4171 640 4171 634 4171 
C 602 4171 595 4164 595 4037 
L 595 2203 
C 595 2089 595 2057 659 2057 
C 691 2057 704 2070 736 2114 
C 941 2401 1222 2522 1542 2522 
C 1766 2522 2246 2382 2246 1289 
C 2246 1085 2246 715 2054 421 
C 1894 159 1645 25 1370 25 
C 947 25 518 320 403 814 
C 429 807 480 795 506 795 
C 589 795 749 840 749 1038 
C 749 1210 627 1280 506 1280 
C 358 1280 262 1190 262 1011 
C 262 454 704 -128 1382 -128 
C 2042 -128 2669 440 2669 1264 
C 2669 2030 2170 2624 1549 2624 
C 1222 2624 947 2503 730 2274 
L 730 3692 
z
" transform="scale(0.015625)"/>
       </defs>
       <use xlink:href="#CMSY10-0" transform="scale(0.996264)"/>
       <use xlink:href="#CMR17-30" transform="translate(77.487468 0) scale(0.996264)"/>
       <use xlink:href="#CMMI12-3a" transform="translate(123.177945 0) scale(0.996264)"/>
       <use xlink:href="#CMR17-35" transform="translate(150.275122 0) scale(0.996264)"/>
      </g>
     </g>
    </g>
    <g id="xtick_9">
     <g id="line2d_49">
      <path d="M 554.226674 271.194399 
L 554.226674 29.420772 
" clip-path="url(#p36c446247b)" style="fill: none; stroke: #cccccc; stroke-linecap: round"/>
     </g>
     <g id="text_22">
      <!-- $\mathdefault{0.0}$ -->
      <g style="fill: #262626" transform="translate(545.501383 290.380275) scale(0.14 -0.14)">
       <use xlink:href="#CMR17-30" transform="scale(0.996264)"/>
       <use xlink:href="#CMMI12-3a" transform="translate(45.690477 0) scale(0.996264)"/>
       <use xlink:href="#CMR17-30" transform="translate(72.787654 0) scale(0.996264)"/>
      </g>
     </g>
    </g>
    <g id="xtick_10">
     <g id="line2d_50">
      <path d="M 638.581132 271.194399 
L 638.581132 29.420772 
" clip-path="url(#p36c446247b)" style="fill: none; stroke: #cccccc; stroke-linecap: round"/>
     </g>
     <g id="text_23">
      <!-- $\mathdefault{0.5}$ -->
      <g style="fill: #262626" transform="translate(629.855841 290.380275) scale(0.14 -0.14)">
       <use xlink:href="#CMR17-30" transform="scale(0.996264)"/>
       <use xlink:href="#CMMI12-3a" transform="translate(45.690477 0) scale(0.996264)"/>
       <use xlink:href="#CMR17-35" transform="translate(72.787654 0) scale(0.996264)"/>
      </g>
     </g>
    </g>
    <g id="text_24">
     <!-- $x$ [m] -->
     <g style="fill: #262626" transform="translate(538.586115 307.553076) scale(0.14 -0.14)">
      <use xlink:href="#CMMI12-78" transform="scale(0.996264)"/>
      <use xlink:href="#CMR17-5b" transform="translate(85.510026 0) scale(0.996264)"/>
      <use xlink:href="#CMR17-6d" transform="translate(110.381084 0) scale(0.996264)"/>
      <use xlink:href="#CMR17-5d" transform="translate(187.300674 0) scale(0.996264)"/>
     </g>
    </g>
   </g>
   <g id="matplotlib.axis_4">
    <g id="ytick_7">
     <g id="line2d_51">
      <path d="M 403.085697 250.440573 
L 705.367651 250.440573 
" clip-path="url(#p36c446247b)" style="fill: none; stroke: #cccccc; stroke-linecap: round"/>
     </g>
     <g id="text_25">
      <!-- $\mathdefault{8.25}$ -->
      <g style="fill: #262626" transform="translate(369.306627 255.283511) scale(0.14 -0.14)">
       <use xlink:href="#CMR17-38" transform="scale(0.996264)"/>
       <use xlink:href="#CMMI12-3a" transform="translate(45.690477 0) scale(0.996264)"/>
       <use xlink:href="#CMR17-32" transform="translate(72.787654 0) scale(0.996264)"/>
       <use xlink:href="#CMR17-35" transform="translate(118.478131 0) scale(0.996264)"/>
      </g>
     </g>
    </g>
    <g id="ytick_8">
     <g id="line2d_52">
      <path d="M 403.085697 216.706036 
L 705.367651 216.706036 
" clip-path="url(#p36c446247b)" style="fill: none; stroke: #cccccc; stroke-linecap: round"/>
     </g>
     <g id="text_26">
      <!-- $\mathdefault{8.50}$ -->
      <g style="fill: #262626" transform="translate(369.306627 221.548974) scale(0.14 -0.14)">
       <use xlink:href="#CMR17-38" transform="scale(0.996264)"/>
       <use xlink:href="#CMMI12-3a" transform="translate(45.690477 0) scale(0.996264)"/>
       <use xlink:href="#CMR17-35" transform="translate(72.787654 0) scale(0.996264)"/>
       <use xlink:href="#CMR17-30" transform="translate(118.478131 0) scale(0.996264)"/>
      </g>
     </g>
    </g>
    <g id="ytick_9">
     <g id="line2d_53">
      <path d="M 403.085697 182.9715 
L 705.367651 182.9715 
" clip-path="url(#p36c446247b)" style="fill: none; stroke: #cccccc; stroke-linecap: round"/>
     </g>
     <g id="text_27">
      <!-- $\mathdefault{8.75}$ -->
      <g style="fill: #262626" transform="translate(369.306627 187.814438) scale(0.14 -0.14)">
       <defs>
        <path id="CMR17-37" d="M 2886 3941 
L 2886 4081 
L 1382 4081 
C 634 4081 621 4165 595 4288 
L 480 4288 
L 294 3094 
L 410 3094 
C 429 3215 474 3540 550 3661 
C 589 3712 1062 3712 1171 3712 
L 2579 3712 
L 1869 2661 
C 1395 1954 1069 999 1069 165 
C 1069 89 1069 -128 1299 -128 
C 1530 -128 1530 89 1530 171 
L 1530 465 
C 1530 1508 1709 2196 2003 2636 
L 2886 3941 
z
" transform="scale(0.015625)"/>
       </defs>
       <use xlink:href="#CMR17-38" transform="scale(0.996264)"/>
       <use xlink:href="#CMMI12-3a" transform="translate(45.690477 0) scale(0.996264)"/>
       <use xlink:href="#CMR17-37" transform="translate(72.787654 0) scale(0.996264)"/>
       <use xlink:href="#CMR17-35" transform="translate(118.478131 0) scale(0.996264)"/>
      </g>
     </g>
    </g>
    <g id="ytick_10">
     <g id="line2d_54">
      <path d="M 403.085697 149.236963 
L 705.367651 149.236963 
" clip-path="url(#p36c446247b)" style="fill: none; stroke: #cccccc; stroke-linecap: round"/>
     </g>
     <g id="text_28">
      <!-- $\mathdefault{9.00}$ -->
      <g style="fill: #262626" transform="translate(369.306627 154.079901) scale(0.14 -0.14)">
       <defs>
        <path id="CMR17-39" d="M 2253 1864 
C 2253 464 1670 31 1190 31 
C 1043 31 685 31 538 294 
C 704 268 826 357 826 518 
C 826 692 685 749 595 749 
C 538 749 365 723 365 506 
C 365 71 742 -128 1203 -128 
C 1939 -128 2688 674 2688 2073 
C 2688 3817 1971 4179 1485 4179 
C 851 4179 243 3628 243 2778 
C 243 1991 762 1408 1414 1408 
C 1952 1408 2189 1903 2253 2112 
L 2253 1864 
z
M 1427 1510 
C 1254 1510 1011 1542 813 1922 
C 678 2169 678 2461 678 2771 
C 678 3146 678 3405 858 3684 
C 947 3817 1114 4032 1485 4032 
C 2240 4032 2240 2885 2240 2632 
C 2240 2182 2035 1510 1427 1510 
z
" transform="scale(0.015625)"/>
       </defs>
       <use xlink:href="#CMR17-39" transform="scale(0.996264)"/>
       <use xlink:href="#CMMI12-3a" transform="translate(45.690477 0) scale(0.996264)"/>
       <use xlink:href="#CMR17-30" transform="translate(72.787654 0) scale(0.996264)"/>
       <use xlink:href="#CMR17-30" transform="translate(118.478131 0) scale(0.996264)"/>
      </g>
     </g>
    </g>
    <g id="ytick_11">
     <g id="line2d_55">
      <path d="M 403.085697 115.502427 
L 705.367651 115.502427 
" clip-path="url(#p36c446247b)" style="fill: none; stroke: #cccccc; stroke-linecap: round"/>
     </g>
     <g id="text_29">
      <!-- $\mathdefault{9.25}$ -->
      <g style="fill: #262626" transform="translate(369.306627 120.345365) scale(0.14 -0.14)">
       <use xlink:href="#CMR17-39" transform="scale(0.996264)"/>
       <use xlink:href="#CMMI12-3a" transform="translate(45.690477 0) scale(0.996264)"/>
       <use xlink:href="#CMR17-32" transform="translate(72.787654 0) scale(0.996264)"/>
       <use xlink:href="#CMR17-35" transform="translate(118.478131 0) scale(0.996264)"/>
      </g>
     </g>
    </g>
    <g id="ytick_12">
     <g id="line2d_56">
      <path d="M 403.085697 81.76789 
L 705.367651 81.76789 
" clip-path="url(#p36c446247b)" style="fill: none; stroke: #cccccc; stroke-linecap: round"/>
     </g>
     <g id="text_30">
      <!-- $\mathdefault{9.50}$ -->
      <g style="fill: #262626" transform="translate(369.306627 86.610828) scale(0.14 -0.14)">
       <use xlink:href="#CMR17-39" transform="scale(0.996264)"/>
       <use xlink:href="#CMMI12-3a" transform="translate(45.690477 0) scale(0.996264)"/>
       <use xlink:href="#CMR17-35" transform="translate(72.787654 0) scale(0.996264)"/>
       <use xlink:href="#CMR17-30" transform="translate(118.478131 0) scale(0.996264)"/>
      </g>
     </g>
    </g>
    <g id="ytick_13">
     <g id="line2d_57">
      <path d="M 403.085697 48.033354 
L 705.367651 48.033354 
" clip-path="url(#p36c446247b)" style="fill: none; stroke: #cccccc; stroke-linecap: round"/>
     </g>
     <g id="text_31">
      <!-- $\mathdefault{9.75}$ -->
      <g style="fill: #262626" transform="translate(369.306627 52.876292) scale(0.14 -0.14)">
       <use xlink:href="#CMR17-39" transform="scale(0.996264)"/>
       <use xlink:href="#CMMI12-3a" transform="translate(45.690477 0) scale(0.996264)"/>
       <use xlink:href="#CMR17-37" transform="translate(72.787654 0) scale(0.996264)"/>
       <use xlink:href="#CMR17-35" transform="translate(118.478131 0) scale(0.996264)"/>
      </g>
     </g>
    </g>
   </g>
   <g id="line2d_58">
    <path d="M 379.974754 325 
L 568.297334 97.30918 
" clip-path="url(#p36c446247b)" style="fill: none; stroke: #008000; stroke-width: 0.5; stroke-linecap: round"/>
   </g>
   <g id="line2d_59">
    <path d="M 721 315.958029 
L 540.156014 97.30918 
" clip-path="url(#p36c446247b)" style="fill: none; stroke: #008000; stroke-width: 0.5; stroke-linecap: round"/>
   </g>
   <g id="line2d_60">
    <path d="M 571.097566 89.864179 
L 571.074445 89.157967 
L 571.005145 88.453691 
L 570.889857 87.753281 
L 570.728896 87.058657 
L 570.522704 86.371723 
L 570.271845 85.694361 
L 569.977008 85.028428 
L 569.639 84.37575 
L 569.258749 83.738115 
L 568.837295 83.117272 
L 568.375794 82.514921 
L 567.875512 81.932714 
L 567.337819 81.372246 
L 566.76419 80.835054 
L 566.156196 80.322611 
L 565.515504 79.83632 
L 564.84387 79.377515 
L 564.143135 78.947453 
L 563.41522 78.547314 
L 562.66212 78.178193 
L 561.885899 77.841102 
L 561.088684 77.536966 
L 560.272661 77.266618 
L 559.440066 77.030799 
L 558.593182 76.830155 
L 557.73433 76.665236 
L 556.865863 76.536495 
L 555.990162 76.444285 
L 555.109628 76.388857 
L 554.226674 76.370364 
L 553.34372 76.388857 
L 552.463186 76.444285 
L 551.587485 76.536495 
L 550.719019 76.665236 
L 549.860166 76.830155 
L 549.013282 77.030799 
L 548.180687 77.266618 
L 547.364664 77.536966 
L 546.56745 77.841102 
L 545.791228 78.178193 
L 545.038128 78.547314 
L 544.310213 78.947453 
L 543.609478 79.377515 
L 542.937844 79.83632 
L 542.297152 80.322611 
L 541.689158 80.835054 
L 541.115529 81.372246 
L 540.577836 81.932714 
L 540.077554 82.514921 
L 539.616053 83.117272 
L 539.1946 83.738115 
L 538.814348 84.37575 
L 538.47634 85.028428 
L 538.181503 85.694361 
L 537.930644 86.371723 
L 537.724452 87.058657 
L 537.563491 87.753281 
L 537.448203 88.453691 
L 537.378904 89.157967 
L 537.355783 89.864179 
L 537.378904 90.570391 
L 537.448203 91.274667 
L 537.563491 91.975077 
L 537.724452 92.669701 
L 537.930644 93.356635 
L 538.181503 94.033997 
L 538.47634 94.69993 
L 538.814348 95.352608 
L 539.1946 95.990242 
L 539.616053 96.611086 
L 540.077554 97.213437 
L 540.577836 97.795644 
L 541.115529 98.356112 
L 541.689158 98.893303 
L 542.297152 99.405747 
L 542.937844 99.892037 
L 543.609478 100.350842 
L 544.310213 100.780904 
L 545.038128 101.181044 
L 545.791228 101.550165 
L 546.56745 101.887256 
L 547.364664 102.191392 
L 548.180687 102.46174 
L 549.013282 102.697559 
L 549.860166 102.898203 
L 550.719019 103.063121 
L 551.587485 103.191862 
L 552.463186 103.284073 
L 553.34372 103.339501 
L 554.226674 103.357993 
L 555.109628 103.339501 
L 555.990162 103.284073 
L 556.865863 103.191862 
L 557.73433 103.063121 
L 558.593182 102.898203 
L 559.440066 102.697559 
L 560.272661 102.46174 
L 561.088684 102.191392 
L 561.885899 101.887256 
L 562.66212 101.550165 
L 563.41522 101.181044 
L 564.143135 100.780904 
L 564.84387 100.350842 
L 565.515504 99.892037 
L 566.156196 99.405747 
L 566.76419 98.893303 
L 567.337819 98.356112 
L 567.875512 97.795644 
L 568.375794 97.213437 
L 568.837295 96.611086 
L 569.258749 95.990242 
L 569.639 95.352608 
L 569.977008 94.69993 
L 570.271845 94.033997 
L 570.522704 93.356635 
L 570.728896 92.669701 
L 570.889857 91.975077 
L 571.005145 91.274667 
L 571.074445 90.570391 
L 571.097566 89.864179 
" clip-path="url(#p36c446247b)" style="fill: none; stroke: #ff0000; stroke-width: 1.5; stroke-linecap: round"/>
   </g>
   <g id="line2d_61">
    <path d="M 574.893516 89.864179 
L 574.865193 88.99907 
L 574.780301 88.136331 
L 574.639073 87.278329 
L 574.441896 86.427415 
L 574.189311 85.58592 
L 573.882009 84.756152 
L 573.520833 83.940384 
L 573.106774 83.140853 
L 572.640965 82.359751 
L 572.124684 81.599217 
L 571.559346 80.861338 
L 570.946501 80.148134 
L 570.287827 79.461561 
L 569.585131 78.803502 
L 568.840338 78.175758 
L 568.055491 77.580052 
L 567.232739 77.018016 
L 566.374339 76.49119 
L 565.482643 76.001019 
L 564.560095 75.548846 
L 563.609224 75.13591 
L 562.632636 74.763343 
L 561.633008 74.432166 
L 560.61308 74.143288 
L 559.575646 73.897499 
L 558.523552 73.695474 
L 557.45968 73.537767 
L 556.386947 73.424809 
L 555.308293 73.35691 
L 554.226674 73.334256 
L 553.145055 73.35691 
L 552.066401 73.424809 
L 550.993668 73.537767 
L 549.929796 73.695474 
L 548.877702 73.897499 
L 547.840269 74.143288 
L 546.82034 74.432166 
L 545.820712 74.763343 
L 544.844124 75.13591 
L 543.893253 75.548846 
L 542.970705 76.001019 
L 542.079009 76.49119 
L 541.220609 77.018016 
L 540.397857 77.580052 
L 539.61301 78.175758 
L 538.868217 78.803502 
L 538.165521 79.461561 
L 537.506848 80.148134 
L 536.894002 80.861338 
L 536.328664 81.599217 
L 535.812383 82.359751 
L 535.346574 83.140853 
L 534.932515 83.940384 
L 534.571339 84.756152 
L 534.264038 85.58592 
L 534.011452 86.427415 
L 533.814275 87.278329 
L 533.673047 88.136331 
L 533.588155 88.99907 
L 533.559832 89.864179 
L 533.588155 90.729288 
L 533.673047 91.592026 
L 533.814275 92.450028 
L 534.011452 93.300943 
L 534.264038 94.142438 
L 534.571339 94.972206 
L 534.932515 95.787973 
L 535.346574 96.587504 
L 535.812383 97.368607 
L 536.328664 98.12914 
L 536.894002 98.86702 
L 537.506848 99.580224 
L 538.165521 100.266796 
L 538.868217 100.924856 
L 539.61301 101.552599 
L 540.397857 102.148306 
L 541.220609 102.710342 
L 542.079009 103.237167 
L 542.970705 103.727339 
L 543.893253 104.179512 
L 544.844124 104.592448 
L 545.820712 104.965015 
L 546.82034 105.296191 
L 547.840269 105.58507 
L 548.877702 105.830858 
L 549.929796 106.032883 
L 550.993668 106.190591 
L 552.066401 106.303549 
L 553.145055 106.371448 
L 554.226674 106.394102 
L 555.308293 106.371448 
L 556.386947 106.303549 
L 557.45968 106.190591 
L 558.523552 106.032883 
L 559.575646 105.830858 
L 560.61308 105.58507 
L 561.633008 105.296191 
L 562.632636 104.965015 
L 563.609224 104.592448 
L 564.560095 104.179512 
L 565.482643 103.727339 
L 566.374339 103.237167 
L 567.232739 102.710342 
L 568.055491 102.148306 
L 568.840338 101.552599 
L 569.585131 100.924856 
L 570.287827 100.266796 
L 570.946501 99.580224 
L 571.559346 98.86702 
L 572.124684 98.12914 
L 572.640965 97.368607 
L 573.106774 96.587504 
L 573.520833 95.787973 
L 573.882009 94.972206 
L 574.189311 94.142438 
L 574.441896 93.300943 
L 574.639073 92.450028 
L 574.780301 91.592026 
L 574.865193 90.729288 
L 574.893516 89.864179 
" clip-path="url(#p36c446247b)" style="fill: none; stroke-dasharray: 1.85,0.8; stroke-dashoffset: 0; stroke: #0000ff; stroke-width: 0.5"/>
   </g>
   <g id="line2d_62">
    <path d="M 574.387389 89.864179 
L 574.35976 89.020256 
L 574.276947 88.178646 
L 574.139178 87.341656 
L 573.946829 86.51158 
L 573.70043 85.690694 
L 573.400654 84.881246 
L 573.048323 84.085457 
L 572.644404 83.305506 
L 572.190003 82.543533 
L 571.686366 81.801625 
L 571.134873 81.081815 
L 570.537035 80.386078 
L 569.894493 79.716319 
L 569.209005 79.074375 
L 568.482453 78.462005 
L 567.716826 77.880888 
L 566.914223 77.332616 
L 566.076845 76.818692 
L 565.206987 76.340525 
L 564.307032 75.899425 
L 563.379447 75.496602 
L 562.426776 75.133159 
L 561.451628 74.810093 
L 560.456678 74.528289 
L 559.444651 74.28852 
L 558.418323 74.091443 
L 557.380505 73.937597 
L 556.334043 73.827405 
L 555.281804 73.761169 
L 554.226674 73.73907 
L 553.171544 73.761169 
L 552.119305 73.827405 
L 551.072843 73.937597 
L 550.035026 74.091443 
L 549.008697 74.28852 
L 547.99667 74.528289 
L 547.00172 74.810093 
L 546.026572 75.133159 
L 545.073901 75.496602 
L 544.146316 75.899425 
L 543.246362 76.340525 
L 542.376503 76.818692 
L 541.539125 77.332616 
L 540.736522 77.880888 
L 539.970896 78.462005 
L 539.244343 79.074375 
L 538.558856 79.716319 
L 537.916313 80.386078 
L 537.318475 81.081815 
L 536.766982 81.801625 
L 536.263345 82.543533 
L 535.808944 83.305506 
L 535.405025 84.085457 
L 535.052694 84.881246 
L 534.752918 85.690694 
L 534.506519 86.51158 
L 534.314171 87.341656 
L 534.176401 88.178646 
L 534.093588 89.020256 
L 534.065959 89.864179 
L 534.093588 90.708102 
L 534.176401 91.549712 
L 534.314171 92.386702 
L 534.506519 93.216777 
L 534.752918 94.037664 
L 535.052694 94.847111 
L 535.405025 95.642901 
L 535.808944 96.422851 
L 536.263345 97.184825 
L 536.766982 97.926733 
L 537.318475 98.646542 
L 537.916313 99.34228 
L 538.558856 100.012038 
L 539.244343 100.653982 
L 539.970896 101.266352 
L 540.736522 101.84747 
L 541.539125 102.395742 
L 542.376503 102.909666 
L 543.246362 103.387833 
L 544.146316 103.828932 
L 545.073901 104.231756 
L 546.026572 104.595198 
L 547.00172 104.918264 
L 547.99667 105.200068 
L 549.008697 105.439838 
L 550.035026 105.636915 
L 551.072843 105.79076 
L 552.119305 105.900952 
L 553.171544 105.967188 
L 554.226674 105.989287 
L 555.281804 105.967188 
L 556.334043 105.900952 
L 557.380505 105.79076 
L 558.418323 105.636915 
L 559.444651 105.439838 
L 560.456678 105.200068 
L 561.451628 104.918264 
L 562.426776 104.595198 
L 563.379447 104.231756 
L 564.307032 103.828932 
L 565.206987 103.387833 
L 566.076845 102.909666 
L 566.914223 102.395742 
L 567.716826 101.84747 
L 568.482453 101.266352 
L 569.209005 100.653982 
L 569.894493 100.012038 
L 570.537035 99.34228 
L 571.134873 98.646542 
L 571.686366 97.926733 
L 572.190003 97.184825 
L 572.644404 96.422851 
L 573.048323 95.642901 
L 573.400654 94.847111 
L 573.70043 94.037664 
L 573.946829 93.216777 
L 574.139178 92.386702 
L 574.276947 91.549712 
L 574.35976 90.708102 
L 574.387389 89.864179 
" clip-path="url(#p36c446247b)" style="fill: none; stroke-dasharray: 1.85,0.8; stroke-dashoffset: 0; stroke: #0000ff; stroke-width: 0.5"/>
   </g>
   <g id="line2d_63">
    <path d="M 453.466023 236.140944 
L 453.859544 217.145134 
L 454.894031 200.809374 
L 456.396381 186.647049 
L 458.240046 174.280079 
L 460.331575 163.41087 
L 462.601368 153.802406 
L 464.997234 145.263897 
L 467.479824 137.640257 
L 470.019358 130.804294 
L 472.593255 124.650834 
L 475.184387 119.092248 
L 477.779789 114.055015 
L 480.369697 109.477052 
L 482.946823 105.305611 
L 485.5058 101.495633 
L 488.042768 98.008419 
L 490.555046 94.810574 
L 493.040885 91.87315 
L 495.49928 89.170947 
L 497.929816 86.68194 
L 500.332552 84.386812 
L 502.707938 82.268564 
L 505.056739 80.312191 
L 507.379986 78.50441 
L 509.678936 76.833437 
L 511.955041 75.288794 
L 514.209932 73.861151 
L 516.445401 72.542185 
L 518.663397 71.324472 
L 520.284349 70.512138 
L 521.91742 69.781374 
L 523.556572 69.1311 
L 525.195931 68.559963 
L 526.829811 68.066343 
L 528.452729 67.648369 
L 530.059422 67.30393 
L 531.644862 67.030688 
L 533.204274 66.826087 
L 534.733149 66.687377 
L 536.227255 66.61162 
L 537.682649 66.595708 
L 539.09569 66.636382 
L 540.463044 66.730242 
L 541.781696 66.873769 
L 543.048953 67.063339 
L 544.262452 67.295243 
L 545.420163 67.565697 
L 546.52039 67.870869 
L 547.561774 68.206887 
L 548.543294 68.569865 
L 549.464263 68.955912 
L 550.324329 69.361154 
L 551.123467 69.78175 
L 551.861976 70.213905 
L 552.540475 70.653893 
L 553.159889 71.098067 
L 553.721449 71.542874 
L 554.226674 71.984874 
L 554.731899 71.542874 
L 555.293459 71.098067 
L 555.912874 70.653893 
L 556.591372 70.213905 
L 557.329881 69.78175 
L 558.129019 69.361154 
L 558.989085 68.955912 
L 559.910055 68.569865 
L 560.891574 68.206887 
L 561.932959 67.870869 
L 563.033185 67.565697 
L 564.190896 67.295243 
L 565.404395 67.063339 
L 566.671652 66.873769 
L 567.990304 66.730242 
L 569.357658 66.636382 
L 570.770699 66.595708 
L 572.226093 66.61162 
L 573.720199 66.687377 
L 575.249074 66.826087 
L 576.808486 67.030688 
L 578.393927 67.30393 
L 580.000619 67.648369 
L 581.623537 68.066343 
L 583.257417 68.559963 
L 584.896777 69.1311 
L 586.535928 69.781374 
L 588.168999 70.512138 
L 589.789951 71.324472 
L 592.007947 72.542185 
L 594.243416 73.861151 
L 596.498307 75.288794 
L 598.774413 76.833437 
L 601.073362 78.50441 
L 603.396609 80.312191 
L 605.74541 82.268564 
L 608.120796 84.386812 
L 610.523533 86.68194 
L 612.954068 89.170947 
L 615.412463 91.87315 
L 617.898303 94.810574 
L 620.41058 98.008419 
L 622.947548 101.495633 
L 625.506525 105.305611 
L 628.083651 109.477052 
L 630.67356 114.055015 
L 633.268961 119.092248 
L 635.860093 124.650834 
L 638.43399 130.804294 
L 640.973524 137.640257 
L 643.456114 145.263897 
L 645.85198 153.802406 
L 648.121773 163.41087 
L 650.213302 174.280079 
L 652.056967 186.647049 
L 653.559317 200.809374 
L 654.593804 217.145134 
L 654.987325 236.140944 
" clip-path="url(#p36c446247b)" style="fill: none; stroke: #000000; stroke-linecap: round"/>
   </g>
   <g id="line2d_64">
    <path d="M 459.692946 228.612555 
L 459.157006 211.600165 
L 459.383468 196.719467 
L 460.189419 183.6322 
L 461.436178 172.063879 
L 463.017903 161.790267 
L 464.853336 152.626957 
L 466.87977 144.421322 
L 469.048594 137.046246 
L 471.321991 130.39523 
L 473.670462 124.378541 
L 476.070954 118.92016 
L 478.505444 113.955351 
L 480.959853 109.428721 
L 483.423212 105.292647 
L 485.887012 101.506007 
L 488.344707 98.033146 
L 490.791316 94.843025 
L 493.223121 91.908523 
L 495.637417 89.205865 
L 498.032329 86.714132 
L 500.406654 84.414871 
L 502.759744 82.291751 
L 505.091411 80.330288 
L 507.401854 78.517602 
L 509.6916 76.842218 
L 511.961457 75.293894 
L 514.212486 73.863477 
L 516.445969 72.542779 
L 518.663397 71.324472 
L 520.284349 70.512138 
L 521.91742 69.781374 
L 523.556572 69.1311 
L 525.195931 68.559963 
L 526.829811 68.066343 
L 528.452729 67.648369 
L 530.059422 67.30393 
L 531.644862 67.030688 
L 533.204274 66.826087 
L 534.733149 66.687377 
L 536.227255 66.61162 
L 537.682649 66.595708 
L 539.09569 66.636382 
L 540.463044 66.730242 
L 541.781696 66.873769 
L 543.048953 67.063339 
L 544.262452 67.295243 
L 545.420163 67.565697 
L 546.52039 67.870869 
L 547.561774 68.206887 
L 548.543294 68.569865 
L 549.464263 68.955912 
L 550.324329 69.361154 
L 551.123467 69.78175 
L 551.861976 70.213905 
L 552.540475 70.653893 
L 553.159889 71.098067 
L 553.721449 71.542874 
L 554.226674 71.984874 
L 554.731899 71.542874 
L 555.293459 71.098067 
L 555.912874 70.653893 
L 556.591372 70.213905 
L 557.329881 69.78175 
L 558.129019 69.361154 
L 558.989085 68.955912 
L 559.910055 68.569865 
L 560.891574 68.206887 
L 561.932959 67.870869 
L 563.033185 67.565697 
L 564.190896 67.295243 
L 565.404395 67.063339 
L 566.671652 66.873769 
L 567.990304 66.730242 
L 569.357658 66.636382 
L 570.770699 66.595708 
L 572.226093 66.61162 
L 573.720199 66.687377 
L 575.249074 66.826087 
L 576.808486 67.030688 
L 578.393927 67.30393 
L 580.000619 67.648369 
L 581.623537 68.066343 
L 583.257417 68.559963 
L 584.896777 69.1311 
L 586.535928 69.781374 
L 588.168999 70.512138 
L 589.789951 71.324472 
L 592.00738 72.542779 
L 594.240862 73.863477 
L 596.491891 75.293894 
L 598.761749 76.842218 
L 601.051494 78.517602 
L 603.361937 80.330288 
L 605.693605 82.291751 
L 608.046694 84.414871 
L 610.421019 86.714132 
L 612.815931 89.205865 
L 615.230228 91.908523 
L 617.662032 94.843025 
L 620.108641 98.033146 
L 622.566336 101.506007 
L 625.030136 105.292647 
L 627.493495 109.428721 
L 629.947904 113.955351 
L 632.382395 118.92016 
L 634.782887 124.378541 
L 637.131357 130.39523 
L 639.404755 137.046246 
L 641.573579 144.421322 
L 643.600012 152.626957 
L 645.435446 161.790267 
L 647.017171 172.063879 
L 648.26393 183.6322 
L 649.069881 196.719467 
L 649.296342 211.600165 
L 648.760402 228.612555 
" clip-path="url(#p36c446247b)" style="fill: none; stroke: #a52a2a; stroke-linecap: round"/>
   </g>
   <g id="line2d_65">
    <path d="M 495.548412 106.412791 
L 496.021168 104.394627 
L 496.533483 102.436831 
L 497.083398 100.536324 
L 497.66916 98.690214 
L 498.289207 96.895787 
L 498.942152 95.150488 
L 499.626774 93.45191 
L 500.342007 91.797783 
L 501.086926 90.185961 
L 501.86075 88.614415 
L 502.662823 87.081222 
L 503.501363 85.587869 
L 504.402383 84.144848 
L 505.364179 82.754558 
L 506.382818 81.418493 
L 507.454319 80.137976 
L 508.574667 78.914159 
L 509.739818 77.748026 
L 510.945715 76.640386 
L 512.188298 75.591879 
L 513.46351 74.602979 
L 514.767316 73.673989 
L 516.095704 72.805051 
L 517.444703 71.99614 
L 518.810389 71.247075 
L 520.188893 70.557517 
L 521.576415 69.926975 
L 522.96923 69.354806 
L 524.363698 68.840225 
L 525.756272 68.382308 
L 527.143507 67.979993 
L 528.522068 67.632089 
L 529.888735 67.337282 
L 531.240413 67.094136 
L 532.574138 66.901107 
L 533.887082 66.756541 
L 535.176561 66.658687 
L 536.440038 66.605697 
L 537.67513 66.595641 
L 538.879611 66.626508 
L 540.051416 66.696215 
L 541.188646 66.802615 
L 542.28957 66.943501 
L 543.352629 67.116622 
L 544.376435 67.319679 
L 545.359774 67.550341 
L 546.301608 67.806252 
L 547.201078 68.085034 
L 548.057496 68.384298 
L 548.870352 68.701653 
L 549.639313 69.03471 
L 550.364216 69.381091 
L 551.045071 69.738438 
L 551.682057 70.104418 
L 552.275519 70.476732 
L 552.825967 70.853119 
L 553.334068 71.231368 
L 553.800646 71.609319 
L 554.226674 71.984874 
L 554.652703 71.609319 
L 555.11928 71.231368 
L 555.627381 70.853119 
L 556.177829 70.476732 
L 556.771292 70.104418 
L 557.408277 69.738438 
L 558.089132 69.381091 
L 558.814035 69.03471 
L 559.582996 68.701653 
L 560.395853 68.384298 
L 561.252271 68.085034 
L 562.15174 67.806252 
L 563.093575 67.550341 
L 564.076914 67.319679 
L 565.100719 67.116622 
L 566.163778 66.943501 
L 567.264702 66.802615 
L 568.401933 66.696215 
L 569.573738 66.626508 
L 570.778218 66.595641 
L 572.01331 66.605697 
L 573.276787 66.658687 
L 574.566266 66.756541 
L 575.87921 66.901107 
L 577.212935 67.094136 
L 578.564613 67.337282 
L 579.93128 67.632089 
L 581.309841 67.979993 
L 582.697076 68.382308 
L 584.089651 68.840225 
L 585.484119 69.354806 
L 586.876934 69.926975 
L 588.264455 70.557517 
L 589.642959 71.247075 
L 591.008645 71.99614 
L 592.357644 72.805051 
L 593.686033 73.673989 
L 594.989838 74.602979 
L 596.265051 75.591879 
L 597.507633 76.640386 
L 598.71353 77.748026 
L 599.878681 78.914159 
L 600.999029 80.137976 
L 602.07053 81.418493 
L 603.089169 82.754558 
L 604.050965 84.144848 
L 604.951985 85.587869 
L 605.790525 87.081222 
L 606.592598 88.614415 
L 607.366422 90.185961 
L 608.111342 91.797783 
L 608.826574 93.45191 
L 609.511196 95.150488 
L 610.164141 96.895787 
L 610.784188 98.690214 
L 611.36995 100.536324 
L 611.919865 102.436831 
L 612.43218 104.394627 
L 612.904936 106.412791 
" clip-path="url(#p36c446247b)" style="fill: none; stroke: #ff8c00; stroke-linecap: round"/>
   </g>
   <g id="patch_9">
    <path d="M 403.085697 271.194399 
L 403.085697 29.420772 
" style="fill: none; stroke: #cccccc; stroke-width: 1.25; stroke-linejoin: miter; stroke-linecap: square"/>
   </g>
   <g id="patch_10">
    <path d="M 705.367651 271.194399 
L 705.367651 29.420772 
" style="fill: none; stroke: #cccccc; stroke-width: 1.25; stroke-linejoin: miter; stroke-linecap: square"/>
   </g>
   <g id="patch_11">
    <path d="M 403.085697 271.194399 
L 705.367651 271.194399 
" style="fill: none; stroke: #cccccc; stroke-width: 1.25; stroke-linejoin: miter; stroke-linecap: square"/>
   </g>
   <g id="patch_12">
    <path d="M 403.085697 29.420772 
L 705.367651 29.420772 
" style="fill: none; stroke: #cccccc; stroke-width: 1.25; stroke-linejoin: miter; stroke-linecap: square"/>
   </g>
   <g id="text_32">
    <!-- (b) Receiver view -->
    <g style="fill: #262626" transform="translate(501.970973 23.420772) scale(0.14 -0.14)">
     <defs>
      <path id="CMR17-52" d="M 2509 2146 
C 3117 2268 3629 2676 3629 3186 
C 3629 3785 2950 4326 2054 4326 
L 333 4326 
L 333 4160 
C 774 4160 845 4160 845 3873 
L 845 415 
C 845 128 774 128 333 128 
L 333 -26 
C 518 -26 851 -26 1050 -26 
C 1248 -26 1581 -26 1766 -26 
L 1766 128 
C 1325 128 1254 128 1254 417 
L 1254 2112 
L 2003 2112 
C 2368 2112 2573 1964 2662 1881 
C 2918 1632 2918 1459 2918 1024 
C 2918 595 2918 377 3110 160 
C 3354 -102 3680 -128 3821 -128 
C 4294 -128 4365 396 4365 503 
C 4365 540 4365 585 4307 585 
C 4256 585 4250 547 4250 522 
C 4218 112 4032 -26 3834 -26 
C 3482 -26 3443 375 3405 764 
C 3386 898 3373 993 3360 1133 
C 3322 1452 3270 1917 2509 2146 
z
M 1984 2214 
L 1254 2214 
L 1254 3913 
C 1254 4129 1267 4160 1523 4160 
L 1990 4160 
C 2522 4160 3142 3977 3142 3190 
C 3142 2372 2464 2214 1984 2214 
z
" transform="scale(0.015625)"/>
     </defs>
     <use xlink:href="#CMR17-28" transform="scale(0.996264)"/>
     <use xlink:href="#CMR17-62" transform="translate(35.280768 0) scale(0.996264)"/>
     <use xlink:href="#CMR17-29" transform="translate(86.176138 0) scale(0.996264)"/>
     <use xlink:href="#CMR17-52" transform="translate(151.532872 0) scale(0.996264)"/>
     <use xlink:href="#CMR17-65" transform="translate(219.323974 0) scale(0.996264)"/>
     <use xlink:href="#CMR17-63" transform="translate(259.809634 0) scale(0.996264)"/>
     <use xlink:href="#CMR17-65" transform="translate(300.295295 0) scale(0.996264)"/>
     <use xlink:href="#CMR17-69" transform="translate(340.780955 0) scale(0.996264)"/>
     <use xlink:href="#CMR17-76" transform="translate(365.652014 0) scale(0.996264)"/>
     <use xlink:href="#CMR17-65" transform="translate(411.342475 0) scale(0.996264)"/>
     <use xlink:href="#CMR17-72" transform="translate(451.828136 0) scale(0.996264)"/>
     <use xlink:href="#CMR17-76" transform="translate(517.18487 0) scale(0.996264)"/>
     <use xlink:href="#CMR17-69" transform="translate(565.477786 0) scale(0.996264)"/>
     <use xlink:href="#CMR17-65" transform="translate(590.348844 0) scale(0.996264)"/>
     <use xlink:href="#CMR17-77" transform="translate(630.834505 0) scale(0.996264)"/>
    </g>
   </g>
   <g id="legend_2">
    <g id="patch_13">
     <path d="M 427.936143 53.551667 
L 680.517205 53.551667 
Q 682.717205 53.551667 682.717205 51.351667 
L 682.717205 37.120772 
Q 682.717205 34.920772 680.517205 34.920772 
L 427.936143 34.920772 
Q 425.736143 34.920772 425.736143 37.120772 
L 425.736143 51.351667 
Q 425.736143 53.551667 427.936143 53.551667 
z
" style="fill: #ffffff; opacity: 0.8; stroke: #cccccc; stroke-linejoin: miter"/>
    </g>
    <g id="line2d_66">
     <path d="M 430.136143 43.170772 
L 441.136143 43.170772 
L 452.136143 43.170772 
" style="fill: none; stroke: #000000; stroke-linecap: round"/>
    </g>
    <g id="text_33">
     <!-- CPC -->
     <g style="fill: #262626" transform="translate(460.936143 47.020772) scale(0.11 -0.11)">
      <use xlink:href="#CMR17-43" transform="scale(0.996264)"/>
      <use xlink:href="#CMR17-50" transform="translate(66.509881 0) scale(0.996264)"/>
      <use xlink:href="#CMR17-43" transform="translate(129.096181 0) scale(0.996264)"/>
     </g>
    </g>
    <g id="line2d_67">
     <path d="M 506.22386 43.170772 
L 517.22386 43.170772 
L 528.22386 43.170772 
" style="fill: none; stroke: #a52a2a; stroke-linecap: round"/>
    </g>
    <g id="text_34">
     <!-- CEC -->
     <g style="fill: #262626" transform="translate(537.02386 47.020772) scale(0.11 -0.11)">
      <use xlink:href="#CMR17-43" transform="scale(0.996264)"/>
      <use xlink:href="#CMR17-45" transform="translate(66.509881 0) scale(0.996264)"/>
      <use xlink:href="#CMR17-43" transform="translate(129.096181 0) scale(0.996264)"/>
     </g>
    </g>
    <g id="line2d_68">
     <path d="M 582.311577 43.170772 
L 593.311577 43.170772 
L 604.311577 43.170772 
" style="fill: none; stroke: #ff8c00; stroke-linecap: round"/>
    </g>
    <g id="text_35">
     <!-- Cheng's optic -->
     <g style="fill: #262626" transform="translate(613.111577 47.020772) scale(0.11 -0.11)">
      <defs>
       <path id="CMR17-68" d="M 2656 1933 
C 2656 2259 2592 2790 1837 2790 
C 1312 2790 1056 2368 979 2157 
L 973 2157 
L 973 4396 
L 211 4326 
L 211 4160 
C 589 4160 646 4122 646 3817 
L 646 426 
C 646 184 621 153 211 153 
L 211 -13 
C 365 0 646 0 813 0 
C 979 0 1267 0 1421 -13 
L 1421 153 
C 1011 153 986 178 986 428 
L 986 1658 
C 986 2247 1344 2688 1792 2688 
C 2266 2688 2317 2266 2317 1958 
L 2317 428 
C 2317 184 2291 153 1882 153 
L 1882 -13 
C 2035 0 2317 0 2483 0 
C 2650 0 2938 0 3091 -13 
L 3091 153 
C 2682 153 2656 178 2656 428 
L 2656 1933 
z
" transform="scale(0.015625)"/>
       <path id="CMR17-27" d="M 1024 4025 
C 1037 3955 1043 3929 1043 3820 
C 1043 3415 883 3042 634 2778 
C 608 2752 595 2733 595 2707 
C 595 2681 621 2656 646 2656 
C 691 2656 1146 3105 1146 3811 
C 1146 3952 1133 4426 800 4426 
C 659 4426 538 4331 538 4165 
C 538 3999 659 3904 800 3904 
C 858 3904 966 3923 1024 4025 
z
" transform="scale(0.015625)"/>
       <path id="CMR17-70" d="M 1408 -1063 
C 998 -1063 973 -1037 973 -789 
L 973 402 
C 1158 134 1427 -38 1766 -38 
C 2406 -38 3053 523 3053 1388 
C 3053 2191 2496 2802 1837 2802 
C 1453 2802 1139 2592 960 2338 
L 960 2802 
L 198 2732 
L 198 2567 
C 576 2567 634 2528 634 2223 
L 634 -789 
C 634 -1031 608 -1063 198 -1063 
L 198 -1228 
C 352 -1216 634 -1216 800 -1216 
C 966 -1216 1254 -1216 1408 -1228 
L 1408 -1063 
z
M 973 2012 
C 973 2102 973 2235 1222 2471 
C 1254 2497 1472 2688 1792 2688 
C 2259 2688 2643 2108 2643 1382 
C 2643 656 2234 64 1728 64 
C 1498 64 1248 172 1056 472 
C 973 612 973 650 973 752 
L 973 2012 
z
" transform="scale(0.015625)"/>
      </defs>
      <use xlink:href="#CMR17-43" transform="scale(0.996264)"/>
      <use xlink:href="#CMR17-68" transform="translate(66.509881 0) scale(0.996264)"/>
      <use xlink:href="#CMR17-65" transform="translate(117.40525 0) scale(0.996264)"/>
      <use xlink:href="#CMR17-6e" transform="translate(157.890911 0) scale(0.996264)"/>
      <use xlink:href="#CMR17-67" transform="translate(208.786281 0) scale(0.996264)"/>
      <use xlink:href="#CMR17-27" transform="translate(254.476758 0) scale(0.996264)"/>
      <use xlink:href="#CMR17-73" transform="translate(279.347816 0) scale(0.996264)"/>
      <use xlink:href="#CMR17-6f" transform="translate(345.22512 0) scale(0.996264)"/>
      <use xlink:href="#CMR17-70" transform="translate(390.915597 0) scale(0.996264)"/>
      <use xlink:href="#CMR17-74" transform="translate(441.810967 0) scale(0.996264)"/>
      <use xlink:href="#CMR17-69" transform="translate(477.091735 0) scale(0.996264)"/>
      <use xlink:href="#CMR17-63" transform="translate(501.962793 0) scale(0.996264)"/>
     </g>
    </g>
   </g>
  </g>
 </g>
 <defs>
  <clipPath id="pdec4d9da5d">
   <rect x="54.064673" y="29.420772" width="302.281953" height="241.773627"/>
  </clipPath>
  <clipPath id="p36c446247b">
   <rect x="403.085697" y="29.420772" width="302.281953" height="241.773627"/>
  </clipPath>
 </defs>
</svg>
