<?xml version="1.0" encoding="utf-8" standalone="no"?>
<!DOCTYPE svg PUBLIC "-//W3C//DTD SVG 1.1//EN"
  "http://www.w3.org/Graphics/SVG/1.1/DTD/svg11.dtd">
<svg xmlns:xlink="http://www.w3.org/1999/xlink" width="432pt" height="720pt" viewBox="0 0 432 720" xmlns="http://www.w3.org/2000/svg" version="1.1">
 <metadata>
  <rdf:RDF xmlns:dc="http://purl.org/dc/elements/1.1/" xmlns:cc="http://creativecommons.org/ns#" xmlns:rdf="http://www.w3.org/1999/02/22-rdf-syntax-ns#">
   <cc:Work>
    <dc:type rdf:resource="http://purl.org/dc/dcmitype/StillImage"/>
    <dc:date>2024-08-19T14:54:27.318185</dc:date>
    <dc:format>image/svg+xml</dc:format>
    <dc:creator>
     <cc:Agent>
      <dc:title>Matplotlib v3.8.2, https://matplotlib.org/</dc:title>
     </cc:Agent>
    </dc:creator>
   </cc:Work>
  </rdf:RDF>
 </metadata>
 <defs>
  <style type="text/css">*{stroke-linejoin: round; stroke-linecap: butt}</style>
 </defs>
 <g id="figure_1">
  <g id="patch_1">
   <path d="M 0 720 
L 432 720 
L 432 0 
L 0 0 
z
" style="fill: #ffffff"/>
  </g>
  <g id="axes_1">
   <g id="patch_2">
    <path d="M 61.325714 208.316127 
L 419.04 208.316127 
L 419.04 29.420772 
L 61.325714 29.420772 
z
" style="fill: #ffffff"/>
   </g>
   <g id="matplotlib.axis_1">
    <g id="xtick_1">
     <g id="line2d_1">
      <path d="M 77.585454 208.316127 
L 77.585454 29.420772 
" clip-path="url(#pb6f0ad5d27)" style="fill: none; stroke: #cccccc; stroke-linecap: round"/>
     </g>
     <g id="text_1">
      <!-- $0$$^\circ$ -->
      <g style="fill: #262626" transform="translate(71.662596 227.502003) scale(0.14 -0.14)">
       <defs>
        <path id="CMR17-30" d="M 2688 2025 
C 2688 2416 2682 3080 2413 3591 
C 2176 4039 1798 4198 1466 4198 
C 1158 4198 768 4058 525 3597 
C 269 3118 243 2524 243 2025 
C 243 1661 250 1106 448 619 
C 723 -39 1216 -128 1466 -128 
C 1760 -128 2208 -7 2470 600 
C 2662 1042 2688 1559 2688 2025 
z
M 1466 -26 
C 1056 -26 813 325 723 812 
C 653 1188 653 1738 653 2096 
C 653 2588 653 2997 736 3387 
C 858 3929 1216 4096 1466 4096 
C 1728 4096 2067 3923 2189 3400 
C 2272 3036 2278 2607 2278 2096 
C 2278 1680 2278 1169 2202 792 
C 2067 95 1690 -26 1466 -26 
z
" transform="scale(0.015625)"/>
        <path id="CMSY10-e" d="M 2842 1600 
C 2842 2277 2272 2828 1600 2828 
C 909 2828 352 2264 352 1600 
C 352 930 909 372 1600 372 
C 2272 372 2842 923 2842 1600 
z
M 1600 628 
C 1043 628 608 1070 608 1600 
C 608 2130 1050 2572 1600 2572 
C 2131 2572 2586 2142 2586 1600 
C 2586 1058 2131 628 1600 628 
z
" transform="scale(0.015625)"/>
       </defs>
       <use xlink:href="#CMR17-30" transform="scale(0.996264)"/>
       <use xlink:href="#CMSY10-e" transform="translate(45.690477 36.153639) scale(0.697382)"/>
      </g>
     </g>
    </g>
    <g id="xtick_2">
     <g id="line2d_2">
      <path d="M 154.101879 208.316127 
L 154.101879 29.420772 
" clip-path="url(#pb6f0ad5d27)" style="fill: none; stroke: #cccccc; stroke-linecap: round"/>
     </g>
     <g id="text_2">
      <!-- $20$$^\circ$ -->
      <g style="fill: #262626" transform="translate(144.764777 227.502003) scale(0.14 -0.14)">
       <defs>
        <path id="CMR17-32" d="M 2669 989 
L 2554 989 
C 2490 536 2438 459 2413 420 
C 2381 369 1920 369 1830 369 
L 602 369 
C 832 619 1280 1072 1824 1597 
C 2214 1967 2669 2402 2669 3035 
C 2669 3790 2067 4224 1395 4224 
C 691 4224 262 3604 262 3030 
C 262 2780 448 2748 525 2748 
C 589 2748 781 2787 781 3010 
C 781 3207 614 3264 525 3264 
C 486 3264 448 3258 422 3245 
C 544 3790 915 4058 1306 4058 
C 1862 4058 2227 3617 2227 3035 
C 2227 2479 1901 2000 1536 1584 
L 262 146 
L 262 0 
L 2515 0 
L 2669 989 
z
" transform="scale(0.015625)"/>
       </defs>
       <use xlink:href="#CMR17-32" transform="scale(0.996264)"/>
       <use xlink:href="#CMR17-30" transform="translate(45.690477 0) scale(0.996264)"/>
       <use xlink:href="#CMSY10-e" transform="translate(91.380954 36.153639) scale(0.697382)"/>
      </g>
     </g>
    </g>
    <g id="xtick_3">
     <g id="line2d_3">
      <path d="M 230.618304 208.316127 
L 230.618304 29.420772 
" clip-path="url(#pb6f0ad5d27)" style="fill: none; stroke: #cccccc; stroke-linecap: round"/>
     </g>
     <g id="text_3">
      <!-- $40$$^\circ$ -->
      <g style="fill: #262626" transform="translate(221.281202 227.502003) scale(0.14 -0.14)">
       <defs>
        <path id="CMR17-34" d="M 2150 4122 
C 2150 4256 2144 4256 2029 4256 
L 128 1254 
L 128 1088 
L 1779 1088 
L 1779 457 
C 1779 224 1766 160 1318 160 
L 1197 160 
L 1197 0 
C 1402 0 1747 0 1965 0 
C 2182 0 2528 0 2733 0 
L 2733 160 
L 2611 160 
C 2163 160 2150 224 2150 457 
L 2150 1088 
L 2803 1088 
L 2803 1254 
L 2150 1254 
L 2150 4122 
z
M 1798 3703 
L 1798 1254 
L 256 1254 
L 1798 3703 
z
" transform="scale(0.015625)"/>
       </defs>
       <use xlink:href="#CMR17-34" transform="scale(0.996264)"/>
       <use xlink:href="#CMR17-30" transform="translate(45.690477 0) scale(0.996264)"/>
       <use xlink:href="#CMSY10-e" transform="translate(91.380954 36.153639) scale(0.697382)"/>
      </g>
     </g>
    </g>
    <g id="xtick_4">
     <g id="line2d_4">
      <path d="M 307.134729 208.316127 
L 307.134729 29.420772 
" clip-path="url(#pb6f0ad5d27)" style="fill: none; stroke: #cccccc; stroke-linecap: round"/>
     </g>
     <g id="text_4">
      <!-- $60$$^\circ$ -->
      <g style="fill: #262626" transform="translate(297.797627 227.502003) scale(0.14 -0.14)">
       <defs>
        <path id="CMR17-36" d="M 678 2176 
C 678 3690 1395 4032 1811 4032 
C 1946 4032 2272 4009 2400 3776 
C 2298 3776 2106 3776 2106 3553 
C 2106 3381 2246 3323 2336 3323 
C 2394 3323 2566 3348 2566 3560 
C 2566 3954 2246 4179 1805 4179 
C 1043 4179 243 3390 243 1984 
C 243 253 966 -128 1478 -128 
C 2099 -128 2688 427 2688 1283 
C 2688 2081 2170 2662 1517 2662 
C 1126 2662 838 2407 678 1960 
L 678 2176 
z
M 1478 25 
C 691 25 691 1200 691 1436 
C 691 1896 909 2560 1504 2560 
C 1613 2560 1926 2560 2138 2120 
C 2253 1870 2253 1609 2253 1289 
C 2253 944 2253 690 2118 434 
C 1978 171 1773 25 1478 25 
z
" transform="scale(0.015625)"/>
       </defs>
       <use xlink:href="#CMR17-36" transform="scale(0.996264)"/>
       <use xlink:href="#CMR17-30" transform="translate(45.690477 0) scale(0.996264)"/>
       <use xlink:href="#CMSY10-e" transform="translate(91.380954 36.153639) scale(0.697382)"/>
      </g>
     </g>
    </g>
    <g id="xtick_5">
     <g id="line2d_5">
      <path d="M 383.651153 208.316127 
L 383.651153 29.420772 
" clip-path="url(#pb6f0ad5d27)" style="fill: none; stroke: #cccccc; stroke-linecap: round"/>
     </g>
     <g id="text_5">
      <!-- $80$$^\circ$ -->
      <g style="fill: #262626" transform="translate(374.314052 227.502003) scale(0.14 -0.14)">
       <defs>
        <path id="CMR17-38" d="M 1741 2264 
C 2144 2467 2554 2773 2554 3263 
C 2554 3841 1990 4179 1472 4179 
C 890 4179 378 3759 378 3180 
C 378 3021 416 2747 666 2505 
C 730 2442 998 2251 1171 2130 
C 883 1983 211 1634 211 934 
C 211 279 838 -128 1459 -128 
C 2144 -128 2720 362 2720 1010 
C 2720 1590 2330 1857 2074 2029 
L 1741 2264 
z
M 902 2822 
C 851 2854 595 3051 595 3351 
C 595 3739 998 4032 1459 4032 
C 1965 4032 2336 3676 2336 3262 
C 2336 2669 1670 2331 1638 2331 
C 1632 2331 1626 2331 1574 2370 
L 902 2822 
z
M 2080 1519 
C 2176 1449 2483 1240 2483 851 
C 2483 381 2010 25 1472 25 
C 890 25 448 438 448 940 
C 448 1443 838 1862 1280 2060 
L 2080 1519 
z
" transform="scale(0.015625)"/>
       </defs>
       <use xlink:href="#CMR17-38" transform="scale(0.996264)"/>
       <use xlink:href="#CMR17-30" transform="translate(45.690477 0) scale(0.996264)"/>
       <use xlink:href="#CMSY10-e" transform="translate(91.380954 36.153639) scale(0.697382)"/>
      </g>
     </g>
    </g>
   </g>
   <g id="matplotlib.axis_2">
    <g id="ytick_1">
     <g id="line2d_6">
      <path d="M 61.325714 177.141774 
L 419.04 177.141774 
" clip-path="url(#pb6f0ad5d27)" style="fill: none; stroke: #cccccc; stroke-linecap: round"/>
     </g>
     <g id="text_6">
      <!-- $\mathdefault{0.2}$ -->
      <g style="fill: #262626" transform="translate(34.375131 181.984712) scale(0.14 -0.14)">
       <defs>
        <path id="CMMI12-3a" d="M 1178 307 
C 1178 492 1024 619 870 619 
C 685 619 557 466 557 313 
C 557 128 710 0 864 0 
C 1050 0 1178 153 1178 307 
z
" transform="scale(0.015625)"/>
       </defs>
       <use xlink:href="#CMR17-30" transform="scale(0.996264)"/>
       <use xlink:href="#CMMI12-3a" transform="translate(45.690477 0) scale(0.996264)"/>
       <use xlink:href="#CMR17-32" transform="translate(72.787654 0) scale(0.996264)"/>
      </g>
     </g>
    </g>
    <g id="ytick_2">
     <g id="line2d_7">
      <path d="M 61.325714 121.185602 
L 419.04 121.185602 
" clip-path="url(#pb6f0ad5d27)" style="fill: none; stroke: #cccccc; stroke-linecap: round"/>
     </g>
     <g id="text_7">
      <!-- $\mathdefault{0.4}$ -->
      <g style="fill: #262626" transform="translate(34.375131 126.02854) scale(0.14 -0.14)">
       <use xlink:href="#CMR17-30" transform="scale(0.996264)"/>
       <use xlink:href="#CMMI12-3a" transform="translate(45.690477 0) scale(0.996264)"/>
       <use xlink:href="#CMR17-34" transform="translate(72.787654 0) scale(0.996264)"/>
      </g>
     </g>
    </g>
    <g id="ytick_3">
     <g id="line2d_8">
      <path d="M 61.325714 65.22943 
L 419.04 65.22943 
" clip-path="url(#pb6f0ad5d27)" style="fill: none; stroke: #cccccc; stroke-linecap: round"/>
     </g>
     <g id="text_8">
      <!-- $\mathdefault{0.6}$ -->
      <g style="fill: #262626" transform="translate(34.375131 70.072369) scale(0.14 -0.14)">
       <use xlink:href="#CMR17-30" transform="scale(0.996264)"/>
       <use xlink:href="#CMMI12-3a" transform="translate(45.690477 0) scale(0.996264)"/>
       <use xlink:href="#CMR17-36" transform="translate(72.787654 0) scale(0.996264)"/>
      </g>
     </g>
    </g>
    <g id="text_9">
     <!-- $\eta$ -->
     <g style="fill: #262626" transform="translate(27.663103 122.237491) rotate(-90) scale(0.14 -0.14)">
      <defs>
       <path id="CMMI12-11" d="M 3040 1768 
C 3072 1895 3091 1973 3091 2145 
C 3091 2528 2867 2815 2381 2815 
C 1811 2815 1510 2413 1395 2254 
C 1376 2618 1114 2815 832 2815 
C 646 2815 499 2726 378 2483 
C 262 2254 173 1864 173 1839 
C 173 1813 198 1781 243 1781 
C 294 1781 301 1788 339 1934 
C 435 2311 557 2688 813 2688 
C 960 2688 1011 2586 1011 2394 
C 1011 2254 947 2005 902 1807 
L 723 1118 
C 698 996 627 709 595 593 
C 550 428 480 127 480 96 
C 480 6 550 -64 646 -64 
C 723 -64 813 -25 864 70 
C 877 102 934 326 966 453 
L 1107 1028 
L 1318 1871 
C 1331 1909 1491 2228 1728 2432 
C 1894 2586 2112 2688 2362 2688 
C 2618 2688 2707 2496 2707 2241 
C 2707 2055 2682 1953 2650 1831 
L 1907 -1107 
C 1901 -1139 1888 -1177 1888 -1216 
C 1888 -1312 1965 -1376 2061 -1376 
C 2118 -1376 2253 -1350 2304 -1158 
L 3040 1768 
z
" transform="scale(0.015625)"/>
      </defs>
      <use xlink:href="#CMMI12-11" transform="scale(0.996264)"/>
     </g>
    </g>
   </g>
   <g id="line2d_9">
    <path d="M 77.585454 37.552379 
L 96.71456 42.484747 
L 115.843666 42.231145 
L 134.972773 39.197182 
L 154.101879 42.484714 
L 173.230985 45.814684 
L 192.360091 46.996384 
L 211.489197 38.795877 
L 230.618304 41.835389 
L 249.74741 44.713416 
L 268.876516 47.999382 
L 288.005622 52.11617 
L 307.134729 56.534546 
L 326.263835 67.516286 
L 345.392941 91.041617 
L 364.522047 123.699674 
L 383.651153 157.888421 
L 402.78026 192.461977 
" clip-path="url(#pb6f0ad5d27)" style="fill: none; stroke: #4c72b0; stroke-width: 1.5; stroke-linecap: round"/>
    <defs>
     <path id="m7400f18d97" d="M -2 2 
L 2 2 
L 2 -2 
L -2 -2 
z
" style="stroke: #4c72b0; stroke-linejoin: miter"/>
    </defs>
    <g clip-path="url(#pb6f0ad5d27)">
     <use xlink:href="#m7400f18d97" x="77.585454" y="37.552379" style="fill: #4c72b0; stroke: #4c72b0; stroke-linejoin: miter"/>
     <use xlink:href="#m7400f18d97" x="96.71456" y="42.484747" style="fill: #4c72b0; stroke: #4c72b0; stroke-linejoin: miter"/>
     <use xlink:href="#m7400f18d97" x="115.843666" y="42.231145" style="fill: #4c72b0; stroke: #4c72b0; stroke-linejoin: miter"/>
     <use xlink:href="#m7400f18d97" x="134.972773" y="39.197182" style="fill: #4c72b0; stroke: #4c72b0; stroke-linejoin: miter"/>
     <use xlink:href="#m7400f18d97" x="154.101879" y="42.484714" style="fill: #4c72b0; stroke: #4c72b0; stroke-linejoin: miter"/>
     <use xlink:href="#m7400f18d97" x="173.230985" y="45.814684" style="fill: #4c72b0; stroke: #4c72b0; stroke-linejoin: miter"/>
     <use xlink:href="#m7400f18d97" x="192.360091" y="46.996384" style="fill: #4c72b0; stroke: #4c72b0; stroke-linejoin: miter"/>
     <use xlink:href="#m7400f18d97" x="211.489197" y="38.795877" style="fill: #4c72b0; stroke: #4c72b0; stroke-linejoin: miter"/>
     <use xlink:href="#m7400f18d97" x="230.618304" y="41.835389" style="fill: #4c72b0; stroke: #4c72b0; stroke-linejoin: miter"/>
     <use xlink:href="#m7400f18d97" x="249.74741" y="44.713416" style="fill: #4c72b0; stroke: #4c72b0; stroke-linejoin: miter"/>
     <use xlink:href="#m7400f18d97" x="268.876516" y="47.999382" style="fill: #4c72b0; stroke: #4c72b0; stroke-linejoin: miter"/>
     <use xlink:href="#m7400f18d97" x="288.005622" y="52.11617" style="fill: #4c72b0; stroke: #4c72b0; stroke-linejoin: miter"/>
     <use xlink:href="#m7400f18d97" x="307.134729" y="56.534546" style="fill: #4c72b0; stroke: #4c72b0; stroke-linejoin: miter"/>
     <use xlink:href="#m7400f18d97" x="326.263835" y="67.516286" style="fill: #4c72b0; stroke: #4c72b0; stroke-linejoin: miter"/>
     <use xlink:href="#m7400f18d97" x="345.392941" y="91.041617" style="fill: #4c72b0; stroke: #4c72b0; stroke-linejoin: miter"/>
     <use xlink:href="#m7400f18d97" x="364.522047" y="123.699674" style="fill: #4c72b0; stroke: #4c72b0; stroke-linejoin: miter"/>
     <use xlink:href="#m7400f18d97" x="383.651153" y="157.888421" style="fill: #4c72b0; stroke: #4c72b0; stroke-linejoin: miter"/>
     <use xlink:href="#m7400f18d97" x="402.78026" y="192.461977" style="fill: #4c72b0; stroke: #4c72b0; stroke-linejoin: miter"/>
    </g>
   </g>
   <g id="line2d_10">
    <path d="M 77.585454 78.671375 
L 96.71456 71.867233 
L 115.843666 80.535296 
L 134.972773 76.350451 
L 154.101879 80.330268 
L 173.230985 84.838343 
L 192.360091 82.412449 
L 211.489197 69.053279 
L 230.618304 67.477573 
L 249.74741 70.300345 
L 268.876516 73.672283 
L 288.005622 76.693124 
L 307.134729 80.647765 
L 326.263835 90.073879 
L 345.392941 110.703966 
L 364.522047 139.303196 
L 383.651153 169.641702 
L 402.78026 200.18452 
" clip-path="url(#pb6f0ad5d27)" style="fill: none; stroke: #dd8452; stroke-width: 1.5; stroke-linecap: round"/>
    <defs>
     <path id="m8a2416a9e0" d="M -2 2 
L 2 2 
L 2 -2 
L -2 -2 
z
" style="stroke: #dd8452; stroke-linejoin: miter"/>
    </defs>
    <g clip-path="url(#pb6f0ad5d27)">
     <use xlink:href="#m8a2416a9e0" x="77.585454" y="78.671375" style="fill: #dd8452; stroke: #dd8452; stroke-linejoin: miter"/>
     <use xlink:href="#m8a2416a9e0" x="96.71456" y="71.867233" style="fill: #dd8452; stroke: #dd8452; stroke-linejoin: miter"/>
     <use xlink:href="#m8a2416a9e0" x="115.843666" y="80.535296" style="fill: #dd8452; stroke: #dd8452; stroke-linejoin: miter"/>
     <use xlink:href="#m8a2416a9e0" x="134.972773" y="76.350451" style="fill: #dd8452; stroke: #dd8452; stroke-linejoin: miter"/>
     <use xlink:href="#m8a2416a9e0" x="154.101879" y="80.330268" style="fill: #dd8452; stroke: #dd8452; stroke-linejoin: miter"/>
     <use xlink:href="#m8a2416a9e0" x="173.230985" y="84.838343" style="fill: #dd8452; stroke: #dd8452; stroke-linejoin: miter"/>
     <use xlink:href="#m8a2416a9e0" x="192.360091" y="82.412449" style="fill: #dd8452; stroke: #dd8452; stroke-linejoin: miter"/>
     <use xlink:href="#m8a2416a9e0" x="211.489197" y="69.053279" style="fill: #dd8452; stroke: #dd8452; stroke-linejoin: miter"/>
     <use xlink:href="#m8a2416a9e0" x="230.618304" y="67.477573" style="fill: #dd8452; stroke: #dd8452; stroke-linejoin: miter"/>
     <use xlink:href="#m8a2416a9e0" x="249.74741" y="70.300345" style="fill: #dd8452; stroke: #dd8452; stroke-linejoin: miter"/>
     <use xlink:href="#m8a2416a9e0" x="268.876516" y="73.672283" style="fill: #dd8452; stroke: #dd8452; stroke-linejoin: miter"/>
     <use xlink:href="#m8a2416a9e0" x="288.005622" y="76.693124" style="fill: #dd8452; stroke: #dd8452; stroke-linejoin: miter"/>
     <use xlink:href="#m8a2416a9e0" x="307.134729" y="80.647765" style="fill: #dd8452; stroke: #dd8452; stroke-linejoin: miter"/>
     <use xlink:href="#m8a2416a9e0" x="326.263835" y="90.073879" style="fill: #dd8452; stroke: #dd8452; stroke-linejoin: miter"/>
     <use xlink:href="#m8a2416a9e0" x="345.392941" y="110.703966" style="fill: #dd8452; stroke: #dd8452; stroke-linejoin: miter"/>
     <use xlink:href="#m8a2416a9e0" x="364.522047" y="139.303196" style="fill: #dd8452; stroke: #dd8452; stroke-linejoin: miter"/>
     <use xlink:href="#m8a2416a9e0" x="383.651153" y="169.641702" style="fill: #dd8452; stroke: #dd8452; stroke-linejoin: miter"/>
     <use xlink:href="#m8a2416a9e0" x="402.78026" y="200.18452" style="fill: #dd8452; stroke: #dd8452; stroke-linejoin: miter"/>
    </g>
   </g>
   <g id="line2d_11">
    <path d="M 77.585454 60.747731 
L 96.71456 56.044861 
L 115.843666 62.592764 
L 134.972773 59.972957 
L 154.101879 62.968734 
L 173.230985 69.190594 
L 192.360091 71.093557 
L 211.489197 61.905749 
L 230.618304 52.518042 
L 249.74741 55.430015 
L 268.876516 58.718444 
L 288.005622 62.460055 
L 307.134729 66.74736 
L 326.263835 77.340834 
L 345.392941 99.481766 
L 364.522047 130.222374 
L 383.651153 162.936161 
L 402.78026 195.728703 
" clip-path="url(#pb6f0ad5d27)" style="fill: none; stroke: #55a868; stroke-width: 1.5; stroke-linecap: round"/>
    <defs>
     <path id="m4aaffa0e32" d="M -2 2 
L 2 2 
L 2 -2 
L -2 -2 
z
" style="stroke: #55a868; stroke-linejoin: miter"/>
    </defs>
    <g clip-path="url(#pb6f0ad5d27)">
     <use xlink:href="#m4aaffa0e32" x="77.585454" y="60.747731" style="fill: #55a868; stroke: #55a868; stroke-linejoin: miter"/>
     <use xlink:href="#m4aaffa0e32" x="96.71456" y="56.044861" style="fill: #55a868; stroke: #55a868; stroke-linejoin: miter"/>
     <use xlink:href="#m4aaffa0e32" x="115.843666" y="62.592764" style="fill: #55a868; stroke: #55a868; stroke-linejoin: miter"/>
     <use xlink:href="#m4aaffa0e32" x="134.972773" y="59.972957" style="fill: #55a868; stroke: #55a868; stroke-linejoin: miter"/>
     <use xlink:href="#m4aaffa0e32" x="154.101879" y="62.968734" style="fill: #55a868; stroke: #55a868; stroke-linejoin: miter"/>
     <use xlink:href="#m4aaffa0e32" x="173.230985" y="69.190594" style="fill: #55a868; stroke: #55a868; stroke-linejoin: miter"/>
     <use xlink:href="#m4aaffa0e32" x="192.360091" y="71.093557" style="fill: #55a868; stroke: #55a868; stroke-linejoin: miter"/>
     <use xlink:href="#m4aaffa0e32" x="211.489197" y="61.905749" style="fill: #55a868; stroke: #55a868; stroke-linejoin: miter"/>
     <use xlink:href="#m4aaffa0e32" x="230.618304" y="52.518042" style="fill: #55a868; stroke: #55a868; stroke-linejoin: miter"/>
     <use xlink:href="#m4aaffa0e32" x="249.74741" y="55.430015" style="fill: #55a868; stroke: #55a868; stroke-linejoin: miter"/>
     <use xlink:href="#m4aaffa0e32" x="268.876516" y="58.718444" style="fill: #55a868; stroke: #55a868; stroke-linejoin: miter"/>
     <use xlink:href="#m4aaffa0e32" x="288.005622" y="62.460055" style="fill: #55a868; stroke: #55a868; stroke-linejoin: miter"/>
     <use xlink:href="#m4aaffa0e32" x="307.134729" y="66.74736" style="fill: #55a868; stroke: #55a868; stroke-linejoin: miter"/>
     <use xlink:href="#m4aaffa0e32" x="326.263835" y="77.340834" style="fill: #55a868; stroke: #55a868; stroke-linejoin: miter"/>
     <use xlink:href="#m4aaffa0e32" x="345.392941" y="99.481766" style="fill: #55a868; stroke: #55a868; stroke-linejoin: miter"/>
     <use xlink:href="#m4aaffa0e32" x="364.522047" y="130.222374" style="fill: #55a868; stroke: #55a868; stroke-linejoin: miter"/>
     <use xlink:href="#m4aaffa0e32" x="383.651153" y="162.936161" style="fill: #55a868; stroke: #55a868; stroke-linejoin: miter"/>
     <use xlink:href="#m4aaffa0e32" x="402.78026" y="195.728703" style="fill: #55a868; stroke: #55a868; stroke-linejoin: miter"/>
    </g>
   </g>
   <g id="patch_3">
    <path d="M 61.325714 208.316127 
L 61.325714 29.420772 
" style="fill: none; stroke: #cccccc; stroke-width: 1.25; stroke-linejoin: miter; stroke-linecap: square"/>
   </g>
   <g id="patch_4">
    <path d="M 419.04 208.316127 
L 419.04 29.420772 
" style="fill: none; stroke: #cccccc; stroke-width: 1.25; stroke-linejoin: miter; stroke-linecap: square"/>
   </g>
   <g id="patch_5">
    <path d="M 61.325714 208.316127 
L 419.04 208.316127 
" style="fill: none; stroke: #cccccc; stroke-width: 1.25; stroke-linejoin: miter; stroke-linecap: square"/>
   </g>
   <g id="patch_6">
    <path d="M 61.325714 29.420772 
L 419.04 29.420772 
" style="fill: none; stroke: #cccccc; stroke-width: 1.25; stroke-linejoin: miter; stroke-linecap: square"/>
   </g>
   <g id="text_10">
    <!-- (a) Transversal optical efficiency -->
    <g style="fill: #262626" transform="translate(143.370062 23.420772) scale(0.14 -0.14)">
     <defs>
      <path id="CMR17-28" d="M 1958 -1561 
C 1958 -1555 1958 -1542 1939 -1523 
C 1645 -1224 858 -407 858 1581 
C 858 3569 1632 4379 1946 4697 
C 1946 4704 1958 4717 1958 4736 
C 1958 4755 1939 4768 1914 4768 
C 1843 4768 1299 4296 986 3594 
C 666 2887 576 2199 576 1588 
C 576 1128 621 351 1005 -471 
C 1312 -1135 1837 -1600 1914 -1600 
C 1946 -1600 1958 -1587 1958 -1561 
z
" transform="scale(0.015625)"/>
      <path id="CMR17-61" d="M 2304 1653 
C 2304 2072 2304 2294 2035 2543 
C 1798 2752 1523 2816 1306 2816 
C 800 2816 435 2407 435 1971 
C 435 1728 627 1728 666 1728 
C 749 1728 896 1778 896 1954 
C 896 2112 774 2181 666 2181 
C 640 2181 608 2174 589 2168 
C 723 2592 1069 2714 1293 2714 
C 1613 2714 1965 2429 1965 1885 
L 1965 1600 
C 1587 1600 1133 1549 774 1357 
C 371 1133 256 813 256 570 
C 256 77 832 -64 1171 -64 
C 1523 -64 1850 139 1990 511 
C 2003 233 2182 -18 2464 -18 
C 2598 -18 2938 70 2938 567 
L 2938 920 
L 2822 920 
L 2822 562 
C 2822 178 2650 128 2566 128 
C 2304 128 2304 458 2304 738 
L 2304 1653 
z
M 1965 870 
C 1965 317 1568 38 1216 38 
C 896 38 646 275 646 570 
C 646 761 730 1100 1101 1305 
C 1408 1478 1760 1504 1965 1504 
L 1965 870 
z
" transform="scale(0.015625)"/>
      <path id="CMR17-29" d="M 1683 1581 
C 1683 2040 1638 2817 1254 3639 
C 947 4303 422 4768 346 4768 
C 326 4768 301 4761 301 4729 
C 301 4717 307 4710 314 4697 
C 621 4378 1402 3568 1402 1584 
C 1402 -407 627 -1217 314 -1537 
C 307 -1549 301 -1556 301 -1568 
C 301 -1600 326 -1600 346 -1600 
C 416 -1600 960 -1128 1274 -426 
C 1594 281 1683 969 1683 1581 
z
" transform="scale(0.015625)"/>
      <path id="CMR17-54" d="M 3981 4326 
L 288 4326 
L 179 2918 
L 294 2918 
C 378 3976 467 4160 1453 4160 
C 1568 4160 1754 4160 1805 4154 
C 1926 4135 1926 4058 1926 3912 
L 1926 459 
C 1926 230 1907 160 1376 160 
L 1197 160 
L 1197 0 
C 1504 0 1824 0 2138 0 
C 2451 0 2771 0 3078 0 
L 3078 160 
L 2899 160 
C 2368 160 2349 230 2349 459 
L 2349 3912 
C 2349 4052 2349 4129 2464 4154 
C 2515 4160 2701 4160 2816 4160 
C 3795 4160 3891 3976 3974 2918 
L 4090 2918 
L 3981 4326 
z
" transform="scale(0.015625)"/>
      <path id="CMR17-72" d="M 960 1497 
C 960 2112 1222 2688 1702 2688 
C 1747 2688 1792 2682 1837 2662 
C 1837 2662 1696 2617 1696 2452 
C 1696 2298 1818 2234 1914 2234 
C 1990 2234 2131 2279 2131 2458 
C 2131 2663 1926 2790 1709 2790 
C 1222 2790 1011 2317 947 2093 
L 941 2093 
L 941 2790 
L 198 2720 
L 198 2554 
C 576 2554 634 2515 634 2208 
L 634 428 
C 634 184 608 153 198 153 
L 198 -13 
C 352 0 646 0 813 0 
C 998 0 1325 0 1498 -13 
L 1498 153 
C 1037 153 960 153 960 440 
L 960 1497 
z
" transform="scale(0.015625)"/>
      <path id="CMR17-6e" d="M 2656 1933 
C 2656 2259 2592 2790 1837 2790 
C 1331 2790 1069 2400 973 2144 
L 966 2144 
L 966 2790 
L 211 2720 
L 211 2554 
C 589 2554 646 2515 646 2208 
L 646 428 
C 646 184 621 153 211 153 
L 211 -13 
C 365 0 646 0 813 0 
C 979 0 1267 0 1421 -13 
L 1421 153 
C 1011 153 986 178 986 428 
L 986 1658 
C 986 2247 1344 2688 1792 2688 
C 2266 2688 2317 2266 2317 1958 
L 2317 428 
C 2317 184 2291 153 1882 153 
L 1882 -13 
C 2035 0 2317 0 2483 0 
C 2650 0 2938 0 3091 -13 
L 3091 153 
C 2682 153 2656 178 2656 428 
L 2656 1933 
z
" transform="scale(0.015625)"/>
      <path id="CMR17-73" d="M 1978 2697 
C 1978 2813 1971 2819 1933 2819 
C 1907 2819 1901 2813 1824 2717 
C 1805 2691 1747 2626 1728 2601 
C 1523 2819 1235 2819 1126 2819 
C 416 2819 160 2447 160 2076 
C 160 1498 813 1365 998 1325 
C 1402 1243 1542 1217 1677 1101 
C 1760 1025 1901 884 1901 654 
C 1901 384 1747 38 1158 38 
C 602 38 403 460 288 1021 
C 269 1110 269 1117 218 1117 
C 166 1117 160 1110 160 983 
L 160 63 
C 160 -51 166 -58 205 -58 
C 237 -58 243 -51 275 0 
C 314 57 410 211 448 276 
C 576 103 800 -64 1158 -64 
C 1792 -64 2131 283 2131 784 
C 2131 1112 1958 1285 1875 1362 
C 1683 1561 1459 1606 1190 1657 
C 838 1735 390 1825 390 2217 
C 390 2383 480 2737 1126 2737 
C 1811 2737 1850 2094 1862 1888 
C 1869 1856 1901 1849 1920 1849 
C 1978 1849 1978 1869 1978 1978 
L 1978 2697 
z
" transform="scale(0.015625)"/>
      <path id="CMR17-76" d="M 2502 2163 
C 2560 2304 2662 2560 3034 2560 
L 3034 2726 
C 2912 2726 2752 2726 2630 2726 
C 2496 2726 2285 2726 2157 2732 
L 2157 2566 
C 2317 2553 2406 2477 2406 2311 
C 2406 2253 2406 2240 2368 2151 
L 1664 377 
L 902 2286 
C 864 2369 864 2381 864 2407 
C 864 2560 1075 2560 1171 2560 
L 1171 2732 
C 1018 2726 736 2726 576 2726 
C 403 2726 205 2726 64 2732 
L 64 2560 
C 307 2560 442 2560 518 2362 
L 1446 44 
C 1485 -51 1491 -64 1549 -64 
C 1606 -64 1613 -51 1651 44 
L 2502 2163 
z
" transform="scale(0.015625)"/>
      <path id="CMR17-65" d="M 2438 1472 
C 2464 1498 2464 1511 2464 1576 
C 2464 2238 2118 2816 1389 2816 
C 710 2816 173 2169 173 1383 
C 173 551 781 -64 1459 -64 
C 2176 -64 2458 607 2458 740 
C 2458 784 2419 784 2406 784 
C 2362 784 2355 771 2330 696 
C 2189 265 1837 51 1504 51 
C 1229 51 954 203 781 480 
C 582 803 582 1176 582 1472 
L 2438 1472 
z
M 589 1568 
C 634 2505 1126 2714 1382 2714 
C 1818 2714 2112 2297 2118 1568 
L 589 1568 
z
" transform="scale(0.015625)"/>
      <path id="CMR17-6c" d="M 979 4396 
L 218 4326 
L 218 4160 
C 595 4160 653 4122 653 3817 
L 653 426 
C 653 184 627 153 218 153 
L 218 -13 
C 371 0 653 0 813 0 
C 979 0 1261 0 1414 -13 
L 1414 153 
C 1005 153 979 178 979 426 
L 979 4396 
z
" transform="scale(0.015625)"/>
      <path id="CMR17-6f" d="M 2758 1356 
C 2758 2176 2163 2816 1466 2816 
C 768 2816 173 2176 173 1356 
C 173 551 768 -64 1466 -64 
C 2163 -64 2758 551 2758 1356 
z
M 1466 51 
C 1165 51 909 230 762 480 
C 602 767 582 1126 582 1408 
C 582 1677 595 2010 762 2298 
C 890 2509 1139 2714 1466 2714 
C 1754 2714 1997 2554 2150 2330 
C 2349 2029 2349 1607 2349 1408 
C 2349 1158 2336 775 2163 467 
C 1984 173 1709 51 1466 51 
z
" transform="scale(0.015625)"/>
      <path id="CMR17-70" d="M 1408 -1063 
C 998 -1063 973 -1037 973 -789 
L 973 402 
C 1158 134 1427 -38 1766 -38 
C 2406 -38 3053 523 3053 1388 
C 3053 2191 2496 2802 1837 2802 
C 1453 2802 1139 2592 960 2338 
L 960 2802 
L 198 2732 
L 198 2567 
C 576 2567 634 2528 634 2223 
L 634 -789 
C 634 -1031 608 -1063 198 -1063 
L 198 -1228 
C 352 -1216 634 -1216 800 -1216 
C 966 -1216 1254 -1216 1408 -1228 
L 1408 -1063 
z
M 973 2012 
C 973 2102 973 2235 1222 2471 
C 1254 2497 1472 2688 1792 2688 
C 2259 2688 2643 2108 2643 1382 
C 2643 656 2234 64 1728 64 
C 1498 64 1248 172 1056 472 
C 973 612 973 650 973 752 
L 973 2012 
z
" transform="scale(0.015625)"/>
      <path id="CMR17-74" d="M 966 2560 
L 1862 2560 
L 1862 2725 
L 966 2725 
L 966 3904 
L 851 3904 
C 838 3245 614 2668 70 2668 
L 70 2560 
L 627 2560 
L 627 771 
C 627 650 627 -64 1370 -64 
C 1747 -64 1965 306 1965 777 
L 1965 1140 
L 1850 1140 
L 1850 783 
C 1850 344 1677 51 1408 51 
C 1222 51 966 178 966 758 
L 966 2560 
z
" transform="scale(0.015625)"/>
      <path id="CMR17-69" d="M 992 3909 
C 992 4049 877 4170 730 4170 
C 589 4170 467 4056 467 3909 
C 467 3769 582 3648 730 3648 
C 870 3648 992 3763 992 3909 
z
M 243 2706 
L 243 2541 
C 602 2541 653 2502 653 2197 
L 653 427 
C 653 184 627 153 218 153 
L 218 -13 
C 371 0 646 0 806 0 
C 960 0 1222 0 1370 -13 
L 1370 153 
C 992 153 979 191 979 420 
L 979 2776 
L 243 2706 
z
" transform="scale(0.015625)"/>
      <path id="CMR17-63" d="M 2234 2240 
C 2112 2240 1933 2240 1933 2017 
C 1933 1838 2080 1787 2163 1787 
C 2208 1787 2394 1807 2394 2024 
C 2394 2467 1958 2803 1466 2803 
C 787 2803 211 2178 211 1363 
C 211 516 813 -64 1466 -64 
C 2259 -64 2458 677 2458 748 
C 2458 774 2451 793 2406 793 
C 2362 793 2355 787 2330 703 
C 2163 180 1798 51 1523 51 
C 1114 51 621 427 621 1369 
C 621 2338 1094 2688 1472 2688 
C 1722 2688 2093 2573 2234 2240 
z
" transform="scale(0.015625)"/>
      <path id="CMR17-e" d="M 4154 2764 
C 4000 2764 3526 2764 3405 2739 
C 3366 2725 3354 2725 3277 2725 
L 2547 2725 
L 2547 3469 
C 2547 4073 3034 4352 3418 4352 
C 3539 4352 3814 4320 3955 4101 
C 3891 4101 3686 4101 3686 3878 
C 3686 3725 3789 3648 3917 3648 
C 4032 3648 4147 3712 4147 3885 
C 4147 4205 3840 4454 3443 4454 
C 3245 4454 2829 4410 2496 4095 
C 2413 4262 2202 4454 1837 4454 
C 1344 4454 634 4168 634 3469 
L 634 2725 
L 122 2725 
L 122 2560 
L 634 2560 
L 634 427 
C 634 184 608 153 198 153 
L 198 -13 
C 352 0 634 0 794 0 
C 960 0 1242 0 1395 -13 
L 1395 153 
C 986 153 960 178 960 427 
L 960 2560 
L 2234 2560 
L 2234 427 
C 2234 184 2208 153 1798 153 
L 1798 -13 
C 1952 0 2234 0 2394 0 
C 2560 0 2842 0 2995 -13 
L 2995 153 
C 2586 153 2560 178 2560 427 
L 2560 2560 
L 3501 2560 
C 3776 2560 3827 2502 3827 2222 
L 3827 427 
C 3827 184 3802 153 3392 153 
L 3392 -13 
C 3546 0 3827 0 3987 0 
C 4154 0 4435 0 4589 -13 
L 4589 153 
C 4179 153 4154 178 4154 427 
L 4154 2764 
z
M 947 2725 
L 947 3469 
C 947 4067 1421 4352 1818 4352 
C 2042 4352 2259 4256 2355 4101 
C 2291 4101 2080 4101 2080 3878 
C 2080 3762 2144 3686 2246 3654 
C 2234 3596 2234 3471 2234 3465 
L 2234 2725 
L 947 2725 
z
" transform="scale(0.015625)"/>
      <path id="CMR17-79" d="M 2496 2197 
C 2656 2586 2944 2586 3034 2586 
L 3034 2752 
C 2912 2752 2752 2752 2630 2752 
C 2496 2752 2285 2752 2157 2758 
L 2157 2592 
C 2400 2573 2406 2394 2406 2343 
C 2406 2280 2394 2248 2362 2171 
L 1664 449 
L 902 2306 
C 870 2382 870 2426 870 2433 
C 870 2573 1018 2586 1171 2586 
L 1171 2758 
C 1018 2752 742 2752 582 2752 
C 410 2752 205 2752 64 2758 
L 64 2586 
C 410 2586 448 2554 531 2350 
L 1485 15 
C 1197 -738 1030 -1178 627 -1178 
C 557 -1178 397 -1159 282 -1044 
C 429 -1031 493 -942 493 -833 
C 493 -725 416 -629 288 -629 
C 147 -629 77 -725 77 -840 
C 77 -1095 339 -1280 627 -1280 
C 998 -1280 1229 -922 1357 -604 
L 2496 2197 
z
" transform="scale(0.015625)"/>
     </defs>
     <use xlink:href="#CMR17-28" transform="scale(0.996264)"/>
     <use xlink:href="#CMR17-61" transform="translate(35.280768 0) scale(0.996264)"/>
     <use xlink:href="#CMR17-29" transform="translate(80.971245 0) scale(0.996264)"/>
     <use xlink:href="#CMR17-54" transform="translate(146.327979 0) scale(0.996264)"/>
     <use xlink:href="#CMR17-72" transform="translate(205.030604 0) scale(0.996264)"/>
     <use xlink:href="#CMR17-61" transform="translate(240.311372 0) scale(0.996264)"/>
     <use xlink:href="#CMR17-6e" transform="translate(286.001849 0) scale(0.996264)"/>
     <use xlink:href="#CMR17-73" transform="translate(336.897219 0) scale(0.996264)"/>
     <use xlink:href="#CMR17-76" transform="translate(372.698557 0) scale(0.996264)"/>
     <use xlink:href="#CMR17-65" transform="translate(418.389018 0) scale(0.996264)"/>
     <use xlink:href="#CMR17-72" transform="translate(458.874679 0) scale(0.996264)"/>
     <use xlink:href="#CMR17-73" transform="translate(494.155447 0) scale(0.996264)"/>
     <use xlink:href="#CMR17-61" transform="translate(529.956784 0) scale(0.996264)"/>
     <use xlink:href="#CMR17-6c" transform="translate(575.647261 0) scale(0.996264)"/>
     <use xlink:href="#CMR17-6f" transform="translate(630.594286 0) scale(0.996264)"/>
     <use xlink:href="#CMR17-70" transform="translate(676.284763 0) scale(0.996264)"/>
     <use xlink:href="#CMR17-74" transform="translate(727.180133 0) scale(0.996264)"/>
     <use xlink:href="#CMR17-69" transform="translate(762.460901 0) scale(0.996264)"/>
     <use xlink:href="#CMR17-63" transform="translate(787.331959 0) scale(0.996264)"/>
     <use xlink:href="#CMR17-61" transform="translate(827.81762 0) scale(0.996264)"/>
     <use xlink:href="#CMR17-6c" transform="translate(873.508097 0) scale(0.996264)"/>
     <use xlink:href="#CMR17-65" transform="translate(928.455122 0) scale(0.996264)"/>
     <use xlink:href="#CMR17-e" transform="translate(968.940782 0) scale(0.996264)"/>
     <use xlink:href="#CMR17-63" transform="translate(1043.554064 0) scale(0.996264)"/>
     <use xlink:href="#CMR17-69" transform="translate(1084.039725 0) scale(0.996264)"/>
     <use xlink:href="#CMR17-65" transform="translate(1108.910783 0) scale(0.996264)"/>
     <use xlink:href="#CMR17-6e" transform="translate(1149.396444 0) scale(0.996264)"/>
     <use xlink:href="#CMR17-63" transform="translate(1200.291813 0) scale(0.996264)"/>
     <use xlink:href="#CMR17-79" transform="translate(1240.777474 0) scale(0.996264)"/>
    </g>
   </g>
   <g id="legend_1">
    <g id="patch_7">
     <path d="M 71.125714 201.316127 
L 197.184728 201.316127 
Q 199.984728 201.316127 199.984728 198.516127 
L 199.984728 141.380042 
Q 199.984728 138.580042 197.184728 138.580042 
L 71.125714 138.580042 
Q 68.325714 138.580042 68.325714 141.380042 
L 68.325714 198.516127 
Q 68.325714 201.316127 71.125714 201.316127 
z
" style="fill: #ffffff; opacity: 0.8; stroke: #cccccc; stroke-linejoin: miter"/>
    </g>
    <g id="line2d_12">
     <path d="M 73.925714 149.080042 
L 87.925714 149.080042 
L 101.925714 149.080042 
" style="fill: none; stroke: #4c72b0; stroke-width: 1.5; stroke-linecap: round"/>
     <g>
      <use xlink:href="#m7400f18d97" x="87.925714" y="149.080042" style="fill: #4c72b0; stroke: #4c72b0; stroke-linejoin: miter"/>
     </g>
    </g>
    <g id="text_11">
     <!-- Cheng's optic -->
     <g style="fill: #262626" transform="translate(113.125714 153.980042) scale(0.14 -0.14)">
      <defs>
       <path id="CMR17-43" d="M 3974 4289 
C 3974 4403 3968 4410 3930 4410 
C 3904 4410 3898 4403 3853 4327 
L 3571 3792 
C 3258 4187 2874 4416 2381 4416 
C 1286 4416 294 3456 294 2148 
C 294 826 1286 -128 2387 -128 
C 3366 -128 3974 730 3974 1461 
C 3974 1524 3974 1550 3917 1550 
C 3866 1550 3866 1531 3859 1474 
C 3808 585 3168 38 2477 38 
C 1824 38 781 495 781 2147 
C 781 3805 1843 4250 2464 4250 
C 3187 4250 3712 3628 3834 2745 
C 3846 2668 3846 2655 3904 2655 
C 3974 2655 3974 2668 3974 2783 
L 3974 4289 
z
" transform="scale(0.015625)"/>
       <path id="CMR17-68" d="M 2656 1933 
C 2656 2259 2592 2790 1837 2790 
C 1312 2790 1056 2368 979 2157 
L 973 2157 
L 973 4396 
L 211 4326 
L 211 4160 
C 589 4160 646 4122 646 3817 
L 646 426 
C 646 184 621 153 211 153 
L 211 -13 
C 365 0 646 0 813 0 
C 979 0 1267 0 1421 -13 
L 1421 153 
C 1011 153 986 178 986 428 
L 986 1658 
C 986 2247 1344 2688 1792 2688 
C 2266 2688 2317 2266 2317 1958 
L 2317 428 
C 2317 184 2291 153 1882 153 
L 1882 -13 
C 2035 0 2317 0 2483 0 
C 2650 0 2938 0 3091 -13 
L 3091 153 
C 2682 153 2656 178 2656 428 
L 2656 1933 
z
" transform="scale(0.015625)"/>
       <path id="CMR17-67" d="M 710 1164 
C 832 1068 1043 960 1299 960 
C 1805 960 2240 1357 2240 1888 
C 2240 2054 2189 2310 1997 2509 
C 2176 2692 2438 2752 2586 2752 
C 2611 2752 2650 2752 2682 2734 
C 2656 2728 2598 2703 2598 2605 
C 2598 2527 2656 2471 2739 2471 
C 2835 2471 2886 2533 2886 2614 
C 2886 2731 2790 2854 2586 2854 
C 2330 2854 2106 2738 1926 2580 
C 1734 2753 1504 2816 1299 2816 
C 794 2816 358 2419 358 1888 
C 358 1522 570 1292 634 1228 
C 442 1004 442 743 442 711 
C 442 545 506 302 723 168 
C 390 85 128 -169 128 -486 
C 128 -943 736 -1280 1466 -1280 
C 2170 -1280 2803 -956 2803 -479 
C 2803 384 1856 384 1363 384 
C 1216 384 954 384 922 391 
C 723 423 589 602 589 826 
C 589 883 589 1024 710 1164 
z
M 1299 1068 
C 736 1068 736 1760 736 1889 
C 736 2016 736 2708 1299 2708 
C 1862 2708 1862 2016 1862 1889 
C 1862 1760 1862 1068 1299 1068 
z
M 1466 -1171 
C 826 -1171 384 -835 384 -486 
C 384 -289 493 -105 634 -4 
C 794 104 858 104 1293 104 
C 1818 104 2547 104 2547 -486 
C 2547 -835 2106 -1171 1466 -1171 
z
" transform="scale(0.015625)"/>
       <path id="CMR17-27" d="M 1024 4025 
C 1037 3955 1043 3929 1043 3820 
C 1043 3415 883 3042 634 2778 
C 608 2752 595 2733 595 2707 
C 595 2681 621 2656 646 2656 
C 691 2656 1146 3105 1146 3811 
C 1146 3952 1133 4426 800 4426 
C 659 4426 538 4331 538 4165 
C 538 3999 659 3904 800 3904 
C 858 3904 966 3923 1024 4025 
z
" transform="scale(0.015625)"/>
      </defs>
      <use xlink:href="#CMR17-43" transform="scale(0.996264)"/>
      <use xlink:href="#CMR17-68" transform="translate(66.509881 0) scale(0.996264)"/>
      <use xlink:href="#CMR17-65" transform="translate(117.40525 0) scale(0.996264)"/>
      <use xlink:href="#CMR17-6e" transform="translate(157.890911 0) scale(0.996264)"/>
      <use xlink:href="#CMR17-67" transform="translate(208.786281 0) scale(0.996264)"/>
      <use xlink:href="#CMR17-27" transform="translate(254.476758 0) scale(0.996264)"/>
      <use xlink:href="#CMR17-73" transform="translate(279.347816 0) scale(0.996264)"/>
      <use xlink:href="#CMR17-6f" transform="translate(345.22512 0) scale(0.996264)"/>
      <use xlink:href="#CMR17-70" transform="translate(390.915597 0) scale(0.996264)"/>
      <use xlink:href="#CMR17-74" transform="translate(441.810967 0) scale(0.996264)"/>
      <use xlink:href="#CMR17-69" transform="translate(477.091735 0) scale(0.996264)"/>
      <use xlink:href="#CMR17-63" transform="translate(501.962793 0) scale(0.996264)"/>
     </g>
    </g>
    <g id="line2d_13">
     <path d="M 73.925714 168.59207 
L 87.925714 168.59207 
L 101.925714 168.59207 
" style="fill: none; stroke: #dd8452; stroke-width: 1.5; stroke-linecap: round"/>
     <g>
      <use xlink:href="#m8a2416a9e0" x="87.925714" y="168.59207" style="fill: #dd8452; stroke: #dd8452; stroke-linejoin: miter"/>
     </g>
    </g>
    <g id="text_12">
     <!-- CPC -->
     <g style="fill: #262626" transform="translate(113.125714 173.49207) scale(0.14 -0.14)">
      <defs>
       <path id="CMR17-50" d="M 1267 2042 
L 2291 2042 
C 3117 2042 3718 2578 3718 3184 
C 3718 3791 3130 4352 2291 4352 
L 333 4352 
L 333 4186 
C 774 4186 845 4186 845 3899 
L 845 446 
C 845 160 774 160 333 160 
L 333 0 
C 518 0 858 0 1056 0 
C 1254 0 1594 0 1779 0 
L 1779 160 
C 1338 160 1267 160 1267 446 
L 1267 2042 
z
M 1254 2176 
L 1254 3938 
C 1254 4155 1267 4186 1523 4186 
L 2170 4186 
C 2995 4186 3232 3714 3232 3184 
C 3232 2604 2950 2176 2170 2176 
L 1254 2176 
z
" transform="scale(0.015625)"/>
      </defs>
      <use xlink:href="#CMR17-43" transform="scale(0.996264)"/>
      <use xlink:href="#CMR17-50" transform="translate(66.509881 0) scale(0.996264)"/>
      <use xlink:href="#CMR17-43" transform="translate(129.096181 0) scale(0.996264)"/>
     </g>
    </g>
    <g id="line2d_14">
     <path d="M 73.925714 188.104099 
L 87.925714 188.104099 
L 101.925714 188.104099 
" style="fill: none; stroke: #55a868; stroke-width: 1.5; stroke-linecap: round"/>
     <g>
      <use xlink:href="#m4aaffa0e32" x="87.925714" y="188.104099" style="fill: #55a868; stroke: #55a868; stroke-linejoin: miter"/>
     </g>
    </g>
    <g id="text_13">
     <!-- CEC -->
     <g style="fill: #262626" transform="translate(113.125714 193.004099) scale(0.14 -0.14)">
      <defs>
       <path id="CMR17-45" d="M 3885 1615 
L 3770 1615 
C 3629 676 3546 166 2419 166 
L 1530 166 
C 1274 166 1261 197 1261 414 
L 1261 2176 
L 1862 2176 
C 2464 2176 2522 1960 2522 1430 
L 2637 1430 
L 2637 3081 
L 2522 3081 
C 2522 2557 2464 2342 1862 2342 
L 1261 2342 
L 1261 3913 
C 1261 4128 1274 4160 1530 4160 
L 2406 4160 
C 3398 4160 3514 3769 3603 2929 
L 3718 2929 
L 3565 4325 
L 326 4325 
L 326 4160 
C 768 4160 838 4160 838 3874 
L 838 451 
C 838 166 768 166 326 166 
L 326 0 
L 3654 0 
L 3885 1615 
z
" transform="scale(0.015625)"/>
      </defs>
      <use xlink:href="#CMR17-43" transform="scale(0.996264)"/>
      <use xlink:href="#CMR17-45" transform="translate(66.509881 0) scale(0.996264)"/>
      <use xlink:href="#CMR17-43" transform="translate(129.096181 0) scale(0.996264)"/>
     </g>
    </g>
   </g>
  </g>
  <g id="axes_2">
   <g id="patch_8">
    <path d="M 61.325714 438.530159 
L 419.04 438.530159 
L 419.04 259.634804 
L 61.325714 259.634804 
z
" style="fill: #ffffff"/>
   </g>
   <g id="matplotlib.axis_3">
    <g id="xtick_6">
     <g id="line2d_15">
      <path d="M 77.585454 438.530159 
L 77.585454 259.634804 
" clip-path="url(#pdd7ae81224)" style="fill: none; stroke: #cccccc; stroke-linecap: round"/>
     </g>
     <g id="text_14">
      <!-- $0$$^\circ$ -->
      <g style="fill: #262626" transform="translate(71.662596 457.716035) scale(0.14 -0.14)">
       <use xlink:href="#CMR17-30" transform="scale(0.996264)"/>
       <use xlink:href="#CMSY10-e" transform="translate(45.690477 36.153639) scale(0.697382)"/>
      </g>
     </g>
    </g>
    <g id="xtick_7">
     <g id="line2d_16">
      <path d="M 154.101879 438.530159 
L 154.101879 259.634804 
" clip-path="url(#pdd7ae81224)" style="fill: none; stroke: #cccccc; stroke-linecap: round"/>
     </g>
     <g id="text_15">
      <!-- $20$$^\circ$ -->
      <g style="fill: #262626" transform="translate(144.764777 457.716035) scale(0.14 -0.14)">
       <use xlink:href="#CMR17-32" transform="scale(0.996264)"/>
       <use xlink:href="#CMR17-30" transform="translate(45.690477 0) scale(0.996264)"/>
       <use xlink:href="#CMSY10-e" transform="translate(91.380954 36.153639) scale(0.697382)"/>
      </g>
     </g>
    </g>
    <g id="xtick_8">
     <g id="line2d_17">
      <path d="M 230.618304 438.530159 
L 230.618304 259.634804 
" clip-path="url(#pdd7ae81224)" style="fill: none; stroke: #cccccc; stroke-linecap: round"/>
     </g>
     <g id="text_16">
      <!-- $40$$^\circ$ -->
      <g style="fill: #262626" transform="translate(221.281202 457.716035) scale(0.14 -0.14)">
       <use xlink:href="#CMR17-34" transform="scale(0.996264)"/>
       <use xlink:href="#CMR17-30" transform="translate(45.690477 0) scale(0.996264)"/>
       <use xlink:href="#CMSY10-e" transform="translate(91.380954 36.153639) scale(0.697382)"/>
      </g>
     </g>
    </g>
    <g id="xtick_9">
     <g id="line2d_18">
      <path d="M 307.134729 438.530159 
L 307.134729 259.634804 
" clip-path="url(#pdd7ae81224)" style="fill: none; stroke: #cccccc; stroke-linecap: round"/>
     </g>
     <g id="text_17">
      <!-- $60$$^\circ$ -->
      <g style="fill: #262626" transform="translate(297.797627 457.716035) scale(0.14 -0.14)">
       <use xlink:href="#CMR17-36" transform="scale(0.996264)"/>
       <use xlink:href="#CMR17-30" transform="translate(45.690477 0) scale(0.996264)"/>
       <use xlink:href="#CMSY10-e" transform="translate(91.380954 36.153639) scale(0.697382)"/>
      </g>
     </g>
    </g>
    <g id="xtick_10">
     <g id="line2d_19">
      <path d="M 383.651153 438.530159 
L 383.651153 259.634804 
" clip-path="url(#pdd7ae81224)" style="fill: none; stroke: #cccccc; stroke-linecap: round"/>
     </g>
     <g id="text_18">
      <!-- $80$$^\circ$ -->
      <g style="fill: #262626" transform="translate(374.314052 457.716035) scale(0.14 -0.14)">
       <use xlink:href="#CMR17-38" transform="scale(0.996264)"/>
       <use xlink:href="#CMR17-30" transform="translate(45.690477 0) scale(0.996264)"/>
       <use xlink:href="#CMSY10-e" transform="translate(91.380954 36.153639) scale(0.697382)"/>
      </g>
     </g>
    </g>
   </g>
   <g id="matplotlib.axis_4">
    <g id="ytick_4">
     <g id="line2d_20">
      <path d="M 61.325714 396.401874 
L 419.04 396.401874 
" clip-path="url(#pdd7ae81224)" style="fill: none; stroke: #cccccc; stroke-linecap: round"/>
     </g>
     <g id="text_19">
      <!-- $\mathdefault{0.8}$ -->
      <g style="fill: #262626" transform="translate(34.375131 401.244812) scale(0.14 -0.14)">
       <use xlink:href="#CMR17-30" transform="scale(0.996264)"/>
       <use xlink:href="#CMMI12-3a" transform="translate(45.690477 0) scale(0.996264)"/>
       <use xlink:href="#CMR17-38" transform="translate(72.787654 0) scale(0.996264)"/>
      </g>
     </g>
    </g>
    <g id="ytick_5">
     <g id="line2d_21">
      <path d="M 61.325714 348.388411 
L 419.04 348.388411 
" clip-path="url(#pdd7ae81224)" style="fill: none; stroke: #cccccc; stroke-linecap: round"/>
     </g>
     <g id="text_20">
      <!-- $\mathdefault{1.0}$ -->
      <g style="fill: #262626" transform="translate(34.375131 353.23135) scale(0.14 -0.14)">
       <defs>
        <path id="CMR17-31" d="M 1702 4058 
C 1702 4192 1696 4192 1606 4192 
C 1357 3916 979 3827 621 3827 
C 602 3827 570 3827 563 3808 
C 557 3795 557 3782 557 3648 
C 755 3648 1088 3686 1344 3839 
L 1344 461 
C 1344 236 1331 160 781 160 
L 589 160 
L 589 0 
C 896 0 1216 0 1523 0 
C 1830 0 2150 0 2458 0 
L 2458 160 
L 2266 160 
C 1715 160 1702 230 1702 458 
L 1702 4058 
z
" transform="scale(0.015625)"/>
       </defs>
       <use xlink:href="#CMR17-31" transform="scale(0.996264)"/>
       <use xlink:href="#CMMI12-3a" transform="translate(45.690477 0) scale(0.996264)"/>
       <use xlink:href="#CMR17-30" transform="translate(72.787654 0) scale(0.996264)"/>
      </g>
     </g>
    </g>
    <g id="ytick_6">
     <g id="line2d_22">
      <path d="M 61.325714 300.374949 
L 419.04 300.374949 
" clip-path="url(#pdd7ae81224)" style="fill: none; stroke: #cccccc; stroke-linecap: round"/>
     </g>
     <g id="text_21">
      <!-- $\mathdefault{1.2}$ -->
      <g style="fill: #262626" transform="translate(34.375131 305.217887) scale(0.14 -0.14)">
       <use xlink:href="#CMR17-31" transform="scale(0.996264)"/>
       <use xlink:href="#CMMI12-3a" transform="translate(45.690477 0) scale(0.996264)"/>
       <use xlink:href="#CMR17-32" transform="translate(72.787654 0) scale(0.996264)"/>
      </g>
     </g>
    </g>
    <g id="text_22">
     <!-- $\delta_q$ -->
     <g style="fill: #262626" transform="translate(26.384557 354.348607) rotate(-90) scale(0.14 -0.14)">
      <defs>
       <path id="CMMI12-e" d="M 1664 2795 
C 845 2597 256 1748 256 1001 
C 256 319 717 -64 1229 -64 
C 1984 -64 2496 970 2496 1818 
C 2496 2392 2227 2744 2067 2954 
C 1830 3254 1446 3746 1446 4052 
C 1446 4161 1530 4352 1811 4352 
C 2010 4352 2131 4282 2323 4173 
C 2381 4134 2528 4052 2611 4052 
C 2746 4052 2842 4185 2842 4287 
C 2842 4409 2746 4428 2522 4479 
C 2221 4543 2131 4543 2022 4543 
C 1914 4543 1286 4543 1286 3892 
C 1286 3579 1446 3216 1664 2795 
z
M 1734 2669 
C 1978 2165 2074 1974 2074 1560 
C 2074 1063 1805 63 1235 63 
C 986 63 627 229 627 821 
C 627 1235 864 2439 1734 2669 
z
" transform="scale(0.015625)"/>
       <path id="CMMI12-71" d="M 2822 2759 
C 2822 2790 2797 2816 2765 2816 
C 2714 2816 2464 2585 2342 2362 
C 2227 2646 2029 2816 1754 2816 
C 1030 2816 250 1884 250 939 
C 250 307 621 -64 1056 -64 
C 1395 -64 1677 193 1811 339 
L 1818 333 
L 1574 -615 
L 1517 -842 
C 1459 -1031 1363 -1031 1062 -1031 
C 992 -1031 928 -1031 928 -1152 
C 928 -1197 966 -1216 1011 -1216 
C 1101 -1216 1216 -1216 1306 -1216 
L 1958 -1216 
C 2054 -1216 2163 -1216 2259 -1216 
C 2298 -1216 2374 -1216 2374 -1095 
C 2374 -1031 2323 -1031 2227 -1031 
C 1926 -1031 1907 -986 1907 -935 
C 1907 -904 1914 -898 1933 -815 
L 2822 2759 
z
M 1920 762 
C 1888 652 1888 640 1798 518 
C 1658 339 1376 64 1075 64 
C 813 64 666 301 666 678 
C 666 1030 864 1747 986 2016 
C 1203 2464 1504 2695 1754 2695 
C 2176 2695 2259 2170 2259 2119 
C 2259 2113 2240 2028 2234 2016 
L 1920 762 
z
" transform="scale(0.015625)"/>
      </defs>
      <use xlink:href="#CMMI12-e" transform="scale(0.996264)"/>
      <use xlink:href="#CMMI12-71" transform="translate(43.205457 -14.943915) scale(0.697382)"/>
     </g>
    </g>
   </g>
   <g id="line2d_23">
    <path d="M 77.585454 278.714901 
L 96.71456 279.940226 
L 115.843666 278.733997 
L 134.972773 277.374281 
L 154.101879 276.634542 
L 173.230985 275.691379 
L 192.360091 273.223805 
L 211.489197 275.045319 
L 230.618304 273.624084 
L 249.74741 272.912496 
L 268.876516 271.981208 
L 288.005622 271.044408 
L 307.134729 270.962531 
L 326.263835 269.305951 
L 345.392941 269.174382 
L 364.522047 268.767113 
L 383.651153 267.766411 
L 402.78026 271.329795 
" clip-path="url(#pdd7ae81224)" style="fill: none; stroke: #4c72b0; stroke-width: 1.5; stroke-linecap: round"/>
    <g clip-path="url(#pdd7ae81224)">
     <use xlink:href="#m7400f18d97" x="77.585454" y="278.714901" style="fill: #4c72b0; stroke: #4c72b0; stroke-linejoin: miter"/>
     <use xlink:href="#m7400f18d97" x="96.71456" y="279.940226" style="fill: #4c72b0; stroke: #4c72b0; stroke-linejoin: miter"/>
     <use xlink:href="#m7400f18d97" x="115.843666" y="278.733997" style="fill: #4c72b0; stroke: #4c72b0; stroke-linejoin: miter"/>
     <use xlink:href="#m7400f18d97" x="134.972773" y="277.374281" style="fill: #4c72b0; stroke: #4c72b0; stroke-linejoin: miter"/>
     <use xlink:href="#m7400f18d97" x="154.101879" y="276.634542" style="fill: #4c72b0; stroke: #4c72b0; stroke-linejoin: miter"/>
     <use xlink:href="#m7400f18d97" x="173.230985" y="275.691379" style="fill: #4c72b0; stroke: #4c72b0; stroke-linejoin: miter"/>
     <use xlink:href="#m7400f18d97" x="192.360091" y="273.223805" style="fill: #4c72b0; stroke: #4c72b0; stroke-linejoin: miter"/>
     <use xlink:href="#m7400f18d97" x="211.489197" y="275.045319" style="fill: #4c72b0; stroke: #4c72b0; stroke-linejoin: miter"/>
     <use xlink:href="#m7400f18d97" x="230.618304" y="273.624084" style="fill: #4c72b0; stroke: #4c72b0; stroke-linejoin: miter"/>
     <use xlink:href="#m7400f18d97" x="249.74741" y="272.912496" style="fill: #4c72b0; stroke: #4c72b0; stroke-linejoin: miter"/>
     <use xlink:href="#m7400f18d97" x="268.876516" y="271.981208" style="fill: #4c72b0; stroke: #4c72b0; stroke-linejoin: miter"/>
     <use xlink:href="#m7400f18d97" x="288.005622" y="271.044408" style="fill: #4c72b0; stroke: #4c72b0; stroke-linejoin: miter"/>
     <use xlink:href="#m7400f18d97" x="307.134729" y="270.962531" style="fill: #4c72b0; stroke: #4c72b0; stroke-linejoin: miter"/>
     <use xlink:href="#m7400f18d97" x="326.263835" y="269.305951" style="fill: #4c72b0; stroke: #4c72b0; stroke-linejoin: miter"/>
     <use xlink:href="#m7400f18d97" x="345.392941" y="269.174382" style="fill: #4c72b0; stroke: #4c72b0; stroke-linejoin: miter"/>
     <use xlink:href="#m7400f18d97" x="364.522047" y="268.767113" style="fill: #4c72b0; stroke: #4c72b0; stroke-linejoin: miter"/>
     <use xlink:href="#m7400f18d97" x="383.651153" y="267.766411" style="fill: #4c72b0; stroke: #4c72b0; stroke-linejoin: miter"/>
     <use xlink:href="#m7400f18d97" x="402.78026" y="271.329795" style="fill: #4c72b0; stroke: #4c72b0; stroke-linejoin: miter"/>
    </g>
   </g>
   <g id="line2d_24">
    <path d="M 77.585454 424.627772 
L 96.71456 427.771893 
L 115.843666 413.520748 
L 134.972773 417.183976 
L 154.101879 407.663422 
L 173.230985 405.436147 
L 192.360091 413.685709 
L 211.489197 428.393747 
L 230.618304 430.199686 
L 249.74741 429.980621 
L 268.876516 429.546297 
L 288.005622 429.111153 
L 307.134729 428.986412 
L 326.263835 429.248463 
L 345.392941 429.792967 
L 364.522047 430.105958 
L 383.651153 429.75973 
L 402.78026 430.222206 
" clip-path="url(#pdd7ae81224)" style="fill: none; stroke: #dd8452; stroke-width: 1.5; stroke-linecap: round"/>
    <g clip-path="url(#pdd7ae81224)">
     <use xlink:href="#m8a2416a9e0" x="77.585454" y="424.627772" style="fill: #dd8452; stroke: #dd8452; stroke-linejoin: miter"/>
     <use xlink:href="#m8a2416a9e0" x="96.71456" y="427.771893" style="fill: #dd8452; stroke: #dd8452; stroke-linejoin: miter"/>
     <use xlink:href="#m8a2416a9e0" x="115.843666" y="413.520748" style="fill: #dd8452; stroke: #dd8452; stroke-linejoin: miter"/>
     <use xlink:href="#m8a2416a9e0" x="134.972773" y="417.183976" style="fill: #dd8452; stroke: #dd8452; stroke-linejoin: miter"/>
     <use xlink:href="#m8a2416a9e0" x="154.101879" y="407.663422" style="fill: #dd8452; stroke: #dd8452; stroke-linejoin: miter"/>
     <use xlink:href="#m8a2416a9e0" x="173.230985" y="405.436147" style="fill: #dd8452; stroke: #dd8452; stroke-linejoin: miter"/>
     <use xlink:href="#m8a2416a9e0" x="192.360091" y="413.685709" style="fill: #dd8452; stroke: #dd8452; stroke-linejoin: miter"/>
     <use xlink:href="#m8a2416a9e0" x="211.489197" y="428.393747" style="fill: #dd8452; stroke: #dd8452; stroke-linejoin: miter"/>
     <use xlink:href="#m8a2416a9e0" x="230.618304" y="430.199686" style="fill: #dd8452; stroke: #dd8452; stroke-linejoin: miter"/>
     <use xlink:href="#m8a2416a9e0" x="249.74741" y="429.980621" style="fill: #dd8452; stroke: #dd8452; stroke-linejoin: miter"/>
     <use xlink:href="#m8a2416a9e0" x="268.876516" y="429.546297" style="fill: #dd8452; stroke: #dd8452; stroke-linejoin: miter"/>
     <use xlink:href="#m8a2416a9e0" x="288.005622" y="429.111153" style="fill: #dd8452; stroke: #dd8452; stroke-linejoin: miter"/>
     <use xlink:href="#m8a2416a9e0" x="307.134729" y="428.986412" style="fill: #dd8452; stroke: #dd8452; stroke-linejoin: miter"/>
     <use xlink:href="#m8a2416a9e0" x="326.263835" y="429.248463" style="fill: #dd8452; stroke: #dd8452; stroke-linejoin: miter"/>
     <use xlink:href="#m8a2416a9e0" x="345.392941" y="429.792967" style="fill: #dd8452; stroke: #dd8452; stroke-linejoin: miter"/>
     <use xlink:href="#m8a2416a9e0" x="364.522047" y="430.105958" style="fill: #dd8452; stroke: #dd8452; stroke-linejoin: miter"/>
     <use xlink:href="#m8a2416a9e0" x="383.651153" y="429.75973" style="fill: #dd8452; stroke: #dd8452; stroke-linejoin: miter"/>
     <use xlink:href="#m8a2416a9e0" x="402.78026" y="430.222206" style="fill: #dd8452; stroke: #dd8452; stroke-linejoin: miter"/>
    </g>
   </g>
   <g id="line2d_25">
    <path d="M 77.585454 425.502608 
L 96.71456 427.576692 
L 115.843666 418.009754 
L 134.972773 419.345254 
L 154.101879 411.937537 
L 173.230985 407.117549 
L 192.360091 410.871876 
L 211.489197 421.80521 
L 230.618304 429.991264 
L 249.74741 429.723433 
L 268.876516 428.922794 
L 288.005622 428.554668 
L 307.134729 428.177358 
L 326.263835 428.789266 
L 345.392941 429.570603 
L 364.522047 430.398552 
L 383.651153 429.849036 
L 402.78026 429.43169 
" clip-path="url(#pdd7ae81224)" style="fill: none; stroke: #55a868; stroke-width: 1.5; stroke-linecap: round"/>
    <g clip-path="url(#pdd7ae81224)">
     <use xlink:href="#m4aaffa0e32" x="77.585454" y="425.502608" style="fill: #55a868; stroke: #55a868; stroke-linejoin: miter"/>
     <use xlink:href="#m4aaffa0e32" x="96.71456" y="427.576692" style="fill: #55a868; stroke: #55a868; stroke-linejoin: miter"/>
     <use xlink:href="#m4aaffa0e32" x="115.843666" y="418.009754" style="fill: #55a868; stroke: #55a868; stroke-linejoin: miter"/>
     <use xlink:href="#m4aaffa0e32" x="134.972773" y="419.345254" style="fill: #55a868; stroke: #55a868; stroke-linejoin: miter"/>
     <use xlink:href="#m4aaffa0e32" x="154.101879" y="411.937537" style="fill: #55a868; stroke: #55a868; stroke-linejoin: miter"/>
     <use xlink:href="#m4aaffa0e32" x="173.230985" y="407.117549" style="fill: #55a868; stroke: #55a868; stroke-linejoin: miter"/>
     <use xlink:href="#m4aaffa0e32" x="192.360091" y="410.871876" style="fill: #55a868; stroke: #55a868; stroke-linejoin: miter"/>
     <use xlink:href="#m4aaffa0e32" x="211.489197" y="421.80521" style="fill: #55a868; stroke: #55a868; stroke-linejoin: miter"/>
     <use xlink:href="#m4aaffa0e32" x="230.618304" y="429.991264" style="fill: #55a868; stroke: #55a868; stroke-linejoin: miter"/>
     <use xlink:href="#m4aaffa0e32" x="249.74741" y="429.723433" style="fill: #55a868; stroke: #55a868; stroke-linejoin: miter"/>
     <use xlink:href="#m4aaffa0e32" x="268.876516" y="428.922794" style="fill: #55a868; stroke: #55a868; stroke-linejoin: miter"/>
     <use xlink:href="#m4aaffa0e32" x="288.005622" y="428.554668" style="fill: #55a868; stroke: #55a868; stroke-linejoin: miter"/>
     <use xlink:href="#m4aaffa0e32" x="307.134729" y="428.177358" style="fill: #55a868; stroke: #55a868; stroke-linejoin: miter"/>
     <use xlink:href="#m4aaffa0e32" x="326.263835" y="428.789266" style="fill: #55a868; stroke: #55a868; stroke-linejoin: miter"/>
     <use xlink:href="#m4aaffa0e32" x="345.392941" y="429.570603" style="fill: #55a868; stroke: #55a868; stroke-linejoin: miter"/>
     <use xlink:href="#m4aaffa0e32" x="364.522047" y="430.398552" style="fill: #55a868; stroke: #55a868; stroke-linejoin: miter"/>
     <use xlink:href="#m4aaffa0e32" x="383.651153" y="429.849036" style="fill: #55a868; stroke: #55a868; stroke-linejoin: miter"/>
     <use xlink:href="#m4aaffa0e32" x="402.78026" y="429.43169" style="fill: #55a868; stroke: #55a868; stroke-linejoin: miter"/>
    </g>
   </g>
   <g id="patch_9">
    <path d="M 61.325714 438.530159 
L 61.325714 259.634804 
" style="fill: none; stroke: #cccccc; stroke-width: 1.25; stroke-linejoin: miter; stroke-linecap: square"/>
   </g>
   <g id="patch_10">
    <path d="M 419.04 438.530159 
L 419.04 259.634804 
" style="fill: none; stroke: #cccccc; stroke-width: 1.25; stroke-linejoin: miter; stroke-linecap: square"/>
   </g>
   <g id="patch_11">
    <path d="M 61.325714 438.530159 
L 419.04 438.530159 
" style="fill: none; stroke: #cccccc; stroke-width: 1.25; stroke-linejoin: miter; stroke-linecap: square"/>
   </g>
   <g id="patch_12">
    <path d="M 61.325714 259.634804 
L 419.04 259.634804 
" style="fill: none; stroke: #cccccc; stroke-width: 1.25; stroke-linejoin: miter; stroke-linecap: square"/>
   </g>
   <g id="text_23">
    <!-- (b) Circumferential flux non-uniformity index -->
    <g style="fill: #262626" transform="translate(103.802764 253.634804) scale(0.14 -0.14)">
     <defs>
      <path id="CMR17-62" d="M 960 4396 
L 198 4326 
L 198 4160 
C 576 4160 634 4122 634 3817 
L 634 -13 
L 749 -13 
L 934 441 
C 1120 141 1395 -64 1766 -64 
C 2406 -64 3053 500 3053 1370 
C 3053 2188 2477 2790 1830 2790 
C 1434 2790 1152 2579 960 2330 
L 960 4396 
z
M 973 2004 
C 973 2118 973 2138 1062 2272 
C 1312 2657 1670 2688 1792 2688 
C 1984 2688 2643 2585 2643 1376 
C 2643 108 1888 38 1734 38 
C 1536 38 1248 114 1043 486 
C 973 608 973 621 973 735 
L 973 2004 
z
" transform="scale(0.015625)"/>
      <path id="CMR17-75" d="M 1882 2693 
L 1882 2528 
C 2259 2528 2317 2489 2317 2186 
L 2317 1032 
C 2317 500 2029 38 1555 38 
C 1030 38 986 348 986 678 
L 986 2763 
L 211 2693 
L 211 2528 
C 467 2528 640 2528 646 2274 
L 646 1058 
C 646 633 646 361 813 183 
C 896 101 1056 -64 1517 -64 
C 2061 -64 2272 377 2323 506 
L 2330 506 
L 2330 -63 
L 3091 -63 
L 3091 128 
C 2714 128 2656 166 2656 473 
L 2656 2763 
L 1882 2693 
z
" transform="scale(0.015625)"/>
      <path id="CMR17-6d" d="M 4326 1933 
C 4326 2252 4269 2790 3507 2790 
C 3072 2790 2771 2496 2656 2151 
L 2650 2151 
C 2573 2676 2195 2790 1837 2790 
C 1331 2790 1069 2400 973 2144 
L 966 2144 
L 966 2790 
L 211 2720 
L 211 2554 
C 589 2554 646 2515 646 2208 
L 646 428 
C 646 184 621 153 211 153 
L 211 -13 
C 365 0 646 0 813 0 
C 979 0 1267 0 1421 -13 
L 1421 153 
C 1011 153 986 178 986 428 
L 986 1658 
C 986 2247 1344 2688 1792 2688 
C 2266 2688 2317 2266 2317 1958 
L 2317 428 
C 2317 184 2291 153 1882 153 
L 1882 -13 
C 2035 0 2317 0 2483 0 
C 2650 0 2938 0 3091 -13 
L 3091 153 
C 2682 153 2656 178 2656 428 
L 2656 1658 
C 2656 2247 3014 2688 3462 2688 
C 3936 2688 3987 2266 3987 1958 
L 3987 428 
C 3987 184 3962 153 3552 153 
L 3552 -13 
C 3706 0 3987 0 4154 0 
C 4320 0 4608 0 4762 -13 
L 4762 153 
C 4352 153 4326 178 4326 428 
L 4326 1933 
z
" transform="scale(0.015625)"/>
      <path id="CMR17-66" d="M 979 2560 
L 1709 2560 
L 1709 2725 
L 966 2725 
L 966 3494 
C 966 4022 1235 4352 1510 4352 
C 1594 4352 1690 4327 1754 4282 
C 1702 4269 1568 4225 1568 4067 
C 1568 3901 1696 3850 1786 3850 
C 1875 3850 2003 3901 2003 4067 
C 2003 4308 1773 4454 1517 4454 
C 1152 4454 653 4156 653 3481 
L 653 2725 
L 141 2725 
L 141 2560 
L 653 2560 
L 653 427 
C 653 184 627 153 218 153 
L 218 -13 
C 371 0 666 0 832 0 
C 1018 0 1344 0 1517 -13 
L 1517 153 
C 1056 153 979 153 979 439 
L 979 2560 
z
" transform="scale(0.015625)"/>
      <path id="CMR17-d" d="M 2554 4409 
C 2483 4396 2426 4384 2342 4365 
C 2157 4460 1914 4460 1850 4460 
C 1306 4460 634 4154 634 3472 
L 634 2725 
L 122 2725 
L 122 2560 
L 634 2560 
L 634 427 
C 634 184 608 153 198 153 
L 198 -13 
C 352 0 634 0 794 0 
C 960 0 1242 0 1395 -13 
L 1395 153 
C 986 153 960 178 960 427 
L 960 2560 
L 2227 2560 
L 2227 427 
C 2227 184 2202 153 1792 153 
L 1792 -13 
C 1946 0 2227 0 2387 0 
C 2554 0 2835 0 2989 -13 
L 2989 153 
C 2579 153 2554 178 2554 427 
L 2554 4409 
z
M 947 2725 
L 947 3469 
C 947 4028 1370 4352 1837 4352 
C 1869 4352 2221 4352 2221 4282 
C 2221 4275 2214 4269 2182 4237 
C 2125 4199 2099 4135 2099 4071 
C 2099 3981 2144 3905 2227 3873 
L 2227 2725 
L 947 2725 
z
" transform="scale(0.015625)"/>
      <path id="CMR17-78" d="M 1664 1477 
C 1856 1726 2074 2006 2253 2216 
C 2464 2458 2707 2560 2989 2560 
L 2989 2726 
C 2880 2726 2656 2726 2541 2726 
C 2368 2726 2170 2726 2022 2732 
L 2022 2566 
C 2112 2553 2163 2489 2163 2400 
C 2163 2285 2099 2215 2067 2171 
L 1594 1573 
L 1030 2306 
C 973 2376 973 2388 973 2420 
C 973 2497 1037 2560 1146 2560 
L 1146 2732 
C 992 2726 717 2726 557 2726 
C 384 2726 179 2726 38 2732 
L 38 2560 
C 384 2560 461 2534 614 2343 
L 1350 1395 
C 1363 1382 1395 1344 1395 1325 
C 1395 1299 838 619 768 530 
C 480 185 179 160 6 160 
L 6 0 
C 115 0 339 0 454 0 
C 582 0 864 0 979 -6 
L 979 160 
C 941 166 838 179 838 325 
C 838 440 890 510 947 586 
L 1478 1236 
L 2035 512 
C 2086 442 2163 346 2163 301 
C 2163 211 2086 160 1984 160 
L 1984 -6 
C 2138 0 2413 0 2573 0 
C 2746 0 2950 0 3091 -6 
L 3091 160 
C 2771 160 2675 172 2522 370 
L 1664 1477 
z
" transform="scale(0.015625)"/>
      <path id="CMR17-2d" d="M 1632 1216 
L 1632 1496 
L 26 1496 
L 26 1216 
L 1632 1216 
z
" transform="scale(0.015625)"/>
      <path id="CMR17-64" d="M 1869 4326 
L 1869 4160 
C 2246 4160 2304 4122 2304 3820 
L 2304 2345 
C 2278 2377 2016 2790 1498 2790 
C 845 2790 211 2208 211 1364 
C 211 525 806 -64 1434 -64 
C 1978 -64 2259 337 2291 380 
L 2291 -63 
L 3066 -63 
L 3066 128 
C 2688 128 2630 166 2630 473 
L 2630 4396 
L 1869 4326 
z
M 2291 755 
C 2291 563 2176 390 2029 262 
C 1811 70 1594 38 1472 38 
C 1286 38 621 134 621 1356 
C 621 2612 1363 2688 1530 2688 
C 1824 2688 2061 2522 2208 2291 
C 2291 2157 2291 2138 2291 2023 
L 2291 755 
z
" transform="scale(0.015625)"/>
     </defs>
     <use xlink:href="#CMR17-28" transform="scale(0.996264)"/>
     <use xlink:href="#CMR17-62" transform="translate(35.280768 0) scale(0.996264)"/>
     <use xlink:href="#CMR17-29" transform="translate(86.176138 0) scale(0.996264)"/>
     <use xlink:href="#CMR17-43" transform="translate(151.532872 0) scale(0.996264)"/>
     <use xlink:href="#CMR17-69" transform="translate(218.042752 0) scale(0.996264)"/>
     <use xlink:href="#CMR17-72" transform="translate(242.913811 0) scale(0.996264)"/>
     <use xlink:href="#CMR17-63" transform="translate(278.194579 0) scale(0.996264)"/>
     <use xlink:href="#CMR17-75" transform="translate(318.680239 0) scale(0.996264)"/>
     <use xlink:href="#CMR17-6d" transform="translate(369.575609 0) scale(0.996264)"/>
     <use xlink:href="#CMR17-66" transform="translate(446.495199 0) scale(0.996264)"/>
     <use xlink:href="#CMR17-65" transform="translate(473.968711 0) scale(0.996264)"/>
     <use xlink:href="#CMR17-72" transform="translate(514.454372 0) scale(0.996264)"/>
     <use xlink:href="#CMR17-65" transform="translate(549.735139 0) scale(0.996264)"/>
     <use xlink:href="#CMR17-6e" transform="translate(590.2208 0) scale(0.996264)"/>
     <use xlink:href="#CMR17-74" transform="translate(638.513716 0) scale(0.996264)"/>
     <use xlink:href="#CMR17-69" transform="translate(673.794483 0) scale(0.996264)"/>
     <use xlink:href="#CMR17-61" transform="translate(698.665542 0) scale(0.996264)"/>
     <use xlink:href="#CMR17-6c" transform="translate(744.356019 0) scale(0.996264)"/>
     <use xlink:href="#CMR17-d" transform="translate(799.303044 0) scale(0.996264)"/>
     <use xlink:href="#CMR17-75" transform="translate(849.045267 0) scale(0.996264)"/>
     <use xlink:href="#CMR17-78" transform="translate(899.940637 0) scale(0.996264)"/>
     <use xlink:href="#CMR17-6e" transform="translate(978.309519 0) scale(0.996264)"/>
     <use xlink:href="#CMR17-6f" transform="translate(1029.204889 0) scale(0.996264)"/>
     <use xlink:href="#CMR17-6e" transform="translate(1074.895366 0) scale(0.996264)"/>
     <use xlink:href="#CMR17-2d" transform="translate(1125.790736 0) scale(0.996264)"/>
     <use xlink:href="#CMR17-75" transform="translate(1155.866702 0) scale(0.996264)"/>
     <use xlink:href="#CMR17-6e" transform="translate(1206.762072 0) scale(0.996264)"/>
     <use xlink:href="#CMR17-69" transform="translate(1257.657442 0) scale(0.996264)"/>
     <use xlink:href="#CMR17-66" transform="translate(1282.5285 0) scale(0.996264)"/>
     <use xlink:href="#CMR17-6f" transform="translate(1310.002013 0) scale(0.996264)"/>
     <use xlink:href="#CMR17-72" transform="translate(1355.69249 0) scale(0.996264)"/>
     <use xlink:href="#CMR17-6d" transform="translate(1390.973258 0) scale(0.996264)"/>
     <use xlink:href="#CMR17-69" transform="translate(1467.892848 0) scale(0.996264)"/>
     <use xlink:href="#CMR17-74" transform="translate(1492.763906 0) scale(0.996264)"/>
     <use xlink:href="#CMR17-79" transform="translate(1525.44222 0) scale(0.996264)"/>
     <use xlink:href="#CMR17-69" transform="translate(1603.811102 0) scale(0.996264)"/>
     <use xlink:href="#CMR17-6e" transform="translate(1628.682161 0) scale(0.996264)"/>
     <use xlink:href="#CMR17-64" transform="translate(1679.57753 0) scale(0.996264)"/>
     <use xlink:href="#CMR17-65" transform="translate(1730.4729 0) scale(0.996264)"/>
     <use xlink:href="#CMR17-78" transform="translate(1770.958561 0) scale(0.996264)"/>
    </g>
   </g>
  </g>
  <g id="axes_3">
   <g id="patch_13">
    <path d="M 61.325714 668.74419 
L 419.04 668.74419 
L 419.04 489.848836 
L 61.325714 489.848836 
z
" style="fill: #ffffff"/>
   </g>
   <g id="matplotlib.axis_5">
    <g id="xtick_11">
     <g id="line2d_26">
      <path d="M 77.585454 668.74419 
L 77.585454 489.848836 
" clip-path="url(#p633b51a294)" style="fill: none; stroke: #cccccc; stroke-linecap: round"/>
     </g>
     <g id="text_24">
      <!-- $0$$^\circ$ -->
      <g style="fill: #262626" transform="translate(71.662596 687.930067) scale(0.14 -0.14)">
       <use xlink:href="#CMR17-30" transform="scale(0.996264)"/>
       <use xlink:href="#CMSY10-e" transform="translate(45.690477 36.153639) scale(0.697382)"/>
      </g>
     </g>
    </g>
    <g id="xtick_12">
     <g id="line2d_27">
      <path d="M 154.101879 668.74419 
L 154.101879 489.848836 
" clip-path="url(#p633b51a294)" style="fill: none; stroke: #cccccc; stroke-linecap: round"/>
     </g>
     <g id="text_25">
      <!-- $20$$^\circ$ -->
      <g style="fill: #262626" transform="translate(144.764777 687.930067) scale(0.14 -0.14)">
       <use xlink:href="#CMR17-32" transform="scale(0.996264)"/>
       <use xlink:href="#CMR17-30" transform="translate(45.690477 0) scale(0.996264)"/>
       <use xlink:href="#CMSY10-e" transform="translate(91.380954 36.153639) scale(0.697382)"/>
      </g>
     </g>
    </g>
    <g id="xtick_13">
     <g id="line2d_28">
      <path d="M 230.618304 668.74419 
L 230.618304 489.848836 
" clip-path="url(#p633b51a294)" style="fill: none; stroke: #cccccc; stroke-linecap: round"/>
     </g>
     <g id="text_26">
      <!-- $40$$^\circ$ -->
      <g style="fill: #262626" transform="translate(221.281202 687.930067) scale(0.14 -0.14)">
       <use xlink:href="#CMR17-34" transform="scale(0.996264)"/>
       <use xlink:href="#CMR17-30" transform="translate(45.690477 0) scale(0.996264)"/>
       <use xlink:href="#CMSY10-e" transform="translate(91.380954 36.153639) scale(0.697382)"/>
      </g>
     </g>
    </g>
    <g id="xtick_14">
     <g id="line2d_29">
      <path d="M 307.134729 668.74419 
L 307.134729 489.848836 
" clip-path="url(#p633b51a294)" style="fill: none; stroke: #cccccc; stroke-linecap: round"/>
     </g>
     <g id="text_27">
      <!-- $60$$^\circ$ -->
      <g style="fill: #262626" transform="translate(297.797627 687.930067) scale(0.14 -0.14)">
       <use xlink:href="#CMR17-36" transform="scale(0.996264)"/>
       <use xlink:href="#CMR17-30" transform="translate(45.690477 0) scale(0.996264)"/>
       <use xlink:href="#CMSY10-e" transform="translate(91.380954 36.153639) scale(0.697382)"/>
      </g>
     </g>
    </g>
    <g id="xtick_15">
     <g id="line2d_30">
      <path d="M 383.651153 668.74419 
L 383.651153 489.848836 
" clip-path="url(#p633b51a294)" style="fill: none; stroke: #cccccc; stroke-linecap: round"/>
     </g>
     <g id="text_28">
      <!-- $80$$^\circ$ -->
      <g style="fill: #262626" transform="translate(374.314052 687.930067) scale(0.14 -0.14)">
       <use xlink:href="#CMR17-38" transform="scale(0.996264)"/>
       <use xlink:href="#CMR17-30" transform="translate(45.690477 0) scale(0.996264)"/>
       <use xlink:href="#CMSY10-e" transform="translate(91.380954 36.153639) scale(0.697382)"/>
      </g>
     </g>
    </g>
    <g id="text_29">
     <!-- $\theta_{T}$ -->
     <g style="fill: #262626" transform="translate(234.073762 704.327972) scale(0.14 -0.14)">
      <defs>
       <path id="CMMI12-12" d="M 2835 3200 
C 2835 3850 2630 4480 2106 4480 
C 1210 4480 256 2615 256 1216 
C 256 923 320 -64 992 -64 
C 1862 -64 2835 1756 2835 3200 
z
M 896 2304 
C 992 2679 1126 3214 1382 3665 
C 1594 4047 1818 4352 2099 4352 
C 2310 4352 2451 4174 2451 3564 
C 2451 3334 2432 3017 2246 2304 
L 896 2304 
z
M 2202 2113 
C 2042 1490 1907 1088 1677 687 
C 1491 363 1267 64 998 64 
C 800 64 640 217 640 846 
C 640 1260 742 1693 845 2113 
L 2202 2113 
z
" transform="scale(0.015625)"/>
       <path id="CMMI12-54" d="M 2669 3910 
C 2707 4064 2720 4121 2816 4147 
C 2867 4160 3078 4160 3213 4160 
C 3853 4160 4154 4134 4154 3634 
C 4154 3537 4128 3295 4090 3057 
L 4083 2980 
C 4083 2954 4109 2916 4147 2916 
C 4211 2916 4211 2948 4230 3050 
L 4416 4184 
C 4429 4243 4429 4256 4429 4275 
C 4429 4345 4390 4345 4262 4345 
L 762 4345 
C 614 4345 608 4339 570 4224 
L 179 3070 
C 173 3056 154 2986 154 2980 
C 154 2948 179 2916 218 2916 
C 269 2916 282 2941 307 3024 
C 576 3801 710 4160 1562 4160 
L 1990 4160 
C 2144 4160 2208 4160 2208 4089 
C 2208 4069 2208 4057 2176 3941 
L 1318 499 
C 1254 249 1242 185 563 185 
C 403 185 358 185 358 64 
C 358 0 429 0 461 0 
C 621 0 787 0 947 0 
L 1946 0 
C 2106 0 2278 0 2438 0 
C 2509 0 2573 0 2573 121 
C 2573 185 2528 185 2362 185 
C 1786 185 1786 243 1786 339 
C 1786 346 1786 391 1811 494 
L 2669 3910 
z
" transform="scale(0.015625)"/>
      </defs>
      <use xlink:href="#CMMI12-12" transform="scale(0.996264)"/>
      <use xlink:href="#CMMI12-54" transform="translate(45.45979 -14.943915) scale(0.697382)"/>
     </g>
    </g>
   </g>
   <g id="matplotlib.axis_6">
    <g id="ytick_7">
     <g id="line2d_31">
      <path d="M 61.325714 652.980684 
L 419.04 652.980684 
" clip-path="url(#p633b51a294)" style="fill: none; stroke: #cccccc; stroke-linecap: round"/>
     </g>
     <g id="text_30">
      <!-- 1.0$^\circ$ -->
      <g style="fill: #262626" transform="translate(29.357905 657.823622) scale(0.14 -0.14)">
       <defs>
        <path id="CMR17-2e" d="M 1062 261 
C 1062 420 934 522 800 522 
C 672 522 538 420 538 261 
C 538 102 666 0 800 0 
C 928 0 1062 102 1062 261 
z
" transform="scale(0.015625)"/>
       </defs>
       <use xlink:href="#CMR17-31" transform="scale(0.996264)"/>
       <use xlink:href="#CMR17-2e" transform="translate(45.690477 0) scale(0.996264)"/>
       <use xlink:href="#CMR17-30" transform="translate(70.561536 0) scale(0.996264)"/>
       <use xlink:href="#CMSY10-e" transform="translate(116.252013 36.153639) scale(0.697382)"/>
      </g>
     </g>
    </g>
    <g id="ytick_8">
     <g id="line2d_32">
      <path d="M 61.325714 607.552712 
L 419.04 607.552712 
" clip-path="url(#p633b51a294)" style="fill: none; stroke: #cccccc; stroke-linecap: round"/>
     </g>
     <g id="text_31">
      <!-- 1.5$^\circ$ -->
      <g style="fill: #262626" transform="translate(29.357905 612.39565) scale(0.14 -0.14)">
       <defs>
        <path id="CMR17-35" d="M 730 3692 
C 794 3666 1056 3584 1325 3584 
C 1920 3584 2246 3911 2432 4100 
C 2432 4157 2432 4192 2394 4192 
C 2387 4192 2374 4192 2323 4163 
C 2099 4058 1837 3973 1517 3973 
C 1325 3973 1037 3999 723 4139 
C 653 4171 640 4171 634 4171 
C 602 4171 595 4164 595 4037 
L 595 2203 
C 595 2089 595 2057 659 2057 
C 691 2057 704 2070 736 2114 
C 941 2401 1222 2522 1542 2522 
C 1766 2522 2246 2382 2246 1289 
C 2246 1085 2246 715 2054 421 
C 1894 159 1645 25 1370 25 
C 947 25 518 320 403 814 
C 429 807 480 795 506 795 
C 589 795 749 840 749 1038 
C 749 1210 627 1280 506 1280 
C 358 1280 262 1190 262 1011 
C 262 454 704 -128 1382 -128 
C 2042 -128 2669 440 2669 1264 
C 2669 2030 2170 2624 1549 2624 
C 1222 2624 947 2503 730 2274 
L 730 3692 
z
" transform="scale(0.015625)"/>
       </defs>
       <use xlink:href="#CMR17-31" transform="scale(0.996264)"/>
       <use xlink:href="#CMR17-2e" transform="translate(45.690477 0) scale(0.996264)"/>
       <use xlink:href="#CMR17-35" transform="translate(70.561536 0) scale(0.996264)"/>
       <use xlink:href="#CMSY10-e" transform="translate(116.252013 36.153639) scale(0.697382)"/>
      </g>
     </g>
    </g>
    <g id="ytick_9">
     <g id="line2d_33">
      <path d="M 61.325714 562.124739 
L 419.04 562.124739 
" clip-path="url(#p633b51a294)" style="fill: none; stroke: #cccccc; stroke-linecap: round"/>
     </g>
     <g id="text_32">
      <!-- 2.0$^\circ$ -->
      <g style="fill: #262626" transform="translate(29.357905 566.967678) scale(0.14 -0.14)">
       <use xlink:href="#CMR17-32" transform="scale(0.996264)"/>
       <use xlink:href="#CMR17-2e" transform="translate(45.690477 0) scale(0.996264)"/>
       <use xlink:href="#CMR17-30" transform="translate(70.561536 0) scale(0.996264)"/>
       <use xlink:href="#CMSY10-e" transform="translate(116.252013 36.153639) scale(0.697382)"/>
      </g>
     </g>
    </g>
    <g id="ytick_10">
     <g id="line2d_34">
      <path d="M 61.325714 516.696767 
L 419.04 516.696767 
" clip-path="url(#p633b51a294)" style="fill: none; stroke: #cccccc; stroke-linecap: round"/>
     </g>
     <g id="text_33">
      <!-- 2.5$^\circ$ -->
      <g style="fill: #262626" transform="translate(29.357905 521.539705) scale(0.14 -0.14)">
       <use xlink:href="#CMR17-32" transform="scale(0.996264)"/>
       <use xlink:href="#CMR17-2e" transform="translate(45.690477 0) scale(0.996264)"/>
       <use xlink:href="#CMR17-35" transform="translate(70.561536 0) scale(0.996264)"/>
       <use xlink:href="#CMSY10-e" transform="translate(116.252013 36.153639) scale(0.697382)"/>
      </g>
     </g>
    </g>
    <g id="text_34">
     <!-- $\beta$ -->
     <g style="fill: #262626" transform="translate(22.645876 583.151465) rotate(-90) scale(0.14 -0.14)">
      <defs>
       <path id="CMMI12-c" d="M 3622 3701 
C 3622 4081 3296 4480 2714 4480 
C 1888 4480 1363 3477 1197 2816 
L 186 -1172 
C 173 -1223 211 -1236 243 -1236 
C 288 -1236 320 -1230 326 -1198 
L 774 586 
C 838 229 1190 -64 1568 -64 
C 2483 -64 3347 650 3347 1599 
C 3347 1841 3290 2083 3155 2287 
C 3078 2408 2982 2497 2880 2574 
C 3341 2815 3622 3200 3622 3701 
z
M 2509 2580 
C 2406 2542 2304 2529 2182 2529 
C 2093 2529 2010 2523 1894 2561 
C 1958 2606 2054 2618 2189 2618 
C 2304 2618 2419 2606 2509 2580 
z
M 3290 3758 
C 3290 3410 3117 2903 2701 2669 
C 2579 2718 2413 2752 2272 2752 
C 2138 2752 1754 2752 1754 2555 
C 1754 2389 2106 2389 2214 2389 
C 2381 2389 2528 2432 2682 2484 
C 2886 2318 2976 2101 2976 1783 
C 2976 1413 2874 1115 2752 841 
C 2541 369 2042 64 1600 64 
C 1133 64 890 432 890 864 
C 890 922 890 1005 915 1099 
L 1331 2771 
C 1542 3603 2080 4353 2701 4353 
C 3162 4353 3290 4036 3290 3758 
z
" transform="scale(0.015625)"/>
      </defs>
      <use xlink:href="#CMMI12-c" transform="scale(0.996264)"/>
     </g>
    </g>
   </g>
   <g id="line2d_35">
    <path d="M 77.585454 657.705193 
L 96.71456 645.621352 
L 115.843666 648.165319 
L 134.972773 659.068032 
L 154.101879 654.525235 
L 173.230985 648.801311 
L 192.360091 651.526989 
L 211.489197 655.433794 
L 230.618304 649.800726 
L 249.74741 649.619014 
L 268.876516 651.072709 
L 288.005622 650.255006 
L 307.134729 650.073294 
L 326.263835 651.799557 
L 345.392941 652.61726 
L 364.522047 653.07154 
L 383.651153 655.52465 
L 402.78026 660.612583 
" clip-path="url(#p633b51a294)" style="fill: none; stroke: #4c72b0; stroke-width: 1.5; stroke-linecap: round"/>
    <g clip-path="url(#p633b51a294)">
     <use xlink:href="#m7400f18d97" x="77.585454" y="657.705193" style="fill: #4c72b0; stroke: #4c72b0; stroke-linejoin: miter"/>
     <use xlink:href="#m7400f18d97" x="96.71456" y="645.621352" style="fill: #4c72b0; stroke: #4c72b0; stroke-linejoin: miter"/>
     <use xlink:href="#m7400f18d97" x="115.843666" y="648.165319" style="fill: #4c72b0; stroke: #4c72b0; stroke-linejoin: miter"/>
     <use xlink:href="#m7400f18d97" x="134.972773" y="659.068032" style="fill: #4c72b0; stroke: #4c72b0; stroke-linejoin: miter"/>
     <use xlink:href="#m7400f18d97" x="154.101879" y="654.525235" style="fill: #4c72b0; stroke: #4c72b0; stroke-linejoin: miter"/>
     <use xlink:href="#m7400f18d97" x="173.230985" y="648.801311" style="fill: #4c72b0; stroke: #4c72b0; stroke-linejoin: miter"/>
     <use xlink:href="#m7400f18d97" x="192.360091" y="651.526989" style="fill: #4c72b0; stroke: #4c72b0; stroke-linejoin: miter"/>
     <use xlink:href="#m7400f18d97" x="211.489197" y="655.433794" style="fill: #4c72b0; stroke: #4c72b0; stroke-linejoin: miter"/>
     <use xlink:href="#m7400f18d97" x="230.618304" y="649.800726" style="fill: #4c72b0; stroke: #4c72b0; stroke-linejoin: miter"/>
     <use xlink:href="#m7400f18d97" x="249.74741" y="649.619014" style="fill: #4c72b0; stroke: #4c72b0; stroke-linejoin: miter"/>
     <use xlink:href="#m7400f18d97" x="268.876516" y="651.072709" style="fill: #4c72b0; stroke: #4c72b0; stroke-linejoin: miter"/>
     <use xlink:href="#m7400f18d97" x="288.005622" y="650.255006" style="fill: #4c72b0; stroke: #4c72b0; stroke-linejoin: miter"/>
     <use xlink:href="#m7400f18d97" x="307.134729" y="650.073294" style="fill: #4c72b0; stroke: #4c72b0; stroke-linejoin: miter"/>
     <use xlink:href="#m7400f18d97" x="326.263835" y="651.799557" style="fill: #4c72b0; stroke: #4c72b0; stroke-linejoin: miter"/>
     <use xlink:href="#m7400f18d97" x="345.392941" y="652.61726" style="fill: #4c72b0; stroke: #4c72b0; stroke-linejoin: miter"/>
     <use xlink:href="#m7400f18d97" x="364.522047" y="653.07154" style="fill: #4c72b0; stroke: #4c72b0; stroke-linejoin: miter"/>
     <use xlink:href="#m7400f18d97" x="383.651153" y="655.52465" style="fill: #4c72b0; stroke: #4c72b0; stroke-linejoin: miter"/>
     <use xlink:href="#m7400f18d97" x="402.78026" y="660.612583" style="fill: #4c72b0; stroke: #4c72b0; stroke-linejoin: miter"/>
    </g>
   </g>
   <g id="line2d_36">
    <path d="M 77.585454 497.980443 
L 96.71456 517.151047 
L 115.843666 501.342113 
L 134.972773 514.879648 
L 154.101879 518.513886 
L 173.230985 514.152801 
L 192.360091 504.158647 
L 211.489197 506.611757 
L 230.618304 509.791715 
L 249.74741 508.701444 
L 268.876516 508.7923 
L 288.005622 509.155724 
L 307.134729 510.155139 
L 326.263835 523.510963 
L 345.392941 531.142862 
L 364.522047 539.955889 
L 383.651153 551.858018 
L 402.78026 565.577265 
" clip-path="url(#p633b51a294)" style="fill: none; stroke: #dd8452; stroke-width: 1.5; stroke-linecap: round"/>
    <g clip-path="url(#p633b51a294)">
     <use xlink:href="#m8a2416a9e0" x="77.585454" y="497.980443" style="fill: #dd8452; stroke: #dd8452; stroke-linejoin: miter"/>
     <use xlink:href="#m8a2416a9e0" x="96.71456" y="517.151047" style="fill: #dd8452; stroke: #dd8452; stroke-linejoin: miter"/>
     <use xlink:href="#m8a2416a9e0" x="115.843666" y="501.342113" style="fill: #dd8452; stroke: #dd8452; stroke-linejoin: miter"/>
     <use xlink:href="#m8a2416a9e0" x="134.972773" y="514.879648" style="fill: #dd8452; stroke: #dd8452; stroke-linejoin: miter"/>
     <use xlink:href="#m8a2416a9e0" x="154.101879" y="518.513886" style="fill: #dd8452; stroke: #dd8452; stroke-linejoin: miter"/>
     <use xlink:href="#m8a2416a9e0" x="173.230985" y="514.152801" style="fill: #dd8452; stroke: #dd8452; stroke-linejoin: miter"/>
     <use xlink:href="#m8a2416a9e0" x="192.360091" y="504.158647" style="fill: #dd8452; stroke: #dd8452; stroke-linejoin: miter"/>
     <use xlink:href="#m8a2416a9e0" x="211.489197" y="506.611757" style="fill: #dd8452; stroke: #dd8452; stroke-linejoin: miter"/>
     <use xlink:href="#m8a2416a9e0" x="230.618304" y="509.791715" style="fill: #dd8452; stroke: #dd8452; stroke-linejoin: miter"/>
     <use xlink:href="#m8a2416a9e0" x="249.74741" y="508.701444" style="fill: #dd8452; stroke: #dd8452; stroke-linejoin: miter"/>
     <use xlink:href="#m8a2416a9e0" x="268.876516" y="508.7923" style="fill: #dd8452; stroke: #dd8452; stroke-linejoin: miter"/>
     <use xlink:href="#m8a2416a9e0" x="288.005622" y="509.155724" style="fill: #dd8452; stroke: #dd8452; stroke-linejoin: miter"/>
     <use xlink:href="#m8a2416a9e0" x="307.134729" y="510.155139" style="fill: #dd8452; stroke: #dd8452; stroke-linejoin: miter"/>
     <use xlink:href="#m8a2416a9e0" x="326.263835" y="523.510963" style="fill: #dd8452; stroke: #dd8452; stroke-linejoin: miter"/>
     <use xlink:href="#m8a2416a9e0" x="345.392941" y="531.142862" style="fill: #dd8452; stroke: #dd8452; stroke-linejoin: miter"/>
     <use xlink:href="#m8a2416a9e0" x="364.522047" y="539.955889" style="fill: #dd8452; stroke: #dd8452; stroke-linejoin: miter"/>
     <use xlink:href="#m8a2416a9e0" x="383.651153" y="551.858018" style="fill: #dd8452; stroke: #dd8452; stroke-linejoin: miter"/>
     <use xlink:href="#m8a2416a9e0" x="402.78026" y="565.577265" style="fill: #dd8452; stroke: #dd8452; stroke-linejoin: miter"/>
    </g>
   </g>
   <g id="line2d_37">
    <path d="M 77.585454 525.60065 
L 96.71456 543.226703 
L 115.843666 528.96232 
L 134.972773 541.773008 
L 154.101879 542.954135 
L 173.230985 534.413676 
L 192.360091 528.96232 
L 211.489197 535.776516 
L 230.618304 537.866202 
L 249.74741 535.503948 
L 268.876516 537.139355 
L 288.005622 536.049083 
L 307.134729 536.594219 
L 326.263835 546.315805 
L 345.392941 550.949458 
L 364.522047 557.309374 
L 383.651153 567.93952 
L 402.78026 582.203903 
" clip-path="url(#p633b51a294)" style="fill: none; stroke: #55a868; stroke-width: 1.5; stroke-linecap: round"/>
    <g clip-path="url(#p633b51a294)">
     <use xlink:href="#m4aaffa0e32" x="77.585454" y="525.60065" style="fill: #55a868; stroke: #55a868; stroke-linejoin: miter"/>
     <use xlink:href="#m4aaffa0e32" x="96.71456" y="543.226703" style="fill: #55a868; stroke: #55a868; stroke-linejoin: miter"/>
     <use xlink:href="#m4aaffa0e32" x="115.843666" y="528.96232" style="fill: #55a868; stroke: #55a868; stroke-linejoin: miter"/>
     <use xlink:href="#m4aaffa0e32" x="134.972773" y="541.773008" style="fill: #55a868; stroke: #55a868; stroke-linejoin: miter"/>
     <use xlink:href="#m4aaffa0e32" x="154.101879" y="542.954135" style="fill: #55a868; stroke: #55a868; stroke-linejoin: miter"/>
     <use xlink:href="#m4aaffa0e32" x="173.230985" y="534.413676" style="fill: #55a868; stroke: #55a868; stroke-linejoin: miter"/>
     <use xlink:href="#m4aaffa0e32" x="192.360091" y="528.96232" style="fill: #55a868; stroke: #55a868; stroke-linejoin: miter"/>
     <use xlink:href="#m4aaffa0e32" x="211.489197" y="535.776516" style="fill: #55a868; stroke: #55a868; stroke-linejoin: miter"/>
     <use xlink:href="#m4aaffa0e32" x="230.618304" y="537.866202" style="fill: #55a868; stroke: #55a868; stroke-linejoin: miter"/>
     <use xlink:href="#m4aaffa0e32" x="249.74741" y="535.503948" style="fill: #55a868; stroke: #55a868; stroke-linejoin: miter"/>
     <use xlink:href="#m4aaffa0e32" x="268.876516" y="537.139355" style="fill: #55a868; stroke: #55a868; stroke-linejoin: miter"/>
     <use xlink:href="#m4aaffa0e32" x="288.005622" y="536.049083" style="fill: #55a868; stroke: #55a868; stroke-linejoin: miter"/>
     <use xlink:href="#m4aaffa0e32" x="307.134729" y="536.594219" style="fill: #55a868; stroke: #55a868; stroke-linejoin: miter"/>
     <use xlink:href="#m4aaffa0e32" x="326.263835" y="546.315805" style="fill: #55a868; stroke: #55a868; stroke-linejoin: miter"/>
     <use xlink:href="#m4aaffa0e32" x="345.392941" y="550.949458" style="fill: #55a868; stroke: #55a868; stroke-linejoin: miter"/>
     <use xlink:href="#m4aaffa0e32" x="364.522047" y="557.309374" style="fill: #55a868; stroke: #55a868; stroke-linejoin: miter"/>
     <use xlink:href="#m4aaffa0e32" x="383.651153" y="567.93952" style="fill: #55a868; stroke: #55a868; stroke-linejoin: miter"/>
     <use xlink:href="#m4aaffa0e32" x="402.78026" y="582.203903" style="fill: #55a868; stroke: #55a868; stroke-linejoin: miter"/>
    </g>
   </g>
   <g id="patch_14">
    <path d="M 61.325714 668.74419 
L 61.325714 489.848836 
" style="fill: none; stroke: #cccccc; stroke-width: 1.25; stroke-linejoin: miter; stroke-linecap: square"/>
   </g>
   <g id="patch_15">
    <path d="M 419.04 668.74419 
L 419.04 489.848836 
" style="fill: none; stroke: #cccccc; stroke-width: 1.25; stroke-linejoin: miter; stroke-linecap: square"/>
   </g>
   <g id="patch_16">
    <path d="M 61.325714 668.74419 
L 419.04 668.74419 
" style="fill: none; stroke: #cccccc; stroke-width: 1.25; stroke-linejoin: miter; stroke-linecap: square"/>
   </g>
   <g id="patch_17">
    <path d="M 61.325714 489.848836 
L 419.04 489.848836 
" style="fill: none; stroke: #cccccc; stroke-width: 1.25; stroke-linejoin: miter; stroke-linecap: square"/>
   </g>
   <g id="text_35">
    <!-- (c) Acceptance half-angle -->
    <g style="fill: #262626" transform="translate(164.313178 483.848836) scale(0.14 -0.14)">
     <defs>
      <path id="CMR17-41" d="M 2323 4378 
C 2291 4461 2278 4480 2214 4480 
C 2150 4480 2138 4461 2106 4378 
L 749 566 
C 627 223 371 153 147 153 
L 147 -13 
C 262 0 518 0 640 0 
C 800 0 1056 0 1210 -13 
L 1210 153 
C 909 153 864 361 864 439 
C 864 497 877 530 890 569 
L 1229 1536 
L 2906 1536 
L 3290 442 
C 3322 365 3322 352 3322 327 
C 3322 153 3046 153 2925 153 
L 2925 0 
C 3110 0 3443 0 3642 0 
C 3808 0 4128 0 4282 -13 
L 4282 153 
C 3942 153 3827 153 3744 387 
L 2323 4378 
z
M 2067 3893 
L 2848 1702 
L 1286 1702 
L 2067 3893 
z
" transform="scale(0.015625)"/>
     </defs>
     <use xlink:href="#CMR17-28" transform="scale(0.996264)"/>
     <use xlink:href="#CMR17-63" transform="translate(35.280768 0) scale(0.996264)"/>
     <use xlink:href="#CMR17-29" transform="translate(75.766428 0) scale(0.996264)"/>
     <use xlink:href="#CMR17-41" transform="translate(141.123162 0) scale(0.996264)"/>
     <use xlink:href="#CMR17-63" transform="translate(210.195592 0) scale(0.996264)"/>
     <use xlink:href="#CMR17-63" transform="translate(250.681253 0) scale(0.996264)"/>
     <use xlink:href="#CMR17-65" transform="translate(291.166913 0) scale(0.996264)"/>
     <use xlink:href="#CMR17-70" transform="translate(331.652574 0) scale(0.996264)"/>
     <use xlink:href="#CMR17-74" transform="translate(382.547943 0) scale(0.996264)"/>
     <use xlink:href="#CMR17-61" transform="translate(417.828711 0) scale(0.996264)"/>
     <use xlink:href="#CMR17-6e" transform="translate(463.519188 0) scale(0.996264)"/>
     <use xlink:href="#CMR17-63" transform="translate(514.414558 0) scale(0.996264)"/>
     <use xlink:href="#CMR17-65" transform="translate(554.900219 0) scale(0.996264)"/>
     <use xlink:href="#CMR17-68" transform="translate(625.461845 0) scale(0.996264)"/>
     <use xlink:href="#CMR17-61" transform="translate(676.357215 0) scale(0.996264)"/>
     <use xlink:href="#CMR17-6c" transform="translate(722.047692 0) scale(0.996264)"/>
     <use xlink:href="#CMR17-66" transform="translate(746.918751 0) scale(0.996264)"/>
     <use xlink:href="#CMR17-2d" transform="translate(774.392263 0) scale(0.996264)"/>
     <use xlink:href="#CMR17-61" transform="translate(804.468229 0) scale(0.996264)"/>
     <use xlink:href="#CMR17-6e" transform="translate(850.158707 0) scale(0.996264)"/>
     <use xlink:href="#CMR17-67" transform="translate(901.054076 0) scale(0.996264)"/>
     <use xlink:href="#CMR17-6c" transform="translate(946.744554 0) scale(0.996264)"/>
     <use xlink:href="#CMR17-65" transform="translate(971.615612 0) scale(0.996264)"/>
    </g>
   </g>
  </g>
 </g>
 <defs>
  <clipPath id="pb6f0ad5d27">
   <rect x="61.325714" y="29.420772" width="357.714286" height="178.895355"/>
  </clipPath>
  <clipPath id="pdd7ae81224">
   <rect x="61.325714" y="259.634804" width="357.714286" height="178.895355"/>
  </clipPath>
  <clipPath id="p633b51a294">
   <rect x="61.325714" y="489.848836" width="357.714286" height="178.895355"/>
  </clipPath>
 </defs>
</svg>
