<?xml version="1.0" encoding="utf-8" standalone="no"?>
<!DOCTYPE svg PUBLIC "-//W3C//DTD SVG 1.1//EN"
  "http://www.w3.org/Graphics/SVG/1.1/DTD/svg11.dtd">
<svg xmlns:xlink="http://www.w3.org/1999/xlink" width="864pt" height="360pt" viewBox="0 0 864 360" xmlns="http://www.w3.org/2000/svg" version="1.1">
 <metadata>
  <rdf:RDF xmlns:dc="http://purl.org/dc/elements/1.1/" xmlns:cc="http://creativecommons.org/ns#" xmlns:rdf="http://www.w3.org/1999/02/22-rdf-syntax-ns#">
   <cc:Work>
    <dc:type rdf:resource="http://purl.org/dc/dcmitype/StillImage"/>
    <dc:date>2025-04-04T15:18:14.246780</dc:date>
    <dc:format>image/svg+xml</dc:format>
    <dc:creator>
     <cc:Agent>
      <dc:title>Matplotlib v3.8.2, https://matplotlib.org/</dc:title>
     </cc:Agent>
    </dc:creator>
   </cc:Work>
  </rdf:RDF>
 </metadata>
 <defs>
  <style type="text/css">*{stroke-linejoin: round; stroke-linecap: butt}</style>
 </defs>
 <g id="figure_1">
  <g id="patch_1">
   <path d="M 0 360 
L 864 360 
L 864 0 
L 0 0 
z
" style="fill: #ffffff"/>
  </g>
  <g id="axes_1">
   <g id="patch_2">
    <path d="M 54.064673 307.194399 
L 429.182801 307.194399 
L 429.182801 29.420772 
L 54.064673 29.420772 
z
" style="fill: #ffffff"/>
   </g>
   <g id="matplotlib.axis_1">
    <g id="xtick_1">
     <g id="line2d_1">
      <path d="M 78.87327 307.194399 
L 78.87327 29.420772 
" clip-path="url(#p577b42fb97)" style="fill: none; stroke: #cccccc; stroke-linecap: round"/>
     </g>
     <g id="text_1">
      <!-- $\mathdefault{−15}$ -->
      <g style="fill: #262626" transform="translate(66.620663 326.380275) scale(0.14 -0.14)">
       <defs>
        <path id="CMSY10-0" d="M 4218 1472 
C 4326 1472 4442 1472 4442 1600 
C 4442 1728 4326 1728 4218 1728 
L 755 1728 
C 646 1728 531 1728 531 1600 
C 531 1472 646 1472 755 1472 
L 4218 1472 
z
" transform="scale(0.015625)"/>
        <path id="CMR17-31" d="M 1702 4058 
C 1702 4192 1696 4192 1606 4192 
C 1357 3916 979 3827 621 3827 
C 602 3827 570 3827 563 3808 
C 557 3795 557 3782 557 3648 
C 755 3648 1088 3686 1344 3839 
L 1344 461 
C 1344 236 1331 160 781 160 
L 589 160 
L 589 0 
C 896 0 1216 0 1523 0 
C 1830 0 2150 0 2458 0 
L 2458 160 
L 2266 160 
C 1715 160 1702 230 1702 458 
L 1702 4058 
z
" transform="scale(0.015625)"/>
        <path id="CMR17-35" d="M 730 3692 
C 794 3666 1056 3584 1325 3584 
C 1920 3584 2246 3911 2432 4100 
C 2432 4157 2432 4192 2394 4192 
C 2387 4192 2374 4192 2323 4163 
C 2099 4058 1837 3973 1517 3973 
C 1325 3973 1037 3999 723 4139 
C 653 4171 640 4171 634 4171 
C 602 4171 595 4164 595 4037 
L 595 2203 
C 595 2089 595 2057 659 2057 
C 691 2057 704 2070 736 2114 
C 941 2401 1222 2522 1542 2522 
C 1766 2522 2246 2382 2246 1289 
C 2246 1085 2246 715 2054 421 
C 1894 159 1645 25 1370 25 
C 947 25 518 320 403 814 
C 429 807 480 795 506 795 
C 589 795 749 840 749 1038 
C 749 1210 627 1280 506 1280 
C 358 1280 262 1190 262 1011 
C 262 454 704 -128 1382 -128 
C 2042 -128 2669 440 2669 1264 
C 2669 2030 2170 2624 1549 2624 
C 1222 2624 947 2503 730 2274 
L 730 3692 
z
" transform="scale(0.015625)"/>
       </defs>
       <use xlink:href="#CMSY10-0" transform="scale(0.996264)"/>
       <use xlink:href="#CMR17-31" transform="translate(77.487468 0) scale(0.996264)"/>
       <use xlink:href="#CMR17-35" transform="translate(123.177945 0) scale(0.996264)"/>
      </g>
     </g>
    </g>
    <g id="xtick_2">
     <g id="line2d_2">
      <path d="M 133.123426 307.194399 
L 133.123426 29.420772 
" clip-path="url(#p577b42fb97)" style="fill: none; stroke: #cccccc; stroke-linecap: round"/>
     </g>
     <g id="text_2">
      <!-- $\mathdefault{−10}$ -->
      <g style="fill: #262626" transform="translate(120.870819 326.380275) scale(0.14 -0.14)">
       <defs>
        <path id="CMR17-30" d="M 2688 2025 
C 2688 2416 2682 3080 2413 3591 
C 2176 4039 1798 4198 1466 4198 
C 1158 4198 768 4058 525 3597 
C 269 3118 243 2524 243 2025 
C 243 1661 250 1106 448 619 
C 723 -39 1216 -128 1466 -128 
C 1760 -128 2208 -7 2470 600 
C 2662 1042 2688 1559 2688 2025 
z
M 1466 -26 
C 1056 -26 813 325 723 812 
C 653 1188 653 1738 653 2096 
C 653 2588 653 2997 736 3387 
C 858 3929 1216 4096 1466 4096 
C 1728 4096 2067 3923 2189 3400 
C 2272 3036 2278 2607 2278 2096 
C 2278 1680 2278 1169 2202 792 
C 2067 95 1690 -26 1466 -26 
z
" transform="scale(0.015625)"/>
       </defs>
       <use xlink:href="#CMSY10-0" transform="scale(0.996264)"/>
       <use xlink:href="#CMR17-31" transform="translate(77.487468 0) scale(0.996264)"/>
       <use xlink:href="#CMR17-30" transform="translate(123.177945 0) scale(0.996264)"/>
      </g>
     </g>
    </g>
    <g id="xtick_3">
     <g id="line2d_3">
      <path d="M 187.373581 307.194399 
L 187.373581 29.420772 
" clip-path="url(#p577b42fb97)" style="fill: none; stroke: #cccccc; stroke-linecap: round"/>
     </g>
     <g id="text_3">
      <!-- $\mathdefault{−5}$ -->
      <g style="fill: #262626" transform="translate(178.53522 326.380275) scale(0.14 -0.14)">
       <use xlink:href="#CMSY10-0" transform="scale(0.996264)"/>
       <use xlink:href="#CMR17-35" transform="translate(77.487468 0) scale(0.996264)"/>
      </g>
     </g>
    </g>
    <g id="xtick_4">
     <g id="line2d_4">
      <path d="M 241.623737 307.194399 
L 241.623737 29.420772 
" clip-path="url(#p577b42fb97)" style="fill: none; stroke: #cccccc; stroke-linecap: round"/>
     </g>
     <g id="text_4">
      <!-- $\mathdefault{0}$ -->
      <g style="fill: #262626" transform="translate(238.209493 326.380275) scale(0.14 -0.14)">
       <use xlink:href="#CMR17-30" transform="scale(0.996264)"/>
      </g>
     </g>
    </g>
    <g id="xtick_5">
     <g id="line2d_5">
      <path d="M 295.873893 307.194399 
L 295.873893 29.420772 
" clip-path="url(#p577b42fb97)" style="fill: none; stroke: #cccccc; stroke-linecap: round"/>
     </g>
     <g id="text_5">
      <!-- $\mathdefault{5}$ -->
      <g style="fill: #262626" transform="translate(292.459649 326.380275) scale(0.14 -0.14)">
       <use xlink:href="#CMR17-35" transform="scale(0.996264)"/>
      </g>
     </g>
    </g>
    <g id="xtick_6">
     <g id="line2d_6">
      <path d="M 350.124049 307.194399 
L 350.124049 29.420772 
" clip-path="url(#p577b42fb97)" style="fill: none; stroke: #cccccc; stroke-linecap: round"/>
     </g>
     <g id="text_6">
      <!-- $\mathdefault{10}$ -->
      <g style="fill: #262626" transform="translate(343.295561 326.380275) scale(0.14 -0.14)">
       <use xlink:href="#CMR17-31" transform="scale(0.996264)"/>
       <use xlink:href="#CMR17-30" transform="translate(45.690477 0) scale(0.996264)"/>
      </g>
     </g>
    </g>
    <g id="xtick_7">
     <g id="line2d_7">
      <path d="M 404.374205 307.194399 
L 404.374205 29.420772 
" clip-path="url(#p577b42fb97)" style="fill: none; stroke: #cccccc; stroke-linecap: round"/>
     </g>
     <g id="text_7">
      <!-- $\mathdefault{15}$ -->
      <g style="fill: #262626" transform="translate(397.545716 326.380275) scale(0.14 -0.14)">
       <use xlink:href="#CMR17-31" transform="scale(0.996264)"/>
       <use xlink:href="#CMR17-35" transform="translate(45.690477 0) scale(0.996264)"/>
      </g>
     </g>
    </g>
    <g id="text_8">
     <!-- $x$ [m] -->
     <g style="fill: #262626" transform="translate(225.983178 343.553076) scale(0.14 -0.14)">
      <defs>
       <path id="CMMI12-78" d="M 3034 2606 
C 2829 2567 2752 2414 2752 2293 
C 2752 2139 2874 2088 2963 2088 
C 3155 2088 3290 2254 3290 2427 
C 3290 2695 2982 2816 2714 2816 
C 2323 2816 2106 2433 2048 2312 
C 1901 2816 1504 2816 1389 2816 
C 736 2816 390 1980 390 1839 
C 390 1814 416 1782 461 1782 
C 512 1782 525 1820 538 1846 
C 755 2555 1184 2689 1370 2689 
C 1658 2689 1715 2420 1715 2267 
C 1715 2127 1677 1980 1600 1673 
L 1382 798 
C 1286 415 1101 64 762 64 
C 730 64 570 64 435 147 
C 666 192 717 383 717 460 
C 717 588 621 664 499 664 
C 346 664 179 530 179 326 
C 179 57 480 -64 755 -64 
C 1062 -64 1280 179 1414 441 
C 1517 64 1837 -64 2074 -64 
C 2726 -64 3072 773 3072 913 
C 3072 945 3046 971 3008 971 
C 2950 971 2944 939 2925 888 
C 2752 326 2381 64 2093 64 
C 1869 64 1747 230 1747 492 
C 1747 632 1773 734 1875 1156 
L 2099 2024 
C 2195 2408 2413 2689 2707 2689 
C 2720 2689 2899 2689 3034 2606 
z
" transform="scale(0.015625)"/>
       <path id="CMR17-5b" d="M 1504 -1600 
L 1504 -1377 
L 902 -1377 
L 902 4544 
L 1504 4544 
L 1504 4767 
L 678 4767 
L 678 -1600 
L 1504 -1600 
z
" transform="scale(0.015625)"/>
       <path id="CMR17-6d" d="M 4326 1933 
C 4326 2252 4269 2790 3507 2790 
C 3072 2790 2771 2496 2656 2151 
L 2650 2151 
C 2573 2676 2195 2790 1837 2790 
C 1331 2790 1069 2400 973 2144 
L 966 2144 
L 966 2790 
L 211 2720 
L 211 2554 
C 589 2554 646 2515 646 2208 
L 646 428 
C 646 184 621 153 211 153 
L 211 -13 
C 365 0 646 0 813 0 
C 979 0 1267 0 1421 -13 
L 1421 153 
C 1011 153 986 178 986 428 
L 986 1658 
C 986 2247 1344 2688 1792 2688 
C 2266 2688 2317 2266 2317 1958 
L 2317 428 
C 2317 184 2291 153 1882 153 
L 1882 -13 
C 2035 0 2317 0 2483 0 
C 2650 0 2938 0 3091 -13 
L 3091 153 
C 2682 153 2656 178 2656 428 
L 2656 1658 
C 2656 2247 3014 2688 3462 2688 
C 3936 2688 3987 2266 3987 1958 
L 3987 428 
C 3987 184 3962 153 3552 153 
L 3552 -13 
C 3706 0 3987 0 4154 0 
C 4320 0 4608 0 4762 -13 
L 4762 153 
C 4352 153 4326 178 4326 428 
L 4326 1933 
z
" transform="scale(0.015625)"/>
       <path id="CMR17-5d" d="M 915 4767 
L 90 4767 
L 90 4544 
L 691 4544 
L 691 -1377 
L 90 -1377 
L 90 -1600 
L 915 -1600 
L 915 4767 
z
" transform="scale(0.015625)"/>
      </defs>
      <use xlink:href="#CMMI12-78" transform="scale(0.996264)"/>
      <use xlink:href="#CMR17-5b" transform="translate(85.510026 0) scale(0.996264)"/>
      <use xlink:href="#CMR17-6d" transform="translate(110.381084 0) scale(0.996264)"/>
      <use xlink:href="#CMR17-5d" transform="translate(187.300674 0) scale(0.996264)"/>
     </g>
    </g>
   </g>
   <g id="matplotlib.axis_2">
    <g id="ytick_1">
     <g id="line2d_8">
      <path d="M 54.064673 294.568325 
L 429.182801 294.568325 
" clip-path="url(#p577b42fb97)" style="fill: none; stroke: #cccccc; stroke-linecap: round"/>
     </g>
     <g id="text_9">
      <!-- $\mathdefault{0}$ -->
      <g style="fill: #262626" transform="translate(37.736185 299.411263) scale(0.14 -0.14)">
       <use xlink:href="#CMR17-30" transform="scale(0.996264)"/>
      </g>
     </g>
    </g>
    <g id="ytick_2">
     <g id="line2d_9">
      <path d="M 54.064673 260.971587 
L 429.182801 260.971587 
" clip-path="url(#p577b42fb97)" style="fill: none; stroke: #cccccc; stroke-linecap: round"/>
     </g>
     <g id="text_10">
      <!-- $\mathdefault{2}$ -->
      <g style="fill: #262626" transform="translate(37.736185 265.814526) scale(0.14 -0.14)">
       <defs>
        <path id="CMR17-32" d="M 2669 989 
L 2554 989 
C 2490 536 2438 459 2413 420 
C 2381 369 1920 369 1830 369 
L 602 369 
C 832 619 1280 1072 1824 1597 
C 2214 1967 2669 2402 2669 3035 
C 2669 3790 2067 4224 1395 4224 
C 691 4224 262 3604 262 3030 
C 262 2780 448 2748 525 2748 
C 589 2748 781 2787 781 3010 
C 781 3207 614 3264 525 3264 
C 486 3264 448 3258 422 3245 
C 544 3790 915 4058 1306 4058 
C 1862 4058 2227 3617 2227 3035 
C 2227 2479 1901 2000 1536 1584 
L 262 146 
L 262 0 
L 2515 0 
L 2669 989 
z
" transform="scale(0.015625)"/>
       </defs>
       <use xlink:href="#CMR17-32" transform="scale(0.996264)"/>
      </g>
     </g>
    </g>
    <g id="ytick_3">
     <g id="line2d_10">
      <path d="M 54.064673 227.37485 
L 429.182801 227.37485 
" clip-path="url(#p577b42fb97)" style="fill: none; stroke: #cccccc; stroke-linecap: round"/>
     </g>
     <g id="text_11">
      <!-- $\mathdefault{4}$ -->
      <g style="fill: #262626" transform="translate(37.736185 232.217788) scale(0.14 -0.14)">
       <defs>
        <path id="CMR17-34" d="M 2150 4122 
C 2150 4256 2144 4256 2029 4256 
L 128 1254 
L 128 1088 
L 1779 1088 
L 1779 457 
C 1779 224 1766 160 1318 160 
L 1197 160 
L 1197 0 
C 1402 0 1747 0 1965 0 
C 2182 0 2528 0 2733 0 
L 2733 160 
L 2611 160 
C 2163 160 2150 224 2150 457 
L 2150 1088 
L 2803 1088 
L 2803 1254 
L 2150 1254 
L 2150 4122 
z
M 1798 3703 
L 1798 1254 
L 256 1254 
L 1798 3703 
z
" transform="scale(0.015625)"/>
       </defs>
       <use xlink:href="#CMR17-34" transform="scale(0.996264)"/>
      </g>
     </g>
    </g>
    <g id="ytick_4">
     <g id="line2d_11">
      <path d="M 54.064673 193.778112 
L 429.182801 193.778112 
" clip-path="url(#p577b42fb97)" style="fill: none; stroke: #cccccc; stroke-linecap: round"/>
     </g>
     <g id="text_12">
      <!-- $\mathdefault{6}$ -->
      <g style="fill: #262626" transform="translate(37.736185 198.62105) scale(0.14 -0.14)">
       <defs>
        <path id="CMR17-36" d="M 678 2176 
C 678 3690 1395 4032 1811 4032 
C 1946 4032 2272 4009 2400 3776 
C 2298 3776 2106 3776 2106 3553 
C 2106 3381 2246 3323 2336 3323 
C 2394 3323 2566 3348 2566 3560 
C 2566 3954 2246 4179 1805 4179 
C 1043 4179 243 3390 243 1984 
C 243 253 966 -128 1478 -128 
C 2099 -128 2688 427 2688 1283 
C 2688 2081 2170 2662 1517 2662 
C 1126 2662 838 2407 678 1960 
L 678 2176 
z
M 1478 25 
C 691 25 691 1200 691 1436 
C 691 1896 909 2560 1504 2560 
C 1613 2560 1926 2560 2138 2120 
C 2253 1870 2253 1609 2253 1289 
C 2253 944 2253 690 2118 434 
C 1978 171 1773 25 1478 25 
z
" transform="scale(0.015625)"/>
       </defs>
       <use xlink:href="#CMR17-36" transform="scale(0.996264)"/>
      </g>
     </g>
    </g>
    <g id="ytick_5">
     <g id="line2d_12">
      <path d="M 54.064673 160.181375 
L 429.182801 160.181375 
" clip-path="url(#p577b42fb97)" style="fill: none; stroke: #cccccc; stroke-linecap: round"/>
     </g>
     <g id="text_13">
      <!-- $\mathdefault{8}$ -->
      <g style="fill: #262626" transform="translate(37.736185 165.024313) scale(0.14 -0.14)">
       <defs>
        <path id="CMR17-38" d="M 1741 2264 
C 2144 2467 2554 2773 2554 3263 
C 2554 3841 1990 4179 1472 4179 
C 890 4179 378 3759 378 3180 
C 378 3021 416 2747 666 2505 
C 730 2442 998 2251 1171 2130 
C 883 1983 211 1634 211 934 
C 211 279 838 -128 1459 -128 
C 2144 -128 2720 362 2720 1010 
C 2720 1590 2330 1857 2074 2029 
L 1741 2264 
z
M 902 2822 
C 851 2854 595 3051 595 3351 
C 595 3739 998 4032 1459 4032 
C 1965 4032 2336 3676 2336 3262 
C 2336 2669 1670 2331 1638 2331 
C 1632 2331 1626 2331 1574 2370 
L 902 2822 
z
M 2080 1519 
C 2176 1449 2483 1240 2483 851 
C 2483 381 2010 25 1472 25 
C 890 25 448 438 448 940 
C 448 1443 838 1862 1280 2060 
L 2080 1519 
z
" transform="scale(0.015625)"/>
       </defs>
       <use xlink:href="#CMR17-38" transform="scale(0.996264)"/>
      </g>
     </g>
    </g>
    <g id="ytick_6">
     <g id="line2d_13">
      <path d="M 54.064673 126.584637 
L 429.182801 126.584637 
" clip-path="url(#p577b42fb97)" style="fill: none; stroke: #cccccc; stroke-linecap: round"/>
     </g>
     <g id="text_14">
      <!-- $\mathdefault{10}$ -->
      <g style="fill: #262626" transform="translate(30.907696 131.427575) scale(0.14 -0.14)">
       <use xlink:href="#CMR17-31" transform="scale(0.996264)"/>
       <use xlink:href="#CMR17-30" transform="translate(45.690477 0) scale(0.996264)"/>
      </g>
     </g>
    </g>
    <g id="ytick_7">
     <g id="line2d_14">
      <path d="M 54.064673 92.987899 
L 429.182801 92.987899 
" clip-path="url(#p577b42fb97)" style="fill: none; stroke: #cccccc; stroke-linecap: round"/>
     </g>
     <g id="text_15">
      <!-- $\mathdefault{12}$ -->
      <g style="fill: #262626" transform="translate(30.907696 97.830838) scale(0.14 -0.14)">
       <use xlink:href="#CMR17-31" transform="scale(0.996264)"/>
       <use xlink:href="#CMR17-32" transform="translate(45.690477 0) scale(0.996264)"/>
      </g>
     </g>
    </g>
    <g id="ytick_8">
     <g id="line2d_15">
      <path d="M 54.064673 59.391162 
L 429.182801 59.391162 
" clip-path="url(#p577b42fb97)" style="fill: none; stroke: #cccccc; stroke-linecap: round"/>
     </g>
     <g id="text_16">
      <!-- $\mathdefault{14}$ -->
      <g style="fill: #262626" transform="translate(30.907696 64.2341) scale(0.14 -0.14)">
       <use xlink:href="#CMR17-31" transform="scale(0.996264)"/>
       <use xlink:href="#CMR17-34" transform="translate(45.690477 0) scale(0.996264)"/>
      </g>
     </g>
    </g>
    <g id="text_17">
     <!-- $z$ [m] -->
     <g style="fill: #262626" transform="translate(23.420772 183.550618) rotate(-90) scale(0.14 -0.14)">
      <defs>
       <path id="CMMI12-7a" d="M 813 486 
C 1088 803 1312 1004 1632 1296 
C 2016 1632 2182 1793 2272 1891 
C 2720 2338 2944 2713 2944 2764 
C 2944 2816 2893 2816 2880 2816 
C 2835 2816 2822 2793 2790 2750 
C 2630 2494 2477 2367 2310 2367 
C 2176 2367 2106 2421 1984 2565 
C 1850 2715 1741 2816 1555 2816 
C 1088 2816 806 2257 806 2128 
C 806 2108 813 2068 870 2068 
C 922 2068 928 2091 947 2133 
C 1056 2372 1363 2414 1485 2414 
C 1619 2414 1747 2376 1882 2327 
C 2125 2240 2227 2240 2291 2240 
C 2336 2240 2362 2240 2394 2246 
C 2182 1994 1837 1683 1549 1418 
L 902 816 
C 512 415 275 33 275 -12 
C 275 -51 307 -64 346 -64 
C 384 -64 390 -57 435 14 
C 538 163 742 384 979 384 
C 1114 384 1178 342 1306 193 
C 1427 61 1536 -64 1741 -64 
C 2368 -64 2726 732 2726 876 
C 2726 903 2720 942 2656 942 
C 2605 942 2598 917 2579 855 
C 2438 488 2061 338 1811 338 
C 1677 338 1549 376 1414 425 
C 1158 512 1088 512 1005 512 
C 941 512 870 512 813 486 
z
" transform="scale(0.015625)"/>
      </defs>
      <use xlink:href="#CMMI12-7a" transform="scale(0.996264)"/>
      <use xlink:href="#CMR17-5b" transform="translate(79.831111 0) scale(0.996264)"/>
      <use xlink:href="#CMR17-6d" transform="translate(104.70217 0) scale(0.996264)"/>
      <use xlink:href="#CMR17-5d" transform="translate(181.62176 0) scale(0.996264)"/>
     </g>
    </g>
   </g>
   <g id="line2d_16">
    <path d="M 71.115497 294.568325 
L 241.996882 43.874406 
" clip-path="url(#p577b42fb97)" style="fill: none; stroke: #008000; stroke-width: 0.5; stroke-linecap: round"/>
   </g>
   <g id="line2d_17">
    <path d="M 412.131977 294.568325 
L 241.250592 43.874406 
" clip-path="url(#p577b42fb97)" style="fill: none; stroke: #008000; stroke-width: 0.5; stroke-linecap: round"/>
   </g>
   <g id="line2d_18">
    <path d="M 404.428455 294.54587 
L 412.131977 294.54587 
L 412.131977 294.54587 
" clip-path="url(#p577b42fb97)" style="fill: none; stroke: #000000; stroke-linecap: round"/>
   </g>
   <g id="line2d_19">
    <path d="M 390.540415 294.54587 
L 398.243937 294.54587 
L 398.243937 294.54587 
" clip-path="url(#p577b42fb97)" style="fill: none; stroke: #000000; stroke-linecap: round"/>
   </g>
   <g id="line2d_20">
    <path d="M 376.652375 294.54587 
L 384.355898 294.54587 
L 384.355898 294.54587 
" clip-path="url(#p577b42fb97)" style="fill: none; stroke: #000000; stroke-linecap: round"/>
   </g>
   <g id="line2d_21">
    <path d="M 362.764335 294.54587 
L 370.467858 294.54587 
L 370.467858 294.54587 
" clip-path="url(#p577b42fb97)" style="fill: none; stroke: #000000; stroke-linecap: round"/>
   </g>
   <g id="line2d_22">
    <path d="M 348.876296 294.54587 
L 356.579818 294.54587 
L 356.579818 294.54587 
" clip-path="url(#p577b42fb97)" style="fill: none; stroke: #000000; stroke-linecap: round"/>
   </g>
   <g id="line2d_23">
    <path d="M 334.988256 294.54587 
L 342.691778 294.54587 
L 342.691778 294.54587 
" clip-path="url(#p577b42fb97)" style="fill: none; stroke: #000000; stroke-linecap: round"/>
   </g>
   <g id="line2d_24">
    <path d="M 321.100216 294.54587 
L 328.803738 294.54587 
L 328.803738 294.54587 
" clip-path="url(#p577b42fb97)" style="fill: none; stroke: #000000; stroke-linecap: round"/>
   </g>
   <g id="line2d_25">
    <path d="M 307.212176 294.54587 
L 314.915698 294.54587 
L 314.915698 294.54587 
" clip-path="url(#p577b42fb97)" style="fill: none; stroke: #000000; stroke-linecap: round"/>
   </g>
   <g id="line2d_26">
    <path d="M 293.324136 294.54587 
L 301.027658 294.54587 
L 301.027658 294.54587 
" clip-path="url(#p577b42fb97)" style="fill: none; stroke: #000000; stroke-linecap: round"/>
   </g>
   <g id="line2d_27">
    <path d="M 279.436096 294.54587 
L 287.139618 294.54587 
L 287.139618 294.54587 
" clip-path="url(#p577b42fb97)" style="fill: none; stroke: #000000; stroke-linecap: round"/>
   </g>
   <g id="line2d_28">
    <path d="M 265.548056 294.54587 
L 273.251578 294.54587 
L 273.251578 294.54587 
" clip-path="url(#p577b42fb97)" style="fill: none; stroke: #000000; stroke-linecap: round"/>
   </g>
   <g id="line2d_29">
    <path d="M 251.660016 294.54587 
L 259.363538 294.54587 
L 259.363538 294.54587 
" clip-path="url(#p577b42fb97)" style="fill: none; stroke: #000000; stroke-linecap: round"/>
   </g>
   <g id="line2d_30">
    <path d="M 237.771976 294.54587 
L 245.475498 294.54587 
L 245.475498 294.54587 
" clip-path="url(#p577b42fb97)" style="fill: none; stroke: #000000; stroke-linecap: round"/>
   </g>
   <g id="line2d_31">
    <path d="M 223.883936 294.54587 
L 231.587459 294.54587 
L 231.587459 294.54587 
" clip-path="url(#p577b42fb97)" style="fill: none; stroke: #000000; stroke-linecap: round"/>
   </g>
   <g id="line2d_32">
    <path d="M 209.995896 294.54587 
L 217.699419 294.54587 
L 217.699419 294.54587 
" clip-path="url(#p577b42fb97)" style="fill: none; stroke: #000000; stroke-linecap: round"/>
   </g>
   <g id="line2d_33">
    <path d="M 196.107857 294.54587 
L 203.811379 294.54587 
L 203.811379 294.54587 
" clip-path="url(#p577b42fb97)" style="fill: none; stroke: #000000; stroke-linecap: round"/>
   </g>
   <g id="line2d_34">
    <path d="M 182.219817 294.54587 
L 189.923339 294.54587 
L 189.923339 294.54587 
" clip-path="url(#p577b42fb97)" style="fill: none; stroke: #000000; stroke-linecap: round"/>
   </g>
   <g id="line2d_35">
    <path d="M 168.331777 294.54587 
L 176.035299 294.54587 
L 176.035299 294.54587 
" clip-path="url(#p577b42fb97)" style="fill: none; stroke: #000000; stroke-linecap: round"/>
   </g>
   <g id="line2d_36">
    <path d="M 154.443737 294.54587 
L 162.147259 294.54587 
L 162.147259 294.54587 
" clip-path="url(#p577b42fb97)" style="fill: none; stroke: #000000; stroke-linecap: round"/>
   </g>
   <g id="line2d_37">
    <path d="M 140.555697 294.54587 
L 148.259219 294.54587 
L 148.259219 294.54587 
" clip-path="url(#p577b42fb97)" style="fill: none; stroke: #000000; stroke-linecap: round"/>
   </g>
   <g id="line2d_38">
    <path d="M 126.667657 294.54587 
L 134.371179 294.54587 
L 134.371179 294.54587 
" clip-path="url(#p577b42fb97)" style="fill: none; stroke: #000000; stroke-linecap: round"/>
   </g>
   <g id="line2d_39">
    <path d="M 112.779617 294.54587 
L 120.483139 294.54587 
L 120.483139 294.54587 
" clip-path="url(#p577b42fb97)" style="fill: none; stroke: #000000; stroke-linecap: round"/>
   </g>
   <g id="line2d_40">
    <path d="M 98.891577 294.54587 
L 106.595099 294.54587 
L 106.595099 294.54587 
" clip-path="url(#p577b42fb97)" style="fill: none; stroke: #000000; stroke-linecap: round"/>
   </g>
   <g id="line2d_41">
    <path d="M 85.003537 294.54587 
L 92.707059 294.54587 
L 92.707059 294.54587 
" clip-path="url(#p577b42fb97)" style="fill: none; stroke: #000000; stroke-linecap: round"/>
   </g>
   <g id="line2d_42">
    <path d="M 71.115497 294.54587 
L 78.81902 294.54587 
L 78.81902 294.54587 
" clip-path="url(#p577b42fb97)" style="fill: none; stroke: #000000; stroke-linecap: round"/>
   </g>
   <g id="line2d_43">
    <path d="M 242.166239 43.264728 
L 242.165495 43.22077 
L 242.163267 43.176932 
L 242.15956 43.133336 
L 242.154384 43.090099 
L 242.147754 43.047341 
L 242.139687 43.005179 
L 242.130206 42.963728 
L 242.119337 42.923102 
L 242.10711 42.883413 
L 242.093558 42.844769 
L 242.078717 42.807275 
L 242.06263 42.771036 
L 242.04534 42.73615 
L 242.026895 42.702713 
L 242.007344 42.670816 
L 241.986742 42.640547 
L 241.965145 42.611989 
L 241.942612 42.58522 
L 241.919205 42.560313 
L 241.894988 42.537337 
L 241.870028 42.516355 
L 241.844393 42.497424 
L 241.818153 42.480596 
L 241.79138 42.465918 
L 241.764147 42.453429 
L 241.73653 42.443164 
L 241.708603 42.43515 
L 241.680444 42.429411 
L 241.65213 42.42596 
L 241.623737 42.424809 
L 241.595345 42.42596 
L 241.567031 42.429411 
L 241.538871 42.43515 
L 241.510945 42.443164 
L 241.483328 42.453429 
L 241.456095 42.465918 
L 241.429322 42.480596 
L 241.403082 42.497424 
L 241.377447 42.516355 
L 241.352487 42.537337 
L 241.32827 42.560313 
L 241.304863 42.58522 
L 241.28233 42.611989 
L 241.260733 42.640547 
L 241.240131 42.670816 
L 241.22058 42.702713 
L 241.202134 42.73615 
L 241.184844 42.771036 
L 241.168757 42.807275 
L 241.153917 42.844769 
L 241.140365 42.883413 
L 241.128138 42.923102 
L 241.117269 42.963728 
L 241.107788 43.005179 
L 241.099721 43.047341 
L 241.093091 43.090099 
L 241.087915 43.133336 
L 241.084208 43.176932 
L 241.081979 43.22077 
L 241.081236 43.264728 
L 241.081979 43.308686 
L 241.084208 43.352523 
L 241.087915 43.39612 
L 241.093091 43.439357 
L 241.099721 43.482115 
L 241.107788 43.524277 
L 241.117269 43.565728 
L 241.128138 43.606353 
L 241.140365 43.646043 
L 241.153917 43.684687 
L 241.168757 43.72218 
L 241.184844 43.758419 
L 241.202134 43.793306 
L 241.22058 43.826743 
L 241.240131 43.85864 
L 241.260733 43.888909 
L 241.28233 43.917467 
L 241.304863 43.944236 
L 241.32827 43.969143 
L 241.352487 43.992119 
L 241.377447 44.013101 
L 241.403082 44.032031 
L 241.429322 44.048859 
L 241.456095 44.063538 
L 241.483328 44.076027 
L 241.510945 44.086292 
L 241.538871 44.094305 
L 241.567031 44.100045 
L 241.595345 44.103495 
L 241.623737 44.104646 
L 241.65213 44.103495 
L 241.680444 44.100045 
L 241.708603 44.094305 
L 241.73653 44.086292 
L 241.764147 44.076027 
L 241.79138 44.063538 
L 241.818153 44.048859 
L 241.844393 44.032031 
L 241.870028 44.013101 
L 241.894988 43.992119 
L 241.919205 43.969143 
L 241.942612 43.944236 
L 241.965145 43.917467 
L 241.986742 43.888909 
L 242.007344 43.85864 
L 242.026895 43.826743 
L 242.04534 43.793306 
L 242.06263 43.758419 
L 242.078717 43.72218 
L 242.093558 43.684687 
L 242.10711 43.646043 
L 242.119337 43.606353 
L 242.130206 43.565728 
L 242.139687 43.524277 
L 242.147754 43.482115 
L 242.154384 43.439357 
L 242.15956 43.39612 
L 242.163267 43.352523 
L 242.165495 43.308686 
L 242.166239 43.264728 
" clip-path="url(#p577b42fb97)" style="fill: none; stroke: #ff0000; stroke-width: 1.5; stroke-linecap: round"/>
   </g>
   <g id="line2d_44">
    <path d="M 242.410365 43.264728 
L 242.409287 43.200989 
L 242.406055 43.137424 
L 242.40068 43.074209 
L 242.393175 43.011516 
L 242.383561 42.949517 
L 242.371864 42.888382 
L 242.358117 42.828278 
L 242.342357 42.769371 
L 242.324627 42.711821 
L 242.304977 42.655787 
L 242.283459 42.601422 
L 242.260132 42.548875 
L 242.235062 42.49829 
L 242.208315 42.449806 
L 242.179967 42.403555 
L 242.150094 42.359665 
L 242.118778 42.318256 
L 242.086105 42.279441 
L 242.052165 42.243326 
L 242.017051 42.210011 
L 241.980859 42.179587 
L 241.943688 42.152137 
L 241.905639 42.127737 
L 241.866819 42.106453 
L 241.827331 42.088344 
L 241.787286 42.07346 
L 241.746793 42.06184 
L 241.705962 42.053518 
L 241.664906 42.048515 
L 241.623737 42.046846 
L 241.582568 42.048515 
L 241.541512 42.053518 
L 241.500682 42.06184 
L 241.460188 42.07346 
L 241.420143 42.088344 
L 241.380656 42.106453 
L 241.341835 42.127737 
L 241.303787 42.152137 
L 241.266616 42.179587 
L 241.230424 42.210011 
L 241.195309 42.243326 
L 241.161369 42.279441 
L 241.128697 42.318256 
L 241.097381 42.359665 
L 241.067508 42.403555 
L 241.039159 42.449806 
L 241.012413 42.49829 
L 240.987343 42.548875 
L 240.964016 42.601422 
L 240.942498 42.655787 
L 240.922847 42.711821 
L 240.905118 42.769371 
L 240.889358 42.828278 
L 240.87561 42.888382 
L 240.863914 42.949517 
L 240.8543 43.011516 
L 240.846795 43.074209 
L 240.841419 43.137424 
L 240.838188 43.200989 
L 240.83711 43.264728 
L 240.838188 43.328467 
L 240.841419 43.392031 
L 240.846795 43.455246 
L 240.8543 43.51794 
L 240.863914 43.579939 
L 240.87561 43.641074 
L 240.889358 43.701178 
L 240.905118 43.760085 
L 240.922847 43.817635 
L 240.942498 43.873669 
L 240.964016 43.928034 
L 240.987343 43.980581 
L 241.012413 44.031166 
L 241.039159 44.07965 
L 241.067508 44.1259 
L 241.097381 44.16979 
L 241.128697 44.2112 
L 241.161369 44.250015 
L 241.195309 44.286129 
L 241.230424 44.319444 
L 241.266616 44.349868 
L 241.303787 44.377318 
L 241.341835 44.401718 
L 241.380656 44.423002 
L 241.420143 44.441111 
L 241.460188 44.455996 
L 241.500682 44.467615 
L 241.541512 44.475938 
L 241.582568 44.48094 
L 241.623737 44.48261 
L 241.664906 44.48094 
L 241.705962 44.475938 
L 241.746793 44.467615 
L 241.787286 44.455996 
L 241.827331 44.441111 
L 241.866819 44.423002 
L 241.905639 44.401718 
L 241.943688 44.377318 
L 241.980859 44.349868 
L 242.017051 44.319444 
L 242.052165 44.286129 
L 242.086105 44.250015 
L 242.118778 44.2112 
L 242.150094 44.16979 
L 242.179967 44.1259 
L 242.208315 44.07965 
L 242.235062 44.031166 
L 242.260132 43.980581 
L 242.283459 43.928034 
L 242.304977 43.873669 
L 242.324627 43.817635 
L 242.342357 43.760085 
L 242.358117 43.701178 
L 242.371864 43.641074 
L 242.383561 43.579939 
L 242.393175 43.51794 
L 242.40068 43.455246 
L 242.406055 43.392031 
L 242.409287 43.328467 
L 242.410365 43.264728 
" clip-path="url(#p577b42fb97)" style="fill: none; stroke-dasharray: 1.85,0.8; stroke-dashoffset: 0; stroke: #0000ff; stroke-width: 0.5"/>
   </g>
   <g id="line2d_45">
    <path d="M 242.377815 43.264728 
L 242.376781 43.203626 
L 242.373684 43.142692 
L 242.368531 43.082093 
L 242.361336 43.021994 
L 242.35212 42.96256 
L 242.340907 42.903955 
L 242.327729 42.846338 
L 242.312621 42.789868 
L 242.295625 42.7347 
L 242.276787 42.680984 
L 242.25616 42.628869 
L 242.233799 42.578496 
L 242.209765 42.530005 
L 242.184126 42.483527 
L 242.15695 42.43919 
L 242.128313 42.397116 
L 242.098294 42.35742 
L 242.066973 42.320211 
L 242.034437 42.285591 
L 242.000776 42.253655 
L 241.966081 42.22449 
L 241.930448 42.198176 
L 241.893974 42.174785 
L 241.85676 42.154382 
L 241.818907 42.137022 
L 241.780519 42.122754 
L 241.741701 42.111615 
L 241.70256 42.103637 
L 241.663203 42.098841 
L 241.623737 42.097241 
L 241.584272 42.098841 
L 241.544915 42.103637 
L 241.505774 42.111615 
L 241.466956 42.122754 
L 241.428568 42.137022 
L 241.390715 42.154382 
L 241.3535 42.174785 
L 241.317027 42.198176 
L 241.281394 42.22449 
L 241.246699 42.253655 
L 241.213038 42.285591 
L 241.180502 42.320211 
L 241.149181 42.35742 
L 241.119161 42.397116 
L 241.090524 42.43919 
L 241.063349 42.483527 
L 241.037709 42.530005 
L 241.013676 42.578496 
L 240.991315 42.628869 
L 240.970687 42.680984 
L 240.95185 42.7347 
L 240.934854 42.789868 
L 240.919746 42.846338 
L 240.906567 42.903955 
L 240.895355 42.96256 
L 240.886139 43.021994 
L 240.878944 43.082093 
L 240.873791 43.142692 
L 240.870694 43.203626 
L 240.86966 43.264728 
L 240.870694 43.325829 
L 240.873791 43.386763 
L 240.878944 43.447363 
L 240.886139 43.507462 
L 240.895355 43.566896 
L 240.906567 43.625501 
L 240.919746 43.683118 
L 240.934854 43.739587 
L 240.95185 43.794756 
L 240.970687 43.848471 
L 240.991315 43.900587 
L 241.013676 43.950959 
L 241.037709 43.999451 
L 241.063349 44.045929 
L 241.090524 44.090266 
L 241.119161 44.132339 
L 241.149181 44.172035 
L 241.180502 44.209244 
L 241.213038 44.243864 
L 241.246699 44.275801 
L 241.281394 44.304966 
L 241.317027 44.33128 
L 241.3535 44.35467 
L 241.390715 44.375074 
L 241.428568 44.392433 
L 241.466956 44.406702 
L 241.505774 44.417841 
L 241.544915 44.425819 
L 241.584272 44.430614 
L 241.623737 44.432214 
L 241.663203 44.430614 
L 241.70256 44.425819 
L 241.741701 44.417841 
L 241.780519 44.406702 
L 241.818907 44.392433 
L 241.85676 44.375074 
L 241.893974 44.35467 
L 241.930448 44.33128 
L 241.966081 44.304966 
L 242.000776 44.275801 
L 242.034437 44.243864 
L 242.066973 44.209244 
L 242.098294 44.172035 
L 242.128313 44.132339 
L 242.15695 44.090266 
L 242.184126 44.045929 
L 242.209765 43.999451 
L 242.233799 43.950959 
L 242.25616 43.900587 
L 242.276787 43.848471 
L 242.295625 43.794756 
L 242.312621 43.739587 
L 242.327729 43.683118 
L 242.340907 43.625501 
L 242.35212 43.566896 
L 242.361336 43.507462 
L 242.368531 43.447363 
L 242.373684 43.386763 
L 242.376781 43.325829 
L 242.377815 43.264728 
" clip-path="url(#p577b42fb97)" style="fill: none; stroke-dasharray: 1.85,0.8; stroke-dashoffset: 0; stroke: #0000ff; stroke-width: 0.5"/>
   </g>
   <g id="patch_3">
    <path d="M 54.064673 307.194399 
L 54.064673 29.420772 
" style="fill: none; stroke: #cccccc; stroke-width: 1.25; stroke-linejoin: miter; stroke-linecap: square"/>
   </g>
   <g id="patch_4">
    <path d="M 429.182801 307.194399 
L 429.182801 29.420772 
" style="fill: none; stroke: #cccccc; stroke-width: 1.25; stroke-linejoin: miter; stroke-linecap: square"/>
   </g>
   <g id="patch_5">
    <path d="M 54.064673 307.194399 
L 429.182801 307.194399 
" style="fill: none; stroke: #cccccc; stroke-width: 1.25; stroke-linejoin: miter; stroke-linecap: square"/>
   </g>
   <g id="patch_6">
    <path d="M 54.064673 29.420772 
L 429.182801 29.420772 
" style="fill: none; stroke: #cccccc; stroke-width: 1.25; stroke-linejoin: miter; stroke-linecap: square"/>
   </g>
   <g id="text_18">
    <!-- (a) LFC general view: Men's optic \#15 -->
    <g style="fill: #262626" transform="translate(123.419839 23.420772) scale(0.14 -0.14)">
     <defs>
      <path id="CMR17-28" d="M 1958 -1561 
C 1958 -1555 1958 -1542 1939 -1523 
C 1645 -1224 858 -407 858 1581 
C 858 3569 1632 4379 1946 4697 
C 1946 4704 1958 4717 1958 4736 
C 1958 4755 1939 4768 1914 4768 
C 1843 4768 1299 4296 986 3594 
C 666 2887 576 2199 576 1588 
C 576 1128 621 351 1005 -471 
C 1312 -1135 1837 -1600 1914 -1600 
C 1946 -1600 1958 -1587 1958 -1561 
z
" transform="scale(0.015625)"/>
      <path id="CMR17-61" d="M 2304 1653 
C 2304 2072 2304 2294 2035 2543 
C 1798 2752 1523 2816 1306 2816 
C 800 2816 435 2407 435 1971 
C 435 1728 627 1728 666 1728 
C 749 1728 896 1778 896 1954 
C 896 2112 774 2181 666 2181 
C 640 2181 608 2174 589 2168 
C 723 2592 1069 2714 1293 2714 
C 1613 2714 1965 2429 1965 1885 
L 1965 1600 
C 1587 1600 1133 1549 774 1357 
C 371 1133 256 813 256 570 
C 256 77 832 -64 1171 -64 
C 1523 -64 1850 139 1990 511 
C 2003 233 2182 -18 2464 -18 
C 2598 -18 2938 70 2938 567 
L 2938 920 
L 2822 920 
L 2822 562 
C 2822 178 2650 128 2566 128 
C 2304 128 2304 458 2304 738 
L 2304 1653 
z
M 1965 870 
C 1965 317 1568 38 1216 38 
C 896 38 646 275 646 570 
C 646 761 730 1100 1101 1305 
C 1408 1478 1760 1504 1965 1504 
L 1965 870 
z
" transform="scale(0.015625)"/>
      <path id="CMR17-29" d="M 1683 1581 
C 1683 2040 1638 2817 1254 3639 
C 947 4303 422 4768 346 4768 
C 326 4768 301 4761 301 4729 
C 301 4717 307 4710 314 4697 
C 621 4378 1402 3568 1402 1584 
C 1402 -407 627 -1217 314 -1537 
C 307 -1549 301 -1556 301 -1568 
C 301 -1600 326 -1600 346 -1600 
C 416 -1600 960 -1128 1274 -426 
C 1594 281 1683 969 1683 1581 
z
" transform="scale(0.015625)"/>
      <path id="CMR17-4c" d="M 3469 1615 
L 3354 1615 
C 3302 983 3219 166 2125 166 
L 1530 166 
C 1274 166 1261 197 1261 414 
L 1261 3898 
C 1261 4129 1274 4192 1760 4192 
L 1901 4192 
L 1901 4352 
C 1638 4352 1331 4352 1069 4352 
C 870 4352 512 4352 326 4352 
L 326 4192 
C 768 4192 838 4192 838 3905 
L 838 452 
C 838 166 768 166 326 166 
L 326 0 
L 3315 0 
L 3469 1615 
z
" transform="scale(0.015625)"/>
      <path id="CMR17-46" d="M 3482 4325 
L 326 4325 
L 326 4160 
C 768 4160 838 4160 838 3874 
L 838 446 
C 838 160 768 160 326 160 
L 326 0 
C 512 0 870 0 1069 0 
C 1331 0 1638 0 1901 0 
L 1901 160 
L 1760 160 
C 1274 160 1261 223 1261 452 
L 1261 2075 
L 1837 2075 
C 2432 2075 2490 1865 2490 1332 
L 2605 1332 
L 2605 2987 
L 2490 2987 
C 2490 2450 2432 2240 1837 2240 
L 1261 2240 
L 1261 3911 
C 1261 4128 1274 4160 1530 4160 
L 2355 4160 
C 3322 4160 3430 3765 3520 2916 
L 3635 2916 
L 3482 4325 
z
" transform="scale(0.015625)"/>
      <path id="CMR17-43" d="M 3974 4289 
C 3974 4403 3968 4410 3930 4410 
C 3904 4410 3898 4403 3853 4327 
L 3571 3792 
C 3258 4187 2874 4416 2381 4416 
C 1286 4416 294 3456 294 2148 
C 294 826 1286 -128 2387 -128 
C 3366 -128 3974 730 3974 1461 
C 3974 1524 3974 1550 3917 1550 
C 3866 1550 3866 1531 3859 1474 
C 3808 585 3168 38 2477 38 
C 1824 38 781 495 781 2147 
C 781 3805 1843 4250 2464 4250 
C 3187 4250 3712 3628 3834 2745 
C 3846 2668 3846 2655 3904 2655 
C 3974 2655 3974 2668 3974 2783 
L 3974 4289 
z
" transform="scale(0.015625)"/>
      <path id="CMR17-67" d="M 710 1164 
C 832 1068 1043 960 1299 960 
C 1805 960 2240 1357 2240 1888 
C 2240 2054 2189 2310 1997 2509 
C 2176 2692 2438 2752 2586 2752 
C 2611 2752 2650 2752 2682 2734 
C 2656 2728 2598 2703 2598 2605 
C 2598 2527 2656 2471 2739 2471 
C 2835 2471 2886 2533 2886 2614 
C 2886 2731 2790 2854 2586 2854 
C 2330 2854 2106 2738 1926 2580 
C 1734 2753 1504 2816 1299 2816 
C 794 2816 358 2419 358 1888 
C 358 1522 570 1292 634 1228 
C 442 1004 442 743 442 711 
C 442 545 506 302 723 168 
C 390 85 128 -169 128 -486 
C 128 -943 736 -1280 1466 -1280 
C 2170 -1280 2803 -956 2803 -479 
C 2803 384 1856 384 1363 384 
C 1216 384 954 384 922 391 
C 723 423 589 602 589 826 
C 589 883 589 1024 710 1164 
z
M 1299 1068 
C 736 1068 736 1760 736 1889 
C 736 2016 736 2708 1299 2708 
C 1862 2708 1862 2016 1862 1889 
C 1862 1760 1862 1068 1299 1068 
z
M 1466 -1171 
C 826 -1171 384 -835 384 -486 
C 384 -289 493 -105 634 -4 
C 794 104 858 104 1293 104 
C 1818 104 2547 104 2547 -486 
C 2547 -835 2106 -1171 1466 -1171 
z
" transform="scale(0.015625)"/>
      <path id="CMR17-65" d="M 2438 1472 
C 2464 1498 2464 1511 2464 1576 
C 2464 2238 2118 2816 1389 2816 
C 710 2816 173 2169 173 1383 
C 173 551 781 -64 1459 -64 
C 2176 -64 2458 607 2458 740 
C 2458 784 2419 784 2406 784 
C 2362 784 2355 771 2330 696 
C 2189 265 1837 51 1504 51 
C 1229 51 954 203 781 480 
C 582 803 582 1176 582 1472 
L 2438 1472 
z
M 589 1568 
C 634 2505 1126 2714 1382 2714 
C 1818 2714 2112 2297 2118 1568 
L 589 1568 
z
" transform="scale(0.015625)"/>
      <path id="CMR17-6e" d="M 2656 1933 
C 2656 2259 2592 2790 1837 2790 
C 1331 2790 1069 2400 973 2144 
L 966 2144 
L 966 2790 
L 211 2720 
L 211 2554 
C 589 2554 646 2515 646 2208 
L 646 428 
C 646 184 621 153 211 153 
L 211 -13 
C 365 0 646 0 813 0 
C 979 0 1267 0 1421 -13 
L 1421 153 
C 1011 153 986 178 986 428 
L 986 1658 
C 986 2247 1344 2688 1792 2688 
C 2266 2688 2317 2266 2317 1958 
L 2317 428 
C 2317 184 2291 153 1882 153 
L 1882 -13 
C 2035 0 2317 0 2483 0 
C 2650 0 2938 0 3091 -13 
L 3091 153 
C 2682 153 2656 178 2656 428 
L 2656 1933 
z
" transform="scale(0.015625)"/>
      <path id="CMR17-72" d="M 960 1497 
C 960 2112 1222 2688 1702 2688 
C 1747 2688 1792 2682 1837 2662 
C 1837 2662 1696 2617 1696 2452 
C 1696 2298 1818 2234 1914 2234 
C 1990 2234 2131 2279 2131 2458 
C 2131 2663 1926 2790 1709 2790 
C 1222 2790 1011 2317 947 2093 
L 941 2093 
L 941 2790 
L 198 2720 
L 198 2554 
C 576 2554 634 2515 634 2208 
L 634 428 
C 634 184 608 153 198 153 
L 198 -13 
C 352 0 646 0 813 0 
C 998 0 1325 0 1498 -13 
L 1498 153 
C 1037 153 960 153 960 440 
L 960 1497 
z
" transform="scale(0.015625)"/>
      <path id="CMR17-6c" d="M 979 4396 
L 218 4326 
L 218 4160 
C 595 4160 653 4122 653 3817 
L 653 426 
C 653 184 627 153 218 153 
L 218 -13 
C 371 0 653 0 813 0 
C 979 0 1261 0 1414 -13 
L 1414 153 
C 1005 153 979 178 979 426 
L 979 4396 
z
" transform="scale(0.015625)"/>
      <path id="CMR17-76" d="M 2502 2163 
C 2560 2304 2662 2560 3034 2560 
L 3034 2726 
C 2912 2726 2752 2726 2630 2726 
C 2496 2726 2285 2726 2157 2732 
L 2157 2566 
C 2317 2553 2406 2477 2406 2311 
C 2406 2253 2406 2240 2368 2151 
L 1664 377 
L 902 2286 
C 864 2369 864 2381 864 2407 
C 864 2560 1075 2560 1171 2560 
L 1171 2732 
C 1018 2726 736 2726 576 2726 
C 403 2726 205 2726 64 2732 
L 64 2560 
C 307 2560 442 2560 518 2362 
L 1446 44 
C 1485 -51 1491 -64 1549 -64 
C 1606 -64 1613 -51 1651 44 
L 2502 2163 
z
" transform="scale(0.015625)"/>
      <path id="CMR17-69" d="M 992 3909 
C 992 4049 877 4170 730 4170 
C 589 4170 467 4056 467 3909 
C 467 3769 582 3648 730 3648 
C 870 3648 992 3763 992 3909 
z
M 243 2706 
L 243 2541 
C 602 2541 653 2502 653 2197 
L 653 427 
C 653 184 627 153 218 153 
L 218 -13 
C 371 0 646 0 806 0 
C 960 0 1222 0 1370 -13 
L 1370 153 
C 992 153 979 191 979 420 
L 979 2776 
L 243 2706 
z
" transform="scale(0.015625)"/>
      <path id="CMR17-77" d="M 3725 2183 
C 3853 2560 4109 2560 4205 2560 
L 4205 2732 
C 4077 2732 3949 2732 3821 2732 
C 3699 2732 3424 2732 3315 2738 
L 3315 2560 
C 3514 2560 3622 2445 3622 2286 
C 3622 2241 3610 2184 3597 2140 
L 2995 407 
L 2342 2275 
C 2330 2319 2310 2370 2310 2395 
C 2310 2560 2528 2560 2630 2560 
L 2630 2738 
C 2483 2732 2214 2732 2061 2732 
C 1901 2732 1734 2732 1587 2738 
L 1587 2560 
C 1939 2560 1939 2547 2074 2149 
L 1485 451 
L 851 2281 
C 819 2363 819 2376 819 2395 
C 819 2560 1037 2560 1139 2560 
L 1139 2738 
C 986 2732 717 2732 557 2732 
C 416 2732 198 2732 64 2738 
L 64 2560 
C 346 2560 416 2541 486 2331 
L 1274 49 
C 1299 -33 1318 -52 1370 -52 
C 1414 -52 1440 -39 1472 56 
L 2131 1980 
L 2797 56 
C 2829 -39 2854 -52 2899 -52 
C 2950 -52 2970 -33 2995 50 
L 3725 2183 
z
" transform="scale(0.015625)"/>
      <path id="CMR17-3a" d="M 1062 2491 
C 1062 2650 934 2752 800 2752 
C 672 2752 538 2650 538 2491 
C 538 2332 666 2230 800 2230 
C 928 2230 1062 2332 1062 2491 
z
M 1062 261 
C 1062 420 934 522 800 522 
C 672 522 538 420 538 261 
C 538 102 666 0 800 0 
C 928 0 1062 102 1062 261 
z
" transform="scale(0.015625)"/>
      <path id="CMR17-4d" d="M 1338 4224 
C 1299 4320 1293 4320 1158 4320 
L 339 4320 
L 339 4160 
C 781 4160 851 4160 851 3875 
L 851 610 
C 851 451 851 153 339 153 
L 339 -13 
C 486 0 755 0 915 0 
C 1075 0 1344 0 1491 -13 
L 1491 153 
C 979 153 979 451 979 610 
L 979 4135 
L 986 4135 
L 2490 89 
C 2515 25 2528 -13 2579 -13 
C 2630 -13 2643 25 2669 89 
L 4186 4166 
L 4192 4166 
L 4192 438 
C 4192 153 4122 153 3680 153 
L 3680 -13 
C 3853 0 4198 0 4384 0 
C 4570 0 4922 0 5094 -13 
L 5094 153 
C 4653 153 4582 153 4582 438 
L 4582 3875 
C 4582 4160 4653 4160 5094 4160 
L 5094 4320 
L 4282 4320 
C 4147 4320 4141 4314 4102 4218 
L 2720 502 
L 1338 4224 
z
" transform="scale(0.015625)"/>
      <path id="CMR17-27" d="M 1024 4025 
C 1037 3955 1043 3929 1043 3820 
C 1043 3415 883 3042 634 2778 
C 608 2752 595 2733 595 2707 
C 595 2681 621 2656 646 2656 
C 691 2656 1146 3105 1146 3811 
C 1146 3952 1133 4426 800 4426 
C 659 4426 538 4331 538 4165 
C 538 3999 659 3904 800 3904 
C 858 3904 966 3923 1024 4025 
z
" transform="scale(0.015625)"/>
      <path id="CMR17-73" d="M 1978 2697 
C 1978 2813 1971 2819 1933 2819 
C 1907 2819 1901 2813 1824 2717 
C 1805 2691 1747 2626 1728 2601 
C 1523 2819 1235 2819 1126 2819 
C 416 2819 160 2447 160 2076 
C 160 1498 813 1365 998 1325 
C 1402 1243 1542 1217 1677 1101 
C 1760 1025 1901 884 1901 654 
C 1901 384 1747 38 1158 38 
C 602 38 403 460 288 1021 
C 269 1110 269 1117 218 1117 
C 166 1117 160 1110 160 983 
L 160 63 
C 160 -51 166 -58 205 -58 
C 237 -58 243 -51 275 0 
C 314 57 410 211 448 276 
C 576 103 800 -64 1158 -64 
C 1792 -64 2131 283 2131 784 
C 2131 1112 1958 1285 1875 1362 
C 1683 1561 1459 1606 1190 1657 
C 838 1735 390 1825 390 2217 
C 390 2383 480 2737 1126 2737 
C 1811 2737 1850 2094 1862 1888 
C 1869 1856 1901 1849 1920 1849 
C 1978 1849 1978 1869 1978 1978 
L 1978 2697 
z
" transform="scale(0.015625)"/>
      <path id="CMR17-6f" d="M 2758 1356 
C 2758 2176 2163 2816 1466 2816 
C 768 2816 173 2176 173 1356 
C 173 551 768 -64 1466 -64 
C 2163 -64 2758 551 2758 1356 
z
M 1466 51 
C 1165 51 909 230 762 480 
C 602 767 582 1126 582 1408 
C 582 1677 595 2010 762 2298 
C 890 2509 1139 2714 1466 2714 
C 1754 2714 1997 2554 2150 2330 
C 2349 2029 2349 1607 2349 1408 
C 2349 1158 2336 775 2163 467 
C 1984 173 1709 51 1466 51 
z
" transform="scale(0.015625)"/>
      <path id="CMR17-70" d="M 1408 -1063 
C 998 -1063 973 -1037 973 -789 
L 973 402 
C 1158 134 1427 -38 1766 -38 
C 2406 -38 3053 523 3053 1388 
C 3053 2191 2496 2802 1837 2802 
C 1453 2802 1139 2592 960 2338 
L 960 2802 
L 198 2732 
L 198 2567 
C 576 2567 634 2528 634 2223 
L 634 -789 
C 634 -1031 608 -1063 198 -1063 
L 198 -1228 
C 352 -1216 634 -1216 800 -1216 
C 966 -1216 1254 -1216 1408 -1228 
L 1408 -1063 
z
M 973 2012 
C 973 2102 973 2235 1222 2471 
C 1254 2497 1472 2688 1792 2688 
C 2259 2688 2643 2108 2643 1382 
C 2643 656 2234 64 1728 64 
C 1498 64 1248 172 1056 472 
C 973 612 973 650 973 752 
L 973 2012 
z
" transform="scale(0.015625)"/>
      <path id="CMR17-74" d="M 966 2560 
L 1862 2560 
L 1862 2725 
L 966 2725 
L 966 3904 
L 851 3904 
C 838 3245 614 2668 70 2668 
L 70 2560 
L 627 2560 
L 627 771 
C 627 650 627 -64 1370 -64 
C 1747 -64 1965 306 1965 777 
L 1965 1140 
L 1850 1140 
L 1850 783 
C 1850 344 1677 51 1408 51 
C 1222 51 966 178 966 758 
L 966 2560 
z
" transform="scale(0.015625)"/>
      <path id="CMR17-63" d="M 2234 2240 
C 2112 2240 1933 2240 1933 2017 
C 1933 1838 2080 1787 2163 1787 
C 2208 1787 2394 1807 2394 2024 
C 2394 2467 1958 2803 1466 2803 
C 787 2803 211 2178 211 1363 
C 211 516 813 -64 1466 -64 
C 2259 -64 2458 677 2458 748 
C 2458 774 2451 793 2406 793 
C 2362 793 2355 787 2330 703 
C 2163 180 1798 51 1523 51 
C 1114 51 621 427 621 1369 
C 621 2338 1094 2688 1472 2688 
C 1722 2688 2093 2573 2234 2240 
z
" transform="scale(0.015625)"/>
      <path id="CMR17-23" d="M 3104 896 
L 4422 896 
C 4531 896 4640 896 4640 1011 
C 4640 1119 4544 1119 4448 1119 
L 3168 1119 
L 3386 2017 
L 4448 2017 
C 4544 2017 4640 2017 4640 2125 
C 4640 2240 4531 2240 4422 2240 
L 3450 2240 
L 3942 4184 
C 3962 4248 3968 4280 3968 4300 
C 3968 4364 3917 4416 3853 4416 
C 3763 4416 3744 4326 3731 4275 
L 3219 2240 
L 2061 2240 
L 2554 4184 
C 2573 4248 2579 4280 2579 4300 
C 2579 4364 2528 4416 2464 4416 
C 2374 4416 2355 4326 2342 4275 
L 1830 2240 
L 512 2240 
C 403 2240 294 2240 294 2125 
C 294 2017 390 2017 486 2017 
L 1766 2017 
L 1549 1119 
L 486 1119 
C 390 1119 294 1119 294 1011 
C 294 896 403 896 512 896 
L 1485 896 
L 992 -1020 
C 973 -1083 966 -1114 966 -1134 
C 966 -1197 1018 -1248 1082 -1248 
C 1171 -1248 1190 -1159 1203 -1109 
L 1715 896 
L 2874 896 
L 2381 -1020 
C 2362 -1083 2355 -1114 2355 -1134 
C 2355 -1197 2406 -1248 2470 -1248 
C 2560 -1248 2579 -1159 2592 -1109 
L 3104 896 
z
M 1779 1119 
L 1997 2017 
L 3155 2017 
L 2938 1119 
L 1779 1119 
z
" transform="scale(0.015625)"/>
     </defs>
     <use xlink:href="#CMR17-28" transform="scale(0.996264)"/>
     <use xlink:href="#CMR17-61" transform="translate(35.280768 0) scale(0.996264)"/>
     <use xlink:href="#CMR17-29" transform="translate(80.971245 0) scale(0.996264)"/>
     <use xlink:href="#CMR17-4c" transform="translate(146.327979 0) scale(0.996264)"/>
     <use xlink:href="#CMR17-46" transform="translate(203.709387 0) scale(0.996264)"/>
     <use xlink:href="#CMR17-43" transform="translate(261.09078 0) scale(0.996264)"/>
     <use xlink:href="#CMR17-67" transform="translate(357.676626 0) scale(0.996264)"/>
     <use xlink:href="#CMR17-65" transform="translate(403.367104 0) scale(0.996264)"/>
     <use xlink:href="#CMR17-6e" transform="translate(443.852764 0) scale(0.996264)"/>
     <use xlink:href="#CMR17-65" transform="translate(494.748134 0) scale(0.996264)"/>
     <use xlink:href="#CMR17-72" transform="translate(535.233794 0) scale(0.996264)"/>
     <use xlink:href="#CMR17-61" transform="translate(570.514562 0) scale(0.996264)"/>
     <use xlink:href="#CMR17-6c" transform="translate(616.205039 0) scale(0.996264)"/>
     <use xlink:href="#CMR17-76" transform="translate(671.152064 0) scale(0.996264)"/>
     <use xlink:href="#CMR17-69" transform="translate(719.44498 0) scale(0.996264)"/>
     <use xlink:href="#CMR17-65" transform="translate(744.316038 0) scale(0.996264)"/>
     <use xlink:href="#CMR17-77" transform="translate(784.801699 0) scale(0.996264)"/>
     <use xlink:href="#CMR17-3a" transform="translate(851.311579 0) scale(0.996264)"/>
     <use xlink:href="#CMR17-4d" transform="translate(916.668298 0) scale(0.996264)"/>
     <use xlink:href="#CMR17-65" transform="translate(1001.355239 0) scale(0.996264)"/>
     <use xlink:href="#CMR17-6e" transform="translate(1041.840899 0) scale(0.996264)"/>
     <use xlink:href="#CMR17-27" transform="translate(1092.736269 0) scale(0.996264)"/>
     <use xlink:href="#CMR17-73" transform="translate(1117.607328 0) scale(0.996264)"/>
     <use xlink:href="#CMR17-6f" transform="translate(1183.484632 0) scale(0.996264)"/>
     <use xlink:href="#CMR17-70" transform="translate(1229.175109 0) scale(0.996264)"/>
     <use xlink:href="#CMR17-74" transform="translate(1280.070479 0) scale(0.996264)"/>
     <use xlink:href="#CMR17-69" transform="translate(1315.351246 0) scale(0.996264)"/>
     <use xlink:href="#CMR17-63" transform="translate(1340.222305 0) scale(0.996264)"/>
     <use xlink:href="#CMR17-23" transform="translate(1410.783932 0) scale(0.996264)"/>
     <use xlink:href="#CMR17-31" transform="translate(1487.703521 0) scale(0.996264)"/>
     <use xlink:href="#CMR17-35" transform="translate(1533.393999 0) scale(0.996264)"/>
    </g>
   </g>
   <g id="legend_1">
    <g id="patch_7">
     <path d="M 317.058871 99.544351 
L 421.482801 99.544351 
Q 423.682801 99.544351 423.682801 97.344351 
L 423.682801 37.120772 
Q 423.682801 34.920772 421.482801 34.920772 
L 317.058871 34.920772 
Q 314.858871 34.920772 314.858871 37.120772 
L 314.858871 97.344351 
Q 314.858871 99.544351 317.058871 99.544351 
z
" style="fill: #ffffff; opacity: 0.8; stroke: #cccccc; stroke-linejoin: miter"/>
    </g>
    <g id="line2d_46">
     <path d="M 319.258871 43.170772 
L 330.258871 43.170772 
L 341.258871 43.170772 
" style="fill: none; stroke: #008000; stroke-width: 0.5; stroke-linecap: round"/>
    </g>
    <g id="text_19">
     <!-- Edge-rays -->
     <g style="fill: #262626" transform="translate(350.058871 47.020772) scale(0.11 -0.11)">
      <defs>
       <path id="CMR17-45" d="M 3885 1615 
L 3770 1615 
C 3629 676 3546 166 2419 166 
L 1530 166 
C 1274 166 1261 197 1261 414 
L 1261 2176 
L 1862 2176 
C 2464 2176 2522 1960 2522 1430 
L 2637 1430 
L 2637 3081 
L 2522 3081 
C 2522 2557 2464 2342 1862 2342 
L 1261 2342 
L 1261 3913 
C 1261 4128 1274 4160 1530 4160 
L 2406 4160 
C 3398 4160 3514 3769 3603 2929 
L 3718 2929 
L 3565 4325 
L 326 4325 
L 326 4160 
C 768 4160 838 4160 838 3874 
L 838 451 
C 838 166 768 166 326 166 
L 326 0 
L 3654 0 
L 3885 1615 
z
" transform="scale(0.015625)"/>
       <path id="CMR17-64" d="M 1869 4326 
L 1869 4160 
C 2246 4160 2304 4122 2304 3820 
L 2304 2345 
C 2278 2377 2016 2790 1498 2790 
C 845 2790 211 2208 211 1364 
C 211 525 806 -64 1434 -64 
C 1978 -64 2259 337 2291 380 
L 2291 -63 
L 3066 -63 
L 3066 128 
C 2688 128 2630 166 2630 473 
L 2630 4396 
L 1869 4326 
z
M 2291 755 
C 2291 563 2176 390 2029 262 
C 1811 70 1594 38 1472 38 
C 1286 38 621 134 621 1356 
C 621 2612 1363 2688 1530 2688 
C 1824 2688 2061 2522 2208 2291 
C 2291 2157 2291 2138 2291 2023 
L 2291 755 
z
" transform="scale(0.015625)"/>
       <path id="CMR17-2d" d="M 1632 1216 
L 1632 1496 
L 26 1496 
L 26 1216 
L 1632 1216 
z
" transform="scale(0.015625)"/>
       <path id="CMR17-79" d="M 2496 2197 
C 2656 2586 2944 2586 3034 2586 
L 3034 2752 
C 2912 2752 2752 2752 2630 2752 
C 2496 2752 2285 2752 2157 2758 
L 2157 2592 
C 2400 2573 2406 2394 2406 2343 
C 2406 2280 2394 2248 2362 2171 
L 1664 449 
L 902 2306 
C 870 2382 870 2426 870 2433 
C 870 2573 1018 2586 1171 2586 
L 1171 2758 
C 1018 2752 742 2752 582 2752 
C 410 2752 205 2752 64 2758 
L 64 2586 
C 410 2586 448 2554 531 2350 
L 1485 15 
C 1197 -738 1030 -1178 627 -1178 
C 557 -1178 397 -1159 282 -1044 
C 429 -1031 493 -942 493 -833 
C 493 -725 416 -629 288 -629 
C 147 -629 77 -725 77 -840 
C 77 -1095 339 -1280 627 -1280 
C 998 -1280 1229 -922 1357 -604 
L 2496 2197 
z
" transform="scale(0.015625)"/>
      </defs>
      <use xlink:href="#CMR17-45" transform="scale(0.996264)"/>
      <use xlink:href="#CMR17-64" transform="translate(62.586301 0) scale(0.996264)"/>
      <use xlink:href="#CMR17-67" transform="translate(113.48167 0) scale(0.996264)"/>
      <use xlink:href="#CMR17-65" transform="translate(159.172147 0) scale(0.996264)"/>
      <use xlink:href="#CMR17-2d" transform="translate(199.657808 0) scale(0.996264)"/>
      <use xlink:href="#CMR17-72" transform="translate(229.733774 0) scale(0.996264)"/>
      <use xlink:href="#CMR17-61" transform="translate(265.014542 0) scale(0.996264)"/>
      <use xlink:href="#CMR17-79" transform="translate(308.102565 0) scale(0.996264)"/>
      <use xlink:href="#CMR17-73" transform="translate(356.395481 0) scale(0.996264)"/>
     </g>
    </g>
    <g id="line2d_47">
     <path d="M 319.258871 58.501667 
L 330.258871 58.501667 
L 341.258871 58.501667 
" style="fill: none; stroke: #000000; stroke-linecap: round"/>
    </g>
    <g id="text_20">
     <!-- Primary field -->
     <g style="fill: #262626" transform="translate(350.058871 62.351667) scale(0.11 -0.11)">
      <defs>
       <path id="CMR17-50" d="M 1267 2042 
L 2291 2042 
C 3117 2042 3718 2578 3718 3184 
C 3718 3791 3130 4352 2291 4352 
L 333 4352 
L 333 4186 
C 774 4186 845 4186 845 3899 
L 845 446 
C 845 160 774 160 333 160 
L 333 0 
C 518 0 858 0 1056 0 
C 1254 0 1594 0 1779 0 
L 1779 160 
C 1338 160 1267 160 1267 446 
L 1267 2042 
z
M 1254 2176 
L 1254 3938 
C 1254 4155 1267 4186 1523 4186 
L 2170 4186 
C 2995 4186 3232 3714 3232 3184 
C 3232 2604 2950 2176 2170 2176 
L 1254 2176 
z
" transform="scale(0.015625)"/>
       <path id="CMR17-c" d="M 2554 2764 
C 2400 2764 1926 2764 1805 2739 
C 1766 2725 1754 2725 1677 2725 
L 947 2725 
L 947 3469 
C 947 4073 1434 4352 1818 4352 
C 1939 4352 2214 4320 2355 4101 
C 2291 4101 2086 4101 2086 3878 
C 2086 3725 2189 3648 2317 3648 
C 2432 3648 2547 3712 2547 3885 
C 2547 4205 2240 4454 1843 4454 
C 1338 4454 634 4168 634 3469 
L 634 2725 
L 122 2725 
L 122 2560 
L 634 2560 
L 634 427 
C 634 184 608 153 198 153 
L 198 -13 
C 352 0 634 0 794 0 
C 960 0 1242 0 1395 -13 
L 1395 153 
C 986 153 960 178 960 427 
L 960 2560 
L 1901 2560 
C 2176 2560 2227 2502 2227 2222 
L 2227 427 
C 2227 184 2202 153 1792 153 
L 1792 -13 
C 1946 0 2227 0 2387 0 
C 2554 0 2835 0 2989 -13 
L 2989 153 
C 2579 153 2554 178 2554 427 
L 2554 2764 
z
" transform="scale(0.015625)"/>
      </defs>
      <use xlink:href="#CMR17-50" transform="scale(0.996264)"/>
      <use xlink:href="#CMR17-72" transform="translate(62.586301 0) scale(0.996264)"/>
      <use xlink:href="#CMR17-69" transform="translate(97.867068 0) scale(0.996264)"/>
      <use xlink:href="#CMR17-6d" transform="translate(122.738127 0) scale(0.996264)"/>
      <use xlink:href="#CMR17-61" transform="translate(199.657717 0) scale(0.996264)"/>
      <use xlink:href="#CMR17-72" transform="translate(245.348194 0) scale(0.996264)"/>
      <use xlink:href="#CMR17-79" transform="translate(280.628962 0) scale(0.996264)"/>
      <use xlink:href="#CMR17-c" transform="translate(358.997844 0) scale(0.996264)"/>
      <use xlink:href="#CMR17-65" transform="translate(408.740067 0) scale(0.996264)"/>
      <use xlink:href="#CMR17-6c" transform="translate(449.225728 0) scale(0.996264)"/>
      <use xlink:href="#CMR17-64" transform="translate(474.096786 0) scale(0.996264)"/>
     </g>
    </g>
    <g id="line2d_48">
     <path d="M 319.258871 73.832561 
L 330.258871 73.832561 
L 341.258871 73.832561 
" style="fill: none; stroke: #ff0000; stroke-width: 1.5; stroke-linecap: round"/>
    </g>
    <g id="text_21">
     <!-- Absorber tube -->
     <g style="fill: #262626" transform="translate(350.058871 77.682561) scale(0.11 -0.11)">
      <defs>
       <path id="CMR17-41" d="M 2323 4378 
C 2291 4461 2278 4480 2214 4480 
C 2150 4480 2138 4461 2106 4378 
L 749 566 
C 627 223 371 153 147 153 
L 147 -13 
C 262 0 518 0 640 0 
C 800 0 1056 0 1210 -13 
L 1210 153 
C 909 153 864 361 864 439 
C 864 497 877 530 890 569 
L 1229 1536 
L 2906 1536 
L 3290 442 
C 3322 365 3322 352 3322 327 
C 3322 153 3046 153 2925 153 
L 2925 0 
C 3110 0 3443 0 3642 0 
C 3808 0 4128 0 4282 -13 
L 4282 153 
C 3942 153 3827 153 3744 387 
L 2323 4378 
z
M 2067 3893 
L 2848 1702 
L 1286 1702 
L 2067 3893 
z
" transform="scale(0.015625)"/>
       <path id="CMR17-62" d="M 960 4396 
L 198 4326 
L 198 4160 
C 576 4160 634 4122 634 3817 
L 634 -13 
L 749 -13 
L 934 441 
C 1120 141 1395 -64 1766 -64 
C 2406 -64 3053 500 3053 1370 
C 3053 2188 2477 2790 1830 2790 
C 1434 2790 1152 2579 960 2330 
L 960 4396 
z
M 973 2004 
C 973 2118 973 2138 1062 2272 
C 1312 2657 1670 2688 1792 2688 
C 1984 2688 2643 2585 2643 1376 
C 2643 108 1888 38 1734 38 
C 1536 38 1248 114 1043 486 
C 973 608 973 621 973 735 
L 973 2004 
z
" transform="scale(0.015625)"/>
       <path id="CMR17-75" d="M 1882 2693 
L 1882 2528 
C 2259 2528 2317 2489 2317 2186 
L 2317 1032 
C 2317 500 2029 38 1555 38 
C 1030 38 986 348 986 678 
L 986 2763 
L 211 2693 
L 211 2528 
C 467 2528 640 2528 646 2274 
L 646 1058 
C 646 633 646 361 813 183 
C 896 101 1056 -64 1517 -64 
C 2061 -64 2272 377 2323 506 
L 2330 506 
L 2330 -63 
L 3091 -63 
L 3091 128 
C 2714 128 2656 166 2656 473 
L 2656 2763 
L 1882 2693 
z
" transform="scale(0.015625)"/>
      </defs>
      <use xlink:href="#CMR17-41" transform="scale(0.996264)"/>
      <use xlink:href="#CMR17-62" transform="translate(69.07243 0) scale(0.996264)"/>
      <use xlink:href="#CMR17-73" transform="translate(119.9678 0) scale(0.996264)"/>
      <use xlink:href="#CMR17-6f" transform="translate(155.769137 0) scale(0.996264)"/>
      <use xlink:href="#CMR17-72" transform="translate(201.459614 0) scale(0.996264)"/>
      <use xlink:href="#CMR17-62" transform="translate(236.740382 0) scale(0.996264)"/>
      <use xlink:href="#CMR17-65" transform="translate(290.238191 0) scale(0.996264)"/>
      <use xlink:href="#CMR17-72" transform="translate(330.723851 0) scale(0.996264)"/>
      <use xlink:href="#CMR17-74" transform="translate(396.080585 0) scale(0.996264)"/>
      <use xlink:href="#CMR17-75" transform="translate(431.361353 0) scale(0.996264)"/>
      <use xlink:href="#CMR17-62" transform="translate(482.256723 0) scale(0.996264)"/>
      <use xlink:href="#CMR17-65" transform="translate(535.754531 0) scale(0.996264)"/>
     </g>
    </g>
    <g id="line2d_49">
     <path d="M 319.258871 89.163456 
L 330.258871 89.163456 
L 341.258871 89.163456 
" style="fill: none; stroke-dasharray: 1.85,0.8; stroke-dashoffset: 0; stroke: #0000ff; stroke-width: 0.5"/>
    </g>
    <g id="text_22">
     <!-- Glass cover -->
     <g style="fill: #262626" transform="translate(350.058871 93.013456) scale(0.11 -0.11)">
      <defs>
       <path id="CMR17-47" d="M 3974 1233 
C 3974 1473 3994 1505 4390 1505 
L 4390 1670 
C 4237 1664 3891 1664 3718 1664 
C 3539 1664 3040 1664 2797 1664 
L 2797 1505 
L 2989 1505 
C 3539 1505 3552 1434 3552 1201 
L 3552 774 
C 3552 63 2720 63 2522 63 
C 1862 63 781 511 781 2160 
C 781 3808 1843 4250 2464 4250 
C 3187 4250 3712 3626 3834 2741 
C 3846 2664 3846 2651 3904 2651 
C 3974 2651 3974 2664 3974 2779 
L 3974 4288 
C 3974 4402 3968 4409 3930 4409 
C 3904 4409 3898 4402 3853 4326 
L 3571 3791 
C 3258 4187 2874 4416 2381 4416 
C 1286 4416 294 3456 294 2148 
C 294 845 1267 -128 2394 -128 
C 2912 -128 3418 56 3616 417 
C 3725 158 3904 -20 3936 -20 
C 3968 -20 3974 -13 3974 100 
L 3974 1233 
z
" transform="scale(0.015625)"/>
      </defs>
      <use xlink:href="#CMR17-47" transform="scale(0.996264)"/>
      <use xlink:href="#CMR17-6c" transform="translate(72.355346 0) scale(0.996264)"/>
      <use xlink:href="#CMR17-61" transform="translate(97.226404 0) scale(0.996264)"/>
      <use xlink:href="#CMR17-73" transform="translate(142.916882 0) scale(0.996264)"/>
      <use xlink:href="#CMR17-73" transform="translate(178.718219 0) scale(0.996264)"/>
      <use xlink:href="#CMR17-63" transform="translate(244.595523 0) scale(0.996264)"/>
      <use xlink:href="#CMR17-6f" transform="translate(285.081184 0) scale(0.996264)"/>
      <use xlink:href="#CMR17-76" transform="translate(328.169207 0) scale(0.996264)"/>
      <use xlink:href="#CMR17-65" transform="translate(373.859669 0) scale(0.996264)"/>
      <use xlink:href="#CMR17-72" transform="translate(414.345329 0) scale(0.996264)"/>
     </g>
    </g>
   </g>
  </g>
  <g id="axes_2">
   <g id="patch_8">
    <path d="M 475.921872 307.194399 
L 851.04 307.194399 
L 851.04 29.420772 
L 475.921872 29.420772 
z
" style="fill: #ffffff"/>
   </g>
   <g id="matplotlib.axis_3">
    <g id="xtick_8">
     <g id="line2d_50">
      <path d="M 514.148739 307.194399 
L 514.148739 29.420772 
" clip-path="url(#p4345072682)" style="fill: none; stroke: #cccccc; stroke-linecap: round"/>
     </g>
     <g id="text_23">
      <!-- $\mathdefault{−0.3}$ -->
      <g style="fill: #262626" transform="translate(499.99933 326.380275) scale(0.14 -0.14)">
       <defs>
        <path id="CMMI12-3a" d="M 1178 307 
C 1178 492 1024 619 870 619 
C 685 619 557 466 557 313 
C 557 128 710 0 864 0 
C 1050 0 1178 153 1178 307 
z
" transform="scale(0.015625)"/>
        <path id="CMR17-33" d="M 1414 2157 
C 1984 2157 2234 1662 2234 1090 
C 2234 320 1824 25 1453 25 
C 1114 25 563 194 390 693 
C 422 680 454 680 486 680 
C 640 680 755 782 755 948 
C 755 1133 614 1216 486 1216 
C 378 1216 211 1165 211 926 
C 211 335 787 -128 1466 -128 
C 2176 -128 2720 430 2720 1085 
C 2720 1707 2208 2157 1600 2227 
C 2086 2328 2554 2756 2554 3329 
C 2554 3820 2048 4179 1472 4179 
C 890 4179 378 3829 378 3329 
C 378 3110 544 3072 627 3072 
C 762 3072 877 3155 877 3321 
C 877 3486 762 3569 627 3569 
C 602 3569 570 3569 544 3557 
C 730 3959 1235 4032 1459 4032 
C 1683 4032 2106 3925 2106 3320 
C 2106 3143 2080 2828 1862 2550 
C 1670 2304 1453 2304 1242 2284 
C 1210 2284 1062 2269 1037 2269 
C 992 2263 966 2257 966 2208 
C 966 2163 973 2157 1101 2157 
L 1414 2157 
z
" transform="scale(0.015625)"/>
       </defs>
       <use xlink:href="#CMSY10-0" transform="scale(0.996264)"/>
       <use xlink:href="#CMR17-30" transform="translate(77.487468 0) scale(0.996264)"/>
       <use xlink:href="#CMMI12-3a" transform="translate(123.177945 0) scale(0.996264)"/>
       <use xlink:href="#CMR17-33" transform="translate(150.275122 0) scale(0.996264)"/>
      </g>
     </g>
    </g>
    <g id="xtick_9">
     <g id="line2d_51">
      <path d="M 563.926138 307.194399 
L 563.926138 29.420772 
" clip-path="url(#p4345072682)" style="fill: none; stroke: #cccccc; stroke-linecap: round"/>
     </g>
     <g id="text_24">
      <!-- $\mathdefault{−0.2}$ -->
      <g style="fill: #262626" transform="translate(549.776729 326.380275) scale(0.14 -0.14)">
       <use xlink:href="#CMSY10-0" transform="scale(0.996264)"/>
       <use xlink:href="#CMR17-30" transform="translate(77.487468 0) scale(0.996264)"/>
       <use xlink:href="#CMMI12-3a" transform="translate(123.177945 0) scale(0.996264)"/>
       <use xlink:href="#CMR17-32" transform="translate(150.275122 0) scale(0.996264)"/>
      </g>
     </g>
    </g>
    <g id="xtick_10">
     <g id="line2d_52">
      <path d="M 613.703537 307.194399 
L 613.703537 29.420772 
" clip-path="url(#p4345072682)" style="fill: none; stroke: #cccccc; stroke-linecap: round"/>
     </g>
     <g id="text_25">
      <!-- $\mathdefault{−0.1}$ -->
      <g style="fill: #262626" transform="translate(599.554128 326.380275) scale(0.14 -0.14)">
       <use xlink:href="#CMSY10-0" transform="scale(0.996264)"/>
       <use xlink:href="#CMR17-30" transform="translate(77.487468 0) scale(0.996264)"/>
       <use xlink:href="#CMMI12-3a" transform="translate(123.177945 0) scale(0.996264)"/>
       <use xlink:href="#CMR17-31" transform="translate(150.275122 0) scale(0.996264)"/>
      </g>
     </g>
    </g>
    <g id="xtick_11">
     <g id="line2d_53">
      <path d="M 663.480936 307.194399 
L 663.480936 29.420772 
" clip-path="url(#p4345072682)" style="fill: none; stroke: #cccccc; stroke-linecap: round"/>
     </g>
     <g id="text_26">
      <!-- $\mathdefault{0.0}$ -->
      <g style="fill: #262626" transform="translate(654.755645 326.380275) scale(0.14 -0.14)">
       <use xlink:href="#CMR17-30" transform="scale(0.996264)"/>
       <use xlink:href="#CMMI12-3a" transform="translate(45.690477 0) scale(0.996264)"/>
       <use xlink:href="#CMR17-30" transform="translate(72.787654 0) scale(0.996264)"/>
      </g>
     </g>
    </g>
    <g id="xtick_12">
     <g id="line2d_54">
      <path d="M 713.258335 307.194399 
L 713.258335 29.420772 
" clip-path="url(#p4345072682)" style="fill: none; stroke: #cccccc; stroke-linecap: round"/>
     </g>
     <g id="text_27">
      <!-- $\mathdefault{0.1}$ -->
      <g style="fill: #262626" transform="translate(704.533044 326.380275) scale(0.14 -0.14)">
       <use xlink:href="#CMR17-30" transform="scale(0.996264)"/>
       <use xlink:href="#CMMI12-3a" transform="translate(45.690477 0) scale(0.996264)"/>
       <use xlink:href="#CMR17-31" transform="translate(72.787654 0) scale(0.996264)"/>
      </g>
     </g>
    </g>
    <g id="xtick_13">
     <g id="line2d_55">
      <path d="M 763.035734 307.194399 
L 763.035734 29.420772 
" clip-path="url(#p4345072682)" style="fill: none; stroke: #cccccc; stroke-linecap: round"/>
     </g>
     <g id="text_28">
      <!-- $\mathdefault{0.2}$ -->
      <g style="fill: #262626" transform="translate(754.310443 326.380275) scale(0.14 -0.14)">
       <use xlink:href="#CMR17-30" transform="scale(0.996264)"/>
       <use xlink:href="#CMMI12-3a" transform="translate(45.690477 0) scale(0.996264)"/>
       <use xlink:href="#CMR17-32" transform="translate(72.787654 0) scale(0.996264)"/>
      </g>
     </g>
    </g>
    <g id="xtick_14">
     <g id="line2d_56">
      <path d="M 812.813133 307.194399 
L 812.813133 29.420772 
" clip-path="url(#p4345072682)" style="fill: none; stroke: #cccccc; stroke-linecap: round"/>
     </g>
     <g id="text_29">
      <!-- $\mathdefault{0.3}$ -->
      <g style="fill: #262626" transform="translate(804.087842 326.380275) scale(0.14 -0.14)">
       <use xlink:href="#CMR17-30" transform="scale(0.996264)"/>
       <use xlink:href="#CMMI12-3a" transform="translate(45.690477 0) scale(0.996264)"/>
       <use xlink:href="#CMR17-33" transform="translate(72.787654 0) scale(0.996264)"/>
      </g>
     </g>
    </g>
    <g id="text_30">
     <!-- $x$ [m] -->
     <g style="fill: #262626" transform="translate(647.840377 343.553076) scale(0.14 -0.14)">
      <use xlink:href="#CMMI12-78" transform="scale(0.996264)"/>
      <use xlink:href="#CMR17-5b" transform="translate(85.510026 0) scale(0.996264)"/>
      <use xlink:href="#CMR17-6d" transform="translate(110.381084 0) scale(0.996264)"/>
      <use xlink:href="#CMR17-5d" transform="translate(187.300674 0) scale(0.996264)"/>
     </g>
    </g>
   </g>
   <g id="matplotlib.axis_4">
    <g id="ytick_9">
     <g id="line2d_57">
      <path d="M 475.921872 282.308793 
L 851.04 282.308793 
" clip-path="url(#p4345072682)" style="fill: none; stroke: #cccccc; stroke-linecap: round"/>
     </g>
     <g id="text_31">
      <!-- $\mathdefault{14.5}$ -->
      <g style="fill: #262626" transform="translate(442.142801 287.151731) scale(0.14 -0.14)">
       <use xlink:href="#CMR17-31" transform="scale(0.996264)"/>
       <use xlink:href="#CMR17-34" transform="translate(45.690477 0) scale(0.996264)"/>
       <use xlink:href="#CMMI12-3a" transform="translate(91.380954 0) scale(0.996264)"/>
       <use xlink:href="#CMR17-35" transform="translate(118.478131 0) scale(0.996264)"/>
      </g>
     </g>
    </g>
    <g id="ytick_10">
     <g id="line2d_58">
      <path d="M 475.921872 245.448807 
L 851.04 245.448807 
" clip-path="url(#p4345072682)" style="fill: none; stroke: #cccccc; stroke-linecap: round"/>
     </g>
     <g id="text_32">
      <!-- $\mathdefault{14.6}$ -->
      <g style="fill: #262626" transform="translate(442.142801 250.291746) scale(0.14 -0.14)">
       <use xlink:href="#CMR17-31" transform="scale(0.996264)"/>
       <use xlink:href="#CMR17-34" transform="translate(45.690477 0) scale(0.996264)"/>
       <use xlink:href="#CMMI12-3a" transform="translate(91.380954 0) scale(0.996264)"/>
       <use xlink:href="#CMR17-36" transform="translate(118.478131 0) scale(0.996264)"/>
      </g>
     </g>
    </g>
    <g id="ytick_11">
     <g id="line2d_59">
      <path d="M 475.921872 208.588822 
L 851.04 208.588822 
" clip-path="url(#p4345072682)" style="fill: none; stroke: #cccccc; stroke-linecap: round"/>
     </g>
     <g id="text_33">
      <!-- $\mathdefault{14.7}$ -->
      <g style="fill: #262626" transform="translate(442.142801 213.43176) scale(0.14 -0.14)">
       <defs>
        <path id="CMR17-37" d="M 2886 3941 
L 2886 4081 
L 1382 4081 
C 634 4081 621 4165 595 4288 
L 480 4288 
L 294 3094 
L 410 3094 
C 429 3215 474 3540 550 3661 
C 589 3712 1062 3712 1171 3712 
L 2579 3712 
L 1869 2661 
C 1395 1954 1069 999 1069 165 
C 1069 89 1069 -128 1299 -128 
C 1530 -128 1530 89 1530 171 
L 1530 465 
C 1530 1508 1709 2196 2003 2636 
L 2886 3941 
z
" transform="scale(0.015625)"/>
       </defs>
       <use xlink:href="#CMR17-31" transform="scale(0.996264)"/>
       <use xlink:href="#CMR17-34" transform="translate(45.690477 0) scale(0.996264)"/>
       <use xlink:href="#CMMI12-3a" transform="translate(91.380954 0) scale(0.996264)"/>
       <use xlink:href="#CMR17-37" transform="translate(118.478131 0) scale(0.996264)"/>
      </g>
     </g>
    </g>
    <g id="ytick_12">
     <g id="line2d_60">
      <path d="M 475.921872 171.728837 
L 851.04 171.728837 
" clip-path="url(#p4345072682)" style="fill: none; stroke: #cccccc; stroke-linecap: round"/>
     </g>
     <g id="text_34">
      <!-- $\mathdefault{14.8}$ -->
      <g style="fill: #262626" transform="translate(442.142801 176.571775) scale(0.14 -0.14)">
       <use xlink:href="#CMR17-31" transform="scale(0.996264)"/>
       <use xlink:href="#CMR17-34" transform="translate(45.690477 0) scale(0.996264)"/>
       <use xlink:href="#CMMI12-3a" transform="translate(91.380954 0) scale(0.996264)"/>
       <use xlink:href="#CMR17-38" transform="translate(118.478131 0) scale(0.996264)"/>
      </g>
     </g>
    </g>
    <g id="ytick_13">
     <g id="line2d_61">
      <path d="M 475.921872 134.868851 
L 851.04 134.868851 
" clip-path="url(#p4345072682)" style="fill: none; stroke: #cccccc; stroke-linecap: round"/>
     </g>
     <g id="text_35">
      <!-- $\mathdefault{14.9}$ -->
      <g style="fill: #262626" transform="translate(442.142801 139.71179) scale(0.14 -0.14)">
       <defs>
        <path id="CMR17-39" d="M 2253 1864 
C 2253 464 1670 31 1190 31 
C 1043 31 685 31 538 294 
C 704 268 826 357 826 518 
C 826 692 685 749 595 749 
C 538 749 365 723 365 506 
C 365 71 742 -128 1203 -128 
C 1939 -128 2688 674 2688 2073 
C 2688 3817 1971 4179 1485 4179 
C 851 4179 243 3628 243 2778 
C 243 1991 762 1408 1414 1408 
C 1952 1408 2189 1903 2253 2112 
L 2253 1864 
z
M 1427 1510 
C 1254 1510 1011 1542 813 1922 
C 678 2169 678 2461 678 2771 
C 678 3146 678 3405 858 3684 
C 947 3817 1114 4032 1485 4032 
C 2240 4032 2240 2885 2240 2632 
C 2240 2182 2035 1510 1427 1510 
z
" transform="scale(0.015625)"/>
       </defs>
       <use xlink:href="#CMR17-31" transform="scale(0.996264)"/>
       <use xlink:href="#CMR17-34" transform="translate(45.690477 0) scale(0.996264)"/>
       <use xlink:href="#CMMI12-3a" transform="translate(91.380954 0) scale(0.996264)"/>
       <use xlink:href="#CMR17-39" transform="translate(118.478131 0) scale(0.996264)"/>
      </g>
     </g>
    </g>
    <g id="ytick_14">
     <g id="line2d_62">
      <path d="M 475.921872 98.008866 
L 851.04 98.008866 
" clip-path="url(#p4345072682)" style="fill: none; stroke: #cccccc; stroke-linecap: round"/>
     </g>
     <g id="text_36">
      <!-- $\mathdefault{15.0}$ -->
      <g style="fill: #262626" transform="translate(442.142801 102.851804) scale(0.14 -0.14)">
       <use xlink:href="#CMR17-31" transform="scale(0.996264)"/>
       <use xlink:href="#CMR17-35" transform="translate(45.690477 0) scale(0.996264)"/>
       <use xlink:href="#CMMI12-3a" transform="translate(91.380954 0) scale(0.996264)"/>
       <use xlink:href="#CMR17-30" transform="translate(118.478131 0) scale(0.996264)"/>
      </g>
     </g>
    </g>
    <g id="ytick_15">
     <g id="line2d_63">
      <path d="M 475.921872 61.148881 
L 851.04 61.148881 
" clip-path="url(#p4345072682)" style="fill: none; stroke: #cccccc; stroke-linecap: round"/>
     </g>
     <g id="text_37">
      <!-- $\mathdefault{15.1}$ -->
      <g style="fill: #262626" transform="translate(442.142801 65.991819) scale(0.14 -0.14)">
       <use xlink:href="#CMR17-31" transform="scale(0.996264)"/>
       <use xlink:href="#CMR17-35" transform="translate(45.690477 0) scale(0.996264)"/>
       <use xlink:href="#CMMI12-3a" transform="translate(91.380954 0) scale(0.996264)"/>
       <use xlink:href="#CMR17-31" transform="translate(118.478131 0) scale(0.996264)"/>
      </g>
     </g>
    </g>
   </g>
   <g id="line2d_64">
    <path d="M 345.873374 361 
L 680.599959 126.130793 
" clip-path="url(#p4345072682)" style="fill: none; stroke: #008000; stroke-width: 0.5; stroke-linecap: round"/>
   </g>
   <g id="line2d_65">
    <path d="M 865 279.543627 
L 646.361913 126.130793 
" clip-path="url(#p4345072682)" style="fill: none; stroke: #008000; stroke-width: 0.5; stroke-linecap: round"/>
   </g>
   <g id="line2d_66">
    <path d="M 688.369636 112.75286 
L 688.335526 111.788309 
L 688.233293 110.826401 
L 688.063214 109.869774 
L 687.825758 108.921049 
L 687.521574 107.982827 
L 687.151496 107.057679 
L 686.716539 106.148141 
L 686.217894 105.256707 
L 685.65693 104.385819 
L 685.035182 103.537864 
L 684.354356 102.715167 
L 683.616317 101.919982 
L 682.823088 101.15449 
L 681.976844 100.420788 
L 681.079904 99.720887 
L 680.134727 99.056706 
L 679.143902 98.430066 
L 678.110147 97.842683 
L 677.036293 97.296168 
L 675.925286 96.792018 
L 674.780169 96.331616 
L 673.604082 95.916224 
L 672.400248 95.54698 
L 671.171967 95.224896 
L 669.922605 94.950854 
L 668.655588 94.725607 
L 667.374386 94.549771 
L 666.082514 94.423829 
L 664.78351 94.348125 
L 663.480936 94.322868 
L 662.178362 94.348125 
L 660.879358 94.423829 
L 659.587486 94.549771 
L 658.306284 94.725607 
L 657.039267 94.950854 
L 655.789905 95.224896 
L 654.561624 95.54698 
L 653.35779 95.916224 
L 652.181703 96.331616 
L 651.036586 96.792018 
L 649.925579 97.296168 
L 648.851725 97.842683 
L 647.81797 98.430066 
L 646.827145 99.056706 
L 645.881968 99.720887 
L 644.985028 100.420788 
L 644.138784 101.15449 
L 643.345555 101.919982 
L 642.607516 102.715167 
L 641.92669 103.537864 
L 641.304942 104.385819 
L 640.743978 105.256707 
L 640.245333 106.148141 
L 639.810376 107.057679 
L 639.440298 107.982827 
L 639.136114 108.921049 
L 638.898658 109.869774 
L 638.728579 110.826401 
L 638.626346 111.788309 
L 638.592236 112.75286 
L 638.626346 113.717411 
L 638.728579 114.679319 
L 638.898658 115.635946 
L 639.136114 116.584671 
L 639.440298 117.522893 
L 639.810376 118.448041 
L 640.245333 119.357579 
L 640.743978 120.249014 
L 641.304942 121.119902 
L 641.92669 121.967857 
L 642.607516 122.790554 
L 643.345555 123.585738 
L 644.138784 124.35123 
L 644.985028 125.084932 
L 645.881968 125.784833 
L 646.827145 126.449014 
L 647.81797 127.075655 
L 648.851725 127.663037 
L 649.925579 128.209553 
L 651.036586 128.713702 
L 652.181703 129.174104 
L 653.35779 129.589496 
L 654.561624 129.958741 
L 655.789905 130.280825 
L 657.039267 130.554866 
L 658.306284 130.780113 
L 659.587486 130.955949 
L 660.879358 131.081891 
L 662.178362 131.157595 
L 663.480936 131.182853 
L 664.78351 131.157595 
L 666.082514 131.081891 
L 667.374386 130.955949 
L 668.655588 130.780113 
L 669.922605 130.554866 
L 671.171967 130.280825 
L 672.400248 129.958741 
L 673.604082 129.589496 
L 674.780169 129.174104 
L 675.925286 128.713702 
L 677.036293 128.209553 
L 678.110147 127.663037 
L 679.143902 127.075655 
L 680.134727 126.449014 
L 681.079904 125.784833 
L 681.976844 125.084932 
L 682.823088 124.35123 
L 683.616317 123.585738 
L 684.354356 122.790554 
L 685.035182 121.967857 
L 685.65693 121.119902 
L 686.217894 120.249014 
L 686.716539 119.357579 
L 687.151496 118.448041 
L 687.521574 117.522893 
L 687.825758 116.584671 
L 688.063214 115.635946 
L 688.233293 114.679319 
L 688.335526 113.717411 
L 688.369636 112.75286 
" clip-path="url(#p4345072682)" style="fill: none; stroke: #ff0000; stroke-width: 1.5; stroke-linecap: round"/>
   </g>
   <g id="line2d_67">
    <path d="M 699.56955 112.75286 
L 699.520092 111.354261 
L 699.371853 109.959495 
L 699.12524 108.572385 
L 698.780928 107.196734 
L 698.339861 105.836312 
L 697.803248 104.494848 
L 697.17256 103.176018 
L 696.449526 101.883438 
L 695.636127 100.62065 
L 694.734593 99.391115 
L 693.747395 98.198205 
L 692.677238 97.045187 
L 691.527057 95.935223 
L 690.300003 94.871356 
L 688.99944 93.8565 
L 687.628932 92.893437 
L 686.192237 91.984808 
L 684.693291 91.133103 
L 683.136204 90.340656 
L 681.525243 89.60964 
L 679.864824 88.942057 
L 678.159498 88.339738 
L 676.413939 87.804334 
L 674.632931 87.337311 
L 672.821357 86.939952 
L 670.984181 86.613343 
L 669.126439 86.358381 
L 667.253223 86.175765 
L 665.369668 86.065994 
L 663.480936 86.029371 
L 661.592204 86.065994 
L 659.708649 86.175765 
L 657.835433 86.358381 
L 655.977691 86.613343 
L 654.140515 86.939952 
L 652.328941 87.337311 
L 650.547933 87.804334 
L 648.802374 88.339738 
L 647.097048 88.942057 
L 645.436629 89.60964 
L 643.825668 90.340656 
L 642.268581 91.133103 
L 640.769635 91.984808 
L 639.33294 92.893437 
L 637.962432 93.8565 
L 636.661869 94.871356 
L 635.434815 95.935223 
L 634.284634 97.045187 
L 633.214477 98.198205 
L 632.227279 99.391115 
L 631.325745 100.62065 
L 630.512346 101.883438 
L 629.789312 103.176018 
L 629.158624 104.494848 
L 628.622011 105.836312 
L 628.180944 107.196734 
L 627.836632 108.572385 
L 627.590019 109.959495 
L 627.44178 111.354261 
L 627.392322 112.75286 
L 627.44178 114.15146 
L 627.590019 115.546225 
L 627.836632 116.933335 
L 628.180944 118.308986 
L 628.622011 119.669408 
L 629.158624 121.010873 
L 629.789312 122.329702 
L 630.512346 123.622283 
L 631.325745 124.88507 
L 632.227279 126.114605 
L 633.214477 127.307516 
L 634.284634 128.460533 
L 635.434815 129.570497 
L 636.661869 130.634365 
L 637.962432 131.649221 
L 639.33294 132.612283 
L 640.769635 133.520912 
L 642.268581 134.372617 
L 643.825668 135.165064 
L 645.436629 135.896081 
L 647.097048 136.563664 
L 648.802374 137.165983 
L 650.547933 137.701387 
L 652.328941 138.168409 
L 654.140515 138.565769 
L 655.977691 138.892377 
L 657.835433 139.147339 
L 659.708649 139.329955 
L 661.592204 139.439726 
L 663.480936 139.47635 
L 665.369668 139.439726 
L 667.253223 139.329955 
L 669.126439 139.147339 
L 670.984181 138.892377 
L 672.821357 138.565769 
L 674.632931 138.168409 
L 676.413939 137.701387 
L 678.159498 137.165983 
L 679.864824 136.563664 
L 681.525243 135.896081 
L 683.136204 135.165064 
L 684.693291 134.372617 
L 686.192237 133.520912 
L 687.628932 132.612283 
L 688.99944 131.649221 
L 690.300003 130.634365 
L 691.527057 129.570497 
L 692.677238 128.460533 
L 693.747395 127.307516 
L 694.734593 126.114605 
L 695.636127 124.88507 
L 696.449526 123.622283 
L 697.17256 122.329702 
L 697.803248 121.010873 
L 698.339861 119.669408 
L 698.780928 118.308986 
L 699.12524 116.933335 
L 699.371853 115.546225 
L 699.520092 114.15146 
L 699.56955 112.75286 
" clip-path="url(#p4345072682)" style="fill: none; stroke-dasharray: 1.85,0.8; stroke-dashoffset: 0; stroke: #0000ff; stroke-width: 0.5"/>
   </g>
   <g id="line2d_68">
    <path d="M 698.076228 112.75286 
L 698.028817 111.412134 
L 697.886712 110.075082 
L 697.650303 108.745371 
L 697.320238 107.426643 
L 696.897422 106.122514 
L 696.383014 104.836559 
L 695.778424 103.572301 
L 695.085308 102.333207 
L 694.305567 101.122672 
L 693.441338 99.944015 
L 692.49499 98.800466 
L 691.469116 97.69516 
L 690.366528 96.631126 
L 689.190249 95.61128 
L 687.943502 94.638418 
L 686.629705 93.715207 
L 685.252459 92.844176 
L 683.815539 92.027714 
L 682.322883 91.268058 
L 680.778582 90.56729 
L 679.18687 89.927331 
L 677.552109 89.349936 
L 675.87878 88.836686 
L 674.171469 88.388989 
L 672.434857 88.008072 
L 670.673702 87.694978 
L 668.892832 87.450567 
L 667.097129 87.275507 
L 665.291514 87.170279 
L 663.480936 87.13517 
L 661.670358 87.170279 
L 659.864743 87.275507 
L 658.06904 87.450567 
L 656.28817 87.694978 
L 654.527015 88.008072 
L 652.790403 88.388989 
L 651.083092 88.836686 
L 649.409763 89.349936 
L 647.775002 89.927331 
L 646.18329 90.56729 
L 644.638989 91.268058 
L 643.146333 92.027714 
L 641.709413 92.844176 
L 640.332167 93.715207 
L 639.01837 94.638418 
L 637.771623 95.61128 
L 636.595344 96.631126 
L 635.492757 97.69516 
L 634.466882 98.800466 
L 633.520534 99.944015 
L 632.656305 101.122672 
L 631.876564 102.333207 
L 631.183448 103.572301 
L 630.578858 104.836559 
L 630.06445 106.122514 
L 629.641634 107.426643 
L 629.311569 108.745371 
L 629.07516 110.075082 
L 628.933055 111.412134 
L 628.885644 112.75286 
L 628.933055 114.093586 
L 629.07516 115.430638 
L 629.311569 116.76035 
L 629.641634 118.079077 
L 630.06445 119.383206 
L 630.578858 120.669162 
L 631.183448 121.933419 
L 631.876564 123.172513 
L 632.656305 124.383048 
L 633.520534 125.561705 
L 634.466882 126.705254 
L 635.492757 127.81056 
L 636.595344 128.874595 
L 637.771623 129.894441 
L 639.01837 130.867302 
L 640.332167 131.790514 
L 641.709413 132.661544 
L 643.146333 133.478007 
L 644.638989 134.237663 
L 646.18329 134.93843 
L 647.775002 135.578389 
L 649.409763 136.155784 
L 651.083092 136.669034 
L 652.790403 137.116731 
L 654.527015 137.497648 
L 656.28817 137.810742 
L 658.06904 138.055154 
L 659.864743 138.230214 
L 661.670358 138.335442 
L 663.480936 138.37055 
L 665.291514 138.335442 
L 667.097129 138.230214 
L 668.892832 138.055154 
L 670.673702 137.810742 
L 672.434857 137.497648 
L 674.171469 137.116731 
L 675.87878 136.669034 
L 677.552109 136.155784 
L 679.18687 135.578389 
L 680.778582 134.93843 
L 682.322883 134.237663 
L 683.815539 133.478007 
L 685.252459 132.661544 
L 686.629705 131.790514 
L 687.943502 130.867302 
L 689.190249 129.894441 
L 690.366528 128.874595 
L 691.469116 127.81056 
L 692.49499 126.705254 
L 693.441338 125.561705 
L 694.305567 124.383048 
L 695.085308 123.172513 
L 695.778424 121.933419 
L 696.383014 120.669162 
L 696.897422 119.383206 
L 697.320238 118.079077 
L 697.650303 116.76035 
L 697.886712 115.430638 
L 698.028817 114.093586 
L 698.076228 112.75286 
" clip-path="url(#p4345072682)" style="fill: none; stroke-dasharray: 1.85,0.8; stroke-dashoffset: 0; stroke: #0000ff; stroke-width: 0.5"/>
   </g>
   <g id="line2d_69">
    <path d="M 538.44156 206.142735 
L 538.552101 198.897124 
L 538.867585 192.051358 
L 539.366139 185.573325 
L 540.028653 179.434212 
L 540.838402 173.608096 
L 541.780723 168.071592 
L 542.842742 162.803558 
L 544.013142 157.784829 
L 545.281968 152.998 
L 546.64046 148.427223 
L 548.080905 144.058045 
L 549.596515 139.877253 
L 551.181324 135.87275 
L 552.83009 132.033436 
L 554.538224 128.34911 
L 556.301715 124.810384 
L 558.117073 121.408597 
L 559.981281 118.135755 
L 561.891747 114.984461 
L 563.84627 111.947866 
L 565.843002 109.019619 
L 567.880427 106.193818 
L 569.957331 103.464979 
L 572.072786 100.827996 
L 574.226131 98.27811 
L 576.416959 95.810883 
L 578.645105 93.422171 
L 580.910639 91.108101 
L 583.223907 88.870996 
L 585.632267 86.739595 
L 588.134374 84.720009 
L 590.721539 82.814078 
L 593.385046 81.023286 
L 596.116175 79.348769 
L 598.90623 77.791319 
L 601.74656 76.351381 
L 604.628587 75.029065 
L 607.543823 73.82415 
L 610.483899 72.736087 
L 613.440585 71.76401 
L 616.40581 70.906746 
L 619.371686 70.162819 
L 622.330525 69.530463 
L 625.274858 69.007632 
L 628.197459 68.592012 
L 631.091353 68.281033 
L 633.949839 68.071879 
L 636.766505 67.961502 
L 639.53524 67.94664 
L 642.250248 68.023824 
L 644.90606 68.189398 
L 647.497545 68.439531 
L 650.019923 68.770232 
L 652.468768 69.177368 
L 654.840019 69.656679 
L 657.129985 70.203791 
L 659.335353 70.814237 
L 661.453187 71.483469 
L 663.480936 72.206876 
L 665.508685 71.483469 
L 667.626519 70.814237 
L 669.831887 70.203791 
L 672.121853 69.656679 
L 674.493104 69.177368 
L 676.941949 68.770232 
L 679.464327 68.439531 
L 682.055812 68.189398 
L 684.711624 68.023824 
L 687.426632 67.94664 
L 690.195367 67.961502 
L 693.012033 68.071879 
L 695.870519 68.281033 
L 698.764413 68.592012 
L 701.687014 69.007632 
L 704.631347 69.530463 
L 707.590186 70.162819 
L 710.556062 70.906746 
L 713.521287 71.76401 
L 716.477973 72.736087 
L 719.418049 73.82415 
L 722.333285 75.029065 
L 725.215312 76.351381 
L 728.055642 77.791319 
L 730.845697 79.348769 
L 733.576826 81.023286 
L 736.240333 82.814078 
L 738.827498 84.720009 
L 741.329605 86.739595 
L 743.737966 88.870996 
L 746.051233 91.108101 
L 748.316767 93.422171 
L 750.544913 95.810883 
L 752.735741 98.27811 
L 754.889086 100.827996 
L 757.004541 103.464979 
L 759.081445 106.193818 
L 761.11887 109.019619 
L 763.115603 111.947866 
L 765.070125 114.984461 
L 766.980591 118.135755 
L 768.844799 121.408597 
L 770.660157 124.810384 
L 772.423648 128.34911 
L 774.131782 132.033436 
L 775.780548 135.87275 
L 777.365357 139.877253 
L 778.880967 144.058045 
L 780.321412 148.427223 
L 781.679904 152.998 
L 782.948731 157.784829 
L 784.11913 162.803558 
L 785.181149 168.071592 
L 786.12347 173.608096 
L 786.933219 179.434212 
L 787.595733 185.573325 
L 788.094287 192.051358 
L 788.409771 198.897124 
L 788.520312 206.142735 
" clip-path="url(#p4345072682)" style="fill: none; stroke: #ff8c00; stroke-width: 1.5; stroke-linecap: round"/>
   </g>
   <g id="line2d_70">
    <path d="M 542.301837 223.162407 
L 542.472061 213.394179 
L 542.948719 204.363225 
L 543.687062 195.992585 
L 544.649503 188.21547 
L 545.804357 180.97366 
L 547.124823 174.216193 
L 548.588172 167.89829 
L 550.175079 161.980454 
L 551.869077 156.427732 
L 553.656111 151.209082 
L 555.524174 146.296857 
L 557.462993 141.666354 
L 559.463788 137.29544 
L 561.519049 133.164233 
L 563.622366 129.254825 
L 565.768281 125.551048 
L 567.95216 122.038271 
L 570.170092 118.703225 
L 572.418797 115.533852 
L 574.695556 112.519171 
L 576.998145 109.649165 
L 579.324783 106.914681 
L 581.674088 104.30734 
L 584.045041 101.819461 
L 586.436955 99.443995 
L 588.849449 97.174464 
L 591.28243 95.004905 
L 593.736075 92.929832 
L 596.210823 90.944189 
L 598.649056 89.132166 
L 601.160678 87.445051 
L 603.734997 85.883634 
L 606.361408 84.448227 
L 609.029429 83.138674 
L 611.728734 81.954365 
L 614.449191 80.89424 
L 617.180899 79.956809 
L 619.914212 79.140162 
L 622.639781 78.44199 
L 625.348577 77.859594 
L 628.03192 77.389911 
L 630.681508 77.029529 
L 633.289442 76.774709 
L 635.848244 76.621406 
L 638.350886 76.565291 
L 640.790803 76.601774 
L 643.161912 76.726031 
L 645.458628 76.93302 
L 647.675876 77.217517 
L 649.809105 77.574131 
L 651.854291 77.997337 
L 653.807949 78.481497 
L 655.667134 79.02089 
L 657.429446 79.609733 
L 659.093029 80.242213 
L 660.656567 80.912508 
L 662.119284 81.614815 
L 663.480936 82.343372 
L 664.842588 81.614815 
L 666.305305 80.912508 
L 667.868844 80.242213 
L 669.532426 79.609733 
L 671.294738 79.02089 
L 673.153923 78.481497 
L 675.107581 77.997337 
L 677.152767 77.574131 
L 679.285996 77.217517 
L 681.503244 76.93302 
L 683.79996 76.726031 
L 686.171069 76.601774 
L 688.610986 76.565291 
L 691.113628 76.621406 
L 693.67243 76.774709 
L 696.280364 77.029529 
L 698.929952 77.389911 
L 701.613295 77.859594 
L 704.322091 78.44199 
L 707.04766 79.140162 
L 709.780973 79.956809 
L 712.512681 80.89424 
L 715.233138 81.954365 
L 717.932443 83.138674 
L 720.600464 84.448227 
L 723.226875 85.883634 
L 725.801194 87.445051 
L 728.312816 89.132166 
L 730.751049 90.944189 
L 733.225797 92.929832 
L 735.679442 95.004905 
L 738.112423 97.174464 
L 740.524917 99.443995 
L 742.916831 101.819461 
L 745.287784 104.30734 
L 747.637089 106.914681 
L 749.963727 109.649165 
L 752.266316 112.519171 
L 754.543075 115.533852 
L 756.79178 118.703225 
L 759.009712 122.038271 
L 761.193591 125.551048 
L 763.339506 129.254825 
L 765.442823 133.164233 
L 767.498084 137.29544 
L 769.498879 141.666354 
L 771.437699 146.296857 
L 773.305761 151.209082 
L 775.092795 156.427732 
L 776.786793 161.980454 
L 778.3737 167.89829 
L 779.837049 174.216193 
L 781.157515 180.97366 
L 782.312369 188.21547 
L 783.27481 195.992585 
L 784.013153 204.363225 
L 784.489811 213.394179 
L 784.660035 223.162407 
" clip-path="url(#p4345072682)" style="fill: none; stroke: #000000; stroke-width: 0.75; stroke-linecap: round"/>
   </g>
   <g id="line2d_71">
    <path d="M 543.176308 222.548867 
L 543.247387 212.904547 
L 543.63406 203.974351 
L 544.29102 195.685619 
L 545.180075 187.975013 
L 546.26893 180.787102 
L 547.530186 174.073187 
L 548.940541 167.790333 
L 550.480128 161.900552 
L 552.131975 156.370129 
L 553.881558 151.169046 
L 555.716437 146.270498 
L 557.625944 141.650485 
L 559.600934 137.287456 
L 561.633564 133.162015 
L 563.717122 129.25666 
L 565.845871 125.555565 
L 568.014926 122.044383 
L 570.220144 118.710087 
L 572.458035 115.54082 
L 574.725686 112.525773 
L 577.020698 109.655073 
L 579.341127 106.919689 
L 581.685442 104.311346 
L 584.052488 101.822452 
L 586.44145 99.446033 
L 588.85183 97.175674 
L 591.283424 95.005469 
L 593.736308 92.92998 
L 596.210823 90.944189 
L 598.649056 89.132166 
L 601.160678 87.445051 
L 603.734997 85.883634 
L 606.361408 84.448227 
L 609.029429 83.138674 
L 611.728734 81.954365 
L 614.449191 80.89424 
L 617.180899 79.956809 
L 619.914212 79.140162 
L 622.639781 78.44199 
L 625.348577 77.859594 
L 628.03192 77.389911 
L 630.681508 77.029529 
L 633.289442 76.774709 
L 635.848244 76.621406 
L 638.350886 76.565291 
L 640.790803 76.601774 
L 643.161912 76.726031 
L 645.458628 76.93302 
L 647.675876 77.217517 
L 649.809105 77.574131 
L 651.854291 77.997337 
L 653.807949 78.481497 
L 655.667134 79.02089 
L 657.429446 79.609733 
L 659.093029 80.242213 
L 660.656567 80.912508 
L 662.119284 81.614815 
L 663.480936 82.343372 
L 664.842588 81.614815 
L 666.305305 80.912508 
L 667.868844 80.242213 
L 669.532426 79.609733 
L 671.294738 79.02089 
L 673.153923 78.481497 
L 675.107581 77.997337 
L 677.152767 77.574131 
L 679.285996 77.217517 
L 681.503244 76.93302 
L 683.79996 76.726031 
L 686.171069 76.601774 
L 688.610986 76.565291 
L 691.113628 76.621406 
L 693.67243 76.774709 
L 696.280364 77.029529 
L 698.929952 77.389911 
L 701.613295 77.859594 
L 704.322091 78.44199 
L 707.04766 79.140162 
L 709.780973 79.956809 
L 712.512681 80.89424 
L 715.233138 81.954365 
L 717.932443 83.138674 
L 720.600464 84.448227 
L 723.226875 85.883634 
L 725.801194 87.445051 
L 728.312816 89.132166 
L 730.751049 90.944189 
L 733.225564 92.92998 
L 735.678448 95.005469 
L 738.110042 97.175674 
L 740.520422 99.446033 
L 742.909384 101.822452 
L 745.27643 104.311346 
L 747.620745 106.919689 
L 749.941174 109.655073 
L 752.236186 112.525773 
L 754.503837 115.54082 
L 756.741728 118.710087 
L 758.946946 122.044383 
L 761.116001 125.555565 
L 763.24475 129.25666 
L 765.328308 133.162015 
L 767.360938 137.287456 
L 769.335928 141.650485 
L 771.245435 146.270498 
L 773.080314 151.169046 
L 774.829897 156.370129 
L 776.481744 161.900552 
L 778.021331 167.790333 
L 779.431686 174.073187 
L 780.692942 180.787102 
L 781.781797 187.975013 
L 782.670852 195.685619 
L 783.327812 203.974351 
L 783.714485 212.904547 
L 783.785564 222.548867 
" clip-path="url(#p4345072682)" style="fill: none; stroke: #a52a2a; stroke-width: 0.75; stroke-linecap: round"/>
   </g>
   <g id="patch_9">
    <path d="M 475.921872 307.194399 
L 475.921872 29.420772 
" style="fill: none; stroke: #cccccc; stroke-width: 1.25; stroke-linejoin: miter; stroke-linecap: square"/>
   </g>
   <g id="patch_10">
    <path d="M 851.04 307.194399 
L 851.04 29.420772 
" style="fill: none; stroke: #cccccc; stroke-width: 1.25; stroke-linejoin: miter; stroke-linecap: square"/>
   </g>
   <g id="patch_11">
    <path d="M 475.921872 307.194399 
L 851.04 307.194399 
" style="fill: none; stroke: #cccccc; stroke-width: 1.25; stroke-linejoin: miter; stroke-linecap: square"/>
   </g>
   <g id="patch_12">
    <path d="M 475.921872 29.420772 
L 851.04 29.420772 
" style="fill: none; stroke: #cccccc; stroke-width: 1.25; stroke-linejoin: miter; stroke-linecap: square"/>
   </g>
   <g id="text_38">
    <!-- (b) Receiver view -->
    <g style="fill: #262626" transform="translate(611.225235 23.420772) scale(0.14 -0.14)">
     <defs>
      <path id="CMR17-52" d="M 2509 2146 
C 3117 2268 3629 2676 3629 3186 
C 3629 3785 2950 4326 2054 4326 
L 333 4326 
L 333 4160 
C 774 4160 845 4160 845 3873 
L 845 415 
C 845 128 774 128 333 128 
L 333 -26 
C 518 -26 851 -26 1050 -26 
C 1248 -26 1581 -26 1766 -26 
L 1766 128 
C 1325 128 1254 128 1254 417 
L 1254 2112 
L 2003 2112 
C 2368 2112 2573 1964 2662 1881 
C 2918 1632 2918 1459 2918 1024 
C 2918 595 2918 377 3110 160 
C 3354 -102 3680 -128 3821 -128 
C 4294 -128 4365 396 4365 503 
C 4365 540 4365 585 4307 585 
C 4256 585 4250 547 4250 522 
C 4218 112 4032 -26 3834 -26 
C 3482 -26 3443 375 3405 764 
C 3386 898 3373 993 3360 1133 
C 3322 1452 3270 1917 2509 2146 
z
M 1984 2214 
L 1254 2214 
L 1254 3913 
C 1254 4129 1267 4160 1523 4160 
L 1990 4160 
C 2522 4160 3142 3977 3142 3190 
C 3142 2372 2464 2214 1984 2214 
z
" transform="scale(0.015625)"/>
     </defs>
     <use xlink:href="#CMR17-28" transform="scale(0.996264)"/>
     <use xlink:href="#CMR17-62" transform="translate(35.280768 0) scale(0.996264)"/>
     <use xlink:href="#CMR17-29" transform="translate(86.176138 0) scale(0.996264)"/>
     <use xlink:href="#CMR17-52" transform="translate(151.532872 0) scale(0.996264)"/>
     <use xlink:href="#CMR17-65" transform="translate(219.323974 0) scale(0.996264)"/>
     <use xlink:href="#CMR17-63" transform="translate(259.809634 0) scale(0.996264)"/>
     <use xlink:href="#CMR17-65" transform="translate(300.295295 0) scale(0.996264)"/>
     <use xlink:href="#CMR17-69" transform="translate(340.780955 0) scale(0.996264)"/>
     <use xlink:href="#CMR17-76" transform="translate(365.652014 0) scale(0.996264)"/>
     <use xlink:href="#CMR17-65" transform="translate(411.342475 0) scale(0.996264)"/>
     <use xlink:href="#CMR17-72" transform="translate(451.828136 0) scale(0.996264)"/>
     <use xlink:href="#CMR17-76" transform="translate(517.18487 0) scale(0.996264)"/>
     <use xlink:href="#CMR17-69" transform="translate(565.477786 0) scale(0.996264)"/>
     <use xlink:href="#CMR17-65" transform="translate(590.348844 0) scale(0.996264)"/>
     <use xlink:href="#CMR17-77" transform="translate(630.834505 0) scale(0.996264)"/>
    </g>
   </g>
   <g id="legend_2">
    <g id="patch_13">
     <path d="M 530.036667 53.551667 
L 796.925205 53.551667 
Q 799.125205 53.551667 799.125205 51.351667 
L 799.125205 37.120772 
Q 799.125205 34.920772 796.925205 34.920772 
L 530.036667 34.920772 
Q 527.836667 34.920772 527.836667 37.120772 
L 527.836667 51.351667 
Q 527.836667 53.551667 530.036667 53.551667 
z
" style="fill: #ffffff; opacity: 0.8; stroke: #cccccc; stroke-linejoin: miter"/>
    </g>
    <g id="line2d_72">
     <path d="M 532.236667 43.170772 
L 543.236667 43.170772 
L 554.236667 43.170772 
" style="fill: none; stroke: #ff8c00; stroke-width: 1.5; stroke-linecap: round"/>
    </g>
    <g id="text_39">
     <!-- Men's optic \#15 -->
     <g style="fill: #262626" transform="translate(563.036667 47.020772) scale(0.11 -0.11)">
      <use xlink:href="#CMR17-4d" transform="scale(0.996264)"/>
      <use xlink:href="#CMR17-65" transform="translate(84.686941 0) scale(0.996264)"/>
      <use xlink:href="#CMR17-6e" transform="translate(125.172601 0) scale(0.996264)"/>
      <use xlink:href="#CMR17-27" transform="translate(176.067971 0) scale(0.996264)"/>
      <use xlink:href="#CMR17-73" transform="translate(200.939029 0) scale(0.996264)"/>
      <use xlink:href="#CMR17-6f" transform="translate(266.816333 0) scale(0.996264)"/>
      <use xlink:href="#CMR17-70" transform="translate(312.50681 0) scale(0.996264)"/>
      <use xlink:href="#CMR17-74" transform="translate(363.40218 0) scale(0.996264)"/>
      <use xlink:href="#CMR17-69" transform="translate(398.682948 0) scale(0.996264)"/>
      <use xlink:href="#CMR17-63" transform="translate(423.554006 0) scale(0.996264)"/>
      <use xlink:href="#CMR17-23" transform="translate(494.115633 0) scale(0.996264)"/>
      <use xlink:href="#CMR17-31" transform="translate(571.035223 0) scale(0.996264)"/>
      <use xlink:href="#CMR17-35" transform="translate(616.7257 0) scale(0.996264)"/>
     </g>
    </g>
    <g id="line2d_73">
     <path d="M 664.549772 43.170772 
L 675.549772 43.170772 
L 686.549772 43.170772 
" style="fill: none; stroke: #000000; stroke-width: 0.75; stroke-linecap: round"/>
    </g>
    <g id="text_40">
     <!-- CPC -->
     <g style="fill: #262626" transform="translate(695.349772 47.020772) scale(0.11 -0.11)">
      <use xlink:href="#CMR17-43" transform="scale(0.996264)"/>
      <use xlink:href="#CMR17-50" transform="translate(66.509881 0) scale(0.996264)"/>
      <use xlink:href="#CMR17-43" transform="translate(129.096181 0) scale(0.996264)"/>
     </g>
    </g>
    <g id="line2d_74">
     <path d="M 740.637489 43.170772 
L 751.637489 43.170772 
L 762.637489 43.170772 
" style="fill: none; stroke: #a52a2a; stroke-width: 0.75; stroke-linecap: round"/>
    </g>
    <g id="text_41">
     <!-- CEC -->
     <g style="fill: #262626" transform="translate(771.437489 47.020772) scale(0.11 -0.11)">
      <use xlink:href="#CMR17-43" transform="scale(0.996264)"/>
      <use xlink:href="#CMR17-45" transform="translate(66.509881 0) scale(0.996264)"/>
      <use xlink:href="#CMR17-43" transform="translate(129.096181 0) scale(0.996264)"/>
     </g>
    </g>
   </g>
  </g>
 </g>
 <defs>
  <clipPath id="p577b42fb97">
   <rect x="54.064673" y="29.420772" width="375.118128" height="277.773627"/>
  </clipPath>
  <clipPath id="p4345072682">
   <rect x="475.921872" y="29.420772" width="375.118128" height="277.773627"/>
  </clipPath>
 </defs>
</svg>
