<?xml version="1.0" encoding="utf-8" standalone="no"?>
<!DOCTYPE svg PUBLIC "-//W3C//DTD SVG 1.1//EN"
  "http://www.w3.org/Graphics/SVG/1.1/DTD/svg11.dtd">
<svg xmlns:xlink="http://www.w3.org/1999/xlink" width="720pt" height="432pt" viewBox="0 0 720 432" xmlns="http://www.w3.org/2000/svg" version="1.1">
 <metadata>
  <rdf:RDF xmlns:dc="http://purl.org/dc/elements/1.1/" xmlns:cc="http://creativecommons.org/ns#" xmlns:rdf="http://www.w3.org/1999/02/22-rdf-syntax-ns#">
   <cc:Work>
    <dc:type rdf:resource="http://purl.org/dc/dcmitype/StillImage"/>
    <dc:date>2024-07-08T15:47:05.811676</dc:date>
    <dc:format>image/svg+xml</dc:format>
    <dc:creator>
     <cc:Agent>
      <dc:title>Matplotlib v3.8.2, https://matplotlib.org/</dc:title>
     </cc:Agent>
    </dc:creator>
   </cc:Work>
  </rdf:RDF>
 </metadata>
 <defs>
  <style type="text/css">*{stroke-linejoin: round; stroke-linecap: butt}</style>
 </defs>
 <g id="figure_1">
  <g id="patch_1">
   <path d="M 0 432 
L 720 432 
L 720 0 
L 0 0 
z
" style="fill: #ffffff"/>
  </g>
  <g id="axes_1">
   <g id="patch_2">
    <path d="M 40.110577 204.857356 
L 367.095289 204.857356 
L 367.095289 56.328468 
L 40.110577 56.328468 
z
" style="fill: #eaeaf2"/>
   </g>
   <g id="matplotlib.axis_1"/>
   <g id="matplotlib.axis_2">
    <g id="ytick_1">
     <g id="line2d_1">
      <path d="M 40.110577 204.857356 
L 367.095289 204.857356 
" clip-path="url(#p6d71698437)" style="fill: none; stroke: #ffffff; stroke-linecap: round"/>
     </g>
    </g>
    <g id="ytick_2">
     <g id="line2d_2">
      <path d="M 40.110577 158.325749 
L 367.095289 158.325749 
" clip-path="url(#p6d71698437)" style="fill: none; stroke: #ffffff; stroke-linecap: round"/>
     </g>
    </g>
    <g id="ytick_3">
     <g id="line2d_3">
      <path d="M 40.110577 111.794143 
L 367.095289 111.794143 
" clip-path="url(#p6d71698437)" style="fill: none; stroke: #ffffff; stroke-linecap: round"/>
     </g>
    </g>
    <g id="ytick_4">
     <g id="line2d_4">
      <path d="M 40.110577 65.262537 
L 367.095289 65.262537 
" clip-path="url(#p6d71698437)" style="fill: none; stroke: #ffffff; stroke-linecap: round"/>
     </g>
    </g>
    <g id="text_1">
     <!-- $\bar{\theta}_a$ -->
     <g style="fill: #262626" transform="translate(23.898549 136.433057) rotate(-90) scale(0.14 -0.14)">
      <defs>
       <path id="CMR17-16" d="M 2554 3520 
L 2554 3666 
L 378 3666 
L 378 3520 
L 2554 3520 
z
" transform="scale(0.015625)"/>
       <path id="CMMI12-12" d="M 2835 3200 
C 2835 3850 2630 4480 2106 4480 
C 1210 4480 256 2615 256 1216 
C 256 923 320 -64 992 -64 
C 1862 -64 2835 1756 2835 3200 
z
M 896 2304 
C 992 2679 1126 3214 1382 3665 
C 1594 4047 1818 4352 2099 4352 
C 2310 4352 2451 4174 2451 3564 
C 2451 3334 2432 3017 2246 2304 
L 896 2304 
z
M 2202 2113 
C 2042 1490 1907 1088 1677 687 
C 1491 363 1267 64 998 64 
C 800 64 640 217 640 846 
C 640 1260 742 1693 845 2113 
L 2202 2113 
z
" transform="scale(0.015625)"/>
       <path id="CMMI12-61" d="M 1926 760 
C 1894 651 1894 639 1805 517 
C 1664 338 1382 64 1082 64 
C 819 64 672 300 672 677 
C 672 1028 870 1743 992 2012 
C 1210 2459 1510 2689 1760 2689 
C 2182 2689 2266 2165 2266 2114 
C 2266 2108 2246 2024 2240 2012 
L 1926 760 
z
M 2336 2395 
C 2266 2561 2093 2816 1760 2816 
C 1037 2816 256 1884 256 939 
C 256 307 627 -64 1062 -64 
C 1414 -64 1715 211 1894 422 
C 1958 45 2259 -64 2451 -64 
C 2643 -64 2797 51 2912 281 
C 3014 498 3104 888 3104 913 
C 3104 945 3078 971 3040 971 
C 2982 971 2976 939 2950 843 
C 2854 466 2733 64 2470 64 
C 2285 64 2272 230 2272 358 
C 2272 505 2291 575 2349 824 
C 2394 984 2426 1124 2477 1309 
C 2714 2267 2771 2497 2771 2535 
C 2771 2625 2701 2695 2605 2695 
C 2400 2695 2349 2472 2336 2395 
z
" transform="scale(0.015625)"/>
      </defs>
      <use xlink:href="#CMR17-16" transform="translate(9.368676 26.296621) scale(0.996264)"/>
      <use xlink:href="#CMMI12-12" transform="scale(0.996264)"/>
      <use xlink:href="#CMMI12-61" transform="translate(45.45979 -14.943915) scale(0.697382)"/>
     </g>
    </g>
   </g>
   <g id="patch_3">
    <path d="M 54.973519 204.857356 
L 117.554325 204.857356 
L 117.554325 72.242278 
L 54.973519 72.242278 
z
" clip-path="url(#p6d71698437)" style="fill: #4c72b0; stroke: #ffffff; stroke-linejoin: miter"/>
   </g>
   <g id="patch_4">
    <path d="M 133.199526 204.857356 
L 195.780332 204.857356 
L 195.780332 74.568858 
L 133.199526 74.568858 
z
" clip-path="url(#p6d71698437)" style="fill: #4c72b0; stroke: #ffffff; stroke-linejoin: miter"/>
   </g>
   <g id="patch_5">
    <path d="M 211.425534 204.857356 
L 274.00634 204.857356 
L 274.00634 81.548599 
L 211.425534 81.548599 
z
" clip-path="url(#p6d71698437)" style="fill: #4c72b0; stroke: #ffffff; stroke-linejoin: miter"/>
   </g>
   <g id="patch_6">
    <path d="M 289.651541 204.857356 
L 352.232347 204.857356 
L 352.232347 86.201759 
L 289.651541 86.201759 
z
" clip-path="url(#p6d71698437)" style="fill: #4c72b0; stroke: #ffffff; stroke-linejoin: miter"/>
   </g>
   <g id="patch_7">
    <path d="M 40.110577 204.857356 
L 40.110577 56.328468 
" style="fill: none; stroke: #ffffff; stroke-width: 1.25; stroke-linejoin: miter; stroke-linecap: square"/>
   </g>
   <g id="patch_8">
    <path d="M 367.095289 204.857356 
L 367.095289 56.328468 
" style="fill: none; stroke: #ffffff; stroke-width: 1.25; stroke-linejoin: miter; stroke-linecap: square"/>
   </g>
   <g id="patch_9">
    <path d="M 40.110577 204.857356 
L 367.095289 204.857356 
" style="fill: none; stroke: #ffffff; stroke-width: 1.25; stroke-linejoin: miter; stroke-linecap: square"/>
   </g>
   <g id="patch_10">
    <path d="M 40.110577 56.328468 
L 367.095289 56.328468 
" style="fill: none; stroke: #ffffff; stroke-width: 1.25; stroke-linejoin: miter; stroke-linecap: square"/>
   </g>
   <g id="text_2">
    <!-- 0.57$^{\circ}$ -->
    <g style="fill: #262626" transform="translate(71.615773 68.926901) scale(0.14 -0.14)">
     <defs>
      <path id="CMR17-30" d="M 2688 2025 
C 2688 2416 2682 3080 2413 3591 
C 2176 4039 1798 4198 1466 4198 
C 1158 4198 768 4058 525 3597 
C 269 3118 243 2524 243 2025 
C 243 1661 250 1106 448 619 
C 723 -39 1216 -128 1466 -128 
C 1760 -128 2208 -7 2470 600 
C 2662 1042 2688 1559 2688 2025 
z
M 1466 -26 
C 1056 -26 813 325 723 812 
C 653 1188 653 1738 653 2096 
C 653 2588 653 2997 736 3387 
C 858 3929 1216 4096 1466 4096 
C 1728 4096 2067 3923 2189 3400 
C 2272 3036 2278 2607 2278 2096 
C 2278 1680 2278 1169 2202 792 
C 2067 95 1690 -26 1466 -26 
z
" transform="scale(0.015625)"/>
      <path id="CMR17-2e" d="M 1062 261 
C 1062 420 934 522 800 522 
C 672 522 538 420 538 261 
C 538 102 666 0 800 0 
C 928 0 1062 102 1062 261 
z
" transform="scale(0.015625)"/>
      <path id="CMR17-35" d="M 730 3692 
C 794 3666 1056 3584 1325 3584 
C 1920 3584 2246 3911 2432 4100 
C 2432 4157 2432 4192 2394 4192 
C 2387 4192 2374 4192 2323 4163 
C 2099 4058 1837 3973 1517 3973 
C 1325 3973 1037 3999 723 4139 
C 653 4171 640 4171 634 4171 
C 602 4171 595 4164 595 4037 
L 595 2203 
C 595 2089 595 2057 659 2057 
C 691 2057 704 2070 736 2114 
C 941 2401 1222 2522 1542 2522 
C 1766 2522 2246 2382 2246 1289 
C 2246 1085 2246 715 2054 421 
C 1894 159 1645 25 1370 25 
C 947 25 518 320 403 814 
C 429 807 480 795 506 795 
C 589 795 749 840 749 1038 
C 749 1210 627 1280 506 1280 
C 358 1280 262 1190 262 1011 
C 262 454 704 -128 1382 -128 
C 2042 -128 2669 440 2669 1264 
C 2669 2030 2170 2624 1549 2624 
C 1222 2624 947 2503 730 2274 
L 730 3692 
z
" transform="scale(0.015625)"/>
      <path id="CMR17-37" d="M 2886 3941 
L 2886 4081 
L 1382 4081 
C 634 4081 621 4165 595 4288 
L 480 4288 
L 294 3094 
L 410 3094 
C 429 3215 474 3540 550 3661 
C 589 3712 1062 3712 1171 3712 
L 2579 3712 
L 1869 2661 
C 1395 1954 1069 999 1069 165 
C 1069 89 1069 -128 1299 -128 
C 1530 -128 1530 89 1530 171 
L 1530 465 
C 1530 1508 1709 2196 2003 2636 
L 2886 3941 
z
" transform="scale(0.015625)"/>
      <path id="CMSY10-e" d="M 2842 1600 
C 2842 2277 2272 2828 1600 2828 
C 909 2828 352 2264 352 1600 
C 352 930 909 372 1600 372 
C 2272 372 2842 923 2842 1600 
z
M 1600 628 
C 1043 628 608 1070 608 1600 
C 608 2130 1050 2572 1600 2572 
C 2131 2572 2586 2142 2586 1600 
C 2586 1058 2131 628 1600 628 
z
" transform="scale(0.015625)"/>
     </defs>
     <use xlink:href="#CMR17-30" transform="scale(0.996264)"/>
     <use xlink:href="#CMR17-2e" transform="translate(45.690477 0) scale(0.996264)"/>
     <use xlink:href="#CMR17-35" transform="translate(70.561536 0) scale(0.996264)"/>
     <use xlink:href="#CMR17-37" transform="translate(116.252013 0) scale(0.996264)"/>
     <use xlink:href="#CMSY10-e" transform="translate(161.94249 36.153639) scale(0.697382)"/>
    </g>
   </g>
   <g id="text_3">
    <!-- 0.56$^{\circ}$ -->
    <g style="fill: #262626" transform="translate(149.841781 71.311645) scale(0.14 -0.14)">
     <defs>
      <path id="CMR17-36" d="M 678 2176 
C 678 3690 1395 4032 1811 4032 
C 1946 4032 2272 4009 2400 3776 
C 2298 3776 2106 3776 2106 3553 
C 2106 3381 2246 3323 2336 3323 
C 2394 3323 2566 3348 2566 3560 
C 2566 3954 2246 4179 1805 4179 
C 1043 4179 243 3390 243 1984 
C 243 253 966 -128 1478 -128 
C 2099 -128 2688 427 2688 1283 
C 2688 2081 2170 2662 1517 2662 
C 1126 2662 838 2407 678 1960 
L 678 2176 
z
M 1478 25 
C 691 25 691 1200 691 1436 
C 691 1896 909 2560 1504 2560 
C 1613 2560 1926 2560 2138 2120 
C 2253 1870 2253 1609 2253 1289 
C 2253 944 2253 690 2118 434 
C 1978 171 1773 25 1478 25 
z
" transform="scale(0.015625)"/>
     </defs>
     <use xlink:href="#CMR17-30" transform="scale(0.996264)"/>
     <use xlink:href="#CMR17-2e" transform="translate(45.690477 0) scale(0.996264)"/>
     <use xlink:href="#CMR17-35" transform="translate(70.561536 0) scale(0.996264)"/>
     <use xlink:href="#CMR17-36" transform="translate(116.252013 0) scale(0.996264)"/>
     <use xlink:href="#CMSY10-e" transform="translate(161.94249 36.153639) scale(0.697382)"/>
    </g>
   </g>
   <g id="text_4">
    <!-- 0.53$^{\circ}$ -->
    <g style="fill: #262626" transform="translate(228.067788 78.46588) scale(0.14 -0.14)">
     <defs>
      <path id="CMR17-33" d="M 1414 2157 
C 1984 2157 2234 1662 2234 1090 
C 2234 320 1824 25 1453 25 
C 1114 25 563 194 390 693 
C 422 680 454 680 486 680 
C 640 680 755 782 755 948 
C 755 1133 614 1216 486 1216 
C 378 1216 211 1165 211 926 
C 211 335 787 -128 1466 -128 
C 2176 -128 2720 430 2720 1085 
C 2720 1707 2208 2157 1600 2227 
C 2086 2328 2554 2756 2554 3329 
C 2554 3820 2048 4179 1472 4179 
C 890 4179 378 3829 378 3329 
C 378 3110 544 3072 627 3072 
C 762 3072 877 3155 877 3321 
C 877 3486 762 3569 627 3569 
C 602 3569 570 3569 544 3557 
C 730 3959 1235 4032 1459 4032 
C 1683 4032 2106 3925 2106 3320 
C 2106 3143 2080 2828 1862 2550 
C 1670 2304 1453 2304 1242 2284 
C 1210 2284 1062 2269 1037 2269 
C 992 2263 966 2257 966 2208 
C 966 2163 973 2157 1101 2157 
L 1414 2157 
z
" transform="scale(0.015625)"/>
     </defs>
     <use xlink:href="#CMR17-30" transform="scale(0.996264)"/>
     <use xlink:href="#CMR17-2e" transform="translate(45.690477 0) scale(0.996264)"/>
     <use xlink:href="#CMR17-35" transform="translate(70.561536 0) scale(0.996264)"/>
     <use xlink:href="#CMR17-33" transform="translate(116.252013 0) scale(0.996264)"/>
     <use xlink:href="#CMSY10-e" transform="translate(161.94249 36.153639) scale(0.697382)"/>
    </g>
   </g>
   <g id="text_5">
    <!-- 0.51$^{\circ}$ -->
    <g style="fill: #262626" transform="translate(306.293796 83.23537) scale(0.14 -0.14)">
     <defs>
      <path id="CMR17-31" d="M 1702 4058 
C 1702 4192 1696 4192 1606 4192 
C 1357 3916 979 3827 621 3827 
C 602 3827 570 3827 563 3808 
C 557 3795 557 3782 557 3648 
C 755 3648 1088 3686 1344 3839 
L 1344 461 
C 1344 236 1331 160 781 160 
L 589 160 
L 589 0 
C 896 0 1216 0 1523 0 
C 1830 0 2150 0 2458 0 
L 2458 160 
L 2266 160 
C 1715 160 1702 230 1702 458 
L 1702 4058 
z
" transform="scale(0.015625)"/>
     </defs>
     <use xlink:href="#CMR17-30" transform="scale(0.996264)"/>
     <use xlink:href="#CMR17-2e" transform="translate(45.690477 0) scale(0.996264)"/>
     <use xlink:href="#CMR17-35" transform="translate(70.561536 0) scale(0.996264)"/>
     <use xlink:href="#CMR17-31" transform="translate(116.252013 0) scale(0.996264)"/>
     <use xlink:href="#CMSY10-e" transform="translate(161.94249 36.153639) scale(0.697382)"/>
    </g>
   </g>
   <g id="text_6">
    <!-- (a) NS-mounting: ES1 -->
    <g style="fill: #262626" transform="translate(136.36491 50.328468) scale(0.14 -0.14)">
     <defs>
      <path id="CMR17-28" d="M 1958 -1561 
C 1958 -1555 1958 -1542 1939 -1523 
C 1645 -1224 858 -407 858 1581 
C 858 3569 1632 4379 1946 4697 
C 1946 4704 1958 4717 1958 4736 
C 1958 4755 1939 4768 1914 4768 
C 1843 4768 1299 4296 986 3594 
C 666 2887 576 2199 576 1588 
C 576 1128 621 351 1005 -471 
C 1312 -1135 1837 -1600 1914 -1600 
C 1946 -1600 1958 -1587 1958 -1561 
z
" transform="scale(0.015625)"/>
      <path id="CMR17-61" d="M 2304 1653 
C 2304 2072 2304 2294 2035 2543 
C 1798 2752 1523 2816 1306 2816 
C 800 2816 435 2407 435 1971 
C 435 1728 627 1728 666 1728 
C 749 1728 896 1778 896 1954 
C 896 2112 774 2181 666 2181 
C 640 2181 608 2174 589 2168 
C 723 2592 1069 2714 1293 2714 
C 1613 2714 1965 2429 1965 1885 
L 1965 1600 
C 1587 1600 1133 1549 774 1357 
C 371 1133 256 813 256 570 
C 256 77 832 -64 1171 -64 
C 1523 -64 1850 139 1990 511 
C 2003 233 2182 -18 2464 -18 
C 2598 -18 2938 70 2938 567 
L 2938 920 
L 2822 920 
L 2822 562 
C 2822 178 2650 128 2566 128 
C 2304 128 2304 458 2304 738 
L 2304 1653 
z
M 1965 870 
C 1965 317 1568 38 1216 38 
C 896 38 646 275 646 570 
C 646 761 730 1100 1101 1305 
C 1408 1478 1760 1504 1965 1504 
L 1965 870 
z
" transform="scale(0.015625)"/>
      <path id="CMR17-29" d="M 1683 1581 
C 1683 2040 1638 2817 1254 3639 
C 947 4303 422 4768 346 4768 
C 326 4768 301 4761 301 4729 
C 301 4717 307 4710 314 4697 
C 621 4378 1402 3568 1402 1584 
C 1402 -407 627 -1217 314 -1537 
C 307 -1549 301 -1556 301 -1568 
C 301 -1600 326 -1600 346 -1600 
C 416 -1600 960 -1128 1274 -426 
C 1594 281 1683 969 1683 1581 
z
" transform="scale(0.015625)"/>
      <path id="CMR17-4e" d="M 1312 4250 
C 1267 4320 1261 4320 1139 4320 
L 326 4320 
L 326 4160 
L 448 4160 
C 704 4160 819 4129 838 4122 
L 838 610 
C 838 451 838 153 326 153 
L 326 -13 
C 474 0 742 0 902 0 
C 1062 0 1331 0 1478 -13 
L 1478 153 
C 966 153 966 451 966 610 
L 966 4033 
C 1011 3995 1011 3982 1056 3919 
L 3430 76 
C 3475 0 3494 0 3526 0 
C 3590 0 3590 19 3590 139 
L 3590 3705 
C 3590 3863 3590 4160 4102 4160 
L 4102 4326 
C 3955 4320 3686 4320 3526 4320 
C 3366 4320 3098 4320 2950 4326 
L 2950 4160 
C 3462 4160 3462 3862 3462 3703 
L 3462 763 
L 1312 4250 
z
" transform="scale(0.015625)"/>
      <path id="CMR17-53" d="M 2803 4290 
C 2803 4404 2797 4411 2758 4411 
C 2720 4411 2707 4385 2682 4328 
L 2490 3907 
C 2246 4257 1875 4416 1472 4416 
C 819 4416 294 3901 294 3253 
C 294 3056 339 2776 557 2510 
C 794 2218 1018 2167 1530 2033 
C 1722 1982 2042 1899 2106 1874 
C 2470 1722 2662 1341 2662 985 
C 2662 527 2336 38 1779 38 
C 1094 38 454 419 410 1311 
C 403 1413 397 1419 352 1419 
C 301 1419 294 1413 294 1285 
L 294 -1 
C 294 -115 301 -122 339 -122 
C 384 -122 397 -90 486 108 
C 493 127 493 140 614 381 
C 934 -39 1472 -128 1779 -128 
C 2477 -128 2970 451 2970 1124 
C 2970 1454 2848 1708 2778 1823 
C 2509 2230 2221 2306 1914 2382 
C 1869 2402 1856 2402 1498 2490 
C 1152 2579 1005 2624 845 2796 
C 666 2992 602 3196 602 3399 
C 602 3812 934 4263 1478 4263 
C 2157 4263 2579 3786 2675 2993 
C 2694 2878 2701 2872 2746 2872 
C 2803 2872 2803 2891 2803 2999 
L 2803 4290 
z
" transform="scale(0.015625)"/>
      <path id="CMR17-2d" d="M 1632 1216 
L 1632 1496 
L 26 1496 
L 26 1216 
L 1632 1216 
z
" transform="scale(0.015625)"/>
      <path id="CMR17-6d" d="M 4326 1933 
C 4326 2252 4269 2790 3507 2790 
C 3072 2790 2771 2496 2656 2151 
L 2650 2151 
C 2573 2676 2195 2790 1837 2790 
C 1331 2790 1069 2400 973 2144 
L 966 2144 
L 966 2790 
L 211 2720 
L 211 2554 
C 589 2554 646 2515 646 2208 
L 646 428 
C 646 184 621 153 211 153 
L 211 -13 
C 365 0 646 0 813 0 
C 979 0 1267 0 1421 -13 
L 1421 153 
C 1011 153 986 178 986 428 
L 986 1658 
C 986 2247 1344 2688 1792 2688 
C 2266 2688 2317 2266 2317 1958 
L 2317 428 
C 2317 184 2291 153 1882 153 
L 1882 -13 
C 2035 0 2317 0 2483 0 
C 2650 0 2938 0 3091 -13 
L 3091 153 
C 2682 153 2656 178 2656 428 
L 2656 1658 
C 2656 2247 3014 2688 3462 2688 
C 3936 2688 3987 2266 3987 1958 
L 3987 428 
C 3987 184 3962 153 3552 153 
L 3552 -13 
C 3706 0 3987 0 4154 0 
C 4320 0 4608 0 4762 -13 
L 4762 153 
C 4352 153 4326 178 4326 428 
L 4326 1933 
z
" transform="scale(0.015625)"/>
      <path id="CMR17-6f" d="M 2758 1356 
C 2758 2176 2163 2816 1466 2816 
C 768 2816 173 2176 173 1356 
C 173 551 768 -64 1466 -64 
C 2163 -64 2758 551 2758 1356 
z
M 1466 51 
C 1165 51 909 230 762 480 
C 602 767 582 1126 582 1408 
C 582 1677 595 2010 762 2298 
C 890 2509 1139 2714 1466 2714 
C 1754 2714 1997 2554 2150 2330 
C 2349 2029 2349 1607 2349 1408 
C 2349 1158 2336 775 2163 467 
C 1984 173 1709 51 1466 51 
z
" transform="scale(0.015625)"/>
      <path id="CMR17-75" d="M 1882 2693 
L 1882 2528 
C 2259 2528 2317 2489 2317 2186 
L 2317 1032 
C 2317 500 2029 38 1555 38 
C 1030 38 986 348 986 678 
L 986 2763 
L 211 2693 
L 211 2528 
C 467 2528 640 2528 646 2274 
L 646 1058 
C 646 633 646 361 813 183 
C 896 101 1056 -64 1517 -64 
C 2061 -64 2272 377 2323 506 
L 2330 506 
L 2330 -63 
L 3091 -63 
L 3091 128 
C 2714 128 2656 166 2656 473 
L 2656 2763 
L 1882 2693 
z
" transform="scale(0.015625)"/>
      <path id="CMR17-6e" d="M 2656 1933 
C 2656 2259 2592 2790 1837 2790 
C 1331 2790 1069 2400 973 2144 
L 966 2144 
L 966 2790 
L 211 2720 
L 211 2554 
C 589 2554 646 2515 646 2208 
L 646 428 
C 646 184 621 153 211 153 
L 211 -13 
C 365 0 646 0 813 0 
C 979 0 1267 0 1421 -13 
L 1421 153 
C 1011 153 986 178 986 428 
L 986 1658 
C 986 2247 1344 2688 1792 2688 
C 2266 2688 2317 2266 2317 1958 
L 2317 428 
C 2317 184 2291 153 1882 153 
L 1882 -13 
C 2035 0 2317 0 2483 0 
C 2650 0 2938 0 3091 -13 
L 3091 153 
C 2682 153 2656 178 2656 428 
L 2656 1933 
z
" transform="scale(0.015625)"/>
      <path id="CMR17-74" d="M 966 2560 
L 1862 2560 
L 1862 2725 
L 966 2725 
L 966 3904 
L 851 3904 
C 838 3245 614 2668 70 2668 
L 70 2560 
L 627 2560 
L 627 771 
C 627 650 627 -64 1370 -64 
C 1747 -64 1965 306 1965 777 
L 1965 1140 
L 1850 1140 
L 1850 783 
C 1850 344 1677 51 1408 51 
C 1222 51 966 178 966 758 
L 966 2560 
z
" transform="scale(0.015625)"/>
      <path id="CMR17-69" d="M 992 3909 
C 992 4049 877 4170 730 4170 
C 589 4170 467 4056 467 3909 
C 467 3769 582 3648 730 3648 
C 870 3648 992 3763 992 3909 
z
M 243 2706 
L 243 2541 
C 602 2541 653 2502 653 2197 
L 653 427 
C 653 184 627 153 218 153 
L 218 -13 
C 371 0 646 0 806 0 
C 960 0 1222 0 1370 -13 
L 1370 153 
C 992 153 979 191 979 420 
L 979 2776 
L 243 2706 
z
" transform="scale(0.015625)"/>
      <path id="CMR17-67" d="M 710 1164 
C 832 1068 1043 960 1299 960 
C 1805 960 2240 1357 2240 1888 
C 2240 2054 2189 2310 1997 2509 
C 2176 2692 2438 2752 2586 2752 
C 2611 2752 2650 2752 2682 2734 
C 2656 2728 2598 2703 2598 2605 
C 2598 2527 2656 2471 2739 2471 
C 2835 2471 2886 2533 2886 2614 
C 2886 2731 2790 2854 2586 2854 
C 2330 2854 2106 2738 1926 2580 
C 1734 2753 1504 2816 1299 2816 
C 794 2816 358 2419 358 1888 
C 358 1522 570 1292 634 1228 
C 442 1004 442 743 442 711 
C 442 545 506 302 723 168 
C 390 85 128 -169 128 -486 
C 128 -943 736 -1280 1466 -1280 
C 2170 -1280 2803 -956 2803 -479 
C 2803 384 1856 384 1363 384 
C 1216 384 954 384 922 391 
C 723 423 589 602 589 826 
C 589 883 589 1024 710 1164 
z
M 1299 1068 
C 736 1068 736 1760 736 1889 
C 736 2016 736 2708 1299 2708 
C 1862 2708 1862 2016 1862 1889 
C 1862 1760 1862 1068 1299 1068 
z
M 1466 -1171 
C 826 -1171 384 -835 384 -486 
C 384 -289 493 -105 634 -4 
C 794 104 858 104 1293 104 
C 1818 104 2547 104 2547 -486 
C 2547 -835 2106 -1171 1466 -1171 
z
" transform="scale(0.015625)"/>
      <path id="CMR17-3a" d="M 1062 2491 
C 1062 2650 934 2752 800 2752 
C 672 2752 538 2650 538 2491 
C 538 2332 666 2230 800 2230 
C 928 2230 1062 2332 1062 2491 
z
M 1062 261 
C 1062 420 934 522 800 522 
C 672 522 538 420 538 261 
C 538 102 666 0 800 0 
C 928 0 1062 102 1062 261 
z
" transform="scale(0.015625)"/>
      <path id="CMR17-45" d="M 3885 1615 
L 3770 1615 
C 3629 676 3546 166 2419 166 
L 1530 166 
C 1274 166 1261 197 1261 414 
L 1261 2176 
L 1862 2176 
C 2464 2176 2522 1960 2522 1430 
L 2637 1430 
L 2637 3081 
L 2522 3081 
C 2522 2557 2464 2342 1862 2342 
L 1261 2342 
L 1261 3913 
C 1261 4128 1274 4160 1530 4160 
L 2406 4160 
C 3398 4160 3514 3769 3603 2929 
L 3718 2929 
L 3565 4325 
L 326 4325 
L 326 4160 
C 768 4160 838 4160 838 3874 
L 838 451 
C 838 166 768 166 326 166 
L 326 0 
L 3654 0 
L 3885 1615 
z
" transform="scale(0.015625)"/>
     </defs>
     <use xlink:href="#CMR17-28" transform="scale(0.996264)"/>
     <use xlink:href="#CMR17-61" transform="translate(35.280768 0) scale(0.996264)"/>
     <use xlink:href="#CMR17-29" transform="translate(80.971245 0) scale(0.996264)"/>
     <use xlink:href="#CMR17-4e" transform="translate(146.327979 0) scale(0.996264)"/>
     <use xlink:href="#CMR17-53" transform="translate(215.400409 0) scale(0.996264)"/>
     <use xlink:href="#CMR17-2d" transform="translate(266.295779 0) scale(0.996264)"/>
     <use xlink:href="#CMR17-6d" transform="translate(296.371745 0) scale(0.996264)"/>
     <use xlink:href="#CMR17-6f" transform="translate(373.291335 0) scale(0.996264)"/>
     <use xlink:href="#CMR17-75" transform="translate(418.981812 0) scale(0.996264)"/>
     <use xlink:href="#CMR17-6e" transform="translate(469.877182 0) scale(0.996264)"/>
     <use xlink:href="#CMR17-74" transform="translate(518.170098 0) scale(0.996264)"/>
     <use xlink:href="#CMR17-69" transform="translate(553.450865 0) scale(0.996264)"/>
     <use xlink:href="#CMR17-6e" transform="translate(578.321924 0) scale(0.996264)"/>
     <use xlink:href="#CMR17-67" transform="translate(629.217294 0) scale(0.996264)"/>
     <use xlink:href="#CMR17-3a" transform="translate(674.907771 0) scale(0.996264)"/>
     <use xlink:href="#CMR17-45" transform="translate(740.26449 0) scale(0.996264)"/>
     <use xlink:href="#CMR17-53" transform="translate(802.85079 0) scale(0.996264)"/>
     <use xlink:href="#CMR17-31" transform="translate(853.74616 0) scale(0.996264)"/>
    </g>
   </g>
  </g>
  <g id="axes_2">
   <g id="patch_11">
    <path d="M 380.055289 204.857356 
L 707.04 204.857356 
L 707.04 56.328468 
L 380.055289 56.328468 
z
" style="fill: #eaeaf2"/>
   </g>
   <g id="matplotlib.axis_3"/>
   <g id="matplotlib.axis_4">
    <g id="ytick_5">
     <g id="line2d_5">
      <path d="M 380.055289 204.857356 
L 707.04 204.857356 
" clip-path="url(#p3431d705f6)" style="fill: none; stroke: #ffffff; stroke-linecap: round"/>
     </g>
    </g>
    <g id="ytick_6">
     <g id="line2d_6">
      <path d="M 380.055289 159.128018 
L 707.04 159.128018 
" clip-path="url(#p3431d705f6)" style="fill: none; stroke: #ffffff; stroke-linecap: round"/>
     </g>
    </g>
    <g id="ytick_7">
     <g id="line2d_7">
      <path d="M 380.055289 113.398681 
L 707.04 113.398681 
" clip-path="url(#p3431d705f6)" style="fill: none; stroke: #ffffff; stroke-linecap: round"/>
     </g>
    </g>
    <g id="ytick_8">
     <g id="line2d_8">
      <path d="M 380.055289 67.669344 
L 707.04 67.669344 
" clip-path="url(#p3431d705f6)" style="fill: none; stroke: #ffffff; stroke-linecap: round"/>
     </g>
    </g>
   </g>
   <g id="patch_12">
    <path d="M 394.91823 204.857356 
L 457.499036 204.857356 
L 457.499036 72.242278 
L 394.91823 72.242278 
z
" clip-path="url(#p3431d705f6)" style="fill: #4c72b0; stroke: #ffffff; stroke-linejoin: miter"/>
   </g>
   <g id="patch_13">
    <path d="M 473.144238 204.857356 
L 535.725044 204.857356 
L 535.725044 74.528744 
L 473.144238 74.528744 
z
" clip-path="url(#p3431d705f6)" style="fill: #4c72b0; stroke: #ffffff; stroke-linejoin: miter"/>
   </g>
   <g id="patch_14">
    <path d="M 551.370245 204.857356 
L 613.951051 204.857356 
L 613.951051 83.674612 
L 551.370245 83.674612 
z
" clip-path="url(#p3431d705f6)" style="fill: #4c72b0; stroke: #ffffff; stroke-linejoin: miter"/>
   </g>
   <g id="patch_15">
    <path d="M 629.596253 204.857356 
L 692.177059 204.857356 
L 692.177059 90.534012 
L 629.596253 90.534012 
z
" clip-path="url(#p3431d705f6)" style="fill: #4c72b0; stroke: #ffffff; stroke-linejoin: miter"/>
   </g>
   <g id="patch_16">
    <path d="M 380.055289 204.857356 
L 380.055289 56.328468 
" style="fill: none; stroke: #ffffff; stroke-width: 1.25; stroke-linejoin: miter; stroke-linecap: square"/>
   </g>
   <g id="patch_17">
    <path d="M 707.04 204.857356 
L 707.04 56.328468 
" style="fill: none; stroke: #ffffff; stroke-width: 1.25; stroke-linejoin: miter; stroke-linecap: square"/>
   </g>
   <g id="patch_18">
    <path d="M 380.055289 204.857356 
L 707.04 204.857356 
" style="fill: none; stroke: #ffffff; stroke-width: 1.25; stroke-linejoin: miter; stroke-linecap: square"/>
   </g>
   <g id="patch_19">
    <path d="M 380.055289 56.328468 
L 707.04 56.328468 
" style="fill: none; stroke: #ffffff; stroke-width: 1.25; stroke-linejoin: miter; stroke-linecap: square"/>
   </g>
   <g id="text_7">
    <!-- 0.58$^{\circ}$ -->
    <g style="fill: #262626" transform="translate(411.560484 68.926901) scale(0.14 -0.14)">
     <defs>
      <path id="CMR17-38" d="M 1741 2264 
C 2144 2467 2554 2773 2554 3263 
C 2554 3841 1990 4179 1472 4179 
C 890 4179 378 3759 378 3180 
C 378 3021 416 2747 666 2505 
C 730 2442 998 2251 1171 2130 
C 883 1983 211 1634 211 934 
C 211 279 838 -128 1459 -128 
C 2144 -128 2720 362 2720 1010 
C 2720 1590 2330 1857 2074 2029 
L 1741 2264 
z
M 902 2822 
C 851 2854 595 3051 595 3351 
C 595 3739 998 4032 1459 4032 
C 1965 4032 2336 3676 2336 3262 
C 2336 2669 1670 2331 1638 2331 
C 1632 2331 1626 2331 1574 2370 
L 902 2822 
z
M 2080 1519 
C 2176 1449 2483 1240 2483 851 
C 2483 381 2010 25 1472 25 
C 890 25 448 438 448 940 
C 448 1443 838 1862 1280 2060 
L 2080 1519 
z
" transform="scale(0.015625)"/>
     </defs>
     <use xlink:href="#CMR17-30" transform="scale(0.996264)"/>
     <use xlink:href="#CMR17-2e" transform="translate(45.690477 0) scale(0.996264)"/>
     <use xlink:href="#CMR17-35" transform="translate(70.561536 0) scale(0.996264)"/>
     <use xlink:href="#CMR17-38" transform="translate(116.252013 0) scale(0.996264)"/>
     <use xlink:href="#CMSY10-e" transform="translate(161.94249 36.153639) scale(0.697382)"/>
    </g>
   </g>
   <g id="text_8">
    <!-- 0.57$^{\circ}$ -->
    <g style="fill: #262626" transform="translate(489.786492 71.270529) scale(0.14 -0.14)">
     <use xlink:href="#CMR17-30" transform="scale(0.996264)"/>
     <use xlink:href="#CMR17-2e" transform="translate(45.690477 0) scale(0.996264)"/>
     <use xlink:href="#CMR17-35" transform="translate(70.561536 0) scale(0.996264)"/>
     <use xlink:href="#CMR17-37" transform="translate(116.252013 0) scale(0.996264)"/>
     <use xlink:href="#CMSY10-e" transform="translate(161.94249 36.153639) scale(0.697382)"/>
    </g>
   </g>
   <g id="text_9">
    <!-- 0.53$^{\circ}$ -->
    <g style="fill: #262626" transform="translate(568.012499 80.645043) scale(0.14 -0.14)">
     <use xlink:href="#CMR17-30" transform="scale(0.996264)"/>
     <use xlink:href="#CMR17-2e" transform="translate(45.690477 0) scale(0.996264)"/>
     <use xlink:href="#CMR17-35" transform="translate(70.561536 0) scale(0.996264)"/>
     <use xlink:href="#CMR17-33" transform="translate(116.252013 0) scale(0.996264)"/>
     <use xlink:href="#CMSY10-e" transform="translate(161.94249 36.153639) scale(0.697382)"/>
    </g>
   </g>
   <g id="text_10">
    <!-- 0.5$^{\circ}$ -->
    <g style="fill: #262626" transform="translate(649.652751 87.675929) scale(0.14 -0.14)">
     <use xlink:href="#CMR17-30" transform="scale(0.996264)"/>
     <use xlink:href="#CMR17-2e" transform="translate(45.690477 0) scale(0.996264)"/>
     <use xlink:href="#CMR17-35" transform="translate(70.561536 0) scale(0.996264)"/>
     <use xlink:href="#CMSY10-e" transform="translate(116.252013 36.153639) scale(0.697382)"/>
    </g>
   </g>
   <g id="text_11">
    <!-- (b) EW-mounting: ES1 -->
    <g style="fill: #262626" transform="translate(473.181102 50.328468) scale(0.14 -0.14)">
     <defs>
      <path id="CMR17-62" d="M 960 4396 
L 198 4326 
L 198 4160 
C 576 4160 634 4122 634 3817 
L 634 -13 
L 749 -13 
L 934 441 
C 1120 141 1395 -64 1766 -64 
C 2406 -64 3053 500 3053 1370 
C 3053 2188 2477 2790 1830 2790 
C 1434 2790 1152 2579 960 2330 
L 960 4396 
z
M 973 2004 
C 973 2118 973 2138 1062 2272 
C 1312 2657 1670 2688 1792 2688 
C 1984 2688 2643 2585 2643 1376 
C 2643 108 1888 38 1734 38 
C 1536 38 1248 114 1043 486 
C 973 608 973 621 973 735 
L 973 2004 
z
" transform="scale(0.015625)"/>
      <path id="CMR17-57" d="M 5523 3764 
C 5581 3936 5677 4160 6048 4160 
L 6048 4326 
C 5939 4326 5715 4326 5600 4326 
C 5440 4326 5158 4326 5005 4332 
L 5005 4160 
C 5293 4160 5414 4000 5414 3847 
C 5414 3802 5408 3777 5382 3707 
L 4390 555 
L 3347 3873 
C 3328 3937 3322 3963 3322 3988 
C 3322 4160 3603 4160 3725 4160 
L 3725 4326 
C 3539 4326 3219 4326 3021 4326 
C 2861 4326 2573 4326 2426 4332 
L 2426 4160 
C 2720 4160 2797 4141 2861 4027 
C 2886 3969 2989 3638 2989 3619 
C 2989 3593 2976 3555 2970 3536 
L 2029 561 
L 986 3867 
C 954 3957 954 3969 954 3982 
C 954 4160 1235 4160 1363 4160 
L 1363 4326 
C 1178 4326 858 4326 659 4326 
C 493 4326 211 4326 58 4332 
L 58 4160 
C 442 4160 467 4122 531 3918 
L 1779 -20 
C 1811 -115 1811 -128 1869 -128 
C 1920 -128 1939 -115 1965 -26 
L 3053 3433 
L 4141 -26 
C 4166 -115 4186 -128 4237 -128 
C 4294 -128 4294 -115 4326 -20 
L 5523 3764 
z
" transform="scale(0.015625)"/>
     </defs>
     <use xlink:href="#CMR17-28" transform="scale(0.996264)"/>
     <use xlink:href="#CMR17-62" transform="translate(35.280768 0) scale(0.996264)"/>
     <use xlink:href="#CMR17-29" transform="translate(86.176138 0) scale(0.996264)"/>
     <use xlink:href="#CMR17-45" transform="translate(151.532872 0) scale(0.996264)"/>
     <use xlink:href="#CMR17-57" transform="translate(214.119172 0) scale(0.996264)"/>
     <use xlink:href="#CMR17-2d" transform="translate(309.215822 0) scale(0.996264)"/>
     <use xlink:href="#CMR17-6d" transform="translate(339.291788 0) scale(0.996264)"/>
     <use xlink:href="#CMR17-6f" transform="translate(416.211378 0) scale(0.996264)"/>
     <use xlink:href="#CMR17-75" transform="translate(461.901855 0) scale(0.996264)"/>
     <use xlink:href="#CMR17-6e" transform="translate(512.797225 0) scale(0.996264)"/>
     <use xlink:href="#CMR17-74" transform="translate(561.090141 0) scale(0.996264)"/>
     <use xlink:href="#CMR17-69" transform="translate(596.370909 0) scale(0.996264)"/>
     <use xlink:href="#CMR17-6e" transform="translate(621.241967 0) scale(0.996264)"/>
     <use xlink:href="#CMR17-67" transform="translate(672.137337 0) scale(0.996264)"/>
     <use xlink:href="#CMR17-3a" transform="translate(717.827814 0) scale(0.996264)"/>
     <use xlink:href="#CMR17-45" transform="translate(783.184533 0) scale(0.996264)"/>
     <use xlink:href="#CMR17-53" transform="translate(845.770834 0) scale(0.996264)"/>
     <use xlink:href="#CMR17-31" transform="translate(896.666204 0) scale(0.996264)"/>
    </g>
   </g>
  </g>
  <g id="axes_3">
   <g id="patch_20">
    <path d="M 40.110577 382.807015 
L 367.095289 382.807015 
L 367.095289 234.278128 
L 40.110577 234.278128 
z
" style="fill: #eaeaf2"/>
   </g>
   <g id="matplotlib.axis_5">
    <g id="xtick_1">
     <g id="line2d_9">
      <path d="M 86.263922 382.807015 
L 86.263922 234.278128 
" clip-path="url(#p97154efdcf)" style="fill: none; stroke: #ffffff; stroke-linecap: round"/>
     </g>
     <g id="text_12">
      <!-- Sun -->
      <g style="fill: #262626" transform="translate(74.883107 401.992892) scale(0.14 -0.14)">
       <use xlink:href="#CMR17-53" transform="scale(0.996264)"/>
       <use xlink:href="#CMR17-75" transform="translate(50.89537 0) scale(0.996264)"/>
       <use xlink:href="#CMR17-6e" transform="translate(101.79074 0) scale(0.996264)"/>
      </g>
      <!-- reference -->
      <g style="fill: #262626" transform="translate(59.898368 416.327972) scale(0.14 -0.14)">
       <defs>
        <path id="CMR17-72" d="M 960 1497 
C 960 2112 1222 2688 1702 2688 
C 1747 2688 1792 2682 1837 2662 
C 1837 2662 1696 2617 1696 2452 
C 1696 2298 1818 2234 1914 2234 
C 1990 2234 2131 2279 2131 2458 
C 2131 2663 1926 2790 1709 2790 
C 1222 2790 1011 2317 947 2093 
L 941 2093 
L 941 2790 
L 198 2720 
L 198 2554 
C 576 2554 634 2515 634 2208 
L 634 428 
C 634 184 608 153 198 153 
L 198 -13 
C 352 0 646 0 813 0 
C 998 0 1325 0 1498 -13 
L 1498 153 
C 1037 153 960 153 960 440 
L 960 1497 
z
" transform="scale(0.015625)"/>
        <path id="CMR17-65" d="M 2438 1472 
C 2464 1498 2464 1511 2464 1576 
C 2464 2238 2118 2816 1389 2816 
C 710 2816 173 2169 173 1383 
C 173 551 781 -64 1459 -64 
C 2176 -64 2458 607 2458 740 
C 2458 784 2419 784 2406 784 
C 2362 784 2355 771 2330 696 
C 2189 265 1837 51 1504 51 
C 1229 51 954 203 781 480 
C 582 803 582 1176 582 1472 
L 2438 1472 
z
M 589 1568 
C 634 2505 1126 2714 1382 2714 
C 1818 2714 2112 2297 2118 1568 
L 589 1568 
z
" transform="scale(0.015625)"/>
        <path id="CMR17-66" d="M 979 2560 
L 1709 2560 
L 1709 2725 
L 966 2725 
L 966 3494 
C 966 4022 1235 4352 1510 4352 
C 1594 4352 1690 4327 1754 4282 
C 1702 4269 1568 4225 1568 4067 
C 1568 3901 1696 3850 1786 3850 
C 1875 3850 2003 3901 2003 4067 
C 2003 4308 1773 4454 1517 4454 
C 1152 4454 653 4156 653 3481 
L 653 2725 
L 141 2725 
L 141 2560 
L 653 2560 
L 653 427 
C 653 184 627 153 218 153 
L 218 -13 
C 371 0 666 0 832 0 
C 1018 0 1344 0 1517 -13 
L 1517 153 
C 1056 153 979 153 979 439 
L 979 2560 
z
" transform="scale(0.015625)"/>
        <path id="CMR17-63" d="M 2234 2240 
C 2112 2240 1933 2240 1933 2017 
C 1933 1838 2080 1787 2163 1787 
C 2208 1787 2394 1807 2394 2024 
C 2394 2467 1958 2803 1466 2803 
C 787 2803 211 2178 211 1363 
C 211 516 813 -64 1466 -64 
C 2259 -64 2458 677 2458 748 
C 2458 774 2451 793 2406 793 
C 2362 793 2355 787 2330 703 
C 2163 180 1798 51 1523 51 
C 1114 51 621 427 621 1369 
C 621 2338 1094 2688 1472 2688 
C 1722 2688 2093 2573 2234 2240 
z
" transform="scale(0.015625)"/>
       </defs>
       <use xlink:href="#CMR17-72" transform="scale(0.996264)"/>
       <use xlink:href="#CMR17-65" transform="translate(35.280768 0) scale(0.996264)"/>
       <use xlink:href="#CMR17-66" transform="translate(75.766428 0) scale(0.996264)"/>
       <use xlink:href="#CMR17-65" transform="translate(103.239941 0) scale(0.996264)"/>
       <use xlink:href="#CMR17-72" transform="translate(143.725601 0) scale(0.996264)"/>
       <use xlink:href="#CMR17-65" transform="translate(179.006369 0) scale(0.996264)"/>
       <use xlink:href="#CMR17-6e" transform="translate(219.492029 0) scale(0.996264)"/>
       <use xlink:href="#CMR17-63" transform="translate(270.387399 0) scale(0.996264)"/>
       <use xlink:href="#CMR17-65" transform="translate(310.87306 0) scale(0.996264)"/>
      </g>
     </g>
    </g>
    <g id="xtick_2">
     <g id="line2d_10">
      <path d="M 164.489929 382.807015 
L 164.489929 234.278128 
" clip-path="url(#p97154efdcf)" style="fill: none; stroke: #ffffff; stroke-linecap: round"/>
     </g>
     <g id="text_13">
      <!-- Specific -->
      <g style="fill: #262626" transform="translate(141.917981 401.992892) scale(0.14 -0.14)">
       <defs>
        <path id="CMR17-70" d="M 1408 -1063 
C 998 -1063 973 -1037 973 -789 
L 973 402 
C 1158 134 1427 -38 1766 -38 
C 2406 -38 3053 523 3053 1388 
C 3053 2191 2496 2802 1837 2802 
C 1453 2802 1139 2592 960 2338 
L 960 2802 
L 198 2732 
L 198 2567 
C 576 2567 634 2528 634 2223 
L 634 -789 
C 634 -1031 608 -1063 198 -1063 
L 198 -1228 
C 352 -1216 634 -1216 800 -1216 
C 966 -1216 1254 -1216 1408 -1228 
L 1408 -1063 
z
M 973 2012 
C 973 2102 973 2235 1222 2471 
C 1254 2497 1472 2688 1792 2688 
C 2259 2688 2643 2108 2643 1382 
C 2643 656 2234 64 1728 64 
C 1498 64 1248 172 1056 472 
C 973 612 973 650 973 752 
L 973 2012 
z
" transform="scale(0.015625)"/>
        <path id="CMR17-c" d="M 2554 2764 
C 2400 2764 1926 2764 1805 2739 
C 1766 2725 1754 2725 1677 2725 
L 947 2725 
L 947 3469 
C 947 4073 1434 4352 1818 4352 
C 1939 4352 2214 4320 2355 4101 
C 2291 4101 2086 4101 2086 3878 
C 2086 3725 2189 3648 2317 3648 
C 2432 3648 2547 3712 2547 3885 
C 2547 4205 2240 4454 1843 4454 
C 1338 4454 634 4168 634 3469 
L 634 2725 
L 122 2725 
L 122 2560 
L 634 2560 
L 634 427 
C 634 184 608 153 198 153 
L 198 -13 
C 352 0 634 0 794 0 
C 960 0 1242 0 1395 -13 
L 1395 153 
C 986 153 960 178 960 427 
L 960 2560 
L 1901 2560 
C 2176 2560 2227 2502 2227 2222 
L 2227 427 
C 2227 184 2202 153 1792 153 
L 1792 -13 
C 1946 0 2227 0 2387 0 
C 2554 0 2835 0 2989 -13 
L 2989 153 
C 2579 153 2554 178 2554 427 
L 2554 2764 
z
" transform="scale(0.015625)"/>
       </defs>
       <use xlink:href="#CMR17-53" transform="scale(0.996264)"/>
       <use xlink:href="#CMR17-70" transform="translate(50.89537 0) scale(0.996264)"/>
       <use xlink:href="#CMR17-65" transform="translate(104.393178 0) scale(0.996264)"/>
       <use xlink:href="#CMR17-63" transform="translate(144.878839 0) scale(0.996264)"/>
       <use xlink:href="#CMR17-69" transform="translate(185.364499 0) scale(0.996264)"/>
       <use xlink:href="#CMR17-c" transform="translate(210.235558 0) scale(0.996264)"/>
       <use xlink:href="#CMR17-63" transform="translate(259.977781 0) scale(0.996264)"/>
      </g>
      <!-- reference -->
      <g style="fill: #262626" transform="translate(138.124376 416.327972) scale(0.14 -0.14)">
       <use xlink:href="#CMR17-72" transform="scale(0.996264)"/>
       <use xlink:href="#CMR17-65" transform="translate(35.280768 0) scale(0.996264)"/>
       <use xlink:href="#CMR17-66" transform="translate(75.766428 0) scale(0.996264)"/>
       <use xlink:href="#CMR17-65" transform="translate(103.239941 0) scale(0.996264)"/>
       <use xlink:href="#CMR17-72" transform="translate(143.725601 0) scale(0.996264)"/>
       <use xlink:href="#CMR17-65" transform="translate(179.006369 0) scale(0.996264)"/>
       <use xlink:href="#CMR17-6e" transform="translate(219.492029 0) scale(0.996264)"/>
       <use xlink:href="#CMR17-63" transform="translate(270.387399 0) scale(0.996264)"/>
       <use xlink:href="#CMR17-65" transform="translate(310.87306 0) scale(0.996264)"/>
      </g>
     </g>
    </g>
    <g id="xtick_3">
     <g id="line2d_11">
      <path d="M 242.715937 382.807015 
L 242.715937 234.278128 
" clip-path="url(#p97154efdcf)" style="fill: none; stroke: #ffffff; stroke-linecap: round"/>
     </g>
     <g id="text_14">
      <!-- BG design -->
      <g style="fill: #262626" transform="translate(211.619665 401.992892) scale(0.14 -0.14)">
       <defs>
        <path id="CMR17-42" d="M 333 4352 
L 333 4186 
C 774 4186 845 4186 845 3900 
L 845 452 
C 845 166 774 166 333 166 
L 333 0 
L 2534 0 
C 3354 0 3885 583 3885 1164 
C 3885 1741 3360 2233 2675 2233 
C 3290 2356 3718 2771 3718 3264 
C 3718 3802 3194 4352 2368 4352 
L 333 4352 
z
M 1248 2304 
L 1248 3937 
C 1248 4155 1261 4186 1517 4186 
L 2336 4186 
C 2970 4186 3251 3674 3251 3277 
C 3251 2791 2861 2304 2170 2304 
L 1248 2304 
z
M 1517 166 
C 1261 166 1248 197 1248 413 
L 1248 2202 
L 2432 2202 
C 3091 2202 3411 1625 3411 1162 
C 3411 699 3046 166 2349 166 
L 1517 166 
z
" transform="scale(0.015625)"/>
        <path id="CMR17-47" d="M 3974 1233 
C 3974 1473 3994 1505 4390 1505 
L 4390 1670 
C 4237 1664 3891 1664 3718 1664 
C 3539 1664 3040 1664 2797 1664 
L 2797 1505 
L 2989 1505 
C 3539 1505 3552 1434 3552 1201 
L 3552 774 
C 3552 63 2720 63 2522 63 
C 1862 63 781 511 781 2160 
C 781 3808 1843 4250 2464 4250 
C 3187 4250 3712 3626 3834 2741 
C 3846 2664 3846 2651 3904 2651 
C 3974 2651 3974 2664 3974 2779 
L 3974 4288 
C 3974 4402 3968 4409 3930 4409 
C 3904 4409 3898 4402 3853 4326 
L 3571 3791 
C 3258 4187 2874 4416 2381 4416 
C 1286 4416 294 3456 294 2148 
C 294 845 1267 -128 2394 -128 
C 2912 -128 3418 56 3616 417 
C 3725 158 3904 -20 3936 -20 
C 3968 -20 3974 -13 3974 100 
L 3974 1233 
z
" transform="scale(0.015625)"/>
        <path id="CMR17-64" d="M 1869 4326 
L 1869 4160 
C 2246 4160 2304 4122 2304 3820 
L 2304 2345 
C 2278 2377 2016 2790 1498 2790 
C 845 2790 211 2208 211 1364 
C 211 525 806 -64 1434 -64 
C 1978 -64 2259 337 2291 380 
L 2291 -63 
L 3066 -63 
L 3066 128 
C 2688 128 2630 166 2630 473 
L 2630 4396 
L 1869 4326 
z
M 2291 755 
C 2291 563 2176 390 2029 262 
C 1811 70 1594 38 1472 38 
C 1286 38 621 134 621 1356 
C 621 2612 1363 2688 1530 2688 
C 1824 2688 2061 2522 2208 2291 
C 2291 2157 2291 2138 2291 2023 
L 2291 755 
z
" transform="scale(0.015625)"/>
        <path id="CMR17-73" d="M 1978 2697 
C 1978 2813 1971 2819 1933 2819 
C 1907 2819 1901 2813 1824 2717 
C 1805 2691 1747 2626 1728 2601 
C 1523 2819 1235 2819 1126 2819 
C 416 2819 160 2447 160 2076 
C 160 1498 813 1365 998 1325 
C 1402 1243 1542 1217 1677 1101 
C 1760 1025 1901 884 1901 654 
C 1901 384 1747 38 1158 38 
C 602 38 403 460 288 1021 
C 269 1110 269 1117 218 1117 
C 166 1117 160 1110 160 983 
L 160 63 
C 160 -51 166 -58 205 -58 
C 237 -58 243 -51 275 0 
C 314 57 410 211 448 276 
C 576 103 800 -64 1158 -64 
C 1792 -64 2131 283 2131 784 
C 2131 1112 1958 1285 1875 1362 
C 1683 1561 1459 1606 1190 1657 
C 838 1735 390 1825 390 2217 
C 390 2383 480 2737 1126 2737 
C 1811 2737 1850 2094 1862 1888 
C 1869 1856 1901 1849 1920 1849 
C 1978 1849 1978 1869 1978 1978 
L 1978 2697 
z
" transform="scale(0.015625)"/>
       </defs>
       <use xlink:href="#CMR17-42" transform="scale(0.996264)"/>
       <use xlink:href="#CMR17-47" transform="translate(65.188754 0) scale(0.996264)"/>
       <use xlink:href="#CMR17-64" transform="translate(167.620067 0) scale(0.996264)"/>
       <use xlink:href="#CMR17-65" transform="translate(218.515436 0) scale(0.996264)"/>
       <use xlink:href="#CMR17-73" transform="translate(259.001097 0) scale(0.996264)"/>
       <use xlink:href="#CMR17-69" transform="translate(294.802435 0) scale(0.996264)"/>
       <use xlink:href="#CMR17-67" transform="translate(319.673493 0) scale(0.996264)"/>
       <use xlink:href="#CMR17-6e" transform="translate(365.36397 0) scale(0.996264)"/>
      </g>
     </g>
    </g>
    <g id="xtick_4">
     <g id="line2d_12">
      <path d="M 320.941944 382.807015 
L 320.941944 234.278128 
" clip-path="url(#p97154efdcf)" style="fill: none; stroke: #ffffff; stroke-linecap: round"/>
     </g>
     <g id="text_15">
      <!-- NUN-OR -->
      <g style="fill: #262626" transform="translate(292.972565 401.992892) scale(0.14 -0.14)">
       <defs>
        <path id="CMR17-55" d="M 3456 1433 
C 3456 579 2899 38 2291 38 
C 1965 38 1670 210 1491 477 
C 1286 783 1261 1178 1261 1401 
L 1261 3874 
C 1261 4160 1331 4160 1773 4160 
L 1773 4320 
C 1587 4320 1248 4320 1050 4320 
C 851 4320 512 4320 326 4320 
L 326 4160 
C 768 4160 838 4160 838 3874 
L 838 1433 
C 838 516 1536 -128 2278 -128 
C 3110 -128 3590 719 3590 1344 
L 3590 3766 
C 3590 4122 3917 4160 4102 4160 
L 4102 4326 
C 3955 4320 3686 4320 3526 4320 
C 3366 4320 3091 4320 2944 4326 
L 2944 4160 
C 3456 4160 3456 3861 3456 3702 
L 3456 1433 
z
" transform="scale(0.015625)"/>
        <path id="CMR17-4f" d="M 4307 2135 
C 4307 3437 3366 4416 2304 4416 
C 1216 4416 294 3424 294 2135 
C 294 845 1229 -128 2298 -128 
C 3392 -128 4307 864 4307 2135 
z
M 2304 -13 
C 1574 -13 781 711 781 2217 
C 781 3716 1651 4301 2298 4301 
C 2976 4301 3821 3698 3821 2217 
C 3821 686 3008 -13 2304 -13 
z
" transform="scale(0.015625)"/>
        <path id="CMR17-52" d="M 2509 2146 
C 3117 2268 3629 2676 3629 3186 
C 3629 3785 2950 4326 2054 4326 
L 333 4326 
L 333 4160 
C 774 4160 845 4160 845 3873 
L 845 415 
C 845 128 774 128 333 128 
L 333 -26 
C 518 -26 851 -26 1050 -26 
C 1248 -26 1581 -26 1766 -26 
L 1766 128 
C 1325 128 1254 128 1254 417 
L 1254 2112 
L 2003 2112 
C 2368 2112 2573 1964 2662 1881 
C 2918 1632 2918 1459 2918 1024 
C 2918 595 2918 377 3110 160 
C 3354 -102 3680 -128 3821 -128 
C 4294 -128 4365 396 4365 503 
C 4365 540 4365 585 4307 585 
C 4256 585 4250 547 4250 522 
C 4218 112 4032 -26 3834 -26 
C 3482 -26 3443 375 3405 764 
C 3386 898 3373 993 3360 1133 
C 3322 1452 3270 1917 2509 2146 
z
M 1984 2214 
L 1254 2214 
L 1254 3913 
C 1254 4129 1267 4160 1523 4160 
L 1990 4160 
C 2522 4160 3142 3977 3142 3190 
C 3142 2372 2464 2214 1984 2214 
z
" transform="scale(0.015625)"/>
       </defs>
       <use xlink:href="#CMR17-4e" transform="scale(0.996264)"/>
       <use xlink:href="#CMR17-55" transform="translate(69.07243 0) scale(0.996264)"/>
       <use xlink:href="#CMR17-4e" transform="translate(138.14486 0) scale(0.996264)"/>
       <use xlink:href="#CMR17-2d" transform="translate(207.217289 0) scale(0.996264)"/>
       <use xlink:href="#CMR17-4f" transform="translate(237.293256 0) scale(0.996264)"/>
       <use xlink:href="#CMR17-52" transform="translate(309.008044 0) scale(0.996264)"/>
      </g>
     </g>
    </g>
   </g>
   <g id="matplotlib.axis_6">
    <g id="ytick_9">
     <g id="line2d_13">
      <path d="M 40.110577 382.807015 
L 367.095289 382.807015 
" clip-path="url(#p97154efdcf)" style="fill: none; stroke: #ffffff; stroke-linecap: round"/>
     </g>
    </g>
    <g id="ytick_10">
     <g id="line2d_14">
      <path d="M 40.110577 325.148285 
L 367.095289 325.148285 
" clip-path="url(#p97154efdcf)" style="fill: none; stroke: #ffffff; stroke-linecap: round"/>
     </g>
    </g>
    <g id="ytick_11">
     <g id="line2d_15">
      <path d="M 40.110577 267.489556 
L 367.095289 267.489556 
" clip-path="url(#p97154efdcf)" style="fill: none; stroke: #ffffff; stroke-linecap: round"/>
     </g>
    </g>
    <g id="text_16">
     <!-- $\bar{\theta}_a$ -->
     <g style="fill: #262626" transform="translate(23.898549 314.382716) rotate(-90) scale(0.14 -0.14)">
      <use xlink:href="#CMR17-16" transform="translate(9.368676 26.296621) scale(0.996264)"/>
      <use xlink:href="#CMMI12-12" transform="scale(0.996264)"/>
      <use xlink:href="#CMMI12-61" transform="translate(45.45979 -14.943915) scale(0.697382)"/>
     </g>
    </g>
   </g>
   <g id="patch_21">
    <path d="M 54.973519 382.807015 
L 117.554325 382.807015 
L 117.554325 250.191937 
L 54.973519 250.191937 
z
" clip-path="url(#p97154efdcf)" style="fill: #4c72b0; stroke: #ffffff; stroke-linejoin: miter"/>
   </g>
   <g id="patch_22">
    <path d="M 133.199526 382.807015 
L 195.780332 382.807015 
L 195.780332 250.191937 
L 133.199526 250.191937 
z
" clip-path="url(#p97154efdcf)" style="fill: #4c72b0; stroke: #ffffff; stroke-linejoin: miter"/>
   </g>
   <g id="patch_23">
    <path d="M 211.425534 382.807015 
L 274.00634 382.807015 
L 274.00634 253.074874 
L 211.425534 253.074874 
z
" clip-path="url(#p97154efdcf)" style="fill: #4c72b0; stroke: #ffffff; stroke-linejoin: miter"/>
   </g>
   <g id="patch_24">
    <path d="M 289.651541 382.807015 
L 352.232347 382.807015 
L 352.232347 250.191937 
L 289.651541 250.191937 
z
" clip-path="url(#p97154efdcf)" style="fill: #4c72b0; stroke: #ffffff; stroke-linejoin: miter"/>
   </g>
   <g id="patch_25">
    <path d="M 40.110577 382.807015 
L 40.110577 234.278128 
" style="fill: none; stroke: #ffffff; stroke-width: 1.25; stroke-linejoin: miter; stroke-linecap: square"/>
   </g>
   <g id="patch_26">
    <path d="M 367.095289 382.807015 
L 367.095289 234.278128 
" style="fill: none; stroke: #ffffff; stroke-width: 1.25; stroke-linejoin: miter; stroke-linecap: square"/>
   </g>
   <g id="patch_27">
    <path d="M 40.110577 382.807015 
L 367.095289 382.807015 
" style="fill: none; stroke: #ffffff; stroke-width: 1.25; stroke-linejoin: miter; stroke-linecap: square"/>
   </g>
   <g id="patch_28">
    <path d="M 40.110577 234.278128 
L 367.095289 234.278128 
" style="fill: none; stroke: #ffffff; stroke-width: 1.25; stroke-linejoin: miter; stroke-linecap: square"/>
   </g>
   <g id="text_17">
    <!-- 0.46$^{\circ}$ -->
    <g style="fill: #262626" transform="translate(71.615773 246.87656) scale(0.14 -0.14)">
     <defs>
      <path id="CMR17-34" d="M 2150 4122 
C 2150 4256 2144 4256 2029 4256 
L 128 1254 
L 128 1088 
L 1779 1088 
L 1779 457 
C 1779 224 1766 160 1318 160 
L 1197 160 
L 1197 0 
C 1402 0 1747 0 1965 0 
C 2182 0 2528 0 2733 0 
L 2733 160 
L 2611 160 
C 2163 160 2150 224 2150 457 
L 2150 1088 
L 2803 1088 
L 2803 1254 
L 2150 1254 
L 2150 4122 
z
M 1798 3703 
L 1798 1254 
L 256 1254 
L 1798 3703 
z
" transform="scale(0.015625)"/>
     </defs>
     <use xlink:href="#CMR17-30" transform="scale(0.996264)"/>
     <use xlink:href="#CMR17-2e" transform="translate(45.690477 0) scale(0.996264)"/>
     <use xlink:href="#CMR17-34" transform="translate(70.561536 0) scale(0.996264)"/>
     <use xlink:href="#CMR17-36" transform="translate(116.252013 0) scale(0.996264)"/>
     <use xlink:href="#CMSY10-e" transform="translate(161.94249 36.153639) scale(0.697382)"/>
    </g>
   </g>
   <g id="text_18">
    <!-- 0.46$^{\circ}$ -->
    <g style="fill: #262626" transform="translate(149.841781 246.87656) scale(0.14 -0.14)">
     <use xlink:href="#CMR17-30" transform="scale(0.996264)"/>
     <use xlink:href="#CMR17-2e" transform="translate(45.690477 0) scale(0.996264)"/>
     <use xlink:href="#CMR17-34" transform="translate(70.561536 0) scale(0.996264)"/>
     <use xlink:href="#CMR17-36" transform="translate(116.252013 0) scale(0.996264)"/>
     <use xlink:href="#CMSY10-e" transform="translate(161.94249 36.153639) scale(0.697382)"/>
    </g>
   </g>
   <g id="text_19">
    <!-- 0.45$^{\circ}$ -->
    <g style="fill: #262626" transform="translate(228.067788 249.83157) scale(0.14 -0.14)">
     <use xlink:href="#CMR17-30" transform="scale(0.996264)"/>
     <use xlink:href="#CMR17-2e" transform="translate(45.690477 0) scale(0.996264)"/>
     <use xlink:href="#CMR17-34" transform="translate(70.561536 0) scale(0.996264)"/>
     <use xlink:href="#CMR17-35" transform="translate(116.252013 0) scale(0.996264)"/>
     <use xlink:href="#CMSY10-e" transform="translate(161.94249 36.153639) scale(0.697382)"/>
    </g>
   </g>
   <g id="text_20">
    <!-- 0.46$^{\circ}$ -->
    <g style="fill: #262626" transform="translate(306.293796 246.87656) scale(0.14 -0.14)">
     <use xlink:href="#CMR17-30" transform="scale(0.996264)"/>
     <use xlink:href="#CMR17-2e" transform="translate(45.690477 0) scale(0.996264)"/>
     <use xlink:href="#CMR17-34" transform="translate(70.561536 0) scale(0.996264)"/>
     <use xlink:href="#CMR17-36" transform="translate(116.252013 0) scale(0.996264)"/>
     <use xlink:href="#CMSY10-e" transform="translate(161.94249 36.153639) scale(0.697382)"/>
    </g>
   </g>
   <g id="text_21">
    <!-- (c) NS-mounting: ES2 -->
    <g style="fill: #262626" transform="translate(136.74427 228.278128) scale(0.14 -0.14)">
     <defs>
      <path id="CMR17-32" d="M 2669 989 
L 2554 989 
C 2490 536 2438 459 2413 420 
C 2381 369 1920 369 1830 369 
L 602 369 
C 832 619 1280 1072 1824 1597 
C 2214 1967 2669 2402 2669 3035 
C 2669 3790 2067 4224 1395 4224 
C 691 4224 262 3604 262 3030 
C 262 2780 448 2748 525 2748 
C 589 2748 781 2787 781 3010 
C 781 3207 614 3264 525 3264 
C 486 3264 448 3258 422 3245 
C 544 3790 915 4058 1306 4058 
C 1862 4058 2227 3617 2227 3035 
C 2227 2479 1901 2000 1536 1584 
L 262 146 
L 262 0 
L 2515 0 
L 2669 989 
z
" transform="scale(0.015625)"/>
     </defs>
     <use xlink:href="#CMR17-28" transform="scale(0.996264)"/>
     <use xlink:href="#CMR17-63" transform="translate(35.280768 0) scale(0.996264)"/>
     <use xlink:href="#CMR17-29" transform="translate(75.766428 0) scale(0.996264)"/>
     <use xlink:href="#CMR17-4e" transform="translate(141.123162 0) scale(0.996264)"/>
     <use xlink:href="#CMR17-53" transform="translate(210.195592 0) scale(0.996264)"/>
     <use xlink:href="#CMR17-2d" transform="translate(261.090962 0) scale(0.996264)"/>
     <use xlink:href="#CMR17-6d" transform="translate(291.166928 0) scale(0.996264)"/>
     <use xlink:href="#CMR17-6f" transform="translate(368.086518 0) scale(0.996264)"/>
     <use xlink:href="#CMR17-75" transform="translate(413.776995 0) scale(0.996264)"/>
     <use xlink:href="#CMR17-6e" transform="translate(464.672365 0) scale(0.996264)"/>
     <use xlink:href="#CMR17-74" transform="translate(512.965281 0) scale(0.996264)"/>
     <use xlink:href="#CMR17-69" transform="translate(548.246049 0) scale(0.996264)"/>
     <use xlink:href="#CMR17-6e" transform="translate(573.117107 0) scale(0.996264)"/>
     <use xlink:href="#CMR17-67" transform="translate(624.012477 0) scale(0.996264)"/>
     <use xlink:href="#CMR17-3a" transform="translate(669.702954 0) scale(0.996264)"/>
     <use xlink:href="#CMR17-45" transform="translate(735.059673 0) scale(0.996264)"/>
     <use xlink:href="#CMR17-53" transform="translate(797.645974 0) scale(0.996264)"/>
     <use xlink:href="#CMR17-32" transform="translate(848.541343 0) scale(0.996264)"/>
    </g>
   </g>
  </g>
  <g id="axes_4">
   <g id="patch_29">
    <path d="M 380.055289 382.807015 
L 707.04 382.807015 
L 707.04 234.278128 
L 380.055289 234.278128 
z
" style="fill: #eaeaf2"/>
   </g>
   <g id="matplotlib.axis_7">
    <g id="xtick_5">
     <g id="line2d_16">
      <path d="M 426.208633 382.807015 
L 426.208633 234.278128 
" clip-path="url(#p3e6cf59569)" style="fill: none; stroke: #ffffff; stroke-linecap: round"/>
     </g>
     <g id="text_22">
      <!-- Sun -->
      <g style="fill: #262626" transform="translate(414.827819 401.992892) scale(0.14 -0.14)">
       <use xlink:href="#CMR17-53" transform="scale(0.996264)"/>
       <use xlink:href="#CMR17-75" transform="translate(50.89537 0) scale(0.996264)"/>
       <use xlink:href="#CMR17-6e" transform="translate(101.79074 0) scale(0.996264)"/>
      </g>
      <!-- reference -->
      <g style="fill: #262626" transform="translate(399.84308 416.327972) scale(0.14 -0.14)">
       <use xlink:href="#CMR17-72" transform="scale(0.996264)"/>
       <use xlink:href="#CMR17-65" transform="translate(35.280768 0) scale(0.996264)"/>
       <use xlink:href="#CMR17-66" transform="translate(75.766428 0) scale(0.996264)"/>
       <use xlink:href="#CMR17-65" transform="translate(103.239941 0) scale(0.996264)"/>
       <use xlink:href="#CMR17-72" transform="translate(143.725601 0) scale(0.996264)"/>
       <use xlink:href="#CMR17-65" transform="translate(179.006369 0) scale(0.996264)"/>
       <use xlink:href="#CMR17-6e" transform="translate(219.492029 0) scale(0.996264)"/>
       <use xlink:href="#CMR17-63" transform="translate(270.387399 0) scale(0.996264)"/>
       <use xlink:href="#CMR17-65" transform="translate(310.87306 0) scale(0.996264)"/>
      </g>
     </g>
    </g>
    <g id="xtick_6">
     <g id="line2d_17">
      <path d="M 504.434641 382.807015 
L 504.434641 234.278128 
" clip-path="url(#p3e6cf59569)" style="fill: none; stroke: #ffffff; stroke-linecap: round"/>
     </g>
     <g id="text_23">
      <!-- Specific -->
      <g style="fill: #262626" transform="translate(481.862692 401.992892) scale(0.14 -0.14)">
       <use xlink:href="#CMR17-53" transform="scale(0.996264)"/>
       <use xlink:href="#CMR17-70" transform="translate(50.89537 0) scale(0.996264)"/>
       <use xlink:href="#CMR17-65" transform="translate(104.393178 0) scale(0.996264)"/>
       <use xlink:href="#CMR17-63" transform="translate(144.878839 0) scale(0.996264)"/>
       <use xlink:href="#CMR17-69" transform="translate(185.364499 0) scale(0.996264)"/>
       <use xlink:href="#CMR17-c" transform="translate(210.235558 0) scale(0.996264)"/>
       <use xlink:href="#CMR17-63" transform="translate(259.977781 0) scale(0.996264)"/>
      </g>
      <!-- reference -->
      <g style="fill: #262626" transform="translate(478.069087 416.327972) scale(0.14 -0.14)">
       <use xlink:href="#CMR17-72" transform="scale(0.996264)"/>
       <use xlink:href="#CMR17-65" transform="translate(35.280768 0) scale(0.996264)"/>
       <use xlink:href="#CMR17-66" transform="translate(75.766428 0) scale(0.996264)"/>
       <use xlink:href="#CMR17-65" transform="translate(103.239941 0) scale(0.996264)"/>
       <use xlink:href="#CMR17-72" transform="translate(143.725601 0) scale(0.996264)"/>
       <use xlink:href="#CMR17-65" transform="translate(179.006369 0) scale(0.996264)"/>
       <use xlink:href="#CMR17-6e" transform="translate(219.492029 0) scale(0.996264)"/>
       <use xlink:href="#CMR17-63" transform="translate(270.387399 0) scale(0.996264)"/>
       <use xlink:href="#CMR17-65" transform="translate(310.87306 0) scale(0.996264)"/>
      </g>
     </g>
    </g>
    <g id="xtick_7">
     <g id="line2d_18">
      <path d="M 582.660648 382.807015 
L 582.660648 234.278128 
" clip-path="url(#p3e6cf59569)" style="fill: none; stroke: #ffffff; stroke-linecap: round"/>
     </g>
     <g id="text_24">
      <!-- BG design -->
      <g style="fill: #262626" transform="translate(551.564376 401.992892) scale(0.14 -0.14)">
       <use xlink:href="#CMR17-42" transform="scale(0.996264)"/>
       <use xlink:href="#CMR17-47" transform="translate(65.188754 0) scale(0.996264)"/>
       <use xlink:href="#CMR17-64" transform="translate(167.620067 0) scale(0.996264)"/>
       <use xlink:href="#CMR17-65" transform="translate(218.515436 0) scale(0.996264)"/>
       <use xlink:href="#CMR17-73" transform="translate(259.001097 0) scale(0.996264)"/>
       <use xlink:href="#CMR17-69" transform="translate(294.802435 0) scale(0.996264)"/>
       <use xlink:href="#CMR17-67" transform="translate(319.673493 0) scale(0.996264)"/>
       <use xlink:href="#CMR17-6e" transform="translate(365.36397 0) scale(0.996264)"/>
      </g>
     </g>
    </g>
    <g id="xtick_8">
     <g id="line2d_19">
      <path d="M 660.886656 382.807015 
L 660.886656 234.278128 
" clip-path="url(#p3e6cf59569)" style="fill: none; stroke: #ffffff; stroke-linecap: round"/>
     </g>
     <g id="text_25">
      <!-- NUN-OR -->
      <g style="fill: #262626" transform="translate(632.917276 401.992892) scale(0.14 -0.14)">
       <use xlink:href="#CMR17-4e" transform="scale(0.996264)"/>
       <use xlink:href="#CMR17-55" transform="translate(69.07243 0) scale(0.996264)"/>
       <use xlink:href="#CMR17-4e" transform="translate(138.14486 0) scale(0.996264)"/>
       <use xlink:href="#CMR17-2d" transform="translate(207.217289 0) scale(0.996264)"/>
       <use xlink:href="#CMR17-4f" transform="translate(237.293256 0) scale(0.996264)"/>
       <use xlink:href="#CMR17-52" transform="translate(309.008044 0) scale(0.996264)"/>
      </g>
     </g>
    </g>
   </g>
   <g id="matplotlib.axis_8">
    <g id="ytick_12">
     <g id="line2d_20">
      <path d="M 380.055289 382.807015 
L 707.04 382.807015 
" clip-path="url(#p3e6cf59569)" style="fill: none; stroke: #ffffff; stroke-linecap: round"/>
     </g>
    </g>
    <g id="ytick_13">
     <g id="line2d_21">
      <path d="M 380.055289 325.148285 
L 707.04 325.148285 
" clip-path="url(#p3e6cf59569)" style="fill: none; stroke: #ffffff; stroke-linecap: round"/>
     </g>
    </g>
    <g id="ytick_14">
     <g id="line2d_22">
      <path d="M 380.055289 267.489556 
L 707.04 267.489556 
" clip-path="url(#p3e6cf59569)" style="fill: none; stroke: #ffffff; stroke-linecap: round"/>
     </g>
    </g>
   </g>
   <g id="patch_30">
    <path d="M 394.91823 382.807015 
L 457.499036 382.807015 
L 457.499036 250.191937 
L 394.91823 250.191937 
z
" clip-path="url(#p3e6cf59569)" style="fill: #4c72b0; stroke: #ffffff; stroke-linejoin: miter"/>
   </g>
   <g id="patch_31">
    <path d="M 473.144238 382.807015 
L 535.725044 382.807015 
L 535.725044 250.191937 
L 473.144238 250.191937 
z
" clip-path="url(#p3e6cf59569)" style="fill: #4c72b0; stroke: #ffffff; stroke-linejoin: miter"/>
   </g>
   <g id="patch_32">
    <path d="M 551.370245 382.807015 
L 613.951051 382.807015 
L 613.951051 253.074874 
L 551.370245 253.074874 
z
" clip-path="url(#p3e6cf59569)" style="fill: #4c72b0; stroke: #ffffff; stroke-linejoin: miter"/>
   </g>
   <g id="patch_33">
    <path d="M 629.596253 382.807015 
L 692.177059 382.807015 
L 692.177059 250.191937 
L 629.596253 250.191937 
z
" clip-path="url(#p3e6cf59569)" style="fill: #4c72b0; stroke: #ffffff; stroke-linejoin: miter"/>
   </g>
   <g id="patch_34">
    <path d="M 380.055289 382.807015 
L 380.055289 234.278128 
" style="fill: none; stroke: #ffffff; stroke-width: 1.25; stroke-linejoin: miter; stroke-linecap: square"/>
   </g>
   <g id="patch_35">
    <path d="M 707.04 382.807015 
L 707.04 234.278128 
" style="fill: none; stroke: #ffffff; stroke-width: 1.25; stroke-linejoin: miter; stroke-linecap: square"/>
   </g>
   <g id="patch_36">
    <path d="M 380.055289 382.807015 
L 707.04 382.807015 
" style="fill: none; stroke: #ffffff; stroke-width: 1.25; stroke-linejoin: miter; stroke-linecap: square"/>
   </g>
   <g id="patch_37">
    <path d="M 380.055289 234.278128 
L 707.04 234.278128 
" style="fill: none; stroke: #ffffff; stroke-width: 1.25; stroke-linejoin: miter; stroke-linecap: square"/>
   </g>
   <g id="text_26">
    <!-- 0.46$^{\circ}$ -->
    <g style="fill: #262626" transform="translate(411.560484 246.87656) scale(0.14 -0.14)">
     <use xlink:href="#CMR17-30" transform="scale(0.996264)"/>
     <use xlink:href="#CMR17-2e" transform="translate(45.690477 0) scale(0.996264)"/>
     <use xlink:href="#CMR17-34" transform="translate(70.561536 0) scale(0.996264)"/>
     <use xlink:href="#CMR17-36" transform="translate(116.252013 0) scale(0.996264)"/>
     <use xlink:href="#CMSY10-e" transform="translate(161.94249 36.153639) scale(0.697382)"/>
    </g>
   </g>
   <g id="text_27">
    <!-- 0.46$^{\circ}$ -->
    <g style="fill: #262626" transform="translate(489.786492 246.87656) scale(0.14 -0.14)">
     <use xlink:href="#CMR17-30" transform="scale(0.996264)"/>
     <use xlink:href="#CMR17-2e" transform="translate(45.690477 0) scale(0.996264)"/>
     <use xlink:href="#CMR17-34" transform="translate(70.561536 0) scale(0.996264)"/>
     <use xlink:href="#CMR17-36" transform="translate(116.252013 0) scale(0.996264)"/>
     <use xlink:href="#CMSY10-e" transform="translate(161.94249 36.153639) scale(0.697382)"/>
    </g>
   </g>
   <g id="text_28">
    <!-- 0.45$^{\circ}$ -->
    <g style="fill: #262626" transform="translate(568.012499 249.83157) scale(0.14 -0.14)">
     <use xlink:href="#CMR17-30" transform="scale(0.996264)"/>
     <use xlink:href="#CMR17-2e" transform="translate(45.690477 0) scale(0.996264)"/>
     <use xlink:href="#CMR17-34" transform="translate(70.561536 0) scale(0.996264)"/>
     <use xlink:href="#CMR17-35" transform="translate(116.252013 0) scale(0.996264)"/>
     <use xlink:href="#CMSY10-e" transform="translate(161.94249 36.153639) scale(0.697382)"/>
    </g>
   </g>
   <g id="text_29">
    <!-- 0.46$^{\circ}$ -->
    <g style="fill: #262626" transform="translate(646.238507 246.87656) scale(0.14 -0.14)">
     <use xlink:href="#CMR17-30" transform="scale(0.996264)"/>
     <use xlink:href="#CMR17-2e" transform="translate(45.690477 0) scale(0.996264)"/>
     <use xlink:href="#CMR17-34" transform="translate(70.561536 0) scale(0.996264)"/>
     <use xlink:href="#CMR17-36" transform="translate(116.252013 0) scale(0.996264)"/>
     <use xlink:href="#CMSY10-e" transform="translate(161.94249 36.153639) scale(0.697382)"/>
    </g>
   </g>
   <g id="text_30">
    <!-- (d) EW-mounting: ES2 -->
    <g style="fill: #262626" transform="translate(473.181102 228.278128) scale(0.14 -0.14)">
     <use xlink:href="#CMR17-28" transform="scale(0.996264)"/>
     <use xlink:href="#CMR17-64" transform="translate(35.280768 0) scale(0.996264)"/>
     <use xlink:href="#CMR17-29" transform="translate(86.176138 0) scale(0.996264)"/>
     <use xlink:href="#CMR17-45" transform="translate(151.532872 0) scale(0.996264)"/>
     <use xlink:href="#CMR17-57" transform="translate(214.119172 0) scale(0.996264)"/>
     <use xlink:href="#CMR17-2d" transform="translate(309.215822 0) scale(0.996264)"/>
     <use xlink:href="#CMR17-6d" transform="translate(339.291788 0) scale(0.996264)"/>
     <use xlink:href="#CMR17-6f" transform="translate(416.211378 0) scale(0.996264)"/>
     <use xlink:href="#CMR17-75" transform="translate(461.901855 0) scale(0.996264)"/>
     <use xlink:href="#CMR17-6e" transform="translate(512.797225 0) scale(0.996264)"/>
     <use xlink:href="#CMR17-74" transform="translate(561.090141 0) scale(0.996264)"/>
     <use xlink:href="#CMR17-69" transform="translate(596.370909 0) scale(0.996264)"/>
     <use xlink:href="#CMR17-6e" transform="translate(621.241967 0) scale(0.996264)"/>
     <use xlink:href="#CMR17-67" transform="translate(672.137337 0) scale(0.996264)"/>
     <use xlink:href="#CMR17-3a" transform="translate(717.827814 0) scale(0.996264)"/>
     <use xlink:href="#CMR17-45" transform="translate(783.184533 0) scale(0.996264)"/>
     <use xlink:href="#CMR17-53" transform="translate(845.770834 0) scale(0.996264)"/>
     <use xlink:href="#CMR17-32" transform="translate(896.666204 0) scale(0.996264)"/>
    </g>
   </g>
  </g>
  <g id="text_31">
   <!-- LFC 1: Evora ($\phi=$ 38.5$^{\circ})$ -->
   <g style="fill: #262626" transform="translate(282.318618 19.100772) scale(0.14 -0.14)">
    <defs>
     <path id="CMR17-4c" d="M 3469 1615 
L 3354 1615 
C 3302 983 3219 166 2125 166 
L 1530 166 
C 1274 166 1261 197 1261 414 
L 1261 3898 
C 1261 4129 1274 4192 1760 4192 
L 1901 4192 
L 1901 4352 
C 1638 4352 1331 4352 1069 4352 
C 870 4352 512 4352 326 4352 
L 326 4192 
C 768 4192 838 4192 838 3905 
L 838 452 
C 838 166 768 166 326 166 
L 326 0 
L 3315 0 
L 3469 1615 
z
" transform="scale(0.015625)"/>
     <path id="CMR17-46" d="M 3482 4325 
L 326 4325 
L 326 4160 
C 768 4160 838 4160 838 3874 
L 838 446 
C 838 160 768 160 326 160 
L 326 0 
C 512 0 870 0 1069 0 
C 1331 0 1638 0 1901 0 
L 1901 160 
L 1760 160 
C 1274 160 1261 223 1261 452 
L 1261 2075 
L 1837 2075 
C 2432 2075 2490 1865 2490 1332 
L 2605 1332 
L 2605 2987 
L 2490 2987 
C 2490 2450 2432 2240 1837 2240 
L 1261 2240 
L 1261 3911 
C 1261 4128 1274 4160 1530 4160 
L 2355 4160 
C 3322 4160 3430 3765 3520 2916 
L 3635 2916 
L 3482 4325 
z
" transform="scale(0.015625)"/>
     <path id="CMR17-43" d="M 3974 4289 
C 3974 4403 3968 4410 3930 4410 
C 3904 4410 3898 4403 3853 4327 
L 3571 3792 
C 3258 4187 2874 4416 2381 4416 
C 1286 4416 294 3456 294 2148 
C 294 826 1286 -128 2387 -128 
C 3366 -128 3974 730 3974 1461 
C 3974 1524 3974 1550 3917 1550 
C 3866 1550 3866 1531 3859 1474 
C 3808 585 3168 38 2477 38 
C 1824 38 781 495 781 2147 
C 781 3805 1843 4250 2464 4250 
C 3187 4250 3712 3628 3834 2745 
C 3846 2668 3846 2655 3904 2655 
C 3974 2655 3974 2668 3974 2783 
L 3974 4289 
z
" transform="scale(0.015625)"/>
     <path id="CMR17-76" d="M 2502 2163 
C 2560 2304 2662 2560 3034 2560 
L 3034 2726 
C 2912 2726 2752 2726 2630 2726 
C 2496 2726 2285 2726 2157 2732 
L 2157 2566 
C 2317 2553 2406 2477 2406 2311 
C 2406 2253 2406 2240 2368 2151 
L 1664 377 
L 902 2286 
C 864 2369 864 2381 864 2407 
C 864 2560 1075 2560 1171 2560 
L 1171 2732 
C 1018 2726 736 2726 576 2726 
C 403 2726 205 2726 64 2732 
L 64 2560 
C 307 2560 442 2560 518 2362 
L 1446 44 
C 1485 -51 1491 -64 1549 -64 
C 1606 -64 1613 -51 1651 44 
L 2502 2163 
z
" transform="scale(0.015625)"/>
     <path id="CMMI12-1e" d="M 2752 4390 
C 2752 4448 2707 4448 2688 4448 
C 2630 4448 2624 4435 2598 4326 
L 2253 2939 
C 2234 2856 2227 2849 2221 2843 
C 2214 2830 2170 2824 2157 2824 
C 1107 2734 301 1864 301 1057 
C 301 361 832 -64 1498 -64 
C 1446 -261 1402 -463 1350 -659 
C 1261 -995 1210 -1204 1210 -1229 
C 1210 -1241 1210 -1280 1274 -1280 
C 1293 -1280 1318 -1280 1331 -1254 
C 1344 -1241 1382 -1089 1408 -1008 
L 1645 -64 
C 2739 -64 3571 854 3571 1680 
C 3571 2343 3085 2816 2374 2816 
L 2752 4390 
z
M 2336 2701 
C 2758 2701 3181 2463 3181 1828 
C 3181 1097 2675 128 1677 50 
L 2336 2701 
z
M 1530 50 
C 1216 50 691 220 691 938 
C 691 1761 1274 2676 2195 2676 
L 1530 50 
z
" transform="scale(0.015625)"/>
     <path id="CMR17-3d" d="M 4115 2017 
C 4211 2017 4307 2017 4307 2125 
C 4307 2240 4198 2240 4090 2240 
L 512 2240 
C 403 2240 294 2240 294 2125 
C 294 2017 390 2017 486 2017 
L 4115 2017 
z
M 4090 896 
C 4198 896 4307 896 4307 1011 
C 4307 1119 4211 1119 4115 1119 
L 486 1119 
C 390 1119 294 1119 294 1011 
C 294 896 403 896 512 896 
L 4090 896 
z
" transform="scale(0.015625)"/>
    </defs>
    <use xlink:href="#CMR17-4c" transform="scale(0.996264)"/>
    <use xlink:href="#CMR17-46" transform="translate(57.381408 0) scale(0.996264)"/>
    <use xlink:href="#CMR17-43" transform="translate(114.762801 0) scale(0.996264)"/>
    <use xlink:href="#CMR17-31" transform="translate(211.348647 0) scale(0.996264)"/>
    <use xlink:href="#CMR17-3a" transform="translate(257.039125 0) scale(0.996264)"/>
    <use xlink:href="#CMR17-45" transform="translate(322.395843 0) scale(0.996264)"/>
    <use xlink:href="#CMR17-76" transform="translate(384.982144 0) scale(0.996264)"/>
    <use xlink:href="#CMR17-6f" transform="translate(430.672606 0) scale(0.996264)"/>
    <use xlink:href="#CMR17-72" transform="translate(476.363083 0) scale(0.996264)"/>
    <use xlink:href="#CMR17-61" transform="translate(511.643851 0) scale(0.996264)"/>
    <use xlink:href="#CMR17-28" transform="translate(587.410294 0) scale(0.996264)"/>
    <use xlink:href="#CMMI12-1e" transform="translate(622.691062 0) scale(0.996264)"/>
    <use xlink:href="#CMR17-3d" transform="translate(708.099251 0) scale(0.996264)"/>
    <use xlink:href="#CMR17-33" transform="translate(809.890006 0) scale(0.996264)"/>
    <use xlink:href="#CMR17-38" transform="translate(855.580483 0) scale(0.996264)"/>
    <use xlink:href="#CMR17-2e" transform="translate(901.27096 0) scale(0.996264)"/>
    <use xlink:href="#CMR17-35" transform="translate(926.142019 0) scale(0.996264)"/>
    <use xlink:href="#CMSY10-e" transform="translate(971.832496 36.153639) scale(0.697382)"/>
    <use xlink:href="#CMR17-29" transform="translate(1007.199838 0) scale(0.996264)"/>
   </g>
  </g>
 </g>
 <defs>
  <clipPath id="p6d71698437">
   <rect x="40.110577" y="56.328468" width="326.984711" height="148.528887"/>
  </clipPath>
  <clipPath id="p3431d705f6">
   <rect x="380.055289" y="56.328468" width="326.984711" height="148.528887"/>
  </clipPath>
  <clipPath id="p97154efdcf">
   <rect x="40.110577" y="234.278128" width="326.984711" height="148.528887"/>
  </clipPath>
  <clipPath id="p3e6cf59569">
   <rect x="380.055289" y="234.278128" width="326.984711" height="148.528887"/>
  </clipPath>
 </defs>
</svg>
